<svg id="efansc201yyq1" xmlns="http://www.w3.org/2000/svg" xmlns:xlink="http://www.w3.org/1999/xlink" viewBox="0 0 1920 1347.600000" shape-rendering="geometricPrecision" text-rendering="geometricPrecision"><defs><clipPath id="efansc201yyq2"><use id="efansc201yyq3" width="1398" height="439" xlink:href="#null"/></clipPath><linearGradient id="efansc201yyq141-stroke" x1="393.246900" y1="487.120300" x2="393.246900" y2="552.364500" spreadMethod="pad" gradientUnits="userSpaceOnUse"><stop id="efansc201yyq141-stroke-0" offset="0%" stop-color="rgb(50,154,214)"/><stop id="efansc201yyq141-stroke-1" offset="100%" stop-color="rgb(39,58,130)"/></linearGradient><linearGradient id="efansc201yyq143-stroke" x1="566.375300" y1="431.296700" x2="566.375300" y2="503.269700" spreadMethod="pad" gradientUnits="userSpaceOnUse"><stop id="efansc201yyq143-stroke-0" offset="0%" stop-color="rgb(50,154,214)"/><stop id="efansc201yyq143-stroke-1" offset="100%" stop-color="rgb(39,58,130)"/></linearGradient><linearGradient id="efansc201yyq144-stroke" x1="471.097500" y1="453.876500" x2="471.097500" y2="553.240100" spreadMethod="pad" gradientUnits="userSpaceOnUse"><stop id="efansc201yyq144-stroke-0" offset="0%" stop-color="rgb(50,154,214)"/><stop id="efansc201yyq144-stroke-1" offset="100%" stop-color="rgb(39,58,130)"/></linearGradient><linearGradient id="efansc201yyq145-stroke" x1="633.654300" y1="393.603900" x2="633.654300" y2="489.290900" spreadMethod="pad" gradientUnits="userSpaceOnUse"><stop id="efansc201yyq145-stroke-0" offset="0%" stop-color="rgb(50,154,214)"/><stop id="efansc201yyq145-stroke-1" offset="100%" stop-color="rgb(39,58,130)"/></linearGradient><linearGradient id="efansc201yyq146-stroke" x1="368.512500" y1="403.037800" x2="368.512500" y2="573.781100" spreadMethod="pad" gradientUnits="userSpaceOnUse"><stop id="efansc201yyq146-stroke-0" offset="0%" stop-color="rgb(50,154,214)"/><stop id="efansc201yyq146-stroke-1" offset="100%" stop-color="rgb(39,58,130)"/></linearGradient></defs><path id="efansc201yyq4" d="M1236,739.200000L1274.800000,725.400000" fill="none" stroke="rgb(255,255,255)" stroke-width="2" stroke-linecap="round" stroke-linejoin="round" stroke-miterlimit="10"/><g id="efansc201yyq5" transform="matrix(1 0 0 1 0 111)" opacity="0.147"><path id="efansc201yyq6" d="M1255.100000,1032.200000L1218.100000,984.200000" fill="none" stroke="rgb(37,59,128)" stroke-width="2" stroke-linecap="round" stroke-linejoin="round" stroke-miterlimit="10"/><path id="efansc201yyq7" d="M1381.100000,1063.200000L1398.100000,1045.200000" fill="none" stroke="rgb(37,59,128)" stroke-width="2" stroke-linecap="round" stroke-linejoin="round" stroke-miterlimit="10"/><path id="efansc201yyq8" d="M231.500000,1081C203.300000,1081.200000,185.800000,1033.900000,205.700000,1014.800000C211.300000,1009.400000,218.100000,1006.800000,217.600000,997.200000C217.200000,988.300000,209.600000,979.500000,207.400000,970.800000C199.800000,940.400000,236.500000,918.900000,260.400000,939.200000C270.600000,947.700000,274,961.900000,268.800000,974.200000C262.300000,989.200000,256.200000,1001.300000,269.100000,1015.300000C274.500000,1021.200000,278.300000,1023.500000,279.600000,1032.100000C280.900000,1040.700000,279.800000,1049.500000,276.300000,1057.500000C269.600000,1072.900000,259.200000,1077.200000,244,1082.300000" fill="none" stroke="rgb(37,59,128)" stroke-width="2" stroke-linecap="round" stroke-linejoin="round" stroke-miterlimit="10"/><path id="efansc201yyq9" d="M231.600000,1120.200000L231.600000,1018.200000" fill="none" stroke="rgb(37,59,128)" stroke-width="2" stroke-linecap="round" stroke-linejoin="round" stroke-miterlimit="10"/><path id="efansc201yyq10" d="M243.600000,1121.200000L243.600000,1016.200000" fill="none" stroke="rgb(37,59,128)" stroke-width="2" stroke-linecap="round" stroke-linejoin="round" stroke-miterlimit="10"/><path id="efansc201yyq11" d="M232.100000,1066.200000L205.100000,1031.200000" fill="none" stroke="rgb(37,59,128)" stroke-width="2" stroke-linecap="round" stroke-linejoin="round" stroke-miterlimit="10"/><path id="efansc201yyq12" d="M243.100000,1042.200000L260.100000,1024.200000" fill="none" stroke="rgb(37,59,128)" stroke-width="2" stroke-linecap="round" stroke-linejoin="round" stroke-miterlimit="10"/><path id="efansc201yyq13" d="M27.100000,1126C42.800000,1124,55.900000,1129.700000,68.300000,1139.200000C71.500000,1132.700000,74.600000,1124.600000,80,1119.600000C82.800000,1117.100000,85.900000,1115,89.200000,1113.200000" fill="none" stroke="rgb(37,59,128)" stroke-width="2" stroke-linecap="round" stroke-linejoin="round" stroke-miterlimit="10"/><path id="efansc201yyq14" d="M105.100000,1109.400000C115.700000,1105.500000,118,1105.100000,129,1107.300000C135.500000,1108.600000,146.600000,1121,150.300000,1114.900000C157.900000,1095.700000,190.900000,1072.300000,211,1091C217.600000,1097.200000,225.500000,1110.600000,226.400000,1113.600000C227.100000,1115.900000,228.100000,1118,229.200000,1120.100000" fill="none" stroke="rgb(37,59,128)" stroke-width="2" stroke-linecap="round" stroke-linejoin="round" stroke-miterlimit="10"/><path id="efansc201yyq15" d="M925.100000,1236.200000C942.200000,1163.800000,1020.800000,1095.500000,1079.600000,1170.700000C1105.200000,1114.100000,1172.400000,1121,1183.500000,1182.900000C1191.700000,1083.400000,1318.700000,1073.900000,1340.500000,1172.400000C1359.200000,1137.400000,1393.700000,1125.400000,1426.100000,1149.700000" fill="none" stroke="rgb(37,59,128)" stroke-width="2" stroke-linecap="round" stroke-linejoin="round" stroke-miterlimit="10"/><path id="efansc201yyq16" d="M29.100000,1192.800000C48.900000,1152.800000,93.500000,1135.600000,131.400000,1161L134.100000,1154.700000C134.100000,1154.700000,136.800000,1143.900000,153.100000,1130.900000C169.700000,1117.500000,185.500000,1114.200000,196.400000,1114.200000C207.300000,1114.200000,245.100000,1115.900000,267.100000,1141.800000C273.600000,1149.500000,277.900000,1172.700000,277.900000,1172.700000C293.900000,1150.700000,316.800000,1138.400000,344.500000,1140.100000C357.200000,1141.100000,369.300000,1145.700000,379.400000,1153.500000C387.700000,1160.200000,397.700000,1178.600000,398.500000,1181.900000C400.500000,1190,402.400000,1198.100000,404.300000,1206.100000C442.900000,1152.500000,516.300000,1172.100000,539.100000,1231.200000" fill="none" stroke="rgb(37,59,128)" stroke-width="2" stroke-linecap="round" stroke-linejoin="round" stroke-miterlimit="10"/><path id="efansc201yyq17" d="M717.100000,1025.200000L717.100000,987.200000L737.100000,987.200000L737.100000,1025.200000" fill="none" stroke="rgb(37,59,128)" stroke-width="2" stroke-linecap="round" stroke-linejoin="round" stroke-miterlimit="10"/><path id="efansc201yyq18" d="M1274.100000,1102.600000C1274.700000,1100.600000,1278.800000,1093.600000,1283.300000,1089.900000C1290,1084.400000,1298,1085.200000,1300.100000,1085.400000C1301.200000,1085.500000,1311.100000,1086.800000,1316.400000,1094.800000C1318.900000,1098.500000,1320.300000,1103,1320.200000,1107.500000C1320.100000,1110,1319.400000,1112,1320.200000,1112.400000C1321.400000,1113,1323.700000,1108.800000,1328.200000,1105.400000C1329.800000,1104.200000,1335.800000,1099.800000,1343.300000,1100.500000C1350.300000,1101.200000,1356.100000,1106.200000,1358.800000,1111.100000C1361.500000,1116.100000,1361,1120.700000,1362.600000,1120.900000C1364.100000,1121.100000,1368.500000,1122,1370.100000,1117.600000" fill="none" stroke="rgb(37,59,128)" stroke-width="2" stroke-linecap="round" stroke-linejoin="round" stroke-miterlimit="10"/><path id="efansc201yyq19" d="M1382.100000,1112.300000C1382.100000,1112.300000,1390.800000,1104.800000,1398,1102.700000C1405.200000,1100.600000,1412.300000,1100.800000,1417.300000,1103.700000C1422.300000,1106.600000,1426.100000,1116.200000,1426.100000,1116.200000" fill="none" stroke="rgb(37,59,128)" stroke-width="2" stroke-linecap="round" stroke-linejoin="round" stroke-miterlimit="10"/><path id="efansc201yyq20" d="M681,1028.200000L681,934.500000L788.200000,934.500000L726.900000,868.200000L665.200000,934.100000" fill="none" stroke="rgb(37,59,128)" stroke-width="2" stroke-linecap="round" stroke-linejoin="round" stroke-miterlimit="10"/><path id="efansc201yyq21" d="M393.100000,990.200000L404.100000,974.200000" fill="none" stroke="rgb(37,59,128)" stroke-width="2" stroke-linecap="round" stroke-linejoin="round" stroke-miterlimit="10"/><path id="efansc201yyq22" d="M385.100000,985.200000L379.100000,966.200000" fill="none" stroke="rgb(37,59,128)" stroke-width="2" stroke-linecap="round" stroke-linejoin="round" stroke-miterlimit="10"/><path id="efansc201yyq23" d="M86.700000,1093.500000C47.700000,1093.800000,23.400000,1027.400000,50.900000,1000.600000C58.600000,993.100000,68.100000,989.400000,67.400000,975.800000C66.800000,963.300000,56.300000,950.900000,53.200000,938.700000C42.700000,896,93.500000,865.800000,126.700000,894.300000C140.900000,906.400000,145.600000,926.200000,138.400000,943.400000C129.400000,964.400000,120.900000,981.400000,138.800000,1001.200000C146.300000,1009.500000,151.600000,1012.700000,153.400000,1024.700000C155.200000,1036.800000,153.700000,1049.100000,148.800000,1060.300000C139.500000,1081.900000,125.100000,1087.900000,104.100000,1095.100000" fill="none" stroke="rgb(37,59,128)" stroke-width="2" stroke-linecap="round" stroke-linejoin="round" stroke-miterlimit="10"/><path id="efansc201yyq24" d="M88.600000,1150.200000L88.600000,1005.200000" fill="none" stroke="rgb(37,59,128)" stroke-width="2" stroke-linecap="round" stroke-linejoin="round" stroke-miterlimit="10"/><path id="efansc201yyq25" d="M104.600000,1150.200000L104.600000,1005.200000" fill="none" stroke="rgb(37,59,128)" stroke-width="2" stroke-linecap="round" stroke-linejoin="round" stroke-miterlimit="10"/><path id="efansc201yyq26" d="M89.100000,1074.200000L52.100000,1026.200000" fill="none" stroke="rgb(37,59,128)" stroke-width="2" stroke-linecap="round" stroke-linejoin="round" stroke-miterlimit="10"/><path id="efansc201yyq27" d="M105.100000,1041.200000L129.100000,1016.200000" fill="none" stroke="rgb(37,59,128)" stroke-width="2" stroke-linecap="round" stroke-linejoin="round" stroke-miterlimit="10"/><path id="efansc201yyq28" d="M1253.700000,1051.500000C1214.700000,1051.800000,1190.400000,985.400000,1217.900000,958.600000C1225.600000,951.100000,1235.100000,947.400000,1234.400000,933.800000C1233.800000,921.300000,1223.300000,908.900000,1220.200000,896.700000C1209.700000,854,1260.500000,823.800000,1293.700000,852.300000C1307.900000,864.400000,1312.600000,884.200000,1305.400000,901.400000C1296.400000,922.400000,1287.900000,939.400000,1305.800000,959.200000C1313.300000,967.500000,1318.600000,970.700000,1320.400000,982.700000C1322.200000,994.800000,1320.700000,1007.100000,1315.800000,1018.300000C1306.500000,1039.900000,1292.100000,1045.900000,1271.100000,1053.200000" fill="none" stroke="rgb(37,59,128)" stroke-width="2" stroke-linecap="round" stroke-linejoin="round" stroke-miterlimit="10"/><path id="efansc201yyq29" d="M1255.600000,1102.200000L1255.600000,962.200000" fill="none" stroke="rgb(37,59,128)" stroke-width="2" stroke-linecap="round" stroke-linejoin="round" stroke-miterlimit="10"/><path id="efansc201yyq30" d="M1271.600000,1104.200000L1271.600000,961.200000" fill="none" stroke="rgb(37,59,128)" stroke-width="2" stroke-linecap="round" stroke-linejoin="round" stroke-miterlimit="10"/><path id="efansc201yyq31" d="M1271.100000,999.200000L1295.100000,974.200000" fill="none" stroke="rgb(37,59,128)" stroke-width="2" stroke-linecap="round" stroke-linejoin="round" stroke-miterlimit="10"/><path id="efansc201yyq32" d="M1369.500000,1099C1341.300000,1099.200000,1323.800000,1052.200000,1343.700000,1033.300000C1349.300000,1028,1356.100000,1025.400000,1355.600000,1015.800000C1355.100000,1007,1347.600000,998.200000,1345.400000,989.600000C1337.800000,959.400000,1374.500000,938,1398.400000,958.200000C1408.600000,966.600000,1412,980.800000,1406.800000,992.900000C1400.300000,1007.800000,1394.200000,1019.800000,1407.100000,1033.800000C1412.500000,1039.700000,1416.300000,1041.900000,1417.600000,1050.500000C1418.900000,1059,1417.800000,1067.800000,1414.300000,1075.700000C1407.600000,1091,1397.200000,1095.300000,1382,1100.400000" fill="none" stroke="rgb(37,59,128)" stroke-width="2" stroke-linecap="round" stroke-linejoin="round" stroke-miterlimit="10"/><path id="efansc201yyq33" d="M1370.600000,1145.200000L1370.600000,1038.200000" fill="none" stroke="rgb(37,59,128)" stroke-width="2" stroke-linecap="round" stroke-linejoin="round" stroke-miterlimit="10"/><path id="efansc201yyq34" d="M1381.600000,1137.200000L1381.600000,1036.200000" fill="none" stroke="rgb(37,59,128)" stroke-width="2" stroke-linecap="round" stroke-linejoin="round" stroke-miterlimit="10"/><path id="efansc201yyq35" d="M1370.100000,1084.200000L1344.100000,1050.200000" fill="none" stroke="rgb(37,59,128)" stroke-width="2" stroke-linecap="round" stroke-linejoin="round" stroke-miterlimit="10"/><path id="efansc201yyq36" d="M320.100000,1044.200000L306.100000,1037.200000" fill="none" stroke="rgb(37,59,128)" stroke-width="2" stroke-linecap="round" stroke-linejoin="round" stroke-miterlimit="10"/><path id="efansc201yyq37" d="M319.100000,1032.200000L305.100000,1025.200000" fill="none" stroke="rgb(37,59,128)" stroke-width="2" stroke-linecap="round" stroke-linejoin="round" stroke-miterlimit="10"/><path id="efansc201yyq38" d="M331.100000,1049.200000L339.100000,1038.200000" fill="none" stroke="rgb(37,59,128)" stroke-width="2" stroke-linecap="round" stroke-linejoin="round" stroke-miterlimit="10"/><path id="efansc201yyq39" d="M328.100000,1039.200000L336.100000,1028.200000" fill="none" stroke="rgb(37,59,128)" stroke-width="2" stroke-linecap="round" stroke-linejoin="round" stroke-miterlimit="10"/><path id="efansc201yyq40" d="M324.100000,1031.200000L332.100000,1020.200000" fill="none" stroke="rgb(37,59,128)" stroke-width="2" stroke-linecap="round" stroke-linejoin="round" stroke-miterlimit="10"/><path id="efansc201yyq41" d="M320.100000,1028.200000L315.100000,1014.200000" fill="none" stroke="rgb(37,59,128)" stroke-width="2" stroke-linecap="round" stroke-linejoin="round" stroke-miterlimit="10"/><path id="efansc201yyq42" d="M355.200000,1003.200000C359.600000,1021.400000,378,1032.600000,396.200000,1028.200000C396.300000,1028.200000,396.400000,1028.100000,396.500000,1028.100000C414.700000,1023.400000,425.700000,1004.600000,421.100000,986.200000C416.700000,968,398.300000,956.800000,380.100000,961.200000C380,961.200000,379.900000,961.300000,379.800000,961.300000C361.600000,966,350.600000,984.700000,355.200000,1003.200000Z" fill="none" stroke="rgb(37,59,128)" stroke-width="2" stroke-linecap="round" stroke-linejoin="round" stroke-miterlimit="10"/><path id="efansc201yyq43" d="M401.100000,1070.200000L391.100000,1028.200000" fill="none" stroke="rgb(37,59,128)" stroke-width="2" stroke-linecap="round" stroke-linejoin="round" stroke-miterlimit="10"/><path id="efansc201yyq44" d="M411.100000,1067.200000L401.100000,1025.200000" fill="none" stroke="rgb(37,59,128)" stroke-width="2" stroke-linecap="round" stroke-linejoin="round" stroke-miterlimit="10"/><path id="efansc201yyq45" d="M388.100000,1019.200000L370.100000,1011.200000" fill="none" stroke="rgb(37,59,128)" stroke-width="2" stroke-linecap="round" stroke-linejoin="round" stroke-miterlimit="10"/><path id="efansc201yyq46" d="M385.100000,1006.200000L367.100000,998.200000" fill="none" stroke="rgb(37,59,128)" stroke-width="2" stroke-linecap="round" stroke-linejoin="round" stroke-miterlimit="10"/><path id="efansc201yyq47" d="M385.100000,992.200000L367.100000,984.200000" fill="none" stroke="rgb(37,59,128)" stroke-width="2" stroke-linecap="round" stroke-linejoin="round" stroke-miterlimit="10"/><path id="efansc201yyq48" d="M400.100000,1015.200000L411.100000,999.200000" fill="none" stroke="rgb(37,59,128)" stroke-width="2" stroke-linecap="round" stroke-linejoin="round" stroke-miterlimit="10"/><path id="efansc201yyq49" d="M396.100000,1001.200000L407.100000,985.200000" fill="none" stroke="rgb(37,59,128)" stroke-width="2" stroke-linecap="round" stroke-linejoin="round" stroke-miterlimit="10"/><path id="efansc201yyq50" d="M1068.100000,985.200000L1074.100000,966.200000" fill="none" stroke="rgb(37,59,128)" stroke-width="2" stroke-linecap="round" stroke-linejoin="round" stroke-miterlimit="10"/><path id="efansc201yyq51" d="M1156.400000,1042C1153.200000,1055.400000,1139.800000,1063.700000,1126.300000,1060.500000C1126.200000,1060.500000,1126.100000,1060.400000,1126,1060.400000C1112.500000,1056.700000,1104.500000,1042.900000,1107.900000,1029.400000C1111.100000,1016,1124.500000,1007.700000,1138,1010.900000C1138.100000,1010.900000,1138.200000,1011,1138.300000,1011C1151.800000,1014.600000,1159.800000,1028.400000,1156.400000,1042Z" fill="none" stroke="rgb(37,59,128)" stroke-width="2" stroke-linecap="round" stroke-linejoin="round" stroke-miterlimit="10"/><path id="efansc201yyq52" d="M1122.100000,1091.200000L1130.100000,1059.200000" fill="none" stroke="rgb(37,59,128)" stroke-width="2" stroke-linecap="round" stroke-linejoin="round" stroke-miterlimit="10"/><path id="efansc201yyq53" d="M1114.100000,1089.200000L1122.100000,1057.200000" fill="none" stroke="rgb(37,59,128)" stroke-width="2" stroke-linecap="round" stroke-linejoin="round" stroke-miterlimit="10"/><path id="efansc201yyq54" d="M1131.100000,1053.200000L1145.100000,1046.200000" fill="none" stroke="rgb(37,59,128)" stroke-width="2" stroke-linecap="round" stroke-linejoin="round" stroke-miterlimit="10"/><path id="efansc201yyq55" d="M1133.100000,1044.200000L1147.100000,1037.200000" fill="none" stroke="rgb(37,59,128)" stroke-width="2" stroke-linecap="round" stroke-linejoin="round" stroke-miterlimit="10"/><path id="efansc201yyq56" d="M1134.100000,1032.200000L1148.100000,1025.200000" fill="none" stroke="rgb(37,59,128)" stroke-width="2" stroke-linecap="round" stroke-linejoin="round" stroke-miterlimit="10"/><path id="efansc201yyq57" d="M1123.100000,1049.200000L1115.100000,1038.200000" fill="none" stroke="rgb(37,59,128)" stroke-width="2" stroke-linecap="round" stroke-linejoin="round" stroke-miterlimit="10"/><path id="efansc201yyq58" d="M1126.100000,1039.200000L1118.100000,1028.200000" fill="none" stroke="rgb(37,59,128)" stroke-width="2" stroke-linecap="round" stroke-linejoin="round" stroke-miterlimit="10"/><path id="efansc201yyq59" d="M1129.100000,1031.200000L1121.100000,1020.200000" fill="none" stroke="rgb(37,59,128)" stroke-width="2" stroke-linecap="round" stroke-linejoin="round" stroke-miterlimit="10"/><path id="efansc201yyq60" d="M1132.100000,1028.200000L1137.100000,1014.200000" fill="none" stroke="rgb(37,59,128)" stroke-width="2" stroke-linecap="round" stroke-linejoin="round" stroke-miterlimit="10"/><path id="efansc201yyq61" d="M296.900000,1042C300.100000,1055.400000,313.500000,1063.700000,327,1060.500000C327.100000,1060.500000,327.200000,1060.400000,327.300000,1060.400000C340.800000,1056.700000,348.800000,1042.900000,345.400000,1029.400000C342.200000,1016,328.800000,1007.700000,315.300000,1010.900000C315.200000,1010.900000,315.100000,1011,315,1011C301.500000,1014.600000,293.400000,1028.400000,296.900000,1042Z" fill="none" stroke="rgb(37,59,128)" stroke-width="2" stroke-linecap="round" stroke-linejoin="round" stroke-miterlimit="10"/><path id="efansc201yyq62" d="M331.100000,1091.200000L323.100000,1059.200000" fill="none" stroke="rgb(37,59,128)" stroke-width="2" stroke-linecap="round" stroke-linejoin="round" stroke-miterlimit="10"/><path id="efansc201yyq63" d="M339.100000,1089.200000L331.100000,1057.200000" fill="none" stroke="rgb(37,59,128)" stroke-width="2" stroke-linecap="round" stroke-linejoin="round" stroke-miterlimit="10"/><path id="efansc201yyq64" d="M322.100000,1053.200000L308.100000,1046.200000" fill="none" stroke="rgb(37,59,128)" stroke-width="2" stroke-linecap="round" stroke-linejoin="round" stroke-miterlimit="10"/><path id="efansc201yyq65" d="M872.100000,986.800000L887.700000,988.200000L889.100000,972.600000L873.500000,971.200000L872.100000,986.800000Z" fill="none" stroke="rgb(37,59,128)" stroke-width="2" stroke-linecap="round" stroke-linejoin="round" stroke-miterlimit="10"/><path id="efansc201yyq66" d="M836.100000,984.800000L851.700000,986.200000L853.100000,970.600000L837.500000,969.200000L836.100000,984.800000Z" fill="none" stroke="rgb(37,59,128)" stroke-width="2" stroke-linecap="round" stroke-linejoin="round" stroke-miterlimit="10"/><path id="efansc201yyq67" d="M240.100000,1124.200000C337,1083.500000,506.600000,1024.200000,724.300000,1024.200000C940.100000,1024.200000,1113.400000,1082.600000,1210.100000,1123" fill="none" stroke="rgb(37,59,128)" stroke-width="2" stroke-linecap="round" stroke-linejoin="round" stroke-miterlimit="10"/><path id="efansc201yyq68" d="M988,906.500000C1002.300000,906.500000,1016.900000,907.300000,1031.200000,906.100000C1044.700000,905,1051.900000,901.500000,1052.100000,885.900000C1052.300000,872.600000,1043.400000,867.200000,1031.300000,868.700000C1033.500000,858.800000,1037.200000,848,1033.400000,838.100000C1028.800000,826.200000,1016.100000,820.400000,1003.800000,820.200000C981,819.800000,962.900000,844.100000,976.900000,858.600000C969.400000,848.600000,960.800000,828.100000,938.500000,842.200000C928.900000,848.300000,920.800000,863.400000,934.800000,874.100000C926.400000,873.900000,915,880.300000,915.100000,889.800000C915.300000,902.100000,931.500000,905.600000,940.900000,906.500000C956.400000,908,972.500000,906.600000,988,906.500000Z" fill="none" stroke="rgb(37,59,128)" stroke-width="2" stroke-linecap="round" stroke-linejoin="round" stroke-miterlimit="10"/><path id="efansc201yyq69" d="M1129.700000,947.600000C1141.200000,947.600000,1152.900000,948.300000,1164.400000,947.300000C1175.200000,946.400000,1181,943.600000,1181.200000,931.100000C1181.300000,920.400000,1174.200000,916,1164.500000,917.300000C1166.300000,909.400000,1169.200000,900.700000,1166.200000,892.600000C1162.500000,883,1152.300000,878.400000,1142.400000,878.200000C1124.100000,877.900000,1109.600000,897.400000,1120.800000,909.100000C1114.800000,901,1107.900000,884.600000,1090,895.900000C1082.300000,900.800000,1075.800000,913,1087,921.600000C1080.300000,921.500000,1071.100000,926.600000,1071.200000,934.300000C1071.400000,944.200000,1084.300000,947,1091.900000,947.700000C1104.300000,948.800000,1117.200000,947.700000,1129.700000,947.600000Z" fill="none" stroke="rgb(37,59,128)" stroke-width="2" stroke-linecap="round" stroke-linejoin="round" stroke-miterlimit="10"/><path id="efansc201yyq70" d="M1099.100000,1003.200000C1094.700000,1021.400000,1076.300000,1032.600000,1058.100000,1028.200000C1058,1028.200000,1057.900000,1028.100000,1057.800000,1028.100000C1039.600000,1023.400000,1028.600000,1004.600000,1033.200000,986.200000C1037.600000,968,1056,956.800000,1074.200000,961.200000C1074.300000,961.200000,1074.400000,961.300000,1074.500000,961.300000C1092.700000,966,1103.700000,984.700000,1099.100000,1003.200000Z" fill="none" stroke="rgb(37,59,128)" stroke-width="2" stroke-linecap="round" stroke-linejoin="round" stroke-miterlimit="10"/><path id="efansc201yyq71" d="M1052.100000,1070.200000L1062.100000,1028.200000" fill="none" stroke="rgb(37,59,128)" stroke-width="2" stroke-linecap="round" stroke-linejoin="round" stroke-miterlimit="10"/><path id="efansc201yyq72" d="M1043.100000,1067.200000L1053.100000,1025.200000" fill="none" stroke="rgb(37,59,128)" stroke-width="2" stroke-linecap="round" stroke-linejoin="round" stroke-miterlimit="10"/><path id="efansc201yyq73" d="M1066.100000,1019.200000L1084.100000,1011.200000" fill="none" stroke="rgb(37,59,128)" stroke-width="2" stroke-linecap="round" stroke-linejoin="round" stroke-miterlimit="10"/><path id="efansc201yyq74" d="M1068.100000,1006.200000L1086.100000,998.200000" fill="none" stroke="rgb(37,59,128)" stroke-width="2" stroke-linecap="round" stroke-linejoin="round" stroke-miterlimit="10"/><path id="efansc201yyq75" d="M1069.100000,992.200000L1087.100000,984.200000" fill="none" stroke="rgb(37,59,128)" stroke-width="2" stroke-linecap="round" stroke-linejoin="round" stroke-miterlimit="10"/><path id="efansc201yyq76" d="M1054.100000,1015.200000L1043.100000,999.200000" fill="none" stroke="rgb(37,59,128)" stroke-width="2" stroke-linecap="round" stroke-linejoin="round" stroke-miterlimit="10"/><path id="efansc201yyq77" d="M1057.100000,1001.200000L1046.100000,985.200000" fill="none" stroke="rgb(37,59,128)" stroke-width="2" stroke-linecap="round" stroke-linejoin="round" stroke-miterlimit="10"/><path id="efansc201yyq78" d="M1061.100000,990.200000L1050.100000,974.200000" fill="none" stroke="rgb(37,59,128)" stroke-width="2" stroke-linecap="round" stroke-linejoin="round" stroke-miterlimit="10"/><path id="efansc201yyq79" d="M617.100000,984.800000L601.500000,986.200000L600.100000,970.600000L615.700000,969.200000L617.100000,984.800000Z" fill="none" stroke="rgb(37,59,128)" stroke-width="2" stroke-linecap="round" stroke-linejoin="round" stroke-miterlimit="10"/><path id="efansc201yyq80" d="M466.300000,1051.200000L457.300000,991.800000L525.200000,981.200000L480,945.200000L447.200000,993.100000" fill="none" stroke="rgb(37,59,128)" stroke-width="2" stroke-linecap="round" stroke-linejoin="round" stroke-miterlimit="10"/><path id="efansc201yyq81" d="M488,1048.200000L484.200000,1023.200000L497.400000,1021.200000L501.200000,1046.200000" fill="none" stroke="rgb(37,59,128)" stroke-width="2" stroke-linecap="round" stroke-linejoin="round" stroke-miterlimit="10"/><path id="efansc201yyq82" d="M523.100000,1043.200000L515.100000,984.200000" fill="none" stroke="rgb(37,59,128)" stroke-width="2" stroke-linecap="round" stroke-linejoin="round" stroke-miterlimit="10"/><path id="efansc201yyq83" d="M481.100000,1011.200000L468.100000,1013.200000L466.100000,1000.200000L479.100000,998.200000L481.100000,1011.200000Z" fill="none" stroke="rgb(37,59,128)" stroke-width="2" stroke-linecap="round" stroke-linejoin="round" stroke-miterlimit="10"/><path id="efansc201yyq84" d="M510.100000,1008.200000L497.100000,1010.200000L495.100000,997.200000L508.100000,995.200000L510.100000,1008.200000Z" fill="none" stroke="rgb(37,59,128)" stroke-width="2" stroke-linecap="round" stroke-linejoin="round" stroke-miterlimit="10"/><path id="efansc201yyq85" d="M986,1051.200000L995,991.800000L927.100000,981.200000L972.300000,945.200000L1005.100000,993.100000" fill="none" stroke="rgb(37,59,128)" stroke-width="2" stroke-linecap="round" stroke-linejoin="round" stroke-miterlimit="10"/><path id="efansc201yyq86" d="M964.300000,1048.200000L968.100000,1023.200000L954.900000,1021.200000L951.100000,1046.200000" fill="none" stroke="rgb(37,59,128)" stroke-width="2" stroke-linecap="round" stroke-linejoin="round" stroke-miterlimit="10"/><path id="efansc201yyq87" d="M929.100000,1043.200000L937.100000,984.200000" fill="none" stroke="rgb(37,59,128)" stroke-width="2" stroke-linecap="round" stroke-linejoin="round" stroke-miterlimit="10"/><path id="efansc201yyq88" d="M971.100000,1011.200000L984.100000,1013.200000L986.100000,1000.200000L973.100000,998.200000L971.100000,1011.200000Z" fill="none" stroke="rgb(37,59,128)" stroke-width="2" stroke-linecap="round" stroke-linejoin="round" stroke-miterlimit="10"/><path id="efansc201yyq89" d="M942.100000,1008.200000L955.100000,1010.200000L957.100000,997.200000L944.100000,995.200000L942.100000,1008.200000Z" fill="none" stroke="rgb(37,59,128)" stroke-width="2" stroke-linecap="round" stroke-linejoin="round" stroke-miterlimit="10"/><path id="efansc201yyq90" d="M894.400000,1034.200000L900.800000,961.700000L817.200000,954.300000L869.500000,907.200000L913.200000,962.400000" fill="none" stroke="rgb(37,59,128)" stroke-width="2" stroke-linecap="round" stroke-linejoin="round" stroke-miterlimit="10"/><path id="efansc201yyq91" d="M867.400000,1031.200000L870.100000,999.700000L853.800000,998.200000L851.100000,1029.700000" fill="none" stroke="rgb(37,59,128)" stroke-width="2" stroke-linecap="round" stroke-linejoin="round" stroke-miterlimit="10"/><path id="efansc201yyq92" d="M820.100000,1028.200000L827.100000,956.200000" fill="none" stroke="rgb(37,59,128)" stroke-width="2" stroke-linecap="round" stroke-linejoin="round" stroke-miterlimit="10"/><path id="efansc201yyq93" d="M773.600000,1028.200000L773.600000,936.200000" fill="none" stroke="rgb(37,59,128)" stroke-width="2" stroke-linecap="round" stroke-linejoin="round" stroke-miterlimit="10"/><path id="efansc201yyq94" d="M26.100000,1236.200000L1424.100000,1236.200000L1424.100000,797.200000L26.100000,797.200000L26.100000,1236.200000Z" fill="none" stroke="none" stroke-width="1"/><g id="efansc201yyq95"><g id="efansc201yyq96" clip-path="url(#efansc201yyq2)"><path id="efansc201yyq97" d="M696.100000,970.200000L715.100000,970.200000L715.100000,950.200000L696.100000,950.200000L696.100000,970.200000Z" fill="none" stroke="rgb(37,59,128)" stroke-width="2" stroke-linecap="round" stroke-linejoin="round" stroke-miterlimit="10"/><path id="efansc201yyq98" d="M740.100000,970.200000L759.100000,970.200000L759.100000,950.200000L740.100000,950.200000L740.100000,970.200000Z" fill="none" stroke="rgb(37,59,128)" stroke-width="2" stroke-linecap="round" stroke-linejoin="round" stroke-miterlimit="10"/><path id="efansc201yyq99" d="M558.900000,1034.200000L552.500000,961.700000L636.100000,954.300000L583.800000,907.200000L540.100000,962.400000" fill="none" stroke="rgb(37,59,128)" stroke-width="2" stroke-linecap="round" stroke-linejoin="round" stroke-miterlimit="10"/><path id="efansc201yyq100" d="M585.800000,1031.200000L583.100000,999.700000L599.400000,998.200000L602.100000,1029.700000" fill="none" stroke="rgb(37,59,128)" stroke-width="2" stroke-linecap="round" stroke-linejoin="round" stroke-miterlimit="10"/><path id="efansc201yyq101" d="M632.100000,1028.200000L625.100000,956.200000" fill="none" stroke="rgb(37,59,128)" stroke-width="2" stroke-linecap="round" stroke-linejoin="round" stroke-miterlimit="10"/><path id="efansc201yyq102" d="M581.100000,986.800000L565.500000,988.200000L564.100000,972.600000L579.700000,971.200000L581.100000,986.800000Z" fill="none" stroke="rgb(37,59,128)" stroke-width="2" stroke-linecap="round" stroke-linejoin="round" stroke-miterlimit="10"/></g></g></g><g id="efansc201yyq103" transform="matrix(1 0 0 1 1420 0)" opacity="0.147"><path id="efansc201yyq104" d="M304.800000,1295.200000L281.700000,1295.200000L281.700000,1282.500000L296.200000,1262.300000L304.800000,1295.200000ZM272.600000,1295.200000L237.200000,1295.200000L237.200000,1207.100000L255.800000,1207.100000C249.700000,1206.700000,245,1201.600000,245,1195.500000C245,1189.300000,250,1184.200000,256.200000,1184.200000C256.300000,1184.200000,256.400000,1184.200000,256.500000,1184.200000C259.600000,1184.200000,262.500000,1185.600000,264.600000,1187.900000L281.300000,1207.100000L255.900000,1207.100000C256.100000,1207.100000,256.200000,1207.100000,256.400000,1207.100000L281.300000,1207.100000L281.300000,1207.100000L281.800000,1207.100000L281.800000,1207.800000L281.600000,1208L281.800000,1207.800000L281.800000,1229.400000L237.300000,1251.700000L281.800000,1251.700000L281.800000,1282.600000L272.600000,1295.200000L272.600000,1295.200000ZM296.200000,1262.300000L296.200000,1262.300000L293.400000,1251.600000L281.700000,1251.600000L281.700000,1229.300000L286.900000,1226.700000L282.100000,1208.400000L281.900000,1207.500000L281.800000,1207L282.400000,1207L282.400000,1207L307.400000,1207C307.700000,1207,307.900000,1207,308.200000,1207L326.300000,1207L295.500000,1222.400000L287,1226.600000L293.500000,1251.500000L304,1251.500000L296.200000,1262.300000L296.200000,1262.300000ZM308,1207.100000L282.200000,1207.100000L298.800000,1187.900000C300.800000,1185.600000,303.800000,1184.200000,306.900000,1184.200000C307,1184.200000,307.100000,1184.200000,307.200000,1184.200000C313.500000,1184.200000,318.500000,1189.300000,318.500000,1195.500000C318.500000,1195.500000,318.500000,1195.500000,318.500000,1195.500000C318.600000,1201.500000,314,1206.500000,308,1207.100000Z" fill="none" stroke="rgb(37,59,128)" stroke-width="2" stroke-linecap="round" stroke-linejoin="round" stroke-miterlimit="10"/><path id="efansc201yyq105" d="M498.100000,1295.100000L453.700000,1295.100000L453.700000,1207.800000L454.200000,1207.800000L454.200000,1207.800000L479.200000,1207.800000C479.500000,1207.800000,479.900000,1207.800000,480.200000,1207.700000L454.200000,1207.700000L470.900000,1188.700000C472.900000,1186.400000,475.900000,1185,479,1185C479.100000,1185,479.200000,1185,479.300000,1185C482.300000,1185,485.200000,1186.200000,487.300000,1188.300000C489.400000,1190.400000,490.600000,1193.300000,490.600000,1196.200000C490.600000,1199,489.600000,1201.800000,487.600000,1203.900000C485.700000,1206,483.100000,1207.300000,480.200000,1207.600000L498.100000,1207.600000L498.100000,1295.100000L498.100000,1295.100000ZM453.300000,1207.900000L453.300000,1207.900000L428.200000,1207.900000C425.200000,1207.800000,422.300000,1206.600000,420.200000,1204.500000C418.100000,1202.400000,416.900000,1199.500000,416.900000,1196.500000C416.900000,1193.500000,418.100000,1190.700000,420.200000,1188.600000C422.300000,1186.500000,425.200000,1185.300000,428.200000,1185.300000L428.200000,1185.300000C428.300000,1185.300000,428.400000,1185.300000,428.500000,1185.300000C431.600000,1185.300000,434.500000,1186.600000,436.600000,1189L453.300000,1207.900000L453.300000,1207.900000Z" fill="none" stroke="rgb(37,59,128)" stroke-width="2" stroke-linecap="round" stroke-linejoin="round" stroke-miterlimit="10"/><path id="efansc201yyq106" d="M421.100000,1347.200000L367.300000,1347.200000L367.300000,1336.200000L356.100000,1347.200000L313.100000,1347.200000L313.100000,1240.100000L336.200000,1240.100000C328.500000,1239.900000,322.400000,1233.700000,322.500000,1226C322.500000,1218.400000,328.700000,1212.300000,336.200000,1212.300000C336.300000,1212.300000,336.500000,1212.300000,336.600000,1212.300000C340.300000,1212.300000,343.900000,1213.900000,346.300000,1216.800000L366.500000,1240.200000L367.200000,1240.200000L366.600000,1240.800000L313,1294.400000L367.200000,1294.400000L367.200000,1336.400000L410,1294.400000L367.200000,1294.400000L367.200000,1240.200000L421,1240.200000L421,1347.200000ZM398.200000,1240.100000L367.800000,1240.100000L388,1216.700000C390.500000,1213.900000,394,1212.200000,397.800000,1212.200000C397.900000,1212.200000,398,1212.200000,398.100000,1212.200000L398.100000,1212.200000C405.700000,1212.200000,411.800000,1218.400000,411.800000,1225.900000C412,1233.600000,405.900000,1239.900000,398.200000,1240.100000Z" fill="none" stroke="rgb(37,59,128)" stroke-width="2" stroke-linecap="round" stroke-linejoin="round" stroke-miterlimit="10"/><path id="efansc201yyq107" d="M394.300000,1200L394.300000,1200L392.200000,1169.300000L392.600000,1169.300000L371.700000,797.300000L371.700000,797.200000L371.700000,797.300000C372.100000,800.300000,374,816.300000,377.400000,834.800000C382,859.900000,386.900000,877.500000,392.100000,887.100000C397.700000,897.500000,406.400000,905,412.700000,909.500000C416.600000,912.300000,420.800000,914.800000,425.200000,916.800000C425.200000,916.800000,425.200000,916.800000,425.200000,916.800000C422.200000,918.200000,419.100000,919.300000,416,920.400000C411,922,403.600000,924,396.600000,924L396.600000,924C394.700000,924,392.800000,923.800000,390.900000,923.500000C394.100000,932.500000,399.900000,940.300000,407.500000,946.100000C414,950.600000,421,954.200000,428.500000,956.900000C432,958.200000,435.600000,959.400000,439.200000,960.400000L439.200000,960.400000C437.100000,962.400000,434.600000,964,432,965.300000C428.900000,966.900000,425.700000,968.100000,422.300000,969.100000C417.600000,970.400000,412.800000,971.300000,407.900000,971.800000C413.900000,982.500000,423.100000,997.400000,433.100000,1004.200000C442.400000,1010.100000,452.900000,1014.100000,463.800000,1015.700000L463.800000,1015.700000C459.100000,1018.800000,454.200000,1021.500000,449.100000,1023.800000C443.900000,1026.100000,438.600000,1028,433.100000,1029.300000C426.700000,1030.900000,420.100000,1031.800000,413.500000,1031.800000C415,1034.900000,416.800000,1037.900000,418.900000,1040.700000C424.200000,1047.800000,430.500000,1054.100000,437.600000,1059.300000C445.600000,1065.200000,454.400000,1070.200000,463.600000,1074C467.100000,1075.500000,470.800000,1076.600000,474.500000,1077.500000L474.500000,1077.500000C470.300000,1079.800000,465.900000,1081.800000,461.400000,1083.600000C456.500000,1085.600000,451.300000,1087.300000,445.900000,1088.900000C439.100000,1090.900000,432.300000,1092.400000,425.300000,1093.600000L425.600000,1094.100000C433.300000,1107.500000,439.900000,1119.100000,459.700000,1133.100000C467.200000,1138.400000,476.300000,1142.100000,482.700000,1144.300000C486.700000,1145.700000,490.800000,1146.900000,494.900000,1147.900000C494.900000,1147.900000,494.900000,1147.900000,494.900000,1147.900000C493.300000,1149.100000,491.600000,1150.200000,489.900000,1151.200000C485,1154.100000,479.900000,1156.500000,474.700000,1158.600000C466.400000,1161.800000,457.800000,1164.300000,449,1166C437,1168.300000,424.800000,1169.400000,412.600000,1169.400000L392.400000,1169.400000L394.300000,1200L394.300000,1200ZM356.100000,1169.400000L341.300000,1169.400000C328.500000,1169.400000,315.800000,1168.300000,303.200000,1166C293.200000,1164.200000,283.400000,1161.800000,273.800000,1158.600000C267.400000,1156.500000,261.100000,1154.100000,254.900000,1151.300000C250.500000,1149.300000,248.100000,1147.900000,248.100000,1147.900000C252.200000,1146.900000,256.300000,1145.700000,260.300000,1144.300000C266.700000,1142.100000,275.900000,1138.400000,283.300000,1133.100000C303.200000,1119,309.800000,1107.300000,317.500000,1093.800000L317.600000,1093.600000C310.700000,1092.400000,303.800000,1090.800000,297,1088.900000C291.600000,1087.300000,286.400000,1085.600000,281.500000,1083.600000C277,1081.900000,272.600000,1079.800000,268.400000,1077.500000C272.100000,1076.600000,275.700000,1075.400000,279.300000,1074C288.600000,1070.200000,297.300000,1065.300000,305.300000,1059.400000C312.500000,1054.200000,318.800000,1047.900000,324,1040.800000C326.100000,1038,327.900000,1035,329.400000,1031.900000L329.300000,1031.900000C322.700000,1031.900000,316.100000,1031,309.700000,1029.400000C304.200000,1028,298.900000,1026.200000,293.700000,1023.900000C288.600000,1021.700000,283.600000,1019,279,1015.900000C289.900000,1014.200000,300.400000,1010.300000,309.700000,1004.400000C320.900000,996.800000,331.400000,978.100000,334.900000,972C330,971.600000,325.200000,970.700000,320.500000,969.300000C317.200000,968.300000,313.900000,967.100000,310.800000,965.500000C308.200000,964.300000,305.700000,962.600000,303.600000,960.600000C307.200000,959.600000,310.800000,958.500000,314.300000,957.100000C321.700000,954.400000,328.800000,950.800000,335.300000,946.300000C343,940.500000,348.800000,932.600000,352,923.600000C350.100000,923.900000,348.200000,924.100000,346.300000,924.100000C339.300000,924.100000,331.900000,922.200000,326.900000,920.500000C323.800000,919.500000,320.700000,918.300000,317.700000,916.900000C322.100000,914.900000,326.300000,912.400000,330.200000,909.600000C336.500000,905.100000,345.200000,897.600000,350.800000,887.200000C356,877.600000,361,859.900000,365.600000,834.800000C369.100000,815.700000,371.100000,799.200000,371.300000,797.300000L371.300000,797.400000L356.100000,1169.400000Z" fill="none" stroke="rgb(37,59,128)" stroke-width="2" stroke-linecap="round" stroke-linejoin="round" stroke-miterlimit="10"/><path id="efansc201yyq108" d="M166,1331.200000C163.400000,1331.200000,161,1330,159.500000,1327.900000L105.400000,1260.500000C105.800000,1264.200000,105.400000,1267.900000,104,1271.400000C103,1273.700000,101.500000,1275.800000,99.500000,1277.400000C97.500000,1279,95.100000,1280,92.500000,1280.400000L79.500000,1282.500000L38.800000,1288.600000C37.600000,1288.900000,36.400000,1289.100000,35.100000,1289.100000C33,1289.200000,30.900000,1288.500000,29.100000,1287.200000C27.700000,1286.100000,26.600000,1284.500000,26.300000,1282.700000C25.900000,1280.900000,26.200000,1279.100000,27,1277.500000C28.100000,1275.600000,29.700000,1274.100000,31.700000,1273.300000L75.500000,1262.600000C77.300000,1261.500000,78.200000,1259.400000,77.800000,1257.300000L63.200000,1257.300000C68.300000,1251.800000,72.900000,1245.800000,76.900000,1239.500000C83.200000,1229.700000,90.700000,1214.900000,90.800000,1199.900000C90.800000,1199.700000,90.800000,1199.500000,90.800000,1199.300000C82.900000,1206.300000,61,1224.700000,60.100000,1225.500000L60.100000,1225.500000C56.900000,1228.300000,52.100000,1228.100000,49.300000,1224.900000C46.700000,1222,46.700000,1217.600000,49.300000,1214.700000L51.400000,1212.300000C56.600000,1207,91.900000,1175.500000,98.800000,1171.200000C102.300000,1169,106.400000,1167.900000,110.500000,1167.900000C114.600000,1168,118.700000,1168.800000,122.600000,1170.300000C126.700000,1171.800000,130.300000,1174.400000,133.100000,1177.900000C135.800000,1181.200000,138.100000,1185,139.800000,1188.900000C142.500000,1195,147.900000,1205.300000,148,1205.400000L172.700000,1205.400000C176.800000,1205.400000,180.200000,1208.700000,180.200000,1212.900000C180.200000,1217,176.900000,1220.400000,172.700000,1220.400000C172.700000,1220.400000,172.700000,1220.400000,172.700000,1220.400000L137.800000,1220.400000C137.700000,1220.200000,128.100000,1199,126.300000,1197.100000L133.600000,1239.100000C130.500000,1229.500000,128.400000,1219.700000,127.200000,1209.800000C126.700000,1205.800000,126.400000,1201.700000,126.300000,1197.700000L86.700000,1257.800000C92.500000,1257.900000,98.200000,1258.500000,103.900000,1259.600000C115.800000,1261.800000,127.400000,1265,138.800000,1269L133.600000,1239.100000C137.400000,1251.100000,142.900000,1262.600000,149.900000,1273.100000C146.200000,1271.700000,142.500000,1270.300000,138.900000,1269L138.900000,1269.300000L172.100000,1318C175,1321.300000,174.700000,1326.400000,171.300000,1329.300000C170.100000,1330.300000,168.700000,1331,167.100000,1331.200000C166.700000,1331.200000,166.400000,1331.200000,166,1331.200000ZM121.700000,1163.400000L121.700000,1163.400000C113.100000,1163.400000,106.100000,1156.400000,106.100000,1147.800000C106.100000,1139.200000,113.100000,1132.200000,121.700000,1132.200000C121.700000,1132.200000,121.700000,1132.200000,121.700000,1132.200000L121.700000,1132.200000C130.300000,1132.200000,137.300000,1139.200000,137.300000,1147.800000C137.200000,1156.400000,130.300000,1163.400000,121.700000,1163.400000C121.700000,1163.400000,121.700000,1163.400000,121.700000,1163.400000Z" fill="none" stroke="rgb(37,59,128)" stroke-width="2" stroke-linecap="round" stroke-linejoin="round" stroke-miterlimit="10"/></g><path id="efansc201yyq109" d="M246.100000,310.400000C245.400000,308,245,305.500000,245,303C245,288.800000,256.500000,277.300000,270.700000,277.300000C284.900000,277.300000,296.400000,288.800000,296.400000,303" fill="none" stroke="rgb(45,153,213)" stroke-width="2" stroke-miterlimit="10" stroke-dashoffset="88.260000" stroke-dasharray="88.260000"/><path id="efansc201yyq110" d="M230.400000,317.400000C234.700000,314.800000,239.400000,312.800000,244.200000,311.400000C244.800000,311.200000,245.400000,311.100000,246,310.900000C246,310.900000,254,309.100000,259.700000,309.200000C271,309.200000,282,312.600000,291.400000,318.900000C300.500000,325,307.700000,333.700000,312,343.800000C317.500000,356.900000,317.900000,371.600000,313.200000,384.900000C322.300000,386.100000,330.600000,390.500000,336.700000,397.400000C350.500000,413,349.100000,436.900000,333.500000,450.700000C326.600000,456.800000,317.700000,460.200000,308.400000,460.200000L268,460.200000L265.900000,460.100000C265.900000,460.100000,208.900000,454.300000,208.900000,486.500000L208.900000,516.900000L265.500000,516.900000L265.500000,516.700000L265.500000,458.900000L265.600000,457.500000L265.600000,443.500000C265.600000,439.700000,264.800000,436,263.400000,432.600000C262,429.300000,259.900000,426.200000,257.300000,423.700000C256.100000,422.500000,254.800000,421.400000,253.400000,420.400000C233.200000,409.700000,217.400000,423.600000,217.400000,423.600000C212.100000,428.900000,209.100000,436,209.100000,443.500000" fill="none" stroke="rgb(45,153,213)" stroke-width="2" stroke-miterlimit="10" stroke-dashoffset="-614.140000" stroke-dasharray="614.140000"/><path id="efansc201yyq111" d="" fill="none" stroke="rgb(45,153,213)" stroke-width="2" stroke-miterlimit="10"/><path id="efansc201yyq112" d="M878.200000,453.200000C882.400000,448.600000,886.100000,447.600000,888.500000,447.600000C891,447.500000,893.400000,448.800000,894.700000,451C895.600000,452.500000,896.100000,455.400000,895.500000,456.900000" fill="none" stroke="rgb(45,153,213)" stroke-width="2" stroke-miterlimit="10" stroke-dashoffset="-25.590000" stroke-dasharray="25.590000"/><path id="efansc201yyq113" d="M655.300000,383.100000L674.500000,383.700000L674.500000,360.300000L709.900000,360.300000L709.900000,422.800000L709.900000,424.200000C709.800000,430.100000,710.800000,436,712.800000,441.600000C714.600000,446.600000,717.400000,451.300000,721.100000,455.200000C724.700000,459,729.100000,462.100000,734,464.100000C739.300000,466.200000,745.100000,467.300000,750.800000,467.300000L750.800000,467.300000C759.100000,467.200000,766,466,773.600000,462.800000L775,462.200000C783.400000,458.400000,793,454.100000,803.500000,454.100000C808,454.100000,812.500000,455,816.800000,456.600000C821.900000,458.700000,826.600000,461.700000,830.700000,465.500000L830.700000,465.500000C830.900000,465.500000,846.600000,465.500000,859.600000,465.900000C865.500000,466.100000,867.600000,467.800000,868.500000,469.100000L868.900000,469.600000L868.900000,469.600000C869.400000,470.200000,869.600000,471,869.800000,471.700000C870,474.500000,869.600000,477.400000,861.100000,479.500000L861.100000,479.500000C857.500000,480.400000,838.700000,484.900000,826.500000,488.200000" fill="none" stroke="rgb(45,153,213)" stroke-width="2" stroke-miterlimit="10" stroke-dashoffset="383.970000" stroke-dasharray="383.970000"/><path id="efansc201yyq114" d="" fill="none" stroke="rgb(45,153,213)" stroke-width="2" stroke-miterlimit="10"/><path id="efansc201yyq115" d="M827.400000,266.800000C849.300000,290.200000,864.800000,318.900000,872.400000,350L873,351.700000L873,351.800000C873.600000,354.400000,873.700000,355.700000,874.200000,358.300000C876.500000,370.200000,877.700000,382.200000,877.700000,394.300000C877.700000,400,877.100000,405.600000,876.100000,411.200000C875.200000,416,874.100000,420.700000,872.600000,425.300000C871.200000,429.800000,869.500000,434.200000,867.500000,438.500000L883.400000,462.300000L883.400000,462.300000L883.400000,462.300000" transform="matrix(1 0 0 1 -0.19999999999993 0.39999999999998)" fill="none" stroke="rgb(45,153,213)" stroke-width="2" stroke-miterlimit="10" stroke-dashoffset="-214.690000" stroke-dasharray="214.690000"/><path id="efansc201yyq116" d="M827.500000,267.200000C827.700000,265.400000,826.500000,262.200000,825.300000,259.200000L825.300000,259.200000L825.300000,259.200000L825.300000,259.200000L825.300000,259.200000C823.800000,255.900000,822.800000,252.500000,822.100000,249C821.400000,245.100000,822.100000,241,824.100000,237.600000C827.800000,231.200000,831.900000,225,836.400000,219.200000L836.400000,219.200000C838.500000,221.800000,840.300000,224.700000,841.700000,227.800000C843,230.600000,844,233.700000,844.500000,236.800000C845.100000,240.300000,844.900000,243.900000,843.900000,247.300000C843,250.500000,841.500000,253.600000,839.600000,256.300000C838.100000,258.400000,836.300000,260.300000,834.300000,261.900000C832.400000,263.500000,830.200000,264.700000,827.900000,265.600000" fill="none" stroke="rgb(45,153,213)" stroke-width="2" stroke-miterlimit="10" stroke-dashoffset="108.410000" stroke-dasharray="108.410000"/><path id="efansc201yyq117" d="M820.500000,267.300000C819.400000,269.500000,817.800000,271.500000,816,273.200000C814.200000,275,812.100000,276.500000,809.800000,277.700000C806.800000,279.200000,803.600000,280.300000,800.300000,280.700000C799.200000,280.900000,798.200000,280.900000,797.100000,280.900000C793.900000,280.900000,790.700000,280.200000,787.700000,279.100000C785.100000,278.100000,782.500000,276.700000,780.200000,275.100000C777.700000,273.400000,775.500000,271.400000,773.500000,269.200000L773.500000,269.200000C779.900000,265.600000,786.600000,262.400000,793.400000,259.700000C795.300000,258.900000,797.400000,258.500000,799.500000,258.500000C804.400000,258.500000,808.800000,260.600000,812.600000,262.700000C813,262.900000,813.500000,263.200000,813.800000,263.400000L813.800000,263.400000L813.900000,263.500000L814,263.500000L814.100000,263.600000L814.100000,263.600000L814.300000,263.700000L814.300000,263.700000L814.300000,263.700000L814.300000,263.700000L814.300000,263.700000L814.300000,263.700000L814.300000,263.700000L814.500000,263.800000C817.300000,265.400000,819.800000,266.900000,821.600000,266.900000C821.700000,266.900000,821.800000,266.900000,821.800000,266.900000L827.200000,267.200000" fill="none" stroke="rgb(45,153,213)" stroke-width="2" stroke-miterlimit="10" stroke-dashoffset="-113.340000" stroke-dasharray="113.340000"/><path id="efansc201yyq118" d="M860.900000,344.600000C859.100000,345,857.200000,345.200000,855.400000,345.200000C849.200000,345.500000,845.300000,343.200000,845.300000,343.200000C842.400000,342,839.800000,340.400000,837.400000,338.400000C834.700000,336.100000,832.500000,333.200000,831,329.900000C829.700000,327,828.800000,324,828.400000,320.800000C827.900000,317.400000,827.800000,314,828.200000,310.700000L828.200000,310.700000C828.900000,310.900000,832.800000,312.200000,838.600000,314.700000C838.600000,314.700000,842.100000,315.700000,848.600000,319.300000C852.200000,321.100000,855,324.100000,856.600000,327.800000C858,331.100000,859,334.500000,859.600000,338L859.600000,338L859.600000,338L859.600000,338L859.600000,338L859.600000,338L859.600000,338L859.600000,338C860.100000,340.500000,860.500000,342.600000,861.300000,344.100000L861.600000,344.700000L872.400000,349.800000" fill="none" stroke="rgb(45,153,213)" stroke-width="2" stroke-miterlimit="10" stroke-dashoffset="-119.300000" stroke-dasharray="119.300000"/><path id="efansc201yyq119" d="" fill="none" stroke="rgb(45,153,213)" stroke-width="2" stroke-miterlimit="10"/><path id="efansc201yyq120" d="M876.100000,389.100000L869.200000,386.600000L869.200000,386.600000C867.800000,385.400000,866.400000,384.100000,865.200000,382.600000L865.200000,382.600000L865.200000,382.600000L865.200000,382.600000L865.200000,382.600000L865.200000,382.600000L865.200000,382.600000C861.900000,378.900000,857.800000,374.300000,852.100000,372.600000C849.300000,371.500000,847.500000,371.900000,847.500000,371.900000C847.100000,371.900000,846.700000,371.900000,846.400000,371.900000C839,372.300000,831.700000,373.300000,824.400000,374.700000L824.400000,374.700000C825.800000,377.800000,827.600000,380.700000,829.700000,383.300000C831.700000,385.800000,834,387.900000,836.500000,389.800000C839.400000,391.900000,842.700000,393.300000,846.200000,393.900000C847.800000,394.200000,849.500000,394.300000,851.100000,394.300000C851.100000,394.300000,853.700000,394.700000,857,393.600000C860.200000,392.800000,863.200000,391.500000,865.900000,389.500000C867,388.800000,867.900000,387.900000,868.800000,387" fill="none" stroke="rgb(45,153,213)" stroke-width="2" stroke-miterlimit="10" stroke-dashoffset="112.510000" stroke-dasharray="112.510000"/><polyline id="efansc201yyq121" points="763.700000,292.500000 745.300000,292.500000 745.300000,259.800000 765.900000,292.400000 763.800000,292.400000 763.700000,292.500000 766,292.500000 765.900000,292.400000 784.900000,292.400000 784.900000,424.300000 784.900000,424.300000 710.600000,424.300000" fill="none" stroke="rgb(45,153,213)" stroke-width="2" stroke-miterlimit="10" stroke-dashoffset="-319.550000" stroke-dasharray="319.550000"/><polyline id="efansc201yyq122" points="764.900000,354.700000 744.400000,341.800000 769.100000,312.500000 755.600000,312.500000 657.400000,312.500000 625.500000,342.500000 653.300000,370.300000 653.300000,383.100000 633.700000,383.100000" fill="none" stroke="rgb(45,153,213)" stroke-width="2" stroke-miterlimit="10" stroke-dashoffset="-289.750000" stroke-dasharray="289.750000"/><path id="efansc201yyq123" d="M873,351.700000L873,351.700000L873,351.700000L873,351.700000L878.800000,339.700000L878.700000,339.400000C878.100000,337.300000,877.300000,335.300000,876.200000,333.400000L876.200000,333.400000L876.200000,333.400000L876.200000,333.400000L876.200000,333.400000L876.200000,333.400000L876.200000,333.400000L876.200000,333.400000L876.200000,333.400000C874.500000,330.300000,873.200000,327,872.200000,323.500000C871.200000,319.700000,871.600000,315.600000,873.300000,312C876.500000,305.300000,880.100000,298.900000,884.100000,292.700000L884.100000,292.700000C886.400000,295.200000,888.500000,297.900000,890.100000,300.900000C891.700000,303.600000,892.900000,306.600000,893.600000,309.600000C894.400000,313.100000,894.500000,316.600000,893.800000,320.100000C893.100000,323.400000,891.900000,326.500000,890.100000,329.300000C888.700000,331.500000,887.100000,333.500000,885.100000,335.200000C883.200000,336.900000,881.100000,338.300000,878.800000,339.300000" fill="none" stroke="rgb(45,153,213)" stroke-width="2" stroke-miterlimit="10" stroke-dashoffset="120.250000" stroke-dasharray="120.250000"/><polyline id="efansc201yyq124" points="728,292.500000 728,292.500000 642.300000,292.500000 642.300000,247.700000 745.300000,247.700000 745.300000,258.700000" fill="none" stroke="rgb(45,153,213)" stroke-width="2" stroke-miterlimit="10" stroke-dashoffset="-244.500000" stroke-dasharray="244.500000"/><path id="efansc201yyq125" d="M347.200000,206.800000L354.500000,192.300000L464.800000,211.600000L327.900000,246.800000L327.900000,246.800000L342.100000,220L401.200000,213.600000C385.200000,209.300000,368.800000,207.100000,352.200000,207.100000L346.600000,207.200000C320.200000,207.900000,294.400000,214.300000,270.700000,225.800000L270.700000,269.500000" fill="none" stroke="rgb(45,153,213)" stroke-width="2" stroke-miterlimit="10" stroke-dashoffset="-536.950000" stroke-dasharray="536.950000"/><polyline id="efansc201yyq126" points="442.600000,217.700000 363.100000,248.900000 363.100000,248.900000 363.100000,248.900000 357.100000,239.600000" fill="none" stroke="rgb(45,153,213)" stroke-width="2" stroke-miterlimit="10" stroke-dashoffset="96.470000" stroke-dasharray="96.470000"/><path id="efansc201yyq127" d="M475.500000,325.600000C482.100000,331.200000,490.900000,333.600000,498,319.800000C506.500000,303.600000,480.300000,301.800000,480.300000,301.800000L488.600000,299.400000C497.900000,296.700000,498,289.100000,498,289.100000L500.600000,272.500000L500.700000,271.900000C500.700000,271.100000,500.700000,270.400000,500.500000,269.700000C500.500000,269.700000,500.500000,269.700000,500.500000,269.700000C499.500000,266.200000,495.900000,264.300000,492.400000,265.200000C491.100000,265.700000,489.900000,266.500000,488.800000,267.400000C482.200000,273.100000,468.200000,286.100000,463.100000,304C460.100000,301.200000,457.300000,299,453.700000,297L453.200000,296.800000C441.400000,289.900000,428.800000,287.400000,422.100000,286.300000C420.700000,286.100000,419.300000,286.100000,417.800000,286.300000C417.800000,286.300000,417.800000,286.300000,417.800000,286.300000C414.300000,287.300000,412.400000,290.900000,413.300000,294.400000C413.400000,295.100000,413.700000,295.800000,414.200000,296.400000L414.500000,296.800000L425.400000,309.600000C425.400000,309.600000,429.500000,316,438.800000,313.400000L447.100000,311C447.100000,311,425.600000,326.100000,441.400000,335.600000C465.600000,350.200000,466.400000,316.300000,465.400000,312.600000L465.400000,312.600000C468.500000,321.100000,471.700000,329.600000,472.800000,338.700000C475,358,469.400000,380.900000,454.400000,394.200000C448.700000,399.200000,439.300000,403.800000,431.900000,400C423.500000,395.700000,421.500000,383.200000,426.600000,375.800000C430.500000,370.200000,438,370.100000,440.700000,376.900000C444.400000,386.200000,434.400000,394.500000,427.200000,398.300000C418.800000,402.700000,409.400000,404.600000,400.100000,405C388.200000,405.600000,374.900000,400.400000,370.400000,388.400000C366.700000,378.500000,370.300000,366,382.800000,368C405.700000,371.700000,402.300000,340.700000,402.300000,340.700000C402.300000,340.700000,410.300000,337.200000,404.500000,329C402.100000,325.500000,399.400000,322.300000,396.400000,319.300000C394.900000,314,397.100000,308.400000,396.300000,303.100000C395.500000,298.600000,393.700000,294.400000,391,290.800000C385.700000,283.300000,378.400000,277.400000,369.900000,273.700000C356.200000,267.600000,338.800000,265.700000,325.400000,273.400000C303.100000,285.900000,301.700000,313.300000,314.600000,335.600000C314.600000,335.600000,325.900000,351.700000,315.500000,374.300000" fill="none" stroke="rgb(45,153,213)" stroke-width="2" stroke-miterlimit="10" stroke-dashoffset="-901.720000" stroke-dasharray="901.720000"/><path id="efansc201yyq128" d="M352.700000,321.200000C351.200000,319.600000,349.400000,318.400000,347.400000,317.500000C343.400000,315.900000,340.300000,319.200000,339.100000,322.700000C337.600000,327.100000,338.200000,331.900000,340.700000,335.800000C342.900000,339.600000,347,343.600000,351.600000,344.200000" fill="none" stroke="rgb(45,153,213)" stroke-width="2" stroke-miterlimit="10" stroke-dashoffset="45.430000" stroke-dasharray="45.430000"/><path id="efansc201yyq129" d="M389.800000,311.800000L396.500000,309.800000L396.400000,316.900000L396.200000,327.200000L391.400000,327.200000L389.200000,312L348.400000,319" fill="none" stroke="rgb(45,153,213)" stroke-width="2" stroke-miterlimit="10" stroke-dashoffset="85.950000" stroke-dasharray="85.950000"/><path id="efansc201yyq130" d="" fill="none" stroke="rgb(45,153,213)" stroke-width="2" stroke-miterlimit="10"/><path id="efansc201yyq131" d="" fill="none" stroke="rgb(45,153,213)" stroke-width="2" stroke-miterlimit="10"/><path id="efansc201yyq132" d="M256.400000,529.200000L249,556.400000L220,566.500000L245.700000,583.400000L246.400000,614.100000L270.400000,594.900000L299.700000,603.900000L288.800000,575.100000L306.300000,549.900000L275.700000,551.200000L257,526.800000L256.600000,528.100000" fill="none" stroke="rgb(37,112,173)" stroke-width="2" stroke-miterlimit="10" stroke-dashoffset="305.950000" stroke-dasharray="305.950000"/><path id="efansc201yyq133" d="M642.100000,280.200000C640.600000,278,639.100000,275.800000,637.500000,273.700000C629.900000,263.600000,619.700000,251.300000,606,254.400000C604.100000,254.800000,601.200000,255.500000,599.700000,256.900000C600.800000,259.200000,602.300000,261.200000,604.200000,262.800000C604.300000,262.900000,604.400000,263,604.500000,263C611.300000,269,620,270.600000,627.800000,265.900000L628.900000,265.300000C632.200000,260.500000,633.400000,254.600000,632.200000,248.900000C630.900000,243.300000,627.300000,238.400000,622.300000,235.500000C619,240.300000,617.800000,246.200000,619,251.900000C619,252.100000,619.100000,252.200000,619.100000,252.500000" fill="none" stroke="rgb(45,153,213)" stroke-width="2" stroke-miterlimit="10" stroke-dashoffset="140.510000" stroke-dasharray="140.510000"/><path id="efansc201yyq134" d="M618.500000,245.600000C615.300000,243.800000,611.700000,242.900000,608.100000,243.100000C607.800000,246.800000,608.500000,250.500000,610.200000,253.700000" fill="none" stroke="rgb(45,153,213)" stroke-width="2" stroke-miterlimit="10" stroke-dashoffset="21.790000" stroke-dasharray="21.790000"/><g id="efansc201yyq135" transform="matrix(1 0 0 1 600.89700000000005 315.95800000000003)"><path id="efansc201yyq136" d="M193.200000,249.300000C194.700000,247.400000,199.600000,240.600000,198.200000,231.800000C197.700000,228.400000,196.300000,225.300000,194.300000,222.600000L194,222.200000C188.700000,216.100000,182.200000,211.200000,174,212.700000C172.400000,213,169.900000,213.500000,168.600000,214.600000C169.500000,216.600000,170.700000,218.300000,172.200000,219.800000C172.300000,219.900000,172.400000,220,172.400000,220.100000C177.900000,225.400000,186.300000,226.500000,193.100000,222.800000L193.100000,222.800000C196.100000,218.900000,197.200000,213.900000,196.400000,209.100000C195.500000,204.300000,192.600000,200.100000,188.500000,197.400000C185.500000,201.300000,184.400000,206.300000,185.200000,211.100000C185.200000,211.300000,185.300000,211.400000,185.300000,211.600000" fill="none" stroke="rgb(37,112,173)" stroke-width="2" stroke-miterlimit="10" stroke-dashoffset="131.420000" stroke-dasharray="131.420000"/></g><path id="efansc201yyq137" d="M351.700000,671C351.700000,671,339.300000,669.500000,338,657.900000C338,657.300000,337.900000,656,337.900000,656C337.900000,652.100000,341.100000,648.900000,345,648.900000C345,648.900000,345.100000,648.900000,345.100000,648.900000C348.400000,648.900000,351.300000,651.200000,352,654.400000C352,654.400000,360.100000,652.700000,361.900000,642.300000L363.400000,628.200000L387.900000,628.200000L389.400000,643.200000C389.600000,645.700000,387.600000,649.500000,387.600000,649.500000C387.600000,649.500000,392.100000,658.700000,395.600000,663.400000C398.100000,666.900000,389.500000,669.800000,389.500000,669.800000L388,688.300000C376.800000,692.600000,369.100000,692,369.100000,692L369.100000,697.400000L369.400000,705.100000L487,837C462.900000,805,487.300000,784.900000,489.300000,777.300000C491.200000,769.700000,482.400000,733,495,734.600000C506,736,520,776.900000,520,787.700000C520,801.300000,498.400000,790.100000,512.200000,780.100000C526,770.100000,524.300000,737.700000,524.300000,737.700000L524.300000,729.900000C526.400000,748.500000,548.600000,767.600000,547.600000,785.700000C546.100000,812.200000,523.800000,828.600000,532.100000,834.800000C540.400000,841,547.100000,831.700000,547.100000,831.700000L663.400000,706.600000L663.400000,652.800000C644.800000,658.500000,623.100000,652.300000,622,630.600000C621,608.900000,616.300000,615.100000,613.200000,607.800000C610.100000,600.500000,622,586.100000,622,586.100000C617.300000,555.600000,631.800000,530.300000,631.800000,530.300000C651.400000,585.100000,687.600000,585.100000,687.600000,585.100000C687.600000,585.100000,713.500000,563.900000,714,589.200000C714.500000,614.500000,698.500000,614,698.500000,614" fill="none" stroke="rgb(37,112,173)" stroke-width="2" stroke-miterlimit="10" stroke-dashoffset="-1299.270000" stroke-dasharray="1299.270000"/><path id="efansc201yyq138" d="M295.300000,613.900000L315.800000,637.200000L317.800000,639.200000C321.900000,622.300000,337,610.500000,354.300000,610.500000L358.900000,610.500000C369.500000,610.700000,379.800000,613.500000,389,618.700000" fill="none" stroke="rgb(37,112,173)" stroke-width="2" stroke-miterlimit="10" stroke-dashoffset="120.050000" stroke-dasharray="120.050000"/><path id="efansc201yyq139" d="M595.500000,439.600000L637.100000,425" transform="matrix(1 0 0 1 -7.32314238000015 -11.95200876500007)" fill="none" stroke="rgb(45,153,213)" stroke-width="2" stroke-miterlimit="10" stroke-dashoffset="44.090000" stroke-dasharray="44.090000"/><g id="efansc201yyq140"><path id="efansc201yyq141" d="M413.400000,489C402.400000,493.500000,397.400000,521.900000,397.400000,522L397.200000,523C394.100000,540.100000,385.800000,551.700000,372.600000,550.300000" fill="none" stroke="url(#efansc201yyq141-stroke)" stroke-width="4" stroke-miterlimit="10" stroke-dashoffset="-79.500000" stroke-dasharray="79.500000"/><g id="efansc201yyq142"><path id="efansc201yyq143" d="M544.600000,486.600000C544.400000,490.500000,545.100000,492.400000,545.300000,493.100000C546,495,547.300000,498.500000,550.600000,500.200000C555,502.600000,560.900000,500.900000,565.300000,496.700000C573.600000,489,578.300000,477.800000,581.400000,467.200000C582.400000,462.500000,583.400000,459.500000,584.400000,454.700000C585.600000,449,586.900000,443.100000,588.100000,437.400000C588.500000,435.500000,587.300000,433.700000,585.400000,433.300000C585.100000,433.200000,584.700000,433.200000,584.400000,433.200000C583.200000,433.400000,581.800000,433.600000,580.600000,433.900000C577.800000,434.600000,575.100000,435.700000,572.500000,437C560.200000,443.500000,552.700000,458.300000,551.700000,460.300000C549.500000,464.700000,547.900000,469.400000,546.800000,474.200000C545.500000,479.100000,545.500000,482.757546,545.300000,485.557546" fill="none" stroke="url(#efansc201yyq143-stroke)" stroke-width="4" stroke-miterlimit="10" stroke-dashoffset="173.360000" stroke-dasharray="173.360000"/><path id="efansc201yyq144" d="M545.300000,484.700000C543.100000,490,532.700000,516.100000,525,504.700000C522.100000,500.500000,523.300000,494.700000,524.200000,490.100000C526,480.700000,532,467.500000,524.600000,459C520.700000,454.500000,514.200000,455.300000,509.700000,458.600000C505.300000,461.900000,502.400000,466.800000,499.900000,471.600000C496,479.100000,493.500000,487.300000,490.900000,495.400000C487.900000,504.600000,485.500000,514,483.800000,523.600000C483.800000,523.600000,488.500000,490.600000,488.500000,490.400000C489.400000,484.200000,489.400000,468,480.200000,467.600000C475.500000,467.400000,471.600000,470.100000,469,473.800000C463.300000,481.900000,461.800000,493,459.900000,502.400000L459.600000,503.800000C456.500000,520.900000,448.900000,531,438,529.700000C429.600000,528.700000,423.900000,520.700000,422.100000,513.100000C422,512.500000,417.100000,491.200000,427.100000,484.900000C434.900000,480,438.200000,491,439.300000,496.700000C442.900000,515.300000,435.900000,537.500000,420,548.700000C408.600000,556.700000,400.900000,545.300000,398.600000,534.600000C396.200000,523.500000,397.800000,513.700000,402.500000,503.300000" fill="none" stroke="url(#efansc201yyq144-stroke)" stroke-width="4" stroke-miterlimit="10" stroke-dashoffset="-506.950000" stroke-dasharray="506.950000"/><path id="efansc201yyq145" d="M687.600000,466.500000C686.300000,467.100000,670.600000,474,655.400000,464.900000C643.500000,457.800000,639,445,638.900000,435.400000C638.900000,431.600000,638.800000,420.500000,646.500000,415.500000C651.700000,412.100000,660.100000,411.800000,664,416.100000C664.600000,416.800000,667,419.600000,666.100000,427.200000C664.300000,442.300000,651.900000,453.200000,645.700000,457.900000L644.900000,458.500000C637.800000,463.800000,631.500000,466.300000,624.200000,464.700000C615.900000,462.900000,611.600000,455.500000,610.400000,453.400000C607,447.300000,607.379500,441.167880,607.600000,433.300000C607.600000,433.300000,609.086545,420.907653,609.100000,419.900000C609.112961,419.013829,609.100000,419.300000,609.200000,419C609.212263,418.034758,609.200000,416.800000,609.200000,416.100000C609.400000,413.700000,609.700000,411.300000,610.100000,406.900000C610.357242,398.962836,610.200000,395.500000,610.100000,395.500000C609.751073,395.508109,608.900000,411.700000,604.500000,456.600000L604.400000,457.300000C603.800000,465,602.400000,471.500000,600.800000,476.800000C600,479.600000,599,482.500000,596.300000,484.700000C594.300000,486.300000,591.700000,487.200000,589.100000,487.300000C587.600000,487.300000,586.200000,487,584.800000,486.300000C580.700000,484.300000,579.400000,474.600000,582.200000,462.700000" transform="matrix(1 0 0 1 0.39062890000002 0)" fill="none" stroke="url(#efansc201yyq145-stroke)" stroke-width="4" stroke-miterlimit="10" stroke-dashoffset="-388.210000" stroke-dasharray="388.210000"/><path id="efansc201yyq146" d="M404.100000,405C401.800000,405.200000,399.600000,405.600000,397.400000,406.200000C381.800000,410.900000,374.300000,426.300000,372,431.100000C367.700000,439.700000,366.800000,447.100000,365.800000,454.200000C364.800000,462.500000,364.800000,471,365.800000,479.300000C366.500000,486.300000,367.900000,493.300000,370.100000,500.100000C371.300000,503.700000,372.700000,507.200000,374.400000,510.600000C375.400000,512.600000,376.200000,514.800000,376.600000,517C380.200000,535.600000,373.200000,557.800000,357.300000,569C345.900000,577,338.200000,565.600000,335.900000,554.900000C335.500000,553.200000,335.200000,551.600000,335.100000,549.900000C334.900000,547.700000,334.800000,545.500000,334.900000,543.300000C335.200000,529.500000,338,522.100000,338,522.100000C339.100000,519,343.900000,506,354.800000,502C358.200000,500.600000,361.900000,500.200000,365.400000,501C367.400000,501.400000,369.300000,502.300000,371,503.500000" fill="none" stroke="url(#efansc201yyq146-stroke)" stroke-width="4" stroke-miterlimit="10" stroke-dashoffset="-299.220000" stroke-dasharray="299.220000"/></g></g><path id="efansc201yyq147" d="M457.800000,646C457.800000,646,415.500000,602.500000,413,589.400000C410.500000,576.300000,418.500000,555.900000,443.400000,561.500000C458.600000,564.900000,476.500000,597.500000,458.600000,597.500000C442.100000,597.500000,453.600000,565.800000,474.100000,560.400000C493.900000,555.200000,513.400000,579.300000,499.300000,597.500000C479.400000,623.300000,458.200000,646.200000,458.200000,646.200000" fill="none" stroke="rgb(37,112,173)" stroke-width="2" stroke-miterlimit="10" stroke-dashoffset="347.500000" stroke-dasharray="347.500000"/><line id="efansc201yyq148" x1="867.500000" y1="438.500000" x2="830.700000" y2="465.500000" transform="matrix(1 0 0 1 1.07659103999993 0.24730993000003)" fill="none" stroke="rgb(45,153,213)" stroke-width="2" stroke-miterlimit="10" stroke-dashoffset="45.640000" stroke-dasharray="45.640000"/><path id="efansc201yyq149" d="M773.200000,503.900000C776,501.700000,779.200000,500,782.600000,498.800000C785.800000,497.700000,789.100000,497.100000,792.500000,497L793.100000,497C795.100000,497,797.100000,497.200000,799,497.700000C805.900000,499.500000,811.400000,501.100000,815.800000,502.400000L815.800000,502.400000L815.800000,502.400000L815.800000,502.400000L815.800000,502.400000L815.800000,502.400000L815.800000,502.400000L815.900000,502.400000L815.900000,502.400000L815.900000,502.400000C824.800000,505,830.200000,506.600000,836.400000,506.600000L836.400000,506.600000L836.400000,506.600000C839.600000,506.500000,842.800000,506.200000,845.900000,505.400000C850.400000,504.500000,854.700000,502.700000,858.600000,500.300000C863.300000,497.400000,867.800000,494.200000,872.100000,490.800000L872.100000,490.800000L872.100000,490.800000L872.100000,490.800000L872.100000,490.800000L872.100000,490.800000L872.100000,490.800000L872.100000,490.800000L872.100000,490.800000L872.200000,490.800000L872.200000,490.800000L872.200000,490.800000L872.200000,490.800000L872.200000,490.800000L872.200000,490.800000L872.200000,490.800000L872.300000,490.700000L872.300000,490.700000L872.300000,490.700000L872.400000,490.700000L872.400000,490.700000L872.500000,490.600000L872.500000,490.600000L872.500000,490.600000L872.600000,490.600000L872.600000,490.600000L872.700000,490.500000L872.700000,490.500000L872.700000,490.500000L872.700000,490.500000L872.700000,490.500000L872.700000,490.500000L872.700000,490.500000C875.800000,488.200000,879.200000,485.600000,883.700000,482.400000C891.500000,476.800000,896.100000,473.600000,898.800000,471.700000L898.800000,471.700000L898.800000,471.700000L898.900000,471.600000L898.900000,471.600000L898.900000,471.600000L898.900000,471.600000L899,471.500000L899,471.500000L899,471.500000L899,471.500000L899.100000,471.400000L899.100000,471.400000L899.100000,471.400000L899.100000,471.400000L899.100000,471.400000L899.100000,471.400000L899.300000,471.300000L899.300000,471.300000L899.400000,471.200000L899.400000,471.200000L899.400000,471.200000L899.400000,471.200000L899.400000,471.200000L899.400000,471.200000L899.400000,471.200000L899.400000,471.200000L899.400000,471.200000L899.400000,471.200000L899.400000,471.200000L899.400000,471.200000L899.400000,471.200000L899.400000,471.200000L899.400000,471.200000L899.400000,471.200000L899.400000,471.200000L899.400000,471.200000L899.400000,471.200000L899.400000,471.200000L899.400000,471.200000L899.400000,471.200000C903.400000,468.400000,904.900000,467.400000,907.100000,465.500000C912.500000,461.100000,913.500000,459.700000,913.200000,456.900000C913.200000,454.400000,911.200000,452.400000,908.700000,452.400000C908.500000,452.400000,908.300000,452.400000,908.100000,452.400000C906,452.700000,904,453.200000,902,454.100000C900.400000,454.900000,897,456.500000,892.100000,458.800000L891.900000,458.900000L868.600000,469.800000" fill="none" stroke="rgb(45,153,213)" stroke-width="2" stroke-miterlimit="10" stroke-dashoffset="211.090000" stroke-dasharray="211.090000"/><path id="efansc201yyq150" d="M848,505.800000L730.900000,636.300000C730.900000,636.300000,824.400000,518.200000,698.700000,486.600000C586.900000,458.400000,608,640.500000,522,588.100000C510.200000,602.200000,550.200000,678,579.900000,660.400000C592.200000,653.100000,553.100000,628.100000,547.500000,696.100000C542.700000,755.100000,599.600000,752.800000,599.600000,752.800000" fill="none" stroke="rgb(37,112,173)" stroke-width="2" stroke-miterlimit="10" stroke-dashoffset="871.220000" stroke-dasharray="871.220000"/><polyline id="efansc201yyq151" points="488.100000,759.400000 464.200000,759.400000 464.200000,683.700000 515.400000,683.700000 515.400000,759.400000 512.300000,759.400000" fill="none" stroke="rgb(37,112,173)" stroke-width="2" stroke-miterlimit="10" stroke-dashoffset="229.600000" stroke-dasharray="229.600000"/><line id="efansc201yyq152" x1="479.400000" y1="675.300000" x2="499.100000" y2="675.300000" fill="none" stroke="rgb(37,112,173)" stroke-width="2" stroke-miterlimit="10" stroke-dashoffset="19.700000" stroke-dasharray="19.700000"/><path id="efansc201yyq153" d="M524.200000,729.900000L524.200000,675.900000C524.200000,668.900000,518.500000,663.200000,511.500000,663.200000L467,663.200000C460,663.200000,454.300000,668.900000,454.300000,675.900000L454.300000,767.400000C454.300000,774.400000,460,780.100000,467,780.100000C467,780.100000,454.100000,802.600000,477.800000,799.400000" fill="none" stroke="rgb(37,112,173)" stroke-width="2" stroke-miterlimit="10" stroke-dashoffset="280.990000" stroke-dasharray="280.990000"/><path id="efansc201yyq154" d="M785.500000,520.800000C782.900000,519.100000,779.800000,518.300000,776.700000,518.300000C776.300000,521.400000,776.800000,524.600000,778.200000,527.400000" fill="none" stroke="rgb(37,112,173)" stroke-width="2" stroke-miterlimit="10" stroke-dashoffset="18.630000" stroke-dasharray="18.630000"/><g id="efansc201yyq155"><path id="efansc201yyq156" d="M519.900000,378.700000C516.100000,382.800000,513.600000,387.900000,512.600000,393.600000C518,395.300000,523.800000,395.400000,529.300000,394" fill="none" stroke="rgb(45,153,213)" stroke-width="2" stroke-miterlimit="10" stroke-dashoffset="33.740000" stroke-dasharray="33.740000"/><path id="efansc201yyq157" d="M583.900000,354.900000C566.700000,356.200000,555.100000,366.600000,555.100000,366.600000L554,367.500000C541.400000,374.900000,530.500000,384.900000,530.500000,400C530.500000,402.900000,530.600000,407.700000,532.100000,410.200000C535.900000,409.300000,539.400000,407.700000,542.600000,405.500000C542.800000,405.400000,543,405.300000,543.200000,405.200000C554.500000,397.100000,559.200000,382.500000,554.900000,369.100000L554.900000,369.100000C548.900000,362.500000,540.400000,358.800000,531.600000,358.700000C522.700000,358.700000,514.200000,362.400000,508.200000,369C514.200000,375.600000,522.700000,379.300000,531.500000,379.400000C531.800000,379.400000,532.100000,379.400000,532.400000,379.300000" fill="none" stroke="rgb(45,153,213)" stroke-width="2" stroke-miterlimit="10" stroke-dashoffset="218.090000" stroke-dasharray="218.090000"/></g><path id="efansc201yyq158" d="" fill="none" stroke="rgb(45,153,213)" stroke-width="2" stroke-miterlimit="10"/><path id="efansc201yyq159" d="M273.200000,364.600000C273.200000,364.600000,272,333.300000,242.300000,332.900000C212.600000,332.500000,209.500000,366.100000,209.500000,366.100000C209.500000,366.100000,185.200000,375.800000,185.500000,395.500000C185.500000,395.500000,176.200000,345.700000,200.200000,307.400000L236.900000,307.400000" fill="none" stroke="rgb(45,153,213)" stroke-width="2" stroke-miterlimit="10" stroke-dashoffset="268.760000" stroke-dasharray="268.760000"/><line id="efansc201yyq160" x1="282.200000" y1="279.700000" x2="302.500000" y2="259.500000" fill="none" stroke="rgb(45,153,213)" stroke-width="2" stroke-miterlimit="10" stroke-dashoffset="28.640000" stroke-dasharray="28.640000"/><line id="efansc201yyq161" x1="253.600000" y1="282.900000" x2="232" y2="261.300000" fill="none" stroke="rgb(45,153,213)" stroke-width="2" stroke-miterlimit="10" stroke-dashoffset="30.550000" stroke-dasharray="30.550000"/><path id="efansc201yyq162" d="M743.940015,342.050000C743.940015,342.050000,742.426442,350.300000,734.826442,350.400000C727.326442,350.400000,725.426442,345.200000,725.426442,340.600000C725.426442,340.283895,724.526442,350.500000,717.726442,350.400000C710.926442,350.400000,708.826442,347,708.426442,340.600000C708.426442,340.220674,707.026442,350.500000,699.926442,350.400000C692.826442,350.400000,690.528796,345.800000,690.528796,340.700000C690.086745,339.163620,689.870958,350.705375,683.026442,350.400000C676.926442,350.400000,673.626442,347,673.626442,340.600000C673.626442,340.410337,671.326442,350.400000,664.326442,350.400000C659.226442,350.400000,656.326442,348.200000,656.326442,340.600000C656.705768,339.841349,656.326442,350.400000,646.526442,350.400000C637.726442,350.400000,637.226442,342.500000,637.226442,340.600000" fill="none" stroke="rgb(45,153,213)" stroke-width="2" stroke-miterlimit="10" stroke-dashoffset="176.880000" stroke-dasharray="176.880000"/><path id="efansc201yyq163" d="M565,340L417.600000,340L417.600000,340C417.600000,348.400000,424.400000,355.300000,432.900000,355.300000L589.800000,355.300000C598.200000,355.300000,605.100000,348.500000,605.100000,340L605.100000,340L582.300000,340L582.300000,331L582.300000,249.500000C582.300000,243.200000,577.200000,238.100000,570.900000,238.100000L456.500000,238.100000C450.200000,238.100000,445.100000,243.200000,445.100000,249.500000L445.100000,289.400000" fill="none" stroke="rgb(45,153,213)" stroke-width="2" stroke-miterlimit="10" stroke-dashoffset="-655.800000" stroke-dasharray="655.800000"/><polyline id="efansc201yyq164" points="489.600000,329.800000 533.600000,329.800000 533.600000,285.800000" fill="none" stroke="rgb(45,153,213)" stroke-width="2" stroke-miterlimit="10" stroke-dashoffset="88" stroke-dasharray="88"/><path id="efansc201yyq165" d="M499.800000,315.500000L506.400000,315.500000L506.400000,296.700000L521,296.700000L521,270.400000L536.800000,270.400000C536.800000,270.400000,595,174.800000,734.100000,214.500000" fill="none" stroke="rgb(45,153,213)" stroke-width="2" stroke-miterlimit="10" stroke-dashoffset="301.600000" stroke-dasharray="301.600000"/><g id="efansc201yyq166"><path id="efansc201yyq167" d="" fill="none" stroke="rgb(45,153,213)" stroke-width="2" stroke-miterlimit="10"/><path id="efansc201yyq168" d="M876.100000,389.100000L869.200000,386.600000L869.200000,386.600000C867.800000,385.400000,866.400000,384.100000,865.200000,382.600000L865.200000,382.600000L865.200000,382.600000L865.200000,382.600000L865.200000,382.600000L865.200000,382.600000L865.200000,382.600000C861.900000,378.900000,857.800000,374.300000,852.100000,372.600000C849.300000,371.500000,847.500000,371.900000,847.500000,371.900000C847.100000,371.900000,846.700000,371.900000,846.400000,371.900000C839,372.300000,831.700000,373.300000,824.400000,374.700000L824.400000,374.700000C825.800000,377.800000,827.600000,380.700000,829.700000,383.300000C831.700000,385.800000,834,387.900000,836.500000,389.800000C839.400000,391.900000,842.700000,393.300000,846.200000,393.900000C847.800000,394.200000,849.500000,394.300000,851.100000,394.300000C851.100000,394.300000,853.700000,394.700000,857,393.600000C860.200000,392.800000,863.200000,391.500000,865.900000,389.500000C867,388.800000,867.900000,387.900000,868.800000,387" fill="none" stroke="rgb(45,153,213)" stroke-width="2" stroke-miterlimit="10" stroke-dashoffset="112.510000" stroke-dasharray="112.510000"/><path id="efansc201yyq169" d="M876.100000,389.100000L877.100000,389.400000C876.800000,389.300000,876.500000,389.200000,876.100000,389.100000L876.100000,389.100000Z" fill="none" stroke="rgb(45,153,213)" stroke-width="2" stroke-miterlimit="10"/></g></svg>