<svg id="ezo9h5im8s1g1" xmlns="http://www.w3.org/2000/svg" xmlns:xlink="http://www.w3.org/1999/xlink" viewBox="0 0 1920 1528" shape-rendering="geometricPrecision" text-rendering="geometricPrecision"><defs><linearGradient id="ezo9h5im8s1g2-fill" x1="1920" y1="1528.052000" x2="0" y2="0.052000" spreadMethod="pad" gradientUnits="userSpaceOnUse"><stop id="ezo9h5im8s1g2-fill-0" offset="0%" stop-color="rgb(0,207,146)"/><stop id="ezo9h5im8s1g2-fill-1" offset="100%" stop-color="rgb(0,156,222)"/></linearGradient></defs><rect id="ezo9h5im8s1g2" width="1920" height="1528" rx="0" ry="0" fill="url(#ezo9h5im8s1g2-fill)" stroke="none" stroke-width="1"/><rect id="ezo9h5im8s1g3" width="1920" height="1528" rx="0" ry="0" opacity="0.3" fill="none" stroke="none" stroke-width="1"/><path id="ezo9h5im8s1g4" d="M1865,1431L1832,1388" opacity="0.3" fill="none" stroke="rgb(255,255,255)" stroke-width="2" stroke-linecap="round" stroke-linejoin="round" stroke-miterlimit="10"/><path id="ezo9h5im8s1g5" d="M955.600000,1473.900000C930.500000,1474.100000,914.900000,1432.100000,932.600000,1415.200000C937.600000,1410.400000,943.700000,1408.100000,943.200000,1399.500000C942.800000,1391.600000,936,1383.800000,934.100000,1376.100000C927.300000,1349.100000,960,1330,981.400000,1348C990.500000,1355.500000,993.500000,1368.200000,988.900000,1379C983.100000,1392.300000,977.700000,1403,989.200000,1415.500000C994,1420.700000,997.400000,1422.800000,998.600000,1430.400000C999.800000,1438,998.800000,1445.800000,995.700000,1452.900000C989.700000,1466.600000,980.500000,1470.400000,966.900000,1474.900000" opacity="0.3" fill="none" stroke="rgb(255,255,255)" stroke-width="2" stroke-linecap="round" stroke-linejoin="round" stroke-miterlimit="10"/><path id="ezo9h5im8s1g6" d="M955.500000,1509L955.500000,1418" opacity="0.3" fill="none" stroke="rgb(255,255,255)" stroke-width="2" stroke-linecap="round" stroke-linejoin="round" stroke-miterlimit="10"/><path id="ezo9h5im8s1g7" d="M966.500000,1510L966.500000,1417" opacity="0.3" fill="none" stroke="rgb(255,255,255)" stroke-width="2" stroke-linecap="round" stroke-linejoin="round" stroke-miterlimit="10"/><path id="ezo9h5im8s1g8" d="M956,1461L932,1430" opacity="0.3" fill="none" stroke="rgb(255,255,255)" stroke-width="2" stroke-linecap="round" stroke-linejoin="round" stroke-miterlimit="10"/><path id="ezo9h5im8s1g9" d="M966,1440L981,1424" opacity="0.3" fill="none" stroke="rgb(255,255,255)" stroke-width="2" stroke-linecap="round" stroke-linejoin="round" stroke-miterlimit="10"/><path id="ezo9h5im8s1g10" d="M774,1514.300000C787.900000,1512.500000,799.600000,1517.500000,810.500000,1526C813.300000,1520.200000,816.100000,1513.100000,820.800000,1508.700000C823.300000,1506.500000,826,1504.600000,828.900000,1503" opacity="0.3" fill="none" stroke="rgb(255,255,255)" stroke-width="2" stroke-linecap="round" stroke-linejoin="round" stroke-miterlimit="10"/><path id="ezo9h5im8s1g11" d="M843,1499.400000C852.400000,1495.900000,854.400000,1495.600000,864.200000,1497.500000C869.900000,1498.600000,879.800000,1509.700000,883.100000,1504.200000C889.900000,1487.200000,919.100000,1466.400000,937,1483C942.900000,1488.500000,949.900000,1500.500000,950.600000,1503.100000C951.200000,1505.100000,952.100000,1507.100000,953.100000,1508.900000" opacity="0.3" fill="none" stroke="rgb(255,255,255)" stroke-width="2" stroke-linecap="round" stroke-linejoin="round" stroke-miterlimit="10"/><path id="ezo9h5im8s1g12" d="M1387,1425L1387,1391L1405,1391L1405,1425" opacity="0.3" fill="none" stroke="rgb(255,255,255)" stroke-width="2" stroke-linecap="round" stroke-linejoin="round" stroke-miterlimit="10"/><path id="ezo9h5im8s1g13" d="M1355,1427L1355,1343.800000L1450,1343.800000L1395.700000,1285L1341,1343.400000" opacity="0.3" fill="none" stroke="rgb(255,255,255)" stroke-width="2" stroke-linecap="round" stroke-linejoin="round" stroke-miterlimit="10"/><path id="ezo9h5im8s1g14" d="M1099,1393L1109,1379" opacity="0.3" fill="none" stroke="rgb(255,255,255)" stroke-width="2" stroke-linecap="round" stroke-linejoin="round" stroke-miterlimit="10"/><path id="ezo9h5im8s1g15" d="M1092,1389L1087,1372" opacity="0.3" fill="none" stroke="rgb(255,255,255)" stroke-width="2" stroke-linecap="round" stroke-linejoin="round" stroke-miterlimit="10"/><path id="ezo9h5im8s1g16" d="M827.200000,1485.500000C792.600000,1485.700000,771.100000,1426.900000,795.500000,1403.100000C802.300000,1396.400000,810.800000,1393.200000,810.200000,1381.100000C809.600000,1370,800.300000,1359,797.600000,1348.200000C788.300000,1310.400000,833.300000,1283.600000,862.800000,1308.800000C875.400000,1319.500000,879.500000,1337.100000,873.200000,1352.300000C865.200000,1370.900000,857.700000,1386,873.600000,1403.500000C880.200000,1410.800000,884.900000,1413.700000,886.500000,1424.400000C888.100000,1435.100000,886.700000,1446,882.400000,1456C874.100000,1475.200000,861.400000,1480.500000,842.700000,1486.900000" opacity="0.3" fill="none" stroke="rgb(255,255,255)" stroke-width="2" stroke-linecap="round" stroke-linejoin="round" stroke-miterlimit="10"/><path id="ezo9h5im8s1g17" d="M828.500000,1536L828.500000,1407" opacity="0.3" fill="none" stroke="rgb(255,255,255)" stroke-width="2" stroke-linecap="round" stroke-linejoin="round" stroke-miterlimit="10"/><path id="ezo9h5im8s1g18" d="M842.500000,1536L842.500000,1407" opacity="0.3" fill="none" stroke="rgb(255,255,255)" stroke-width="2" stroke-linecap="round" stroke-linejoin="round" stroke-miterlimit="10"/><path id="ezo9h5im8s1g19" d="M829,1468L796,1425" opacity="0.3" fill="none" stroke="rgb(255,255,255)" stroke-width="2" stroke-linecap="round" stroke-linejoin="round" stroke-miterlimit="10"/><path id="ezo9h5im8s1g20" d="M843,1439L864,1417" opacity="0.3" fill="none" stroke="rgb(255,255,255)" stroke-width="2" stroke-linecap="round" stroke-linejoin="round" stroke-miterlimit="10"/><path id="ezo9h5im8s1g21" d="M1864.200000,1447.500000C1829.600000,1447.700000,1808.100000,1388.900000,1832.500000,1365.100000C1839.300000,1358.400000,1847.800000,1355.200000,1847.200000,1343.100000C1846.600000,1332,1837.300000,1321,1834.600000,1310.200000C1825.300000,1272.400000,1870.300000,1245.600000,1899.800000,1270.800000C1912.400000,1281.500000,1916.500000,1299.100000,1910.200000,1314.300000C1902.200000,1332.900000,1894.700000,1348,1910.600000,1365.500000C1917.200000,1372.800000,1921.900000,1375.700000,1923.500000,1386.400000C1925.100000,1397.100000,1923.700000,1408,1919.400000,1418C1911.100000,1437.200000,1898.400000,1442.500000,1879.700000,1448.900000" opacity="0.3" fill="none" stroke="rgb(255,255,255)" stroke-width="2" stroke-linecap="round" stroke-linejoin="round" stroke-miterlimit="10"/><path id="ezo9h5im8s1g22" d="M1865.500000,1493L1865.500000,1369" opacity="0.3" fill="none" stroke="rgb(255,255,255)" stroke-width="2" stroke-linecap="round" stroke-linejoin="round" stroke-miterlimit="10"/><path id="ezo9h5im8s1g23" d="M1879.500000,1495L1879.500000,1368" opacity="0.3" fill="none" stroke="rgb(255,255,255)" stroke-width="2" stroke-linecap="round" stroke-linejoin="round" stroke-miterlimit="10"/><path id="ezo9h5im8s1g24" d="M1879,1401L1900,1379" opacity="0.3" fill="none" stroke="rgb(255,255,255)" stroke-width="2" stroke-linecap="round" stroke-linejoin="round" stroke-miterlimit="10"/><path id="ezo9h5im8s1g25" d="M1034,1441L1022,1435" opacity="0.3" fill="none" stroke="rgb(255,255,255)" stroke-width="2" stroke-linecap="round" stroke-linejoin="round" stroke-miterlimit="10"/><path id="ezo9h5im8s1g26" d="M1033,1431L1021,1425" opacity="0.3" fill="none" stroke="rgb(255,255,255)" stroke-width="2" stroke-linecap="round" stroke-linejoin="round" stroke-miterlimit="10"/><path id="ezo9h5im8s1g27" d="M1044,1446L1051,1436" opacity="0.3" fill="none" stroke="rgb(255,255,255)" stroke-width="2" stroke-linecap="round" stroke-linejoin="round" stroke-miterlimit="10"/><path id="ezo9h5im8s1g28" d="M1041,1437L1048,1427" opacity="0.3" fill="none" stroke="rgb(255,255,255)" stroke-width="2" stroke-linecap="round" stroke-linejoin="round" stroke-miterlimit="10"/><path id="ezo9h5im8s1g29" d="M1038,1430L1045,1420" opacity="0.3" fill="none" stroke="rgb(255,255,255)" stroke-width="2" stroke-linecap="round" stroke-linejoin="round" stroke-miterlimit="10"/><path id="ezo9h5im8s1g30" d="M1034,1427L1030,1415" opacity="0.3" fill="none" stroke="rgb(255,255,255)" stroke-width="2" stroke-linecap="round" stroke-linejoin="round" stroke-miterlimit="10"/><path id="ezo9h5im8s1g31" d="M1065.900000,1405C1069.800000,1421.100000,1086,1431,1102,1427.100000C1102.100000,1427.100000,1102.200000,1427,1102.300000,1427C1118.500000,1422.700000,1128.100000,1406.100000,1124,1389.900000C1120.100000,1373.800000,1104,1363.900000,1087.900000,1367.800000C1087.800000,1367.800000,1087.700000,1367.900000,1087.600000,1367.900000C1071.400000,1372.300000,1061.800000,1388.800000,1065.900000,1405Z" opacity="0.3" fill="none" stroke="rgb(255,255,255)" stroke-width="2" stroke-linecap="round" stroke-linejoin="round" stroke-miterlimit="10"/><path id="ezo9h5im8s1g32" d="M1106,1464L1097,1427" opacity="0.3" fill="none" stroke="rgb(255,255,255)" stroke-width="2" stroke-linecap="round" stroke-linejoin="round" stroke-miterlimit="10"/><path id="ezo9h5im8s1g33" d="M1115,1462L1106,1425" opacity="0.3" fill="none" stroke="rgb(255,255,255)" stroke-width="2" stroke-linecap="round" stroke-linejoin="round" stroke-miterlimit="10"/><path id="ezo9h5im8s1g34" d="M1095,1419L1079,1412" opacity="0.3" fill="none" stroke="rgb(255,255,255)" stroke-width="2" stroke-linecap="round" stroke-linejoin="round" stroke-miterlimit="10"/><path id="ezo9h5im8s1g35" d="M1092,1408L1076,1401" opacity="0.3" fill="none" stroke="rgb(255,255,255)" stroke-width="2" stroke-linecap="round" stroke-linejoin="round" stroke-miterlimit="10"/><path id="ezo9h5im8s1g36" d="M1092,1395L1076,1388" opacity="0.3" fill="none" stroke="rgb(255,255,255)" stroke-width="2" stroke-linecap="round" stroke-linejoin="round" stroke-miterlimit="10"/><path id="ezo9h5im8s1g37" d="M1105,1416L1115,1402" opacity="0.3" fill="none" stroke="rgb(255,255,255)" stroke-width="2" stroke-linecap="round" stroke-linejoin="round" stroke-miterlimit="10"/><path id="ezo9h5im8s1g38" d="M1102,1403L1112,1389" opacity="0.3" fill="none" stroke="rgb(255,255,255)" stroke-width="2" stroke-linecap="round" stroke-linejoin="round" stroke-miterlimit="10"/><path id="ezo9h5im8s1g39" d="M1699,1389L1704,1372" opacity="0.3" fill="none" stroke="rgb(255,255,255)" stroke-width="2" stroke-linecap="round" stroke-linejoin="round" stroke-miterlimit="10"/><path id="ezo9h5im8s1g40" d="M1777.300000,1439C1774.500000,1450.800000,1762.700000,1458.100000,1750.900000,1455.300000C1750.800000,1455.300000,1750.700000,1455.200000,1750.600000,1455.200000C1738.700000,1452,1731.600000,1439.800000,1734.700000,1427.900000C1737.500000,1416.100000,1749.300000,1408.800000,1761.100000,1411.600000C1761.200000,1411.600000,1761.300000,1411.700000,1761.400000,1411.700000C1773.300000,1414.900000,1780.400000,1427.100000,1777.300000,1439Z" opacity="0.3" fill="none" stroke="rgb(255,255,255)" stroke-width="2" stroke-linecap="round" stroke-linejoin="round" stroke-miterlimit="10"/><path id="ezo9h5im8s1g41" d="M1747,1483L1754,1455" opacity="0.3" fill="none" stroke="rgb(255,255,255)" stroke-width="2" stroke-linecap="round" stroke-linejoin="round" stroke-miterlimit="10"/><path id="ezo9h5im8s1g42" d="M1740,1481L1747,1453" opacity="0.3" fill="none" stroke="rgb(255,255,255)" stroke-width="2" stroke-linecap="round" stroke-linejoin="round" stroke-miterlimit="10"/><path id="ezo9h5im8s1g43" d="M1755,1449L1767,1443" opacity="0.3" fill="none" stroke="rgb(255,255,255)" stroke-width="2" stroke-linecap="round" stroke-linejoin="round" stroke-miterlimit="10"/><path id="ezo9h5im8s1g44" d="M1757,1441L1769,1435" opacity="0.3" fill="none" stroke="rgb(255,255,255)" stroke-width="2" stroke-linecap="round" stroke-linejoin="round" stroke-miterlimit="10"/><path id="ezo9h5im8s1g45" d="M1758,1431L1770,1425" opacity="0.3" fill="none" stroke="rgb(255,255,255)" stroke-width="2" stroke-linecap="round" stroke-linejoin="round" stroke-miterlimit="10"/><path id="ezo9h5im8s1g46" d="M1748,1446L1741,1436" opacity="0.3" fill="none" stroke="rgb(255,255,255)" stroke-width="2" stroke-linecap="round" stroke-linejoin="round" stroke-miterlimit="10"/><path id="ezo9h5im8s1g47" d="M1750,1437L1743,1427" opacity="0.3" fill="none" stroke="rgb(255,255,255)" stroke-width="2" stroke-linecap="round" stroke-linejoin="round" stroke-miterlimit="10"/><path id="ezo9h5im8s1g48" d="M1753,1430L1746,1420" opacity="0.3" fill="none" stroke="rgb(255,255,255)" stroke-width="2" stroke-linecap="round" stroke-linejoin="round" stroke-miterlimit="10"/><path id="ezo9h5im8s1g49" d="M1756,1427L1760,1415" opacity="0.3" fill="none" stroke="rgb(255,255,255)" stroke-width="2" stroke-linecap="round" stroke-linejoin="round" stroke-miterlimit="10"/><path id="ezo9h5im8s1g50" d="M1013.700000,1439C1016.500000,1450.800000,1028.300000,1458.100000,1040.100000,1455.300000C1040.200000,1455.300000,1040.300000,1455.200000,1040.400000,1455.200000C1052.300000,1452,1059.400000,1439.800000,1056.300000,1427.900000C1053.500000,1416.100000,1041.700000,1408.800000,1029.900000,1411.600000C1029.800000,1411.600000,1029.700000,1411.700000,1029.600000,1411.700000C1017.700000,1414.900000,1010.600000,1427.100000,1013.700000,1439Z" opacity="0.3" fill="none" stroke="rgb(255,255,255)" stroke-width="2" stroke-linecap="round" stroke-linejoin="round" stroke-miterlimit="10"/><path id="ezo9h5im8s1g51" d="M1044,1483L1037,1455" opacity="0.3" fill="none" stroke="rgb(255,255,255)" stroke-width="2" stroke-linecap="round" stroke-linejoin="round" stroke-miterlimit="10"/><path id="ezo9h5im8s1g52" d="M1051,1481L1044,1453" opacity="0.3" fill="none" stroke="rgb(255,255,255)" stroke-width="2" stroke-linecap="round" stroke-linejoin="round" stroke-miterlimit="10"/><path id="ezo9h5im8s1g53" d="M1036,1449L1024,1443" opacity="0.3" fill="none" stroke="rgb(255,255,255)" stroke-width="2" stroke-linecap="round" stroke-linejoin="round" stroke-miterlimit="10"/><path id="ezo9h5im8s1g54" d="M1525,1390.800000L1538.800000,1392L1540,1378.200000L1526.200000,1377L1525,1390.800000Z" opacity="0.3" fill="none" stroke="rgb(255,255,255)" stroke-width="2" stroke-linecap="round" stroke-linejoin="round" stroke-miterlimit="10"/><path id="ezo9h5im8s1g55" d="M1493,1388.800000L1506.800000,1390L1508,1376.200000L1494.200000,1375L1493,1388.800000Z" opacity="0.3" fill="none" stroke="rgb(255,255,255)" stroke-width="2" stroke-linecap="round" stroke-linejoin="round" stroke-miterlimit="10"/><path id="ezo9h5im8s1g56" d="M963,1513C1049.100000,1476.800000,1199.800000,1424,1393.300000,1424C1585.100000,1424,1739.100000,1476,1825,1511.900000" opacity="0.3" fill="none" stroke="rgb(255,255,255)" stroke-width="2" stroke-linecap="round" stroke-linejoin="round" stroke-miterlimit="10"/><path id="ezo9h5im8s1g57" d="M1627.900000,1319.400000C1640.700000,1319.400000,1653.600000,1320.100000,1666.400000,1319C1678.400000,1318,1684.800000,1314.900000,1685,1301.100000C1685.100000,1289.300000,1677.300000,1284.500000,1666.500000,1285.900000C1668.500000,1277.200000,1671.700000,1267.600000,1668.300000,1258.800000C1664.200000,1248.200000,1652.900000,1243.200000,1642,1243C1621.700000,1242.700000,1605.600000,1264.200000,1618,1277C1611.300000,1268.100000,1603.600000,1250,1583.800000,1262.500000C1575.200000,1267.900000,1568,1281.300000,1580.500000,1290.700000C1573,1290.600000,1562.800000,1296.200000,1563,1304.600000C1563.200000,1315.500000,1577.600000,1318.600000,1586,1319.300000C1599.800000,1320.700000,1614.100000,1319.500000,1627.900000,1319.400000Z" opacity="0.3" fill="none" stroke="rgb(255,255,255)" stroke-width="2" stroke-linecap="round" stroke-linejoin="round" stroke-miterlimit="10"/><path id="ezo9h5im8s1g58" d="M1753.200000,1355.500000C1763.500000,1355.500000,1773.900000,1356.100000,1784.100000,1355.200000C1793.800000,1354.400000,1798.900000,1351.900000,1799,1340.800000C1799.100000,1331.300000,1792.800000,1327.500000,1784.100000,1328.500000C1785.700000,1321.500000,1788.300000,1313.800000,1785.600000,1306.700000C1782.300000,1298.200000,1773.200000,1294.100000,1764.400000,1294C1748.100000,1293.700000,1735.200000,1311,1745.100000,1321.400000C1739.700000,1314.200000,1733.600000,1299.700000,1717.600000,1309.700000C1710.700000,1314.100000,1704.900000,1324.800000,1714.900000,1332.400000C1708.900000,1332.300000,1700.700000,1336.800000,1700.800000,1343.600000C1700.900000,1352.300000,1712.500000,1354.900000,1719.300000,1355.500000C1730.500000,1356.600000,1742,1355.600000,1753.200000,1355.500000Z" opacity="0.3" fill="none" stroke="rgb(255,255,255)" stroke-width="2" stroke-linecap="round" stroke-linejoin="round" stroke-miterlimit="10"/><path id="ezo9h5im8s1g59" d="M1726.100000,1405C1722.200000,1421.100000,1706,1431,1690,1427.100000C1689.900000,1427.100000,1689.800000,1427,1689.700000,1427C1673.500000,1422.700000,1663.900000,1406.100000,1668,1389.900000C1671.900000,1373.800000,1688,1363.900000,1704.100000,1367.800000C1704.200000,1367.800000,1704.300000,1367.900000,1704.400000,1367.900000C1720.600000,1372.300000,1730.200000,1388.800000,1726.100000,1405Z" opacity="0.3" fill="none" stroke="rgb(255,255,255)" stroke-width="2" stroke-linecap="round" stroke-linejoin="round" stroke-miterlimit="10"/><path id="ezo9h5im8s1g60" d="M1685,1464L1694,1427" opacity="0.3" fill="none" stroke="rgb(255,255,255)" stroke-width="2" stroke-linecap="round" stroke-linejoin="round" stroke-miterlimit="10"/><path id="ezo9h5im8s1g61" d="M1677,1462L1686,1425" opacity="0.3" fill="none" stroke="rgb(255,255,255)" stroke-width="2" stroke-linecap="round" stroke-linejoin="round" stroke-miterlimit="10"/><path id="ezo9h5im8s1g62" d="M1697,1419L1713,1412" opacity="0.3" fill="none" stroke="rgb(255,255,255)" stroke-width="2" stroke-linecap="round" stroke-linejoin="round" stroke-miterlimit="10"/><path id="ezo9h5im8s1g63" d="M1699,1408L1715,1401" opacity="0.3" fill="none" stroke="rgb(255,255,255)" stroke-width="2" stroke-linecap="round" stroke-linejoin="round" stroke-miterlimit="10"/><path id="ezo9h5im8s1g64" d="M1700,1395L1716,1388" opacity="0.3" fill="none" stroke="rgb(255,255,255)" stroke-width="2" stroke-linecap="round" stroke-linejoin="round" stroke-miterlimit="10"/><path id="ezo9h5im8s1g65" d="M1687,1416L1677,1402" opacity="0.3" fill="none" stroke="rgb(255,255,255)" stroke-width="2" stroke-linecap="round" stroke-linejoin="round" stroke-miterlimit="10"/><path id="ezo9h5im8s1g66" d="M1689,1403L1679,1389" opacity="0.3" fill="none" stroke="rgb(255,255,255)" stroke-width="2" stroke-linecap="round" stroke-linejoin="round" stroke-miterlimit="10"/><path id="ezo9h5im8s1g67" d="M1693,1393L1683,1379" opacity="0.3" fill="none" stroke="rgb(255,255,255)" stroke-width="2" stroke-linecap="round" stroke-linejoin="round" stroke-miterlimit="10"/><path id="ezo9h5im8s1g68" d="M1298,1388.800000L1284.200000,1390L1283,1376.200000L1296.800000,1375L1298,1388.800000Z" opacity="0.3" fill="none" stroke="rgb(255,255,255)" stroke-width="2" stroke-linecap="round" stroke-linejoin="round" stroke-miterlimit="10"/><path id="ezo9h5im8s1g69" d="M1163.900000,1448L1155.900000,1395.300000L1216,1385.900000L1176,1354L1147,1396.400000" opacity="0.3" fill="none" stroke="rgb(255,255,255)" stroke-width="2" stroke-linecap="round" stroke-linejoin="round" stroke-miterlimit="10"/><path id="ezo9h5im8s1g70" d="M1183.400000,1445L1180,1422.800000L1191.600000,1421L1195,1443.200000" opacity="0.3" fill="none" stroke="rgb(255,255,255)" stroke-width="2" stroke-linecap="round" stroke-linejoin="round" stroke-miterlimit="10"/><path id="ezo9h5im8s1g71" d="M1215,1440L1208,1388" opacity="0.3" fill="none" stroke="rgb(255,255,255)" stroke-width="2" stroke-linecap="round" stroke-linejoin="round" stroke-miterlimit="10"/><path id="ezo9h5im8s1g72" d="M1177,1412.300000L1165.700000,1414L1164,1402.700000L1175.300000,1401L1177,1412.300000Z" opacity="0.3" fill="none" stroke="rgb(255,255,255)" stroke-width="2" stroke-linecap="round" stroke-linejoin="round" stroke-miterlimit="10"/><path id="ezo9h5im8s1g73" d="M1203,1409.300000L1191.700000,1411L1190,1399.700000L1201.300000,1398L1203,1409.300000Z" opacity="0.3" fill="none" stroke="rgb(255,255,255)" stroke-width="2" stroke-linecap="round" stroke-linejoin="round" stroke-miterlimit="10"/><path id="ezo9h5im8s1g74" d="M1626.100000,1448L1634.100000,1395.300000L1574,1385.900000L1614,1354L1643,1396.400000" opacity="0.3" fill="none" stroke="rgb(255,255,255)" stroke-width="2" stroke-linecap="round" stroke-linejoin="round" stroke-miterlimit="10"/><path id="ezo9h5im8s1g75" d="M1606.600000,1445L1610,1422.800000L1598.400000,1421L1595,1443.200000" opacity="0.3" fill="none" stroke="rgb(255,255,255)" stroke-width="2" stroke-linecap="round" stroke-linejoin="round" stroke-miterlimit="10"/><path id="ezo9h5im8s1g76" d="M1575,1440L1582,1388" opacity="0.3" fill="none" stroke="rgb(255,255,255)" stroke-width="2" stroke-linecap="round" stroke-linejoin="round" stroke-miterlimit="10"/><path id="ezo9h5im8s1g77" d="M1613,1412.300000L1624.300000,1414L1626,1402.700000L1614.700000,1401L1613,1412.300000Z" opacity="0.3" fill="none" stroke="rgb(255,255,255)" stroke-width="2" stroke-linecap="round" stroke-linejoin="round" stroke-miterlimit="10"/><path id="ezo9h5im8s1g78" d="M1587,1409.300000L1598.300000,1411L1600,1399.700000L1588.700000,1398L1587,1409.300000Z" opacity="0.3" fill="none" stroke="rgb(255,255,255)" stroke-width="2" stroke-linecap="round" stroke-linejoin="round" stroke-miterlimit="10"/><path id="ezo9h5im8s1g79" d="M1544.400000,1433L1550,1368.500000L1476,1361.900000L1522.300000,1320L1561,1369.100000" opacity="0.3" fill="none" stroke="rgb(255,255,255)" stroke-width="2" stroke-linecap="round" stroke-linejoin="round" stroke-miterlimit="10"/><path id="ezo9h5im8s1g80" d="M1520.600000,1430L1523,1402.300000L1508.400000,1401L1506,1428.700000" opacity="0.3" fill="none" stroke="rgb(255,255,255)" stroke-width="2" stroke-linecap="round" stroke-linejoin="round" stroke-miterlimit="10"/><path id="ezo9h5im8s1g81" d="M1479,1427L1485,1363" opacity="0.3" fill="none" stroke="rgb(255,255,255)" stroke-width="2" stroke-linecap="round" stroke-linejoin="round" stroke-miterlimit="10"/><path id="ezo9h5im8s1g82" d="M1437.500000,1427L1437.500000,1345" opacity="0.3" fill="none" stroke="rgb(255,255,255)" stroke-width="2" stroke-linecap="round" stroke-linejoin="round" stroke-miterlimit="10"/><g id="ezo9h5im8s1g83" opacity="0.3"><path id="ezo9h5im8s1g84" d="M1368,1376L1385,1376L1385,1358L1368,1358L1368,1376Z" fill="none" stroke="rgb(255,255,255)" stroke-width="2" stroke-linecap="round" stroke-linejoin="round" stroke-miterlimit="10"/><path id="ezo9h5im8s1g85" d="M1407,1376L1424,1376L1424,1358L1407,1358L1407,1376Z" fill="none" stroke="rgb(255,255,255)" stroke-width="2" stroke-linecap="round" stroke-linejoin="round" stroke-miterlimit="10"/><path id="ezo9h5im8s1g86" d="M1246.600000,1433L1241,1368.500000L1315,1361.900000L1268.700000,1320L1230,1369.100000" fill="none" stroke="rgb(255,255,255)" stroke-width="2" stroke-linecap="round" stroke-linejoin="round" stroke-miterlimit="10"/><path id="ezo9h5im8s1g87" d="M1270.400000,1430L1268,1402.300000L1282.600000,1401L1285,1428.700000" fill="none" stroke="rgb(255,255,255)" stroke-width="2" stroke-linecap="round" stroke-linejoin="round" stroke-miterlimit="10"/><path id="ezo9h5im8s1g88" d="M1311,1427L1305,1363" fill="none" stroke="rgb(255,255,255)" stroke-width="2" stroke-linecap="round" stroke-linejoin="round" stroke-miterlimit="10"/><path id="ezo9h5im8s1g89" d="M1266,1390.800000L1252.200000,1392L1251,1378.200000L1264.800000,1377L1266,1390.800000Z" fill="none" stroke="rgb(255,255,255)" stroke-width="2" stroke-linecap="round" stroke-linejoin="round" stroke-miterlimit="10"/></g><g id="ezo9h5im8s1g90" transform="matrix(1 0 0 1 106 916)" opacity="0.303"><path id="ezo9h5im8s1g91" d="M388.700000,558L364.600000,558L364.600000,544.800000L379.700000,523.700000L388.700000,558L388.700000,558ZM355,558L318,558L318,465.900000L337.500000,465.900000C331.100000,465.500000,326.200000,460.200000,326.200000,453.800000C326.200000,447.300000,331.400000,442,337.900000,442C338,442,338.100000,442,338.200000,442C341.400000,442,344.500000,443.400000,346.600000,445.900000L364,466L337.500000,466C337.700000,466,337.800000,466,338,466L363.600000,466L364.400000,466.800000L363.600000,466L364.100000,466L364.100000,466L364.600000,466L364.600000,489.300000L370,486.600000L365,467.500000L364.800000,466.600000L364.700000,466.100000L365.300000,466.100000L365.300000,466.100000L391.400000,466.100000C391.700000,466.100000,392,466.100000,392.200000,466.100000L365.300000,466.100000L382.700000,446C384.800000,443.500000,387.900000,442.100000,391.100000,442.100000C391.200000,442.100000,391.300000,442.100000,391.400000,442.100000C397.900000,442.100000,403.200000,447.400000,403.300000,453.900000L403.300000,453.900000C403.300000,460.200000,398.500000,465.400000,392.300000,466L411,466L378.800000,482L369.900000,486.400000L376.700000,512.400000L387.700000,512.400000L379.700000,523.600000L376.800000,512.400000L364.600000,512.400000L364.600000,489.100000L318,512.500000L364.500000,512.500000L364.500000,544.800000L355,558Z" fill="none" stroke="rgb(255,255,255)" stroke-width="2" stroke-linecap="round" stroke-linejoin="round" stroke-miterlimit="10"/><path id="ezo9h5im8s1g92" d="M591,557.900000L544.600000,557.900000L544.600000,466.700000L545.100000,466.700000L545.100000,466.700000L571.300000,466.700000C571.700000,466.700000,572,466.700000,572.400000,466.600000L545.200000,466.600000L562.600000,446.700000C564.700000,444.300000,567.800000,442.900000,571,442.900000C571.100000,442.900000,571.200000,442.900000,571.300000,442.900000C574.400000,442.900000,577.500000,444.100000,579.700000,446.300000C581.900000,448.500000,583.200000,451.500000,583.200000,454.600000C583.200000,457.600000,582.100000,460.400000,580.100000,462.600000C578.100000,464.800000,575.400000,466.200000,572.400000,466.500000L591,466.500000L591,557.900000L591,557.900000ZM544.200000,466.800000L544.200000,466.800000L518,466.800000C514.800000,466.700000,511.800000,465.500000,509.600000,463.200000C507.400000,461,506.100000,457.900000,506.200000,454.800000C506.200000,451.700000,507.500000,448.700000,509.700000,446.500000C511.900000,444.300000,514.900000,443.100000,518.100000,443.100000L518.100000,443.100000C518.200000,443.100000,518.300000,443.100000,518.400000,443.100000C521.600000,443.100000,524.700000,444.500000,526.800000,446.900000L544.200000,466.800000L544.200000,466.800000Z" fill="none" stroke="rgb(255,255,255)" stroke-width="2" stroke-linecap="round" stroke-linejoin="round" stroke-miterlimit="10"/><path id="ezo9h5im8s1g93" d="M511,612L454.700000,612L454.700000,600.600000L443,612L398,612L398,556.700000L398,556.700000L398,556.700000L398,556.700000L398,500.100000L422.200000,500.100000C414.200000,499.900000,407.800000,493.400000,407.800000,485.400000C407.800000,477.500000,414.200000,471,422.200000,471C422.300000,471,422.500000,471,422.600000,471C426.500000,471,430.200000,472.700000,432.800000,475.700000L454,500.100000L454.700000,500.100000L454.100000,500.700000L398.100000,556.600000L454.800000,556.600000L454.800000,600.500000L499.500000,556.600000L454.800000,556.600000L454.800000,500L511,500L511,612ZM487,500.100000L455.200000,500.100000L476.400000,475.700000C479,472.700000,482.700000,471,486.700000,471C486.800000,471,486.900000,471,487,471L487,471C494.900000,471,501.400000,477.400000,501.400000,485.400000C501.500000,493.400000,495.100000,500,487,500.100000Z" fill="none" stroke="rgb(255,255,255)" stroke-width="2" stroke-linecap="round" stroke-linejoin="round" stroke-miterlimit="10"/><path id="ezo9h5im8s1g94" d="M218.700000,416L218.300000,416L353.100000,360.200000L267.600000,269.200000C267.800000,269,267.900000,268.900000,268.100000,268.700000C295.700000,241.200000,295.700000,196.600000,268.200000,169C255,155.700000,237,148.300000,218.300000,148.300000L218.300000,148.300000C179.300000,148.400000,147.800000,180,147.900000,219C147.900000,237.600000,155.300000,255.500000,168.500000,268.700000C169.800000,270,171.200000,271.300000,172.600000,272.500000L92,370.700000L92,370.700000C7,300.900000,-5.400000,175.400000,64.400000,90.400000C100.800000,46,154.600000,19.500000,211.900000,17.600000C214,17.500000,216.200000,17.500000,218.300000,17.500000C298.800000,17.600000,371.400000,66.200000,402.100000,140.600000L354.100000,359.700000L358.900000,357.700000C321.800000,395,271.300000,416,218.700000,416L218.700000,416L218.700000,416ZM353.100000,360.200000L353.900000,361L354.200000,359.700000L353.100000,360.200000ZM55.900000,360.100000C50.600000,360.100000,46.200000,355.800000,46.200000,350.500000C46.200000,345.200000,50.500000,340.800000,55.800000,340.800000C61.100000,340.800000,65.500000,345.100000,65.500000,350.400000C65.500000,351.700000,65.300000,352.900000,64.800000,354.100000C63.300000,357.800000,59.800000,360.100000,55.900000,360.100000L55.900000,360.100000ZM19.300000,290.800000L19.300000,290.800000C13.900000,290.800000,9.600000,286.500000,9.600000,281.100000C9.600000,275.700000,13.900000,271.500000,19.300000,271.500000C24.700000,271.500000,28.900000,275.800000,28.900000,281.200000C28.900000,286.500000,24.600000,290.800000,19.300000,290.800000ZM218.300000,289.400000C201.500000,289.400000,185.300000,283.400000,172.600000,272.500000L218.300000,216.800000L267.600000,269.200000C254.500000,282.100000,236.700000,289.400000,218.300000,289.400000L218.300000,289.400000ZM9.800000,210.700000L9.800000,210.700000C4.400000,210.700000,0.100000,206.400000,0.100000,201C0.100000,195.700000,4.300000,191.400000,9.600000,191.400000L9.700000,191.400000C15,191.400000,19.300000,195.800000,19.300000,201.100000C19.300000,206.300000,15,210.600000,9.800000,210.700000ZM28,137.400000L28,137.400000C22.700000,137.400000,18.300000,133.100000,18.400000,127.800000C18.500000,122.500000,22.700000,118.200000,28,118.200000L28,118.200000C33.300000,118.200000,37.600000,122.500000,37.600000,127.800000C37.600000,133.100000,33.300000,137.400000,28,137.400000L28,137.400000ZM402.400000,127.800000L402.400000,127.800000C397,127.800000,392.700000,123.500000,392.700000,118.100000C392.700000,112.700000,397,108.500000,402.400000,108.500000C407.800000,108.500000,412,112.800000,412,118.200000C412,123.400000,407.700000,127.700000,402.400000,127.800000ZM77.400000,71.300000C72.100000,71.300000,67.800000,67,67.800000,61.700000L67.800000,61.700000C67.800000,56.400000,72.100000,52.100000,77.400000,52.100000C82.700000,52.100000,87,56.400000,87,61.700000C87,67,82.700000,71.300000,77.400000,71.300000L77.400000,71.300000L77.400000,71.300000ZM346,60.400000C340.700000,60.300000,336.500000,56,336.400000,50.800000L336.300000,50.800000C336.300000,45.500000,340.600000,41.200000,345.900000,41.200000C351.200000,41.200000,355.500000,45.500000,355.500000,50.800000C355.600000,56.100000,351.300000,60.400000,346,60.400000L346,60.400000L346,60.400000ZM158,25.500000L158,25.500000C152.600000,25.500000,148.300000,21.200000,148.300000,15.800000C148.300000,10.500000,152.600000,6.200000,158,6.200000C163.300000,6.200000,167.600000,10.500000,167.600000,15.900000C167.600000,21.200000,163.300000,25.500000,158,25.500000ZM259,19.300000L259,19.300000C253.700000,19.300000,249.400000,15,249.400000,9.600000C249.400000,5.700000,251.700000,2.200000,255.400000,0.700000C259,-0.800000,263.200000,0,265.900000,2.800000C269.700000,6.600000,269.700000,12.700000,265.900000,16.500000C264,18.300000,261.600000,19.300000,259,19.300000Z" fill="none" stroke="rgb(255,255,255)" stroke-width="2" stroke-linecap="round" stroke-linejoin="round" stroke-miterlimit="10"/><path id="ezo9h5im8s1g95" d="M482.100000,458.900000L482.100000,458.900000L479.900000,426.900000L480.300000,426.900000L458.500000,39.200000L458.500000,39.100000L458.500000,39.200000C458.900000,42.400000,460.900000,59.100000,464.400000,78.200000C469.200000,104.400000,474.300000,122.800000,479.700000,132.800000C485.500000,143.600000,494.600000,151.500000,501.200000,156.200000C505.300000,159.100000,509.600000,161.700000,514.200000,163.800000L514.200000,163.800000C511.100000,165.200000,507.900000,166.500000,504.700000,167.500000C501.600000,168.500000,498.400000,169.400000,495.100000,170.100000C491.600000,170.800000,488.100000,171.200000,484.500000,171.300000C482.500000,171.300000,480.500000,171.100000,478.600000,170.800000C482,180.100000,488,188.300000,495.900000,194.300000C502.700000,199,510,202.700000,517.700000,205.600000C521.400000,207,525.100000,208.200000,528.800000,209.200000L528.800000,209.200000C526.600000,211.300000,524.100000,213,521.300000,214.300000C518.100000,215.900000,514.700000,217.300000,511.200000,218.300000C506.300000,219.700000,501.300000,220.600000,496.200000,221.100000C502.500000,232.200000,512,247.800000,522.400000,254.900000C532.100000,261.100000,543,265.200000,554.400000,266.900000L554.400000,266.900000C549.600000,270.200000,544.400000,273,539.100000,275.300000C533.700000,277.700000,528.200000,279.600000,522.500000,281.100000C515.900000,282.800000,509,283.700000,502.200000,283.700000C503.800000,287,505.700000,290,507.800000,292.900000C513.300000,300.300000,519.800000,306.900000,527.300000,312.300000C535.700000,318.500000,544.800000,323.600000,554.400000,327.600000C558.100000,329.100000,561.800000,330.400000,565.700000,331.300000L565.700000,331.300000C561.300000,333.700000,556.700000,335.800000,552,337.600000C546.900000,339.600000,541.500000,341.500000,535.900000,343.100000C528.900000,345.100000,521.700000,346.800000,514.500000,348L514.800000,348.600000C522.800000,362.600000,529.700000,374.700000,550.300000,389.300000C558.100000,394.800000,567.600000,398.700000,574.300000,401C578.500000,402.500000,582.700000,403.700000,587,404.700000L587,404.700000C585.300000,406,583.600000,407.100000,581.800000,408.200000C576.700000,411.200000,571.400000,413.800000,566,415.900000C557.300000,419.300000,548.400000,421.800000,539.300000,423.600000C526.800000,426,514.200000,427.100000,501.500000,427.100000L480.400000,427.100000L482.100000,458.900000L482.100000,458.900000ZM442.300000,426.900000L426.900000,426.900000C413.600000,426.900000,400.400000,425.700000,387.300000,423.400000C376.900000,421.600000,366.700000,419,356.700000,415.700000C339.900000,410.200000,330.100000,404.600000,330,404.500000L330,404.500000C334.300000,403.500000,338.500000,402.200000,342.700000,400.800000C349.400000,398.500000,358.900000,394.600000,366.700000,389.100000C387.500000,374.400000,394.300000,362.200000,402.200000,348.100000L402.300000,347.900000C395.100000,346.700000,387.900000,345,380.900000,343C375.300000,341.400000,369.900000,339.500000,364.800000,337.500000C360.100000,335.700000,355.600000,333.600000,351.100000,331.200000C355,330.300000,358.700000,329.100000,362.400000,327.500000C372,323.600000,381.100000,318.400000,389.500000,312.200000C396.900000,306.700000,403.500000,300.200000,409,292.800000C411.200000,289.900000,413.100000,286.800000,414.600000,283.600000L414.500000,283.600000C407.600000,283.600000,400.800000,282.700000,394.200000,281C388.500000,279.600000,382.900000,277.600000,377.600000,275.300000C372.300000,273,367.100000,270.200000,362.300000,267C373.700000,265.300000,384.600000,261.200000,394.300000,255C406,247,416.900000,227.600000,420.500000,221.200000C415.400000,220.700000,410.400000,219.800000,405.600000,218.400000C402.100000,217.400000,398.800000,216.100000,395.500000,214.400000C392.800000,213.100000,390.200000,211.400000,388,209.300000L388,209.300000C391.800000,208.300000,395.500000,207.100000,399.100000,205.700000C406.800000,202.900000,414.100000,199.100000,420.900000,194.400000C428.900000,188.400000,434.900000,180.100000,438.300000,170.700000C436.300000,171,434.400000,171.200000,432.400000,171.200000C428.800000,171.200000,425.300000,170.800000,421.800000,170C418.600000,169.300000,415.400000,168.500000,412.200000,167.400000C408.900000,166.300000,405.700000,165.100000,402.600000,163.700000C407.200000,161.600000,411.500000,159,415.600000,156.100000C422.200000,151.400000,431.200000,143.600000,437.100000,132.700000C442.500000,122.600000,447.700000,104.300000,452.500000,78.100000C456.100000,58.200000,458.200000,41,458.400000,39.100000L458.400000,39.200000L442.300000,426.900000Z" fill="none" stroke="rgb(255,255,255)" stroke-width="2" stroke-linecap="round" stroke-linejoin="round" stroke-miterlimit="10"/><path id="ezo9h5im8s1g96" d="M186.200000,596C183.500000,596,181,594.700000,179.400000,592.600000L122.800000,522.100000C123.200000,526,122.800000,529.900000,121.400000,533.500000C120.400000,536,118.800000,538.100000,116.700000,539.700000C114.600000,541.400000,112.100000,542.500000,109.400000,542.900000L95.800000,545.100000L53.300000,551.500000C52,551.800000,50.800000,552,49.500000,552C47.300000,552.100000,45.100000,551.400000,43.300000,550C41.800000,548.800000,40.700000,547.200000,40.300000,545.300000C39.900000,543.400000,40.200000,541.500000,41.100000,539.800000C42.200000,537.800000,43.900000,536.300000,46,535.400000L91.800000,524.200000C93.700000,523,94.600000,520.900000,94.200000,518.700000L78.700000,518.700000C84,512.900000,88.800000,506.700000,93,500.100000C99.600000,489.900000,107.400000,474.400000,107.500000,458.700000L107.500000,458.700000C107.500000,458.500000,107.500000,458.300000,107.500000,458.100000C99.300000,465.400000,75.600000,485.200000,75.400000,485.400000C72.100000,488.400000,67,488.100000,64.100000,484.800000C61.400000,481.800000,61.400000,477.100000,64.100000,474.100000L66.300000,471.600000C71.800000,466,108.600000,433.100000,115.900000,428.700000C119.600000,426.400000,123.800000,425.200000,128.200000,425.300000C132.500000,425.400000,136.800000,426.200000,140.800000,427.800000C145.100000,429.400000,148.900000,432.100000,151.700000,435.700000C154.600000,439.200000,156.900000,443.100000,158.700000,447.200000C161.300000,453.200000,166.600000,463.300000,167.200000,464.400000L167.200000,464.400000L193,464.400000C197.300000,464.400000,200.800000,467.900000,200.800000,472.200000C200.800000,476.500000,197.300000,480,193,480L156.500000,480C156.400000,479.800000,146.400000,457.700000,144.500000,455.600000L152.200000,499.500000C149,489.500000,146.700000,479.200000,145.500000,468.800000C145,464.600000,144.700000,460.400000,144.600000,456.100000L103.200000,518.900000C109.200000,519,115.300000,519.700000,121.200000,520.800000C133.600000,523.100000,145.800000,526.400000,157.700000,530.600000L152.200000,499.300000C156.200000,511.900000,161.900000,523.800000,169.200000,534.800000C165.300000,533.300000,161.500000,531.900000,157.700000,530.500000L157.800000,530.800000L192.600000,581.800000C195.600000,585.300000,195.300000,590.600000,191.800000,593.600000C190.600000,594.700000,189,595.400000,187.400000,595.600000C187,596,186.600000,596,186.200000,596ZM139.900000,420.600000L139.900000,420.600000C130.900000,420.600000,123.600000,413.300000,123.600000,404.300000C123.600000,395.300000,130.900000,388,139.900000,388C148.900000,388,156.200000,395.300000,156.200000,404.300000C156.200000,410.900000,152.200000,416.900000,146.100000,419.400000C144.100000,420.100000,142,420.600000,139.900000,420.600000L139.900000,420.600000Z" fill="none" stroke="rgb(255,255,255)" stroke-width="2" stroke-linecap="round" stroke-linejoin="round" stroke-miterlimit="10"/><g id="ezo9h5im8s1g97" transform="matrix(1 0 0 1 556 144)"><path id="ezo9h5im8s1g98" d="M110.400000,180.300000C92.100000,180.300000,74.300000,174.700000,59.300000,164.300000C56.500000,162.400000,53.800000,160.300000,51.300000,158.100000L125.900000,177.700000C125.800000,174.800000,124.700000,172,123,169.700000C120.200000,166,114.300000,161.400000,101.400000,160.900000C97.300000,160.600000,93.300000,159.400000,89.800000,157.300000C86.400000,155.300000,83.200000,153.100000,80.200000,150.700000L80.200000,150.700000C78.100000,148.900000,75.700000,147.300000,73.200000,146C71.800000,145.400000,70.200000,145.100000,68.600000,145.100000C64.600000,145.100000,60.500000,147.200000,56.500000,151.300000C54.500000,153.400000,52.800000,155.600000,51.300000,158.100000C40.100000,148.400000,31.600000,136,26.300000,122.100000L0,122.100000L141.200000,121L125.900000,121.800000L113,143.600000L133,143.600000L153.700000,120.900000L141.300000,121L154.300000,120.300000L153.700000,120.900000L195.100000,120.600000C182.400000,156.100000,148.900000,179.900000,111.200000,180.300000C111,180.300000,110.800000,180.300000,110.400000,180.300000ZM239.300000,119.800000L84.100000,119.800000C78.500000,119.800000,73.300000,116.700000,70.700000,111.700000L60.100000,91.300000L190.100000,91.300000C206.600000,91.300000,222.400000,97.700000,234.300000,109.200000L241,115.600000C241.800000,116.300000,242,117.400000,241.600000,118.400000C241.300000,119.200000,240.300000,119.900000,239.300000,119.800000ZM60.100000,91.300000L20.900000,91.300000L27.600000,89.100000L20.300000,90.300000C20.200000,40.500000,60.400000,0.200000,110.100000,0C149.200000,-0.100000,183.900000,25.100000,195.900000,62.300000L194.500000,62.500000L194.600000,62.500000L172,25.500000L172,25.500000C170.200000,26.900000,168.500000,28.400000,167,30.200000C164.700000,32.900000,161.900000,37,161.800000,41.900000C161.600000,48.200000,164,49.900000,167.800000,52.500000C170.500000,54.200000,173,56.300000,175.200000,58.600000C177.300000,61.100000,179.900000,63,182.800000,64.500000L56.800000,84.500000L60.100000,91.300000L60.100000,91.300000ZM44.600000,61.300000L54.400000,80.100000L27.600000,89L56.600000,84.400000L54.400000,80.100000L73.700000,73.700000L61.200000,61.300000L44.600000,61.300000ZM149.200000,9.900000L64.300000,12.700000L64.300000,12.700000C65.400000,15.600000,66.900000,18.400000,68.800000,20.900000C72.600000,26.300000,78.200000,30.200000,84.500000,31.800000C91.800000,33.500000,95.100000,40.700000,98.300000,47.600000C101.500000,54.500000,104.500000,61.100000,111.200000,61.900000C111.600000,61.900000,112,62,112.500000,62C117.700000,62,122.800000,58.300000,127.300000,51.200000C131.400000,44.300000,134.400000,36.700000,136,28.800000C137.500000,20.800000,142.300000,14,149.200000,9.900000ZM187.300000,65.500000C185.700000,65.500000,184.100000,65.100000,182.600000,64.400000L194.400000,62.500000C192.500000,64.400000,190,65.500000,187.300000,65.500000L187.300000,65.500000Z" fill="none" stroke="rgb(255,255,255)" stroke-width="2" stroke-linecap="round" stroke-linejoin="round" stroke-miterlimit="10"/><path id="ezo9h5im8s1g99" d="M188.200000,110.300000C185.700000,110.300000,183.800000,108.200000,183.800000,105.800000C183.800000,103.400000,185.800000,101.400000,188.200000,101.400000L188.400000,101.500000C190.700000,101.600000,192.600000,103.500000,192.700000,105.900000C192.600000,108.300000,190.600000,110.300000,188.200000,110.300000ZM165.900000,110.300000C163.400000,110.300000,161.500000,108.200000,161.500000,105.800000C161.500000,103.400000,163.500000,101.400000,165.900000,101.400000L166.100000,101.500000C168.500000,101.600000,170.300000,103.500000,170.400000,105.900000C170.300000,108.300000,168.400000,110.300000,165.900000,110.300000ZM143.600000,110.300000C141.100000,110.300000,139.200000,108.200000,139.200000,105.800000C139.200000,103.400000,141.200000,101.400000,143.600000,101.400000L143.700000,101.500000C146.100000,101.600000,148,103.500000,148,105.900000C148.100000,108.300000,146.100000,110.300000,143.600000,110.300000L143.600000,110.300000ZM121.300000,110.300000C118.800000,110.300000,116.900000,108.200000,116.900000,105.800000C116.900000,103.400000,118.900000,101.400000,121.300000,101.400000L121.400000,101.500000C123.800000,101.600000,125.700000,103.500000,125.700000,105.900000C125.800000,108.300000,123.800000,110.300000,121.300000,110.300000L121.300000,110.300000ZM99,110.300000C96.500000,110.300000,94.500000,108.300000,94.500000,105.800000C94.500000,103.300000,96.500000,101.300000,99,101.300000C101.500000,101.300000,103.500000,103.300000,103.500000,105.800000L103.500000,105.800000C103.500000,108.300000,101.500000,110.300000,99,110.300000L99,110.300000Z" fill="none" stroke="rgb(255,255,255)" stroke-width="2" stroke-linecap="round" stroke-linejoin="round" stroke-miterlimit="10"/></g></g><path id="ezo9h5im8s1g100" d="M1542.200000,779.900000L1737.400000,779.900000L1737.400000,721.400000C1737.400000,678.300000,1757,653,1757,618.500000C1757,612.200000,1754.600000,603.600000,1740.600000,599.400000L1714.200000,593.500000L1702.100000,540.500000C1699.300000,531.900000,1686.400000,533.300000,1687.600000,545L1693.700000,615.500000L1666.300000,602.900000C1657.700000,599.500000,1647.700000,609.700000,1658.300000,618.500000L1686.800000,641C1695.500000,649.300000,1693.500000,655.500000,1693.500000,663.600000" fill="none" stroke="rgb(255,255,255)" stroke-width="2" stroke-linecap="round" stroke-linejoin="round" stroke-miterlimit="10" stroke-dashoffset="680.060000" stroke-dasharray="680.060000"/><path id="ezo9h5im8s1g101" d="M1170.200000,789.600000L1170.200000,1001.700000L1220.300000,1001.700000L1229,1001.900000L1288.800000,1001.900000C1307,1001.900000,1316.600000,990.300000,1316.600000,972.900000C1316.600000,948.600000,1330.700000,941.600000,1330.700000,941.600000L1330.700000,840.600000C1330.700000,822.100000,1315.500000,804.400000,1291.200000,820.700000C1259.100000,842.300000,1233.600000,827.400000,1233.600000,827.400000L1182.600000,939.800000C1214.900000,961.100000,1256.800000,961.100000,1289.200000,939.800000L1225.400000,811.900000C1242,825.600000,1266,825.800000,1282.900000,812.400000C1300.300000,799.500000,1304.500000,798.500000,1315.400000,800L1317,800.100000C1320.800000,800.900000,1324.500000,802.500000,1327.600000,804.900000C1333.300000,809.700000,1327,814.300000,1323.100000,810C1318.600000,805.500000,1316.200000,799.300000,1316.400000,792.900000C1316.500000,782.100000,1325.300000,773.400000,1336.100000,773.500000C1346.800000,773.600000,1355.500000,782.200000,1355.500000,792.900000C1355.500000,795.500000,1354.900000,798.100000,1353.800000,800.500000C1363.500000,799.100000,1371.400000,801.300000,1388.600000,814.100000C1405.500000,827.500000,1429.400000,827.400000,1446.100000,813.600000L1382.300000,939C1414.600000,960.300000,1456.500000,960.300000,1488.900000,939L1437.800000,829.200000C1437.800000,829.200000,1409.100000,842.400000,1376.800000,820.800000C1352.500000,804.400000,1342.500000,822.200000,1342.500000,840.700000L1342.500000,941.700000C1342.500000,941.700000,1356.600000,948.800000,1356.600000,973C1356.600000,990.300000,1366.300000,1002,1384.400000,1002L1474.800000,1002L1478.900000,1001.600000L1504.500000,1001.600000L1504.500000,794.300000" fill="none" stroke="rgb(255,255,255)" stroke-width="2" stroke-linecap="round" stroke-linejoin="round" stroke-miterlimit="10" stroke-dashoffset="-2326.310000" stroke-dasharray="2326.310000"/><path id="ezo9h5im8s1g102" d="M1097.400000,708.600000C1096.200000,707,1094.800000,705.600000,1093.300000,704.300000C1086.900000,698.900000,1078.800000,698,1070.800000,700C1057.900000,703.400000,1051.600000,715.400000,1041.700000,723.100000C1029.700000,732.400000,1018.300000,735.500000,1003.600000,735.300000L1000.700000,735.300000C987.400000,735.300000,974.200000,727.900000,965.400000,718.100000C957.900000,709.800000,951.900000,699,950.800000,687.800000C949.700000,675.700000,953.100000,663.600000,960.200000,653.800000C968.300000,642.500000,977.600000,641.500000,990.700000,640.500000" fill="none" stroke="rgb(255,255,255)" stroke-width="2" stroke-linecap="round" stroke-linejoin="round" stroke-miterlimit="10" stroke-dashoffset="-256.490000" stroke-dasharray="256.490000"/><path id="ezo9h5im8s1g103" d="M1057.200000,747.700000L1072,755.800000L1071.300000,739.200000L1088.200000,743L1082.900000,727.800000L1106.400000,730.400000C1105.200000,723,1102.300000,715,1097.600000,708.900000" fill="none" stroke="rgb(255,255,255)" stroke-width="2" stroke-linecap="round" stroke-linejoin="round" stroke-miterlimit="10" stroke-dashoffset="-114.010000" stroke-dasharray="114.010000"/><path id="ezo9h5im8s1g104" d="M1171,757.500000C1153.800000,757.600000,1136.700000,760.900000,1120.700000,767C1086.100000,780.600000,1044.700000,805.300000,996.200000,771.200000" fill="none" stroke="rgb(255,255,255)" stroke-width="2" stroke-linecap="round" stroke-linejoin="round" stroke-miterlimit="10" stroke-dashoffset="-183.300000" stroke-dasharray="183.300000"/><path id="ezo9h5im8s1g105" d="M1188.500000,754.700000C1188.500000,754.700000,1208.400000,786.700000,1170.100000,788.300000C1131.800000,789.900000,1123.500000,789.800000,1123.500000,789.800000C1123.500000,789.800000,1052.200000,806.500000,1026.600000,799.100000C1000.900000,791.800000,993.900000,775.700000,995.600000,770.200000C997.300000,764.500000,1042.500000,753.900000,1042.500000,753.900000C1058.300000,749,1072.400000,739.500000,1082.800000,726.500000C1090.300000,716.400000,1098.400000,706.900000,1107.200000,698C1107.200000,698,1119,711.300000,1127.300000,721C1138.700000,734.100000,1144.300000,730.200000,1158.600000,721C1171.800000,712.400000,1190.700000,720.800000,1188.300000,739.400000C1188.300000,739.400000,1187.600000,754.300000,1188.500000,754.700000L1188.500000,754.700000L1188.500000,754.700000L1188.500000,754.700000Z" fill="none" stroke="rgb(255,255,255)" stroke-width="2" stroke-linecap="round" stroke-linejoin="round" stroke-miterlimit="10" stroke-dashoffset="504.360000" stroke-dasharray="504.360000"/><path id="ezo9h5im8s1g106" d="M1501.700000,325.600000L1501.700000,445.219712" fill="none" stroke="rgb(255,255,255)" stroke-width="2" stroke-linecap="round" stroke-linejoin="round" stroke-miterlimit="10" stroke-dashoffset="120.600000" stroke-dasharray="120.600000"/><path id="ezo9h5im8s1g107" d="M1440.700000,389.600000C1440.700000,421.800000,1464.600000,446.300000,1501.800000,446.300000L1577.800000,446.300000L1581.200000,446.200000L1726.100000,446.200000C1730,446.600000,1733,450,1732.900000,454L1732.900000,577C1732.900000,580.700000,1729.900000,583.800000,1726.100000,583.800000L1712.100000,583.800000" fill="none" stroke="rgb(255,255,255)" stroke-width="2" stroke-linecap="round" stroke-linejoin="round" stroke-miterlimit="10" stroke-dashoffset="-476.860000" stroke-dasharray="476.860000"/><path id="ezo9h5im8s1g108" d="M1408.700000,239.200000C1408.700000,239.200000,1408.100000,266.900000,1439.400000,270.900000C1470.700000,274.900000,1469.800000,298,1469.800000,304.600000C1469.800000,325.200000,1440.700000,328.600000,1440.700000,352L1440.700000,391.500000" fill="none" stroke="rgb(255,255,255)" stroke-width="2" stroke-linecap="round" stroke-linejoin="round" stroke-miterlimit="10" stroke-dashoffset="196.610000" stroke-dasharray="196.610000"/><path id="ezo9h5im8s1g109" d="M1489.800000,276.400000C1484.500000,283.400000,1476.600000,287.800000,1467.900000,288.700000" fill="none" stroke="rgb(255,255,255)" stroke-width="2" stroke-linecap="round" stroke-linejoin="round" stroke-miterlimit="10" stroke-dashoffset="-25.840000" stroke-dasharray="25.840000"/><path id="ezo9h5im8s1g110" d="M1463.500000,319.300000C1471.700000,322.500000,1478.200000,328.900000,1481.500000,336.900000" fill="none" stroke="rgb(255,255,255)" stroke-width="2" stroke-linecap="round" stroke-linejoin="round" stroke-miterlimit="10" stroke-dashoffset="25.870000" stroke-dasharray="25.870000"/><path id="ezo9h5im8s1g111" d="M1444.400000,308C1451.700000,303.200000,1460.700000,301.700000,1469.200000,303.800000" fill="none" stroke="rgb(255,255,255)" stroke-width="2" stroke-linecap="round" stroke-linejoin="round" stroke-miterlimit="10" stroke-dashoffset="-25.880000" stroke-dasharray="25.880000"/><path id="ezo9h5im8s1g112" d="M1388.400000,292.100000C1395.700000,287.400000,1404.700000,285.900000,1413.200000,287.900000" fill="none" stroke="rgb(255,255,255)" stroke-width="2" stroke-linecap="round" stroke-linejoin="round" stroke-miterlimit="10" stroke-dashoffset="-25.840000" stroke-dasharray="25.840000"/><path id="ezo9h5im8s1g113" d="M1341.900000,266.600000C1350.400000,268.500000,1357.800000,273.800000,1362.300000,281.300000" transform="matrix(1 0 0 1 -0.90000000000009 1.24999999999994)" fill="none" stroke="rgb(255,255,255)" stroke-width="2" stroke-linecap="round" stroke-linejoin="round" stroke-miterlimit="10" stroke-dashoffset="-25.850000" stroke-dasharray="25.850000"/><path id="ezo9h5im8s1g114" d="M1439.700000,271.100000C1439.700000,262.300000,1443.300000,254,1449.700000,247.900000" fill="none" stroke="rgb(255,255,255)" stroke-width="2" stroke-linecap="round" stroke-linejoin="round" stroke-miterlimit="10" stroke-dashoffset="25.970000" stroke-dasharray="25.970000"/><path id="ezo9h5im8s1g115" d="M1421.600000,310C1415.700000,303.900000,1412.500000,295.600000,1412.800000,287.200000C1413,278.700000,1416.500000,270.700000,1422.600000,264.800000" fill="none" stroke="rgb(255,255,255)" stroke-width="2" stroke-linecap="round" stroke-linejoin="round" stroke-miterlimit="10" stroke-dashoffset="-50.190000" stroke-dasharray="50.190000"/><path id="ezo9h5im8s1g116" d="M1410.500000,248.400000C1404.400000,254.300000,1396.100000,257.500000,1387.700000,257.300000C1379.200000,257.100000,1371.100000,253.500000,1365.300000,247.300000" fill="none" stroke="rgb(255,255,255)" stroke-width="2" stroke-linecap="round" stroke-linejoin="round" stroke-miterlimit="10" stroke-dashoffset="50.310000" stroke-dasharray="50.310000"/><path id="ezo9h5im8s1g117" d="M1326.600000,294.200000C1346.300000,276.900000,1351,291.100000,1366.300000,279.200000C1380.300000,268.200000,1379.600000,256.600000,1379.600000,256.600000" fill="none" stroke="rgb(255,255,255)" stroke-width="2" stroke-linecap="round" stroke-linejoin="round" stroke-miterlimit="10" stroke-dashoffset="-70.680000" stroke-dasharray="70.680000"/><path id="ezo9h5im8s1g118" d="M1140.800000,447.900000L963.200000,447.900000C956.400000,448.100000,951,453.800000,951.100000,460.600000L951.100000,503.900000" fill="none" stroke="rgb(255,255,255)" stroke-width="2" stroke-linecap="round" stroke-linejoin="round" stroke-miterlimit="10" stroke-dashoffset="240.340000" stroke-dasharray="240.340000"/><path id="ezo9h5im8s1g119" d="M1403.200000,219C1415.900000,211.500000,1431.900000,212.900000,1443,222.600000C1445.300000,222.100000,1447.700000,221.900000,1450,221.900000C1462.800000,221.900000,1474.600000,229.100000,1480.400000,240.400000C1489.100000,243.100000,1496.500000,249.200000,1500.800000,257.300000C1505.100000,265.400000,1505.900000,274.900000,1503.100000,283.700000C1512.400000,296.600000,1511.600000,314.200000,1501.100000,326.200000C1500.600000,332.400000,1498.200000,338.400000,1494.400000,343.400000C1492.800000,346.300000,1490.500000,348.700000,1487.700000,350.400000C1468.200000,363.200000,1471.100000,387.300000,1471.100000,387.300000" fill="none" stroke="rgb(255,255,255)" stroke-width="2" stroke-linecap="round" stroke-linejoin="round" stroke-miterlimit="10" stroke-dashoffset="-258.480000" stroke-dasharray="258.480000"/><path id="ezo9h5im8s1g120" d="M1522.300000,763.400000C1533.600000,763.500000,1542.700000,772.600000,1542.600000,783.900000C1542.500000,795.200000,1533.400000,804.300000,1522.100000,804.200000C1517.500000,804.200000,1513,802.600000,1509.400000,799.700000C1502.400000,794.100000,1499.900000,784.600000,1503.300000,776.300000" fill="none" stroke="rgb(255,255,255)" stroke-width="2" stroke-linecap="round" stroke-linejoin="round" stroke-miterlimit="10" stroke-dashoffset="-103.800000" stroke-dasharray="103.800000"/><path id="ezo9h5im8s1g121" d="M1628.200000,605.100000C1619,612,1592.200000,622.200000,1589.700000,618.900000C1585.400000,613.200000,1596.700000,609.200000,1599.500000,608.800000C1599.500000,608.800000,1636.700000,600.200000,1636.700000,646.100000C1636.700000,692.100000,1581.400000,742.900000,1581.400000,742.900000L1579.800000,743.300000C1579.400000,742.700000,1524.200000,692.100000,1524.200000,646.100000C1524.200000,600.100000,1561.500000,608.200000,1561.500000,608.200000C1569.800000,610.100000,1577.900000,613.900000,1573.900000,618.800000C1571.800000,621.500000,1557.300000,618,1549.400000,608.200000C1541.200000,598.400000,1530.300000,587.100000,1528.200000,574.500000" fill="none" stroke="rgb(255,255,255)" stroke-width="2" stroke-linecap="round" stroke-linejoin="round" stroke-miterlimit="10" stroke-dashoffset="501.120000" stroke-dasharray="501.120000"/><path id="ezo9h5im8s1g122" d="M1580.200000,743.700000C1580.200000,774.700000,1605.400000,799.900000,1636.400000,799.900000C1667.400000,799.900000,1692.600000,774.700000,1692.600000,743.700000C1692.600000,647.700000,1526,653.800000,1526,763.400000" fill="none" stroke="rgb(255,255,255)" stroke-width="2" stroke-linecap="round" stroke-linejoin="round" stroke-miterlimit="10" stroke-dashoffset="431.450000" stroke-dasharray="431.450000"/><path id="ezo9h5im8s1g123" d="M1246.700000,241.800000L1222.400000,269.200000L1214.900000,263.100000" fill="none" stroke="rgb(255,255,255)" stroke-width="2" stroke-linecap="round" stroke-linejoin="round" stroke-miterlimit="10" stroke-dashoffset="-46.290000" stroke-dasharray="46.290000"/><path id="ezo9h5im8s1g124" d="M950.800000,687.800000L950.300000,787.400000L1003.017692,787.400000" fill="none" stroke="rgb(255,255,255)" stroke-width="2" stroke-linecap="round" stroke-linejoin="round" stroke-miterlimit="10" stroke-dashoffset="152.900000" stroke-dasharray="152.900000"/><path id="ezo9h5im8s1g125" d="M1212.900000,334.600000C1240.500000,319.900000,1225.500000,300.200000,1225.500000,300.200000L1225.500000,298.800000L1235,293.300000L1252.200000,276.600000L1228.200000,281L1215.200000,288.200000C1216,281.100000,1213.100000,273.200000,1200.900000,276.100000C1196,277.200000,1191.300000,278.500000,1186.500000,280.100000L1186.500000,230.700000L1273.400000,230.700000L1273.400000,357.400000L1226.200000,357.400000" fill="none" stroke="rgb(255,255,255)" stroke-width="2" stroke-linecap="round" stroke-linejoin="round" stroke-miterlimit="10" stroke-dashoffset="466.330000" stroke-dasharray="466.330000"/><path id="ezo9h5im8s1g126" d="M1440.700000,370.800000C1440.700000,348,1427.400000,334.200000,1407.900000,325.200000C1402.400000,322.900000,1397.400000,319.300000,1393.400000,314.800000C1382,324,1366,324.800000,1353.700000,316.900000C1337.200000,326.100000,1316.400000,320.100000,1307.200000,303.600000C1298,287.100000,1304,266.300000,1320.500000,257.100000C1321.500000,256.500000,1322.600000,256,1323.700000,255.500000C1327.100000,240.200000,1340.500000,229.200000,1356.200000,228.900000L1290.700000,228.900000C1290.800000,225.800000,1289.600000,222.700000,1287.300000,220.500000C1285.100000,218.200000,1282.100000,217,1278.900000,217.100000L1260,217.100000L1260,205.900000L1241.800000,205.900000C1241.500000,200,1236.400000,195.400000,1230.500000,195.700000C1225,196,1220.600000,200.400000,1220.300000,205.900000L1202.100000,205.900000L1202.100000,217.200000L1182.800000,217.200000C1176.200000,217.200000,1170.700000,222.400000,1170.500000,229.100000L1170.500000,290.600000C1163.600000,300.100000,1157.900000,310.400000,1153.500000,321.200000L1113.300000,341.900000L1120.100000,354L1189.400000,317.800000" fill="none" stroke="rgb(255,255,255)" stroke-width="2" stroke-linecap="round" stroke-linejoin="round" stroke-miterlimit="10" stroke-dashoffset="743.360000" stroke-dasharray="743.360000"/><path id="ezo9h5im8s1g127" d="M1148.600000,340.600000C1148.800000,346.700000,1149.500000,352.700000,1150.900000,358.600000C1150.900000,358.600000,1170.600000,397.300000,1170.600000,430.500000L1170.600000,465.600000" fill="none" stroke="rgb(255,255,255)" stroke-width="2" stroke-linecap="round" stroke-linejoin="round" stroke-miterlimit="10" stroke-dashoffset="-128.390000" stroke-dasharray="128.390000"/><path id="ezo9h5im8s1g128" d="M1141.600000,464.100000L1142.500000,601.600000L1012.500000,601.600000L1012.500000,465.400000L1216.800000,465.400000L1216.800000,396.600000C1223.200000,388.400000,1226.600000,378.400000,1226.500000,368C1226.500000,355.500000,1221.600000,343.500000,1212.900000,334.500000L1212.900000,314.700000L1212.900000,302.400000C1212.900000,291.500000,1200.200000,289.700000,1197,299L1179.100000,347.200000" fill="none" stroke="rgb(255,255,255)" stroke-width="2" stroke-linecap="round" stroke-linejoin="round" stroke-miterlimit="10" stroke-dashoffset="852.560000" stroke-dasharray="852.560000"/><path id="ezo9h5im8s1g129" d="" fill="none" stroke="rgb(255,255,255)" stroke-width="2" stroke-linecap="round" stroke-linejoin="round" stroke-miterlimit="10"/><path id="ezo9h5im8s1g130" d="M995,464.100000L995,605.500000" fill="none" stroke="rgb(255,255,255)" stroke-width="2" stroke-linecap="round" stroke-linejoin="round" stroke-miterlimit="10" stroke-dashoffset="141.400000" stroke-dasharray="141.400000"/><path id="ezo9h5im8s1g131" d="M1142.100000,539.100000L1122.400000,539.200000C1112.900000,539.100000,1116.100000,521,1109,521C1100.400000,521,1103.300000,554.800000,1096.400000,554.800000C1088.800000,554.800000,1089.700000,501.800000,1077.600000,501.800000C1064.400000,501.800000,1068.100000,566.600000,1055.500000,566.600000C1040.600000,566.500000,1044.300000,536.600000,1034.100000,536.600000L998.300000,536.600000L994.200000,536.600000C962.300000,536.900000,944.200000,567.700000,916,567.700000" fill="none" stroke="rgb(255,255,255)" stroke-width="2" stroke-linecap="round" stroke-linejoin="round" stroke-miterlimit="10" stroke-dashoffset="-377.240000" stroke-dasharray="377.240000"/><path id="ezo9h5im8s1g132" d="M995.100000,486.800000C962.700000,486.800000,944.600000,518,916.100000,518L916.100000,611.600000C944.500000,611.600000,962.600000,580.400000,995.100000,580.400000L995.100000,488.600000" fill="none" stroke="rgb(255,255,255)" stroke-width="2" stroke-linecap="round" stroke-linejoin="round" stroke-miterlimit="10" stroke-dashoffset="-357.890000" stroke-dasharray="357.890000"/><g id="ezo9h5im8s1g133" transform="matrix(1 0 0 1 214.84800000000001 292.79300000000001)"><path id="ezo9h5im8s1g134" d="M916,264.600000L927.300000,264.600000" fill="none" stroke="rgb(255,255,255)" stroke-width="2" stroke-linecap="round" stroke-linejoin="round" stroke-miterlimit="10" stroke-dashoffset="-11.300000" stroke-dasharray="11.300000"/><path id="ezo9h5im8s1g135" d="M916,287.800000L927.300000,287.800000" fill="none" stroke="rgb(255,255,255)" stroke-width="2" stroke-linecap="round" stroke-linejoin="round" stroke-miterlimit="10" stroke-dashoffset="-11.300000" stroke-dasharray="11.300000"/><path id="ezo9h5im8s1g136" d="M916,196.600000L925.952000,196.607000" fill="none" stroke="rgb(255,255,255)" stroke-width="2" stroke-linecap="round" stroke-linejoin="round" stroke-miterlimit="10" stroke-dashoffset="-10.700000" stroke-dasharray="10.700000"/><path id="ezo9h5im8s1g137" d="M916,219.900000L925.952000,219.900000" fill="none" stroke="rgb(255,255,255)" stroke-width="2" stroke-linecap="round" stroke-linejoin="round" stroke-miterlimit="10" stroke-dashoffset="-10.700000" stroke-dasharray="10.700000"/></g><path id="ezo9h5im8s1g138" d="M1013.100000,556.040800L1024,556.040800" fill="none" stroke="rgb(255,255,255)" stroke-width="2" stroke-linecap="round" stroke-linejoin="round" stroke-miterlimit="10" stroke-dashoffset="11.300000" stroke-dasharray="11.300000"/><path id="ezo9h5im8s1g139" d="M1013.100000,579.400000L1024,579.400000" fill="none" stroke="rgb(255,255,255)" stroke-width="2" stroke-linecap="round" stroke-linejoin="round" stroke-miterlimit="10" stroke-dashoffset="11.300000" stroke-dasharray="11.300000"/><path id="ezo9h5im8s1g140" d="M1013.100000,488.500000L1024,488.500000" fill="none" stroke="rgb(255,255,255)" stroke-width="2" stroke-linecap="round" stroke-linejoin="round" stroke-miterlimit="10" stroke-dashoffset="11.300000" stroke-dasharray="11.300000"/><path id="ezo9h5im8s1g141" d="M1013.100000,511.600000L1024,511.600000" fill="none" stroke="rgb(255,255,255)" stroke-width="2" stroke-linecap="round" stroke-linejoin="round" stroke-miterlimit="10" stroke-dashoffset="11.300000" stroke-dasharray="11.300000"/><path id="ezo9h5im8s1g142" d="M950.800000,598.400000L950.800000,620.900000C950.800000,620.900000,985.200000,644,1071.400000,667.600000C1134.400000,684.900000,1146.600000,665.100000,1154.400000,653.600000" fill="none" stroke="rgb(255,255,255)" stroke-width="2" stroke-linecap="round" stroke-linejoin="round" stroke-miterlimit="10" stroke-dashoffset="243.330000" stroke-dasharray="243.330000"/><path id="ezo9h5im8s1g143" d="M1600.500000,536.100000C1600.500000,536.100000,1634.300000,570.400000,1690.400000,536.100000" fill="none" stroke="rgb(255,255,255)" stroke-width="2" stroke-linecap="round" stroke-linejoin="round" stroke-miterlimit="10" stroke-dashoffset="-96.600000" stroke-dasharray="96.600000"/><path id="ezo9h5im8s1g144" d="M1558.800000,481.700000C1535,474.700000,1521.400000,481,1514.600000,496.600000" fill="none" stroke="rgb(255,255,255)" stroke-width="2" stroke-linecap="round" stroke-linejoin="round" stroke-miterlimit="10" stroke-dashoffset="-52.010000" stroke-dasharray="52.010000"/><path id="ezo9h5im8s1g145" d="M1494.300000,526.700000C1515,525.600000,1512.700000,501.200000,1514.700000,496.500000" fill="none" stroke="rgb(255,255,255)" stroke-width="2" stroke-linecap="round" stroke-linejoin="round" stroke-miterlimit="10" stroke-dashoffset="40.440000" stroke-dasharray="40.440000"/><path id="ezo9h5im8s1g146" d="M1528.100000,574.500000C1564.100000,567.400000,1561.600000,531.100000,1561.600000,531.100000L1587.300000,501.800000L1587.900000,501C1594,492.700000,1585.400000,484.100000,1577.600000,489.400000L1548.800000,508.700000C1538.300000,514.800000,1532.500000,500.400000,1545.100000,498.600000C1555.600000,497.100000,1560.700000,499.800000,1560.700000,499.800000" fill="none" stroke="rgb(255,255,255)" stroke-width="2" stroke-linecap="round" stroke-linejoin="round" stroke-miterlimit="10" stroke-dashoffset="198.340000" stroke-dasharray="198.340000"/><path id="ezo9h5im8s1g147" d="M1690.900000,583.800000L1566.700000,583.800000C1563,583.800000,1559.900000,580.800000,1559.900000,577L1559.900000,545.200000" transform="matrix(1 0 0 1 0.59999999999991 0)" fill="none" stroke="rgb(255,255,255)" stroke-width="2" stroke-linecap="round" stroke-linejoin="round" stroke-miterlimit="10" stroke-dashoffset="-166.680000" stroke-dasharray="166.680000"/><path id="ezo9h5im8s1g148" d="M1560.700000,499.900000L1559.800000,446.500000" fill="none" stroke="rgb(255,255,255)" stroke-width="2" stroke-linecap="round" stroke-linejoin="round" stroke-miterlimit="10" stroke-dashoffset="-53.410000" stroke-dasharray="53.410000"/><g id="ezo9h5im8s1g149" transform="matrix(1 0 0 1 350.32900000000001 462.07900000000001)"><path id="ezo9h5im8s1g150" d="M986.500000,295.900000C968,292,951.900000,280.500000,942.200000,264.300000C932.600000,248,930.200000,228.500000,935.600000,210.400000C954.100000,214.300000,970.200000,225.800000,979.900000,242C982.300000,246.700000,984.500000,251.600000,986.300000,256.600000C993.600000,233.100000,1013,215.400000,1037.100000,210.400000C1042.700000,228.500000,1040.300000,248.100000,1030.500000,264.300000C1020.800000,280.600000,1004.700000,292.100000,986.200000,295.900000" fill="none" stroke="rgb(255,255,255)" stroke-width="2" stroke-linecap="round" stroke-linejoin="round" stroke-miterlimit="10" stroke-dashoffset="-367.770000" stroke-dasharray="367.770000"/><path id="ezo9h5im8s1g151" d="M987.900000,295.700000C972.800000,300,956.500000,297.700000,943.100000,289.500000C929.400000,281.100000,919.800000,267.500000,916.500000,251.800000C932,247.700000,948.500000,250.200000,962.200000,258.500000C963.500000,259.300000,964.800000,260.100000,966,261.100000C960.600000,237.400000,968.400000,212.700000,986.200000,196.300000C1000.200000,209,1008.200000,227.100000,1008.100000,246C1008.100000,251.500000,1007.400000,256.900000,1006.200000,262.200000C1008,260.900000,1009.800000,259.600000,1011.700000,258.400000C1025.100000,250.200000,1041.400000,247.900000,1056.500000,252.200000C1053.500000,267.600000,1044.200000,281,1030.800000,289.200000C1017.400000,297.400000,1001.100000,299.700000,986,295.400000" fill="none" stroke="rgb(255,255,255)" stroke-width="2" stroke-linecap="square" stroke-linejoin="round" stroke-miterlimit="10" stroke-dashoffset="435.550000" stroke-dasharray="435.550000"/></g><g id="ezo9h5im8s1g152"><path id="ezo9h5im8s1g153" d="M1337,537C1346.500000,531.800000,1360.500000,517.200000,1370,512" fill="none" stroke="rgb(255,255,255)" stroke-width="3" stroke-miterlimit="10" stroke-dashoffset="41.460000" stroke-dasharray="41.460000"/><path id="ezo9h5im8s1g154" d="M1153,655.200000C1163.100000,640.100000,1168.600000,626.300000,1174.500000,610C1181.600000,590.500000,1188.300000,568.400000,1183.200000,547.400000C1181.700000,541.400000,1179.100000,535.300000,1174.400000,531.400000C1173.700000,530.800000,1172.600000,531,1172.100000,531.700000C1172,531.800000,1171.900000,532,1171.800000,532.200000C1170.800000,535.500000,1170.400000,539,1170.700000,542.400000C1170.900000,557,1172.100000,571.700000,1172.500000,586.300000C1173.300000,608.100000,1173.100000,629.800000,1173,651.700000L1172.800000,674.800000C1172.800000,675,1173,675,1173,674.800000C1175,654.400000,1178.900000,630.700000,1191.500000,612.900000C1193,610.500000,1195.200000,608.700000,1197.800000,607.700000C1201.800000,606.500000,1205.700000,608.800000,1208.200000,612.300000C1216.500000,624.100000,1214.800000,640.600000,1216.600000,655.400000C1216.700000,656.800000,1217.100000,658.200000,1217.700000,659.500000C1222.100000,665.800000,1231.200000,647.400000,1233.300000,644C1240.100000,633.300000,1248.900000,623.900000,1252.800000,611C1254.600000,604.800000,1254.900000,593.800000,1247.100000,595.700000C1241.200000,597.200000,1237,606.100000,1235,612.300000C1232.300000,620.300000,1231.300000,629.500000,1233.400000,637.500000C1234.600000,642.400000,1237.100000,647,1240.800000,649.500000C1255.400000,659.400000,1265.600000,639.200000,1267.600000,625.700000C1268.400000,620.100000,1268.300000,614.600000,1269.100000,609C1270,603.100000,1270.500000,600,1271.700000,597.400000C1275,590.300000,1283.300000,583.100000,1291.800000,585.200000C1302.400000,587.700000,1304.800000,602.700000,1305.100000,605.300000C1305.500000,607.500000,1305.600000,609.800000,1305.300000,612C1305.200000,613.900000,1302.600000,623.800000,1296.500000,629.800000C1292,634.300000,1284.300000,636.700000,1278.100000,633.100000C1273.300000,630.300000,1271.500000,625.200000,1270.500000,622.400000C1267.700000,613.900000,1268.200000,604.600000,1272.100000,596.600000C1273.300000,593.700000,1275.100000,591.100000,1277.400000,589C1282.900000,584.100000,1290.600000,583.900000,1298,587.600000C1298.800000,588,1299.800000,587.700000,1300.200000,586.900000C1300.300000,586.600000,1300.400000,586.400000,1300.400000,586.100000C1300.200000,582.100000,1299.900000,578.100000,1299.700000,574.100000C1302.400000,589.600000,1305.100000,605.200000,1307.600000,620.900000C1310,636.800000,1317.200000,613.600000,1318.300000,609.200000C1322.100000,594.600000,1324.900000,579.700000,1326.800000,564.800000C1328.400000,552.900000,1330,541,1330.500000,529C1331.100000,518.200000,1331.700000,504.900000,1327,495.600000C1326.500000,494.800000,1325.900000,494,1325.100000,494.200000C1324.800000,494.400000,1324.500000,494.700000,1324.300000,495C1321.700000,499.300000,1322,505.200000,1321.700000,510.200000C1321.200000,516.700000,1320.800000,523.100000,1320.600000,529.600000C1319.900000,548.600000,1320.400000,567.600000,1322.300000,586.500000C1322.900000,592.500000,1323.400000,598.500000,1324.600000,604.300000C1325.600000,609.600000,1329.200000,614.300000,1333.900000,614.300000C1346.800000,614.500000,1350.300000,591.900000,1351.400000,580.500000C1353,564.100000,1354.600000,547.500000,1355.400000,531C1356.100000,517.500000,1356.600000,503.800000,1355.900000,490.500000C1355.700000,487.100000,1353.200000,481.500000,1350.400000,486.800000C1349.900000,487.900000,1349.500000,489.200000,1349.300000,490.400000C1345,514.300000,1346.200000,539.100000,1346.500000,563.100000C1346.600000,572.600000,1345.700000,599.200000,1356.100000,601.100000C1357.500000,601.300000,1359,601,1360.300000,600.300000C1369.600000,595.500000,1373.800000,579.700000,1376.600000,569.400000C1382.500000,548.700000,1385.100000,527.200000,1384.300000,505.700000C1383.800000,495.500000,1384.200000,485.100000,1381.400000,475.300000C1379.600000,469.100000,1376.600000,473.900000,1376.600000,478.500000C1376.800000,508.100000,1377.500000,537.700000,1379.100000,567.200000C1379.300000,571.800000,1379.200000,577,1379.600000,581.800000C1388.600000,582.100000,1374.100000,581.600000,1383,581.900000C1383.900000,576.300000,1384.600000,570.200000,1384.800000,569.400000C1386.600000,558.900000,1387.100000,544.300000,1394.100000,536.100000C1399.200000,530.100000,1406.300000,530.400000,1411.300000,535.200000C1417,540.500000,1418,550.200000,1417.600000,558.700000C1417.300000,567,1417,572.300000,1418.200000,572.500000C1419.600000,572.800000,1422.600000,565.100000,1424.400000,559.500000C1431.400000,538,1431.300000,530.900000,1434.600000,521.100000C1435.600000,518,1438.200000,513.800000,1437.900000,509.300000C1437.900000,508.800000,1437.600000,506,1436,505.300000C1434.300000,504.500000,1432.200000,506.500000,1431.900000,506.700000C1429,509.500000,1429.600000,516.200000,1430.800000,526C1432.700000,542.400000,1434.400000,555.400000,1439.200000,563.800000C1440.300000,565.700000,1441.900000,568,1444.400000,568.800000C1446.600000,569.300000,1449,568.900000,1451,567.800000C1458.400000,563.900000,1461.600000,545.200000,1463.200000,529.700000C1465.700000,505.900000,1464.300000,490.400000,1465.200000,490.300000C1466.100000,490.100000,1468.400000,506.100000,1469.300000,525C1469.900000,536.700000,1469.200000,544.400000,1468.400000,560.100000C1468.100000,566.600000,1467,573.100000,1466.100000,579.500000C1463.800000,595.500000,1462.500000,612.400000,1458.200000,627.900000C1456.200000,635,1452.400000,642.200000,1446,646C1443.300000,647.700000,1439.600000,648.600000,1436.800000,646.900000C1436,646.400000,1433.500000,644.400000,1434.300000,636C1435.100000,628,1438.500000,620.600000,1442.400000,613.700000C1447.400000,605,1453.100000,596.600000,1458.100000,587.900000C1463.100000,579.100000,1468.600000,570.400000,1472.200000,560.900000C1474.600000,554.700000,1475.100000,548.200000,1476.500000,541.600000C1477.400000,537.300000,1480.700000,530.800000,1484.600000,528.400000C1487,526.900000,1492.500000,526.100000,1495.200000,526.400000" fill="none" stroke="rgb(255,255,255)" stroke-width="4" stroke-miterlimit="10" stroke-dashoffset="2299.370000" stroke-dasharray="2299.370000"/></g><path id="ezo9h5im8s1g155" d="M1347.700000,453.400000C1347.700000,453.400000,1299.100000,403.400000,1296.200000,388.400000C1293.300000,373.400000,1302.500000,349.900000,1331.100000,356.300000C1348.600000,360.200000,1369.100000,397.600000,1348.600000,397.600000C1329.600000,397.600000,1342.900000,361.200000,1366.400000,355C1389.100000,349,1411.600000,376.700000,1395.400000,397.600000C1372.500000,427.200000,1348.200000,453.500000,1348.200000,453.500000" fill="none" stroke="rgb(255,255,255)" stroke-width="2" stroke-linecap="round" stroke-linejoin="round" stroke-miterlimit="10" stroke-dashoffset="-399.100000" stroke-dasharray="399.100000"/><line id="ezo9h5im8s1g156" x1="1171" y1="757.500000" x2="1170.200000" y2="787.400000" fill="none" stroke="rgb(255,255,255)" stroke-width="2" stroke-linecap="round" stroke-linejoin="round" stroke-miterlimit="10" stroke-dashoffset="30.810000" stroke-dasharray="30.810000"/><path id="ezo9h5im8s1g157" d="" fill="none" stroke="rgb(255,255,255)" stroke-width="2" stroke-linecap="round" stroke-linejoin="round" stroke-miterlimit="10"/><path id="ezo9h5im8s1g158" d="M1114.700000,1044C1114.700000,1044,988.200000,1119.800000,964.500000,1194.200000C940.800000,1268.600000,1041.500000,1386.600000,1041.500000,1386.600000L1185,1528" fill="none" stroke="rgb(255,255,255)" stroke-width="3" stroke-miterlimit="10" stroke-dashoffset="631.590000" stroke-dasharray="631.590000"/></svg>