<svg id="euae1rnu4efc1" xmlns="http://www.w3.org/2000/svg" xmlns:xlink="http://www.w3.org/1999/xlink" viewBox="0 0 1920 1318" shape-rendering="geometricPrecision" text-rendering="geometricPrecision"><defs><linearGradient id="euae1rnu4efc2-fill" x1="65.952000" y1="-52.490800" x2="1854.048000" y2="1370.535600" spreadMethod="pad" gradientUnits="userSpaceOnUse"><stop id="euae1rnu4efc2-fill-0" offset="0%" stop-color="rgb(48,154,214)"/><stop id="euae1rnu4efc2-fill-1" offset="100%" stop-color="rgb(41,56,130)"/></linearGradient></defs><rect id="euae1rnu4efc2" width="1920" height="1318" rx="0" ry="0" fill="url(#euae1rnu4efc2-fill)" stroke="none" stroke-width="1"/><path id="euae1rnu4efc3" d="M1865,1234.300000L1832,1197.200000" opacity="0.77" fill="none" stroke="rgb(99,134,188)" stroke-width="2" stroke-miterlimit="10"/><path id="euae1rnu4efc4" d="M955.600000,1271.400000C930.500000,1271.500000,914.900000,1235.400000,932.600000,1220.700000C937.600000,1216.600000,943.700000,1214.600000,943.200000,1207.200000C942.800000,1200.400000,936,1193.600000,934.100000,1187C927.300000,1163.700000,960,1147.300000,981.400000,1162.800000C990.500000,1169.300000,993.500000,1180.200000,988.900000,1189.600000C983.100000,1201.100000,977.700000,1210.300000,989.200000,1221.100000C994,1225.600000,997.400000,1227.400000,998.600000,1233.900000C999.800000,1240.500000,998.800000,1247.200000,995.700000,1253.300000C989.700000,1265.100000,980.500000,1268.400000,966.900000,1272.300000" fill="none" stroke="rgb(99,134,188)" stroke-width="2" stroke-miterlimit="10"/><path id="euae1rnu4efc5" d="M955.500000,1301.600000L955.500000,1223.100000" fill="none" stroke="rgb(99,134,188)" stroke-width="2" stroke-miterlimit="10"/><path id="euae1rnu4efc6" d="M966.500000,1302.500000L966.500000,1222.300000" fill="none" stroke="rgb(99,134,188)" stroke-width="2" stroke-miterlimit="10"/><path id="euae1rnu4efc7" d="M956,1260.200000L932,1233.500000" fill="none" stroke="rgb(99,134,188)" stroke-width="2" stroke-miterlimit="10"/><path id="euae1rnu4efc8" d="M966,1242.100000L981,1228.300000" fill="none" stroke="rgb(99,134,188)" stroke-width="2" stroke-miterlimit="10"/><path id="euae1rnu4efc9" d="M774,1306.200000C787.900000,1304.700000,799.600000,1309,810.500000,1316.300000C813.300000,1311.300000,816.100000,1305.200000,820.800000,1301.400000C823.300000,1299.500000,826,1297.900000,828.900000,1296.500000" fill="none" stroke="rgb(99,134,188)" stroke-width="2" stroke-miterlimit="10"/><path id="euae1rnu4efc10" d="M843,1293.400000C852.400000,1290.400000,854.400000,1290.100000,864.200000,1291.800000C869.900000,1292.800000,879.800000,1302.300000,883.100000,1297.600000C889.900000,1282.900000,919.100000,1265,937,1279.300000C942.900000,1284,949.900000,1294.400000,950.600000,1296.600000C951.200000,1298.300000,952.100000,1300,953.100000,1301.600000" fill="none" stroke="rgb(99,134,188)" stroke-width="2" stroke-miterlimit="10"/><path id="euae1rnu4efc11" d="M1387,1229.200000L1387,1199.900000L1405,1199.900000L1405,1229.200000" opacity="0.77" fill="none" stroke="rgb(99,134,188)" stroke-width="2" stroke-miterlimit="10"/><path id="euae1rnu4efc12" d="M1355,1230.900000L1355,1159.200000L1450,1159.200000L1395.700000,1108.500000L1341,1158.900000" opacity="0.77" fill="none" stroke="rgb(99,134,188)" stroke-width="2" stroke-miterlimit="10"/><path id="euae1rnu4efc13" d="M1099,1201.600000L1109,1189.500000" fill="none" stroke="rgb(99,134,188)" stroke-width="2" stroke-miterlimit="10"/><path id="euae1rnu4efc14" d="M1092,1198.100000L1087,1183.400000" fill="none" stroke="rgb(99,134,188)" stroke-width="2" stroke-miterlimit="10"/><path id="euae1rnu4efc15" d="M827.200000,1281.400000C792.600000,1281.600000,771.100000,1230.900000,795.500000,1210.300000C802.300000,1204.500000,810.800000,1201.700000,810.200000,1191.400000C809.600000,1181.900000,800.300000,1172.400000,797.600000,1163C788.300000,1130.400000,833.300000,1107.200000,862.800000,1129C875.400000,1138.200000,879.500000,1153.400000,873.200000,1166.500000C865.200000,1182.600000,857.700000,1195.600000,873.600000,1210.700000C880.200000,1217,884.900000,1219.500000,886.500000,1228.700000C888.100000,1237.900000,886.700000,1247.400000,882.400000,1255.900000C874.100000,1272.400000,861.400000,1277,842.700000,1282.600000" fill="none" stroke="rgb(99,134,188)" stroke-width="2" stroke-miterlimit="10"/><path id="euae1rnu4efc16" d="M828.500000,1324.900000L828.500000,1213.600000" fill="none" stroke="rgb(99,134,188)" stroke-width="2" stroke-miterlimit="10"/><path id="euae1rnu4efc17" d="M842.500000,1324.900000L842.500000,1213.600000" fill="none" stroke="rgb(99,134,188)" stroke-width="2" stroke-miterlimit="10"/><path id="euae1rnu4efc18" d="M829,1266.200000L796,1229.100000" fill="none" stroke="rgb(99,134,188)" stroke-width="2" stroke-miterlimit="10"/><path id="euae1rnu4efc19" d="M843,1241.200000L864,1222.200000" fill="none" stroke="rgb(99,134,188)" stroke-width="2" stroke-miterlimit="10"/><path id="euae1rnu4efc20" d="M1864.200000,1248.600000C1829.600000,1248.800000,1808.100000,1198.100000,1832.500000,1177.500000C1839.300000,1171.700000,1847.800000,1168.900000,1847.200000,1158.600000C1846.600000,1149.100000,1837.300000,1139.600000,1834.600000,1130.200000C1825.300000,1097.600000,1870.300000,1074.400000,1899.800000,1096.200000C1912.400000,1105.400000,1916.500000,1120.600000,1910.200000,1133.700000C1902.200000,1149.800000,1894.700000,1162.800000,1910.600000,1177.900000C1917.200000,1184.200000,1921.900000,1186.700000,1923.500000,1195.900000C1925.100000,1205.100000,1923.700000,1214.600000,1919.400000,1223.100000C1911.100000,1239.600000,1898.400000,1244.200000,1879.700000,1249.800000" opacity="0.77" fill="none" stroke="rgb(99,134,188)" stroke-width="2" stroke-miterlimit="10"/><path id="euae1rnu4efc21" d="M1865.500000,1287.800000L1865.500000,1180.800000" opacity="0.77" fill="none" stroke="rgb(99,134,188)" stroke-width="2" stroke-miterlimit="10"/><path id="euae1rnu4efc22" d="M1879.500000,1289.500000L1879.500000,1180" opacity="0.77" fill="none" stroke="rgb(99,134,188)" stroke-width="2" stroke-miterlimit="10"/><path id="euae1rnu4efc23" d="M1879,1208.500000L1900,1189.500000" opacity="0.77" fill="none" stroke="rgb(99,134,188)" stroke-width="2" stroke-miterlimit="10"/><path id="euae1rnu4efc24" d="M1034,1243L1022,1237.800000" fill="none" stroke="rgb(99,134,188)" stroke-width="2" stroke-miterlimit="10"/><path id="euae1rnu4efc25" d="M1033,1234.300000L1021,1229.100000" fill="none" stroke="rgb(99,134,188)" stroke-width="2" stroke-miterlimit="10"/><path id="euae1rnu4efc26" d="M1044,1247.300000L1051,1238.700000" fill="none" stroke="rgb(99,134,188)" stroke-width="2" stroke-miterlimit="10"/><path id="euae1rnu4efc27" d="M1041,1239.500000L1048,1230.900000" fill="none" stroke="rgb(99,134,188)" stroke-width="2" stroke-miterlimit="10"/><path id="euae1rnu4efc28" d="M1038,1233.500000L1045,1224.900000" fill="none" stroke="rgb(99,134,188)" stroke-width="2" stroke-miterlimit="10"/><path id="euae1rnu4efc29" d="M1034,1230.900000L1030,1220.500000" fill="none" stroke="rgb(99,134,188)" stroke-width="2" stroke-miterlimit="10"/><path id="euae1rnu4efc30" d="M1065.900000,1211.900000C1069.800000,1225.800000,1086,1234.300000,1102,1231C1102.100000,1231,1102.200000,1231,1102.300000,1230.900000C1118.500000,1227.200000,1128.100000,1212.900000,1124,1198.900000C1120.100000,1185,1104,1176.500000,1087.900000,1179.800000C1087.800000,1179.800000,1087.700000,1179.800000,1087.600000,1179.900000C1071.400000,1183.700000,1061.800000,1197.900000,1065.900000,1211.900000Z" fill="none" stroke="rgb(99,134,188)" stroke-width="2" stroke-miterlimit="10"/><path id="euae1rnu4efc31" d="M1106,1262.800000L1097,1230.900000" fill="none" stroke="rgb(99,134,188)" stroke-width="2" stroke-miterlimit="10"/><path id="euae1rnu4efc32" d="M1115,1261.100000L1106,1229.200000" fill="none" stroke="rgb(99,134,188)" stroke-width="2" stroke-miterlimit="10"/><path id="euae1rnu4efc33" d="M1095,1224L1079,1218" fill="none" stroke="rgb(99,134,188)" stroke-width="2" stroke-miterlimit="10"/><path id="euae1rnu4efc34" d="M1092,1214.500000L1076,1208.500000" fill="none" stroke="rgb(99,134,188)" stroke-width="2" stroke-miterlimit="10"/><path id="euae1rnu4efc35" d="M1092,1203.300000L1076,1197.300000" fill="none" stroke="rgb(99,134,188)" stroke-width="2" stroke-miterlimit="10"/><path id="euae1rnu4efc36" d="M1105,1221.400000L1115,1209.300000" fill="none" stroke="rgb(99,134,188)" stroke-width="2" stroke-miterlimit="10"/><path id="euae1rnu4efc37" d="M1102,1210.200000L1112,1198.100000" fill="none" stroke="rgb(99,134,188)" stroke-width="2" stroke-miterlimit="10"/><path id="euae1rnu4efc38" d="M1699,1198.100000L1704,1183.400000" opacity="0.77" fill="none" stroke="rgb(99,134,188)" stroke-width="2" stroke-miterlimit="10"/><path id="euae1rnu4efc39" d="M1777.300000,1241.300000C1774.500000,1251.500000,1762.700000,1257.800000,1750.900000,1255.400000C1750.800000,1255.400000,1750.700000,1255.400000,1750.600000,1255.300000C1738.700000,1252.500000,1731.600000,1242,1734.700000,1231.700000C1737.500000,1221.500000,1749.300000,1215.200000,1761.100000,1217.600000C1761.200000,1217.600000,1761.300000,1217.600000,1761.400000,1217.700000C1773.300000,1220.500000,1780.400000,1231,1777.300000,1241.300000Z" opacity="0.77" fill="none" stroke="rgb(99,134,188)" stroke-width="2" stroke-miterlimit="10"/><path id="euae1rnu4efc40" d="M1747,1279.200000L1754,1255" opacity="0.77" fill="none" stroke="rgb(99,134,188)" stroke-width="2" stroke-miterlimit="10"/><path id="euae1rnu4efc41" d="M1740,1277.500000L1747,1253.300000" opacity="0.77" fill="none" stroke="rgb(99,134,188)" stroke-width="2" stroke-miterlimit="10"/><path id="euae1rnu4efc42" d="M1755,1249.900000L1767,1244.700000" opacity="0.77" fill="none" stroke="rgb(99,134,188)" stroke-width="2" stroke-miterlimit="10"/><path id="euae1rnu4efc43" d="M1757,1243L1769,1237.800000" opacity="0.77" fill="none" stroke="rgb(99,134,188)" stroke-width="2" stroke-miterlimit="10"/><path id="euae1rnu4efc44" d="M1758,1234.300000L1770,1229.100000" opacity="0.77" fill="none" stroke="rgb(99,134,188)" stroke-width="2" stroke-miterlimit="10"/><path id="euae1rnu4efc45" d="M1748,1247.300000L1741,1238.700000" opacity="0.77" fill="none" stroke="rgb(99,134,188)" stroke-width="2" stroke-miterlimit="10"/><path id="euae1rnu4efc46" d="M1750,1239.500000L1743,1230.900000" opacity="0.77" fill="none" stroke="rgb(99,134,188)" stroke-width="2" stroke-miterlimit="10"/><path id="euae1rnu4efc47" d="M1753,1233.500000L1746,1224.900000" opacity="0.77" fill="none" stroke="rgb(99,134,188)" stroke-width="2" stroke-miterlimit="10"/><path id="euae1rnu4efc48" d="M1756,1230.900000L1760,1220.500000" opacity="0.77" fill="none" stroke="rgb(99,134,188)" stroke-width="2" stroke-miterlimit="10"/><path id="euae1rnu4efc49" d="M1013.700000,1241.300000C1016.500000,1251.500000,1028.300000,1257.800000,1040.100000,1255.400000C1040.200000,1255.400000,1040.300000,1255.400000,1040.400000,1255.300000C1052.300000,1252.500000,1059.400000,1242,1056.300000,1231.700000C1053.500000,1221.500000,1041.700000,1215.200000,1029.900000,1217.600000C1029.800000,1217.600000,1029.700000,1217.600000,1029.600000,1217.700000C1017.700000,1220.500000,1010.600000,1231,1013.700000,1241.300000Z" fill="none" stroke="rgb(99,134,188)" stroke-width="2" stroke-miterlimit="10"/><path id="euae1rnu4efc50" d="M1044,1279.200000L1037,1255" fill="none" stroke="rgb(99,134,188)" stroke-width="2" stroke-miterlimit="10"/><path id="euae1rnu4efc51" d="M1051,1277.500000L1044,1253.300000" fill="none" stroke="rgb(99,134,188)" stroke-width="2" stroke-miterlimit="10"/><path id="euae1rnu4efc52" d="M1036,1249.900000L1024,1244.700000" fill="none" stroke="rgb(99,134,188)" stroke-width="2" stroke-miterlimit="10"/><path id="euae1rnu4efc53" d="M1525,1199.600000L1538.800000,1200.600000L1540,1188.700000L1526.200000,1187.700000L1525,1199.600000Z" opacity="0.77" fill="none" stroke="rgb(99,134,188)" stroke-width="2" stroke-miterlimit="10"/><path id="euae1rnu4efc54" d="M1493,1197.900000L1506.800000,1198.900000L1508,1187L1494.200000,1186L1493,1197.900000Z" opacity="0.77" fill="none" stroke="rgb(99,134,188)" stroke-width="2" stroke-miterlimit="10"/><path id="euae1rnu4efc55" d="M963,1305.100000C1049.100000,1273.900000,1199.800000,1228.300000,1393.300000,1228.300000C1585.100000,1228.300000,1739.100000,1273.200000,1825,1304.100000" opacity="0.77" fill="none" stroke="rgb(99,134,188)" stroke-width="2" stroke-miterlimit="10"/><path id="euae1rnu4efc56" d="M1627.900000,1138C1640.700000,1138,1653.600000,1138.600000,1666.400000,1137.700000C1678.400000,1136.800000,1684.800000,1134.200000,1685,1122.300000C1685.100000,1112.100000,1677.300000,1108,1666.500000,1109.200000C1668.500000,1101.700000,1671.700000,1093.400000,1668.300000,1085.800000C1664.200000,1076.700000,1652.900000,1072.300000,1642,1072.200000C1621.700000,1071.900000,1605.600000,1090.500000,1618,1101.500000C1611.300000,1093.800000,1603.600000,1078.200000,1583.800000,1089C1575.200000,1093.700000,1568,1105.200000,1580.500000,1113.400000C1573,1113.300000,1562.800000,1118.100000,1563,1125.400000C1563.200000,1134.800000,1577.600000,1137.500000,1586,1138.100000C1599.800000,1139.200000,1614.100000,1138.100000,1627.900000,1138Z" opacity="0.77" fill="none" stroke="rgb(99,134,188)" stroke-width="2" stroke-miterlimit="10"/><path id="euae1rnu4efc57" d="M1753.200000,1169.200000C1763.500000,1169.200000,1773.900000,1169.700000,1784.100000,1169C1793.800000,1168.300000,1798.900000,1166.200000,1799,1156.600000C1799.100000,1148.400000,1792.800000,1145.100000,1784.100000,1146C1785.700000,1139.900000,1788.300000,1133.300000,1785.600000,1127.200000C1782.300000,1119.900000,1773.200000,1116.400000,1764.400000,1116.200000C1748.100000,1116,1735.200000,1130.900000,1745.100000,1139.800000C1739.700000,1133.600000,1733.600000,1121.100000,1717.600000,1129.700000C1710.700000,1133.500000,1704.900000,1142.800000,1714.900000,1149.300000C1708.900000,1149.200000,1700.700000,1153.100000,1700.800000,1159C1700.900000,1166.500000,1712.500000,1168.700000,1719.300000,1169.200000C1730.500000,1170.100000,1742,1169.300000,1753.200000,1169.200000Z" opacity="0.77" fill="none" stroke="rgb(99,134,188)" stroke-width="2" stroke-miterlimit="10"/><path id="euae1rnu4efc58" d="M1726.100000,1211.900000C1722.200000,1225.800000,1706,1234.300000,1690,1231C1689.900000,1231,1689.800000,1231,1689.700000,1230.900000C1673.500000,1227.200000,1663.900000,1212.900000,1668,1198.900000C1671.900000,1185,1688,1176.500000,1704.100000,1179.800000C1704.200000,1179.800000,1704.300000,1179.800000,1704.400000,1179.900000C1720.600000,1183.700000,1730.200000,1197.900000,1726.100000,1211.900000Z" opacity="0.77" fill="none" stroke="rgb(99,134,188)" stroke-width="2" stroke-miterlimit="10"/><path id="euae1rnu4efc59" d="M1685,1262.800000L1694,1230.900000" opacity="0.77" fill="none" stroke="rgb(99,134,188)" stroke-width="2" stroke-miterlimit="10"/><path id="euae1rnu4efc60" d="M1677,1261.100000L1686,1229.200000" opacity="0.77" fill="none" stroke="rgb(99,134,188)" stroke-width="2" stroke-miterlimit="10"/><path id="euae1rnu4efc61" d="M1697,1224L1713,1218" opacity="0.77" fill="none" stroke="rgb(99,134,188)" stroke-width="2" stroke-miterlimit="10"/><path id="euae1rnu4efc62" d="M1699,1214.500000L1715,1208.500000" opacity="0.77" fill="none" stroke="rgb(99,134,188)" stroke-width="2" stroke-miterlimit="10"/><path id="euae1rnu4efc63" d="M1700,1203.300000L1716,1197.300000" opacity="0.77" fill="none" stroke="rgb(99,134,188)" stroke-width="2" stroke-miterlimit="10"/><path id="euae1rnu4efc64" d="M1687,1221.400000L1677,1209.300000" opacity="0.77" fill="none" stroke="rgb(99,134,188)" stroke-width="2" stroke-miterlimit="10"/><path id="euae1rnu4efc65" d="M1689,1210.200000L1679,1198.100000" opacity="0.77" fill="none" stroke="rgb(99,134,188)" stroke-width="2" stroke-miterlimit="10"/><path id="euae1rnu4efc66" d="M1693,1201.600000L1683,1189.500000" opacity="0.77" fill="none" stroke="rgb(99,134,188)" stroke-width="2" stroke-miterlimit="10"/><path id="euae1rnu4efc67" d="M1298,1197.900000L1284.200000,1198.900000L1283,1187L1296.800000,1186L1298,1197.900000Z" opacity="0.77" fill="none" stroke="rgb(99,134,188)" stroke-width="2" stroke-miterlimit="10"/><path id="euae1rnu4efc68" d="M1163.900000,1249L1155.900000,1203.500000L1216,1195.400000L1176,1167.900000L1147,1204.500000" opacity="0.77" fill="none" stroke="rgb(99,134,188)" stroke-width="2" stroke-miterlimit="10"/><path id="euae1rnu4efc69" d="M1183.400000,1246.400000L1180,1227.300000L1191.600000,1225.700000L1195,1244.800000" opacity="0.77" fill="none" stroke="rgb(99,134,188)" stroke-width="2" stroke-miterlimit="10"/><path id="euae1rnu4efc70" d="M1215,1242.100000L1208,1197.200000" opacity="0.77" fill="none" stroke="rgb(99,134,188)" stroke-width="2" stroke-miterlimit="10"/><path id="euae1rnu4efc71" d="M1177,1218.200000L1165.700000,1219.700000L1164,1210L1175.300000,1208.500000L1177,1218.200000Z" fill="none" stroke="rgb(99,134,188)" stroke-width="2" stroke-miterlimit="10"/><path id="euae1rnu4efc72" d="M1203,1215.600000L1191.700000,1217.100000L1190,1207.400000L1201.300000,1205.900000L1203,1215.600000Z" opacity="0.77" fill="none" stroke="rgb(99,134,188)" stroke-width="2" stroke-miterlimit="10"/><path id="euae1rnu4efc73" d="M1626.100000,1249L1634.100000,1203.500000L1574,1195.400000L1614,1167.900000L1643,1204.500000" opacity="0.77" fill="none" stroke="rgb(99,134,188)" stroke-width="2" stroke-miterlimit="10"/><path id="euae1rnu4efc74" d="M1606.600000,1246.400000L1610,1227.300000L1598.400000,1225.700000L1595,1244.800000" opacity="0.77" fill="none" stroke="rgb(99,134,188)" stroke-width="2" stroke-miterlimit="10"/><path id="euae1rnu4efc75" d="M1575,1242.100000L1582,1197.200000" opacity="0.77" fill="none" stroke="rgb(99,134,188)" stroke-width="2" stroke-miterlimit="10"/><path id="euae1rnu4efc76" d="M1613,1218.200000L1624.300000,1219.700000L1626,1210L1614.700000,1208.500000L1613,1218.200000Z" opacity="0.77" fill="none" stroke="rgb(99,134,188)" stroke-width="2" stroke-miterlimit="10"/><path id="euae1rnu4efc77" d="M1587,1215.600000L1598.300000,1217.100000L1600,1207.400000L1588.700000,1205.900000L1587,1215.600000Z" opacity="0.77" fill="none" stroke="rgb(99,134,188)" stroke-width="2" stroke-miterlimit="10"/><path id="euae1rnu4efc78" d="M1544.400000,1236.100000L1550,1180.400000L1476,1174.700000L1522.300000,1138.600000L1561,1181" opacity="0.77" fill="none" stroke="rgb(99,134,188)" stroke-width="2" stroke-miterlimit="10"/><path id="euae1rnu4efc79" d="M1520.600000,1233.500000L1523,1209.600000L1508.400000,1208.500000L1506,1232.400000" opacity="0.77" fill="none" stroke="rgb(99,134,188)" stroke-width="2" stroke-miterlimit="10"/><path id="euae1rnu4efc80" d="M1479,1230.900000L1485,1175.700000" opacity="0.77" fill="none" stroke="rgb(99,134,188)" stroke-width="2" stroke-miterlimit="10"/><path id="euae1rnu4efc81" d="M1437.500000,1230.900000L1437.500000,1160.200000" opacity="0.77" fill="none" stroke="rgb(99,134,188)" stroke-width="2" stroke-miterlimit="10"/><g id="euae1rnu4efc82" opacity="0.77"><path id="euae1rnu4efc83" d="M1368,1186.900000L1385,1186.900000L1385,1171.400000L1368,1171.400000L1368,1186.900000Z" fill="none" stroke="rgb(99,134,188)" stroke-width="2" stroke-miterlimit="10"/><path id="euae1rnu4efc84" d="M1407,1186.900000L1424,1186.900000L1424,1171.400000L1407,1171.400000L1407,1186.900000Z" fill="none" stroke="rgb(99,134,188)" stroke-width="2" stroke-miterlimit="10"/><path id="euae1rnu4efc85" d="M1246.600000,1236.100000L1241,1180.400000L1315,1174.700000L1268.700000,1138.600000L1230,1181" fill="none" stroke="rgb(99,134,188)" stroke-width="2" stroke-miterlimit="10"/><path id="euae1rnu4efc86" d="M1270.400000,1233.500000L1268,1209.600000L1282.600000,1208.500000L1285,1232.400000" fill="none" stroke="rgb(99,134,188)" stroke-width="2" stroke-miterlimit="10"/><path id="euae1rnu4efc87" d="M1311,1230.900000L1305,1175.700000" fill="none" stroke="rgb(99,134,188)" stroke-width="2" stroke-miterlimit="10"/><path id="euae1rnu4efc88" d="M1266,1199.600000L1252.200000,1200.600000L1251,1188.700000L1264.800000,1187.700000L1266,1199.600000Z" fill="none" stroke="rgb(99,134,188)" stroke-width="2" stroke-miterlimit="10"/></g><g id="euae1rnu4efc89" transform="matrix(1 0 0 1 106 916)" opacity="0.25"><path id="euae1rnu4efc90" d="M388.700000,355.400000L364.600000,355.400000L364.600000,344L379.700000,325.800000L388.700000,355.400000L388.700000,355.400000ZM355,355.400000L318,355.400000L318,276L337.500000,276C331.100000,275.600000,326.200000,271.100000,326.200000,265.600000C326.200000,260,331.400000,255.500000,337.900000,255.400000C338,255.400000,338.100000,255.400000,338.200000,255.400000C341.400000,255.400000,344.500000,256.600000,346.600000,258.700000L364,276L337.500000,276C337.700000,276,337.800000,276,338,276L363.600000,276L364.400000,276.700000L363.600000,276L364.100000,276L364.100000,276L364.600000,276L364.600000,296.100000L370,293.800000L365,277.300000L364.800000,276.500000L364.700000,276L365.300000,276L365.300000,276L391.400000,276C391.700000,276,392,276,392.200000,276L365.300000,276L382.700000,258.700000C384.800000,256.600000,387.900000,255.400000,391.100000,255.400000C391.200000,255.400000,391.300000,255.400000,391.400000,255.400000C397.900000,255.400000,403.200000,260,403.300000,265.600000C403.300000,265.600000,403.300000,265.600000,403.300000,265.600000C403.300000,271,398.500000,275.500000,392.300000,276L411,276L378.800000,289.900000L369.900000,293.700000L376.700000,316.100000L387.700000,316.100000L379.700000,325.700000L376.800000,316.100000L364.600000,316.100000L364.600000,296L318,316.200000L364.500000,316.200000L364.500000,344C364.500000,344,355,355.400000,355,355.400000Z" fill="none" stroke="rgb(255,255,255)" stroke-width="2" stroke-linecap="round" stroke-linejoin="round" stroke-miterlimit="10"/><path id="euae1rnu4efc91" d="M591,355.300000L544.600000,355.300000L544.600000,276.600000L545.100000,276.600000L545.100000,276.600000L571.300000,276.600000C571.700000,276.600000,572,276.600000,572.400000,276.500000L545.200000,276.500000L562.600000,259.400000C564.700000,257.300000,567.800000,256.100000,571,256.100000C571.100000,256.100000,571.200000,256.100000,571.300000,256.100000C574.400000,256.100000,577.500000,257.200000,579.700000,259.100000C581.900000,261,583.200000,263.600000,583.200000,266.300000C583.200000,268.900000,582.100000,271.300000,580.100000,273.200000C578.100000,275.100000,575.400000,276.300000,572.400000,276.600000L591,276.600000L591,355.300000L591,355.300000ZM544.200000,276.700000L544.200000,276.700000L518,276.700000C514.800000,276.700000,511.800000,275.500000,509.600000,273.600000C507.400000,271.700000,506.100000,269.100000,506.200000,266.400000C506.200000,263.700000,507.500000,261.100000,509.700000,259.300000C511.900000,257.400000,514.900000,256.300000,518.100000,256.400000L518.100000,256.400000C518.200000,256.400000,518.300000,256.400000,518.400000,256.400000C521.600000,256.400000,524.700000,257.600000,526.800000,259.700000L544.200000,276.700000L544.200000,276.700000Z" fill="none" stroke="rgb(255,255,255)" stroke-width="2" stroke-linecap="round" stroke-linejoin="round" stroke-miterlimit="10"/><path id="euae1rnu4efc92" d="M511,402L454.700000,402L454.700000,392.100000L443,402L398,402L398,354.300000L398,354.300000L398,354.300000L398,354.300000L398,305.500000L422.200000,305.500000C414.200000,305.400000,407.800000,299.700000,407.800000,292.800000C407.800000,286,414.200000,280.400000,422.200000,280.400000C422.300000,280.400000,422.500000,280.400000,422.600000,280.400000C426.500000,280.400000,430.200000,281.900000,432.800000,284.400000L454,305.500000L454.700000,305.500000L454,306L398,354.300000L454.700000,354.300000L454.700000,392.100000L499.400000,354.300000L454.700000,354.300000L454.700000,305.500000L511,305.500000L511,402ZM487,305.500000L455.200000,305.500000L476.400000,284.400000C479,281.800000,482.700000,280.400000,486.700000,280.400000C486.800000,280.400000,486.900000,280.400000,487,280.400000L487,280.400000C494.900000,280.400000,501.400000,285.900000,501.400000,292.800000C501.500000,299.700000,495.100000,305.400000,487,305.500000Z" fill="none" stroke="rgb(255,255,255)" stroke-width="2" stroke-linecap="round" stroke-linejoin="round" stroke-miterlimit="10"/><path id="euae1rnu4efc93" d="M218.700000,232.900000L218.300000,232.900000L353.100000,184.700000L267.600000,106.200000C267.800000,106.100000,267.900000,105.900000,268.100000,105.800000C295.700000,82.100000,295.700000,43.600000,268.200000,19.800000C255,8.500000,237,2.100000,218.300000,2.100000L218.300000,2.100000C179.300000,2.200000,147.800000,29.500000,147.900000,63.100000C147.900000,79.200000,155.300000,94.600000,168.500000,105.900000C169.800000,107,171.200000,108.100000,172.600000,109.200000L92,193.900000L92,193.900000C7,133.700000,-5.400000,25.400000,64.400000,-48C100.800000,-86.300000,154.600000,-109.200000,211.900000,-110.800000C214,-110.900000,216.200000,-110.900000,218.300000,-110.900000C298.800000,-110.900000,371.400000,-68.900000,402.100000,-4.700000L354.100000,184.300000L358.900000,182.600000C321.800000,214.800000,271.300000,232.900000,218.700000,232.900000L218.700000,232.900000L218.700000,232.900000ZM353.100000,184.800000L353.900000,185.500000L354.200000,184.400000L353.100000,184.800000ZM55.900000,184.700000C50.600000,184.700000,46.200000,181,46.200000,176.400000C46.200000,171.800000,50.500000,168.100000,55.800000,168.100000C61.100000,168.100000,65.500000,171.800000,65.500000,176.400000C65.500000,177.500000,65.300000,178.600000,64.800000,179.600000C63.300000,182.700000,59.800000,184.800000,55.900000,184.700000L55.900000,184.700000ZM19.300000,125L19.300000,125C13.900000,125,9.600000,121.300000,9.600000,116.700000C9.600000,112.100000,13.900000,108.400000,19.300000,108.400000C24.700000,108.400000,28.900000,112.100000,28.900000,116.700000C28.900000,121.300000,24.600000,125,19.300000,125ZM218.300000,123.700000C201.500000,123.700000,185.300000,118.500000,172.600000,109.100000L218.300000,61L267.600000,106.200000C254.500000,117.500000,236.700000,123.700000,218.300000,123.700000L218.300000,123.700000ZM9.800000,55.900000L9.800000,55.900000C4.400000,55.900000,0.100000,52.200000,0.100000,47.600000C0.100000,43.100000,4.300000,39.400000,9.600000,39.300000L9.700000,39.300000C15,39.300000,19.300000,43.100000,19.300000,47.700000C19.300000,52.100000,15,55.800000,9.800000,55.900000ZM28,-7.300000L28,-7.300000C22.700000,-7.300000,18.300000,-11,18.400000,-15.600000C18.500000,-20.200000,22.700000,-24,28,-24L28,-24C33.300000,-24,37.600000,-20.300000,37.600000,-15.700000C37.600000,-11.100000,33.300000,-7.300000,28,-7.300000C28,-7.300000,28,-7.300000,28,-7.300000ZM402.400000,-15.700000L402.400000,-15.700000C397,-15.700000,392.700000,-19.400000,392.700000,-24C392.700000,-28.600000,397,-32.300000,402.400000,-32.300000C407.800000,-32.300000,412,-28.600000,412,-24C412,-19.400000,407.700000,-15.700000,402.400000,-15.700000ZM77.400000,-64.400000C72.100000,-64.400000,67.800000,-68.100000,67.800000,-72.700000L67.800000,-72.700000C67.800000,-77.300000,72.100000,-81,77.400000,-81C82.700000,-81,87,-77.300000,87,-72.700000C87.100000,-68.100000,82.700000,-64.400000,77.400000,-64.400000C77.400000,-64.400000,77.400000,-64.400000,77.400000,-64.400000L77.400000,-64.400000ZM346,-73.800000C340.700000,-73.800000,336.500000,-77.600000,336.400000,-82.100000L336.300000,-82.100000C336.300000,-86.700000,340.600000,-90.400000,345.900000,-90.400000C351.200000,-90.400000,355.500000,-86.700000,355.500000,-82.100000C355.600000,-77.500000,351.300000,-73.800000,346,-73.800000C346,-73.800000,346,-73.800000,346,-73.800000L346,-73.800000ZM158,-103.900000L158,-103.900000C152.600000,-103.900000,148.300000,-107.600000,148.300000,-112.200000C148.300000,-116.800000,152.600000,-120.500000,158,-120.500000C163.400000,-120.500000,167.600000,-116.800000,167.600000,-112.200000C167.600000,-107.600000,163.300000,-103.900000,158,-103.900000ZM259,-109.200000L259,-109.200000C253.700000,-109.200000,249.400000,-112.900000,249.400000,-117.500000C249.400000,-120.900000,251.700000,-123.900000,255.400000,-125.200000C259,-126.500000,263.200000,-125.800000,265.900000,-123.400000C269.700000,-120.100000,269.700000,-114.900000,265.900000,-111.600000C264,-110.100000,261.600000,-109.200000,259,-109.200000Z" fill="none" stroke="rgb(255,255,255)" stroke-width="2" stroke-linecap="round" stroke-linejoin="round" stroke-miterlimit="10"/><path id="euae1rnu4efc94" d="M482.100000,269.900000L482.100000,269.900000L479.900000,242.300000L480.300000,242.300000L458.500000,-92L458.500000,-92.100000L458.500000,-92C458.900000,-89.300000,460.900000,-74.900000,464.400000,-58.400000C469.200000,-35.800000,474.300000,-20,479.700000,-11.300000C485.500000,-1.900000,494.600000,4.800000,501.200000,8.800000C505.300000,11.300000,509.600000,13.500000,514.200000,15.400000C514.200000,15.400000,514.200000,15.400000,514.200000,15.400000C511.100000,16.600000,507.900000,17.700000,504.700000,18.600000C501.600000,19.500000,498.400000,20.200000,495.100000,20.800000C491.600000,21.400000,488.100000,21.800000,484.500000,21.800000C482.500000,21.800000,480.500000,21.700000,478.600000,21.400000C482,29.500000,488,36.500000,495.900000,41.700000C502.700000,45.700000,510,49,517.700000,51.400000C521.400000,52.600000,525.100000,53.600000,528.800000,54.500000L528.800000,54.500000C526.600000,56.300000,524.100000,57.700000,521.300000,58.900000C518.100000,60.300000,514.700000,61.500000,511.200000,62.300000C506.300000,63.500000,501.300000,64.300000,496.200000,64.700000C502.500000,74.300000,512,87.700000,522.400000,93.900000C532.100000,99.200000,543,102.800000,554.400000,104.300000L554.400000,104.300000C549.600000,107.100000,544.400000,109.500000,539.100000,111.500000C533.700000,113.600000,528.200000,115.200000,522.500000,116.500000C515.900000,118,509,118.700000,502.200000,118.800000C503.800000,121.600000,505.700000,124.300000,507.800000,126.800000C513.300000,133.200000,519.800000,138.900000,527.300000,143.600000C535.700000,148.900000,544.800000,153.400000,554.400000,156.800000C558.100000,158.100000,561.800000,159.200000,565.700000,160L565.700000,160C561.300000,162.100000,556.700000,163.900000,552,165.400000C546.900000,167.200000,541.500000,168.700000,535.900000,170.100000C528.900000,171.900000,521.700000,173.300000,514.500000,174.300000L514.800000,174.800000C522.800000,186.900000,529.700000,197.300000,550.300000,209.900000C558.100000,214.600000,567.600000,218,574.300000,220C578.500000,221.300000,582.700000,222.300000,587,223.200000C587,223.200000,587,223.200000,587,223.200000C585.300000,224.300000,583.600000,225.300000,581.800000,226.200000C576.700000,228.800000,571.400000,231,566,232.800000C557.300000,235.700000,548.400000,237.900000,539.300000,239.400000C526.800000,241.400000,514.200000,242.500000,501.500000,242.400000L480.400000,242.400000L482.100000,269.900000L482.100000,269.900000ZM442.300000,242.400000L426.900000,242.400000C413.600000,242.400000,400.400000,241.400000,387.300000,239.400000C376.900000,237.800000,366.700000,235.600000,356.700000,232.800000C339.900000,228,330.100000,223.200000,330,223.200000L330,223.200000C334.300000,222.300000,338.500000,221.300000,342.700000,220C349.400000,218,358.900000,214.700000,366.700000,209.900000C387.500000,197.200000,394.300000,186.700000,402.200000,174.500000L402.300000,174.300000C395.100000,173.200000,387.900000,171.800000,380.900000,170.100000C375.300000,168.700000,369.900000,167.100000,364.800000,165.400000C360.100000,163.800000,355.600000,162,351.100000,159.900000C355,159.100000,358.700000,158.100000,362.400000,156.700000C372,153.300000,381.100000,148.900000,389.500000,143.500000C396.900000,138.800000,403.500000,133.100000,409,126.700000C411.200000,124.200000,413.100000,121.500000,414.600000,118.700000L414.500000,118.700000C407.600000,118.700000,400.800000,117.900000,394.200000,116.500000C388.500000,115.300000,382.900000,113.600000,377.600000,111.600000C372.300000,109.600000,367.100000,107.200000,362.300000,104.400000C373.700000,102.900000,384.600000,99.400000,394.300000,94C406,87.100000,416.900000,70.400000,420.500000,64.800000C415.400000,64.400000,410.400000,63.600000,405.600000,62.400000C402.100000,61.500000,398.800000,60.400000,395.500000,59C392.800000,57.900000,390.200000,56.400000,388,54.600000L388,54.600000C391.800000,53.700000,395.500000,52.700000,399.100000,51.500000C406.800000,49.100000,414.100000,45.800000,420.900000,41.800000C428.900000,36.600000,434.900000,29.500000,438.300000,21.400000C436.300000,21.700000,434.400000,21.800000,432.400000,21.800000C428.800000,21.800000,425.300000,21.400000,421.800000,20.800000C418.600000,20.200000,415.400000,19.500000,412.200000,18.600000C408.900000,17.700000,405.700000,16.600000,402.600000,15.400000C407.200000,13.600000,411.500000,11.400000,415.600000,8.800000C422.200000,4.800000,431.200000,-2,437.100000,-11.300000C442.500000,-20,447.700000,-35.800000,452.500000,-58.400000C456.100000,-75.600000,458.200000,-90.400000,458.400000,-92.100000L458.400000,-92L442.300000,242.400000Z" fill="none" stroke="rgb(255,255,255)" stroke-width="2" stroke-linecap="round" stroke-linejoin="round" stroke-miterlimit="10"/><path id="euae1rnu4efc95" d="M186.200000,388.200000C183.500000,388.200000,181,387.100000,179.400000,385.200000L122.800000,324.400000C123.200000,327.700000,122.800000,331.100000,121.400000,334.200000C120.400000,336.300000,118.800000,338.200000,116.700000,339.600000C114.600000,341,112.100000,342,109.400000,342.300000L95.800000,344.200000L53.300000,349.700000C52,350,50.800000,350.100000,49.500000,350.100000C47.300000,350.100000,45.100000,349.500000,43.300000,348.400000C41.800000,347.400000,40.700000,346,40.300000,344.300000C39.900000,342.700000,40.200000,341,41.100000,339.600000C42.200000,337.900000,43.900000,336.600000,46,335.800000L91.800000,326.200000C93.700000,325.200000,94.600000,323.300000,94.200000,321.500000L78.700000,321.500000C84,316.500000,88.800000,311.100000,93,305.400000C99.600000,296.600000,107.400000,283.200000,107.500000,269.700000L107.500000,269.700000C107.500000,269.600000,107.500000,269.400000,107.500000,269.200000C99.300000,275.500000,75.600000,292.600000,75.400000,292.800000C72.100000,295.400000,67,295.100000,64.100000,292.300000C61.400000,289.700000,61.400000,285.700000,64.100000,283.100000L66.300000,280.900000C71.800000,276.100000,108.600000,247.700000,115.900000,243.900000C119.600000,241.900000,123.800000,240.900000,128.200000,240.900000C132.500000,241,136.800000,241.700000,140.800000,243C145.100000,244.400000,148.900000,246.700000,151.700000,249.800000C154.600000,252.800000,156.900000,256.200000,158.700000,259.700000C161.300000,264.900000,166.600000,273.600000,167.200000,274.600000L167.200000,274.600000L193,274.600000C197.300000,274.600000,200.800000,277.600000,200.800000,281.300000C200.800000,285,197.300000,288,193,288L156.500000,288C156.400000,287.800000,146.400000,268.700000,144.500000,267L152.200000,304.900000C149,296.300000,146.700000,287.400000,145.500000,278.400000C145,274.800000,144.700000,271.100000,144.600000,267.500000L103.200000,321.700000C109.200000,321.800000,115.300000,322.400000,121.200000,323.400000C133.600000,325.400000,145.800000,328.200000,157.700000,331.900000L152.200000,304.900000C156.200000,315.700000,161.900000,326.100000,169.200000,335.500000C165.300000,334.200000,161.500000,333,157.700000,331.800000L157.800000,332.100000L192.600000,376C195.600000,379,195.300000,383.600000,191.800000,386.200000C190.600000,387.100000,189,387.700000,187.400000,387.900000C187,388.200000,186.600000,388.200000,186.200000,388.200000ZM139.900000,236.900000L139.900000,236.900000C130.900000,236.900000,123.600000,230.600000,123.600000,222.800000C123.600000,215,130.900000,208.700000,139.900000,208.700000C148.900000,208.700000,156.200000,215,156.200000,222.800000C156.200000,228.500000,152.200000,233.600000,146.100000,235.800000C144.100000,236.500000,142,236.900000,139.900000,236.900000L139.900000,236.900000Z" fill="none" stroke="rgb(255,255,255)" stroke-width="2" stroke-linecap="round" stroke-linejoin="round" stroke-miterlimit="10"/><g id="euae1rnu4efc96" transform="matrix(1 0 0 1 556 144)"><path id="euae1rnu4efc97" d="M110.400000,9.900000C92.100000,9.900000,74.300000,5.100000,59.300000,-3.900000C56.500000,-5.600000,53.800000,-7.300000,51.300000,-9.300000L125.900000,7.600000C125.800000,5.100000,124.700000,2.700000,123,0.700000C120.200000,-2.500000,114.300000,-6.400000,101.400000,-6.900000C97.300000,-7.100000,93.300000,-8.200000,89.800000,-10C86.400000,-11.700000,83.200000,-13.600000,80.200000,-15.700000L80.200000,-15.700000C78.100000,-17.300000,75.700000,-18.600000,73.200000,-19.700000C71.800000,-20.200000,70.200000,-20.500000,68.600000,-20.500000C64.600000,-20.500000,60.500000,-18.700000,56.500000,-15.200000C54.500000,-13.400000,52.800000,-11.500000,51.300000,-9.400000C40.100000,-17.800000,31.600000,-28.500000,26.300000,-40.400000L0,-40.400000L141.200000,-41.300000L125.900000,-40.600000L113,-21.800000L133,-21.800000L153.700000,-41.400000L141.300000,-41.300000L154.300000,-41.900000L153.700000,-41.400000L195.100000,-41.700000C182.400000,-11,148.900000,9.600000,111.200000,9.800000C111,9.900000,110.800000,9.900000,110.400000,9.900000ZM239.300000,-42.300000L84.100000,-42.300000C78.500000,-42.300000,73.300000,-45,70.700000,-49.300000L60.100000,-67L190.100000,-67C206.600000,-67,222.400000,-61.400000,234.300000,-51.600000L241,-46C241.800000,-45.400000,242,-44.400000,241.600000,-43.600000C241.300000,-42.800000,240.300000,-42.300000,239.300000,-42.300000ZM60.100000,-67L20.900000,-67L27.600000,-68.900000L20.300000,-67.900000C20.200000,-110.700000,60.400000,-145.600000,110,-145.600000C149.100000,-145.700000,183.800000,-123.900000,195.800000,-91.800000L194.400000,-91.600000L194.500000,-91.600000L171.900000,-123.500000L171.900000,-123.500000C170.100000,-122.300000,168.400000,-121,166.900000,-119.500000C164.600000,-117.200000,161.800000,-113.600000,161.700000,-109.400000C161.500000,-103.900000,163.900000,-102.500000,167.700000,-100.300000C170.400000,-98.800000,172.900000,-97,175.100000,-95C177.200000,-92.900000,179.800000,-91.200000,182.700000,-89.900000L56.700000,-72.700000L60.100000,-67L60.100000,-67ZM44.600000,-92.800000L54.400000,-76.500000L27.700000,-68.800000L56.700000,-72.800000L54.500000,-76.500000L73.800000,-82L61.200000,-92.800000L44.600000,-92.800000ZM149.200000,-137.200000L64.300000,-134.800000L64.300000,-134.800000C65.400000,-132.300000,66.900000,-129.900000,68.800000,-127.700000C72.600000,-123,78.200000,-119.700000,84.500000,-118.300000C91.800000,-116.800000,95.100000,-110.700000,98.300000,-104.700000C101.500000,-98.700000,104.500000,-93.100000,111.200000,-92.400000C111.600000,-92.400000,112,-92.300000,112.500000,-92.300000C117.700000,-92.300000,122.800000,-95.500000,127.300000,-101.600000C131.400000,-107.600000,134.400000,-114.100000,136,-120.900000C137.500000,-127.700000,142.300000,-133.600000,149.200000,-137.200000ZM187.300000,-89.100000C185.700000,-89.100000,184.100000,-89.400000,182.600000,-90L194.400000,-91.600000C192.500000,-90.100000,190,-89.200000,187.300000,-89.100000L187.300000,-89.100000Z" fill="none" stroke="rgb(255,255,255)" stroke-width="2" stroke-linecap="round" stroke-linejoin="round" stroke-miterlimit="10"/><path id="euae1rnu4efc98" d="M188.200000,-50.500000C185.700000,-50.500000,183.800000,-52.300000,183.800000,-54.400000C183.800000,-56.500000,185.800000,-58.200000,188.200000,-58.200000L188.400000,-58.100000C190.700000,-58,192.600000,-56.400000,192.700000,-54.300000C192.600000,-52.300000,190.600000,-50.500000,188.200000,-50.500000ZM165.900000,-50.500000C163.400000,-50.500000,161.500000,-52.300000,161.500000,-54.400000C161.500000,-56.500000,163.500000,-58.200000,165.900000,-58.200000L166.100000,-58.100000C168.500000,-58,170.300000,-56.400000,170.400000,-54.300000C170.300000,-52.300000,168.400000,-50.500000,165.900000,-50.500000ZM143.600000,-50.500000C141.100000,-50.500000,139.200000,-52.300000,139.200000,-54.400000C139.200000,-56.500000,141.200000,-58.200000,143.600000,-58.200000L143.700000,-58.100000C146.100000,-58,148,-56.400000,148,-54.300000C148.100000,-52.300000,146.100000,-50.500000,143.600000,-50.500000L143.600000,-50.500000ZM121.300000,-50.500000C118.800000,-50.500000,116.900000,-52.300000,116.900000,-54.400000C116.900000,-56.500000,118.900000,-58.200000,121.300000,-58.200000L121.400000,-58.100000C123.800000,-58.100000,125.700000,-56.400000,125.700000,-54.300000C125.800000,-52.300000,123.800000,-50.500000,121.300000,-50.500000L121.300000,-50.500000ZM99,-50.500000C96.500000,-50.500000,94.500000,-52.200000,94.500000,-54.300000C94.500000,-56.400000,96.500000,-58.200000,99,-58.200000C101.500000,-58.200000,103.500000,-56.500000,103.500000,-54.400000C103.500000,-54.400000,103.500000,-54.400000,103.500000,-54.400000C103.500000,-52.300000,101.500000,-50.500000,99,-50.500000L99,-50.500000Z" fill="none" stroke="rgb(255,255,255)" stroke-width="2" stroke-linecap="round" stroke-linejoin="round" stroke-miterlimit="10"/></g></g><path id="euae1rnu4efc99" d="M1496,241.100000C1444.100000,225.200000,1390,217.300000,1335.700000,217.500000C1257.600000,217.500000,1184.500000,233.500000,1121.900000,261.300000" fill="none" stroke="rgb(255,255,255)" stroke-width="2" stroke-linecap="round" stroke-linejoin="round" stroke-miterlimit="10" stroke-dashoffset="382.460000" stroke-dasharray="382.460000"/><path id="euae1rnu4efc100" d="M971.400000,380.500000C945.900000,415.700000,926.700000,456.500000,920.600000,499.700000C916.700000,527.100000,919.800000,556,932.600000,580.900000C936.400000,588.300000,941.700000,595.600000,948.900000,599.900000C956.600000,604.500000,964.200000,604.100000,972.600000,602C988.600000,598,1005,598.100000,1018.600000,608.600000C1022.100000,611.400000,1025.400000,614.500000,1028.200000,618C1028.200000,618,1046.800000,620.700000,1061.900000,623.500000C1070,625,1072.800000,629,1072.600000,632.100000C1072.400000,635.200000,1071.700000,638.600000,1061.100000,639.800000C1061.100000,639.800000,1034.700000,642.200000,1019,644" fill="none" stroke="rgb(255,255,255)" stroke-width="2" stroke-linecap="round" stroke-linejoin="round" stroke-miterlimit="10" stroke-dashoffset="432.490000" stroke-dasharray="432.490000"/><path id="euae1rnu4efc101" d="M1230.700000,851.900000L1230.300000,930.700000C1231.300000,942.500000,1246,944,1256.800000,933.400000L1356.300000,855C1375.600000,839.500000,1400.400000,832.100000,1423,828.600000L1428.800000,827.700000C1434,826.800000,1437.500000,821.900000,1436.700000,816.600000L1436.700000,816.300000C1435.800000,811.100000,1430.900000,807.600000,1425.600000,808.400000L1429.700000,807.700000C1434.900000,806.800000,1438.400000,801.900000,1437.600000,796.700000L1437.600000,796.400000C1436.700000,791.200000,1431.800000,787.700000,1426.500000,788.500000L1430.700000,787.800000C1435.900000,786.900000,1439.400000,782,1438.600000,776.700000L1438.600000,776.400000C1437.700000,771.200000,1432.800000,767.700000,1427.500000,768.500000L1432,767.800000C1437.200000,766.900000,1440.700000,762,1439.900000,756.800000L1439.900000,756.500000C1438.400000,747.300000,1426.600000,747.400000,1419.500000,747.100000C1407.400000,746.400000,1393.800000,746.700000,1383.700000,754.400000C1381,756.300000,1378.900000,758.900000,1377.600000,761.900000C1376.400000,765,1376.900000,768.500000,1379.100000,771.100000C1381.400000,773.500000,1385.200000,773.600000,1387.600000,771.300000C1387.800000,771.100000,1388.100000,770.800000,1388.300000,770.600000C1391.200000,767.200000,1390,762.100000,1389.800000,758C1389.500000,747.400000,1388.300000,736.800000,1386.200000,726.400000C1384.400000,718.600000,1381.800000,709.200000,1375.600000,703.600000C1371.400000,699.800000,1365.800000,700.500000,1363.900000,706.300000C1362.700000,709.800000,1363.300000,713.800000,1363.900000,717.400000C1364,718,1364.100000,718.400000,1364.100000,718.900000C1366.800000,739.800000,1359.600000,769,1336.400000,775.300000L1335.200000,774.800000L1317.700000,774.800000L1317.700000,842.800000L1335.300000,842.800000L1335.300000,774.900000" fill="none" stroke="rgb(255,255,255)" stroke-width="2" stroke-linecap="round" stroke-linejoin="round" stroke-miterlimit="10" stroke-dashoffset="867.770000" stroke-dasharray="867.770000"/><path id="euae1rnu4efc102" d="M1229.900000,795.300000C1232.500000,776.500000,1238.800000,768.200000,1254,766.800000C1274,765,1267.400000,726.600000,1267.400000,726.600000C1267.400000,726.600000,1277,725.200000,1274.300000,716.900000C1271.600000,708.600000,1265.500000,710.100000,1261.900000,695.700000C1261,692.100000,1261.800000,688.100000,1262,684.500000C1262.700000,673.800000,1261.700000,660.600000,1253.900000,652.400000C1249.900000,648.100000,1244.100000,645.800000,1238.200000,646.200000C1231.500000,647.100000,1230.300000,653,1230,658.900000C1228.900000,680,1213.600000,688.700000,1198.900000,700.900000L1195,703.800000C1193.500000,698,1187.500000,694.400000,1181.700000,696C1179.300000,696.600000,1177.200000,698,1175.800000,699.900000C1169,709,1177.200000,720.700000,1184.700000,725.900000" fill="none" stroke="rgb(255,255,255)" stroke-width="2" stroke-linecap="round" stroke-linejoin="round" stroke-miterlimit="10" stroke-dashoffset="-320.620000" stroke-dasharray="320.620000"/><path id="euae1rnu4efc103" d="M1265.900000,704.100000C1271.700000,696.700000,1274.900000,687.700000,1275.100000,678.300000L1275.100000,676.700000C1275.100000,662.900000,1270.100000,649.600000,1260.900000,639.400000C1239.800000,615.400000,1204.600000,609.900000,1175.400000,620.800000C1148.300000,630.900000,1129.400000,655.600000,1121.100000,682.600000C1116.800000,695.900000,1115,709.800000,1115.800000,723.800000C1116.900000,740.600000,1123.100000,757.300000,1136.700000,767.800000C1153.200000,780.600000,1176.600000,781.500000,1196.300000,776.800000C1200.100000,775.900000,1203.700000,774.700000,1207.200000,773.200000C1208.100000,772.800000,1209,772.300000,1210,771.900000C1210.200000,771.800000,1210.800000,771.400000,1211.100000,771.400000C1198.800000,766.700000,1188,750.800000,1188.900000,735.400000" fill="none" stroke="rgb(255,255,255)" stroke-width="2" stroke-linecap="round" stroke-linejoin="round" stroke-miterlimit="10" stroke-dashoffset="463.350000" stroke-dasharray="463.350000"/><path id="euae1rnu4efc104" d="M1573.200000,335.400000C1569.400000,334.600000,1565.500000,333.900000,1561.600000,333.300000C1543.200000,330.700000,1519.700000,328.400000,1508.400000,345.800000C1506.900000,348.200000,1504.600000,352,1504.400000,354.900000C1507.900000,356.100000,1511.600000,356.700000,1515.300000,356.600000L1515.900000,356.600000C1529.300000,355.800000,1540.600000,346.500000,1544,333.500000L1544,333.400000C1541.100000,316.800000,1525.300000,305.800000,1508.700000,308.700000C1507.800000,308.900000,1507,309,1506.100000,309.300000C1507.500000,317.700000,1512.500000,325.200000,1519.700000,329.800000L1520.400000,330.200000" fill="none" stroke="rgb(255,255,255)" stroke-width="2" stroke-linecap="round" stroke-linejoin="round" stroke-miterlimit="10" stroke-dashoffset="207.100000" stroke-dasharray="207.100000"/><path id="euae1rnu4efc105" d="M1512.300000,323.500000C1507.100000,324.900000,1502.400000,327.700000,1498.700000,331.700000C1502.200000,335.900000,1506.800000,339,1512,340.700000" fill="none" stroke="rgb(255,255,255)" stroke-width="2" stroke-linecap="round" stroke-linejoin="round" stroke-miterlimit="10" stroke-dashoffset="32.360000" stroke-dasharray="32.360000"/><path id="euae1rnu4efc106" d="M1525.300000,263.800000C1519.900000,263.600000,1514.600000,265,1509.900000,267.800000C1512.100000,272.800000,1515.600000,277.100000,1520.100000,280.200000" fill="none" stroke="rgb(255,255,255)" stroke-width="2" stroke-linecap="round" stroke-linejoin="round" stroke-miterlimit="10" stroke-dashoffset="32.400000" stroke-dasharray="32.400000"/><path id="euae1rnu4efc107" d="M1602.900000,320.200000C1588.900000,309.300000,1571.200000,297.800000,1554,306.400000C1551.500000,307.700000,1547.500000,309.800000,1545.900000,312.200000C1548.300000,315,1551.200000,317.400000,1554.400000,319.200000C1554.600000,319.300000,1554.700000,319.400000,1554.900000,319.500000C1566.800000,325.600000,1581.300000,323.400000,1590.900000,313.900000L1590.900000,313.900000C1593.900000,305.900000,1593.500000,297,1589.600000,289.400000C1585.700000,281.800000,1578.800000,276.100000,1570.600000,273.800000C1567.600000,281.800000,1568,290.700000,1571.900000,298.300000C1572,298.500000,1572.200000,298.800000,1572.300000,299" fill="none" stroke="rgb(255,255,255)" stroke-width="2" stroke-linecap="round" stroke-linejoin="round" stroke-miterlimit="10" stroke-dashoffset="191.060000" stroke-dasharray="191.060000"/><path id="euae1rnu4efc108" d="M1567.100000,286.400000C1550.800000,279.200000,1530.900000,272.300000,1516.400000,284.800000C1514.300000,286.600000,1510.900000,289.700000,1510,292.400000C1513,294.600000,1516.400000,296.200000,1520,297.100000C1520.200000,297.200000,1520.400000,297.200000,1520.600000,297.300000C1533.600000,300.400000,1547.200000,294.700000,1554.200000,283.200000L1554.200000,283.200000C1555.200000,274.700000,1552.600000,266.200000,1547.100000,259.700000C1541.500000,253.200000,1533.500000,249.400000,1524.900000,249.100000C1523.900000,257.600000,1526.500000,266.100000,1532,272.600000C1532.200000,272.800000,1532.400000,273,1532.600000,273.200000" fill="none" stroke="rgb(255,255,255)" stroke-width="2" stroke-linecap="round" stroke-linejoin="round" stroke-miterlimit="10" stroke-dashoffset="191.130000" stroke-dasharray="191.130000"/><path id="euae1rnu4efc109" d="M1568.700000,289.300000C1563.500000,287.800000,1558,287.900000,1552.800000,289.500000C1553.700000,294.900000,1556.100000,299.900000,1559.700000,304" fill="none" stroke="rgb(255,255,255)" stroke-width="2" stroke-linecap="round" stroke-linejoin="round" stroke-miterlimit="10" stroke-dashoffset="32.390000" stroke-dasharray="32.390000"/><path id="euae1rnu4efc110" d="M1546.300000,683.500000L1559.300000,675.600000L1491.900000,650.600000L1509,706.200000L1521.300000,698.700000L1536.700000,712.300000L1534,690.900000C1571,685.600000,1574.700000,728,1574.700000,728L1432.600000,728C1433.500000,735.200000,1439.700000,740.600000,1446.900000,740.600000L1601.100000,740.600000C1608.400000,740.600000,1614.500000,735.200000,1615.400000,728L1593.100000,728L1593.100000,632.800000C1592.900000,628.700000,1589.600000,625.400000,1585.500000,625.300000L1463.200000,625.300000C1458.800000,625.100000,1455.100000,628.500000,1454.800000,632.900000C1454.800000,632.900000,1454.800000,633,1454.800000,633L1459.200000,824.200000L1460.400000,823.900000C1624.900000,782,1753,664.500000,1753,528C1752.900000,489.400000,1743.500000,451.300000,1725.700000,417.100000C1706.300000,379.300000,1677.300000,345.100000,1640.900000,316.100000C1636.900000,312.900000,1632.700000,309.700000,1628.500000,306.700000L1563,341.400000C1563,341.400000,1681.400000,372.500000,1720,411" transform="matrix(1 0 0 1 0 -2.69999999999993)" fill="none" stroke="rgb(255,255,255)" stroke-width="2" stroke-linecap="round" stroke-linejoin="round" stroke-miterlimit="10" stroke-dashoffset="-2016.450000" stroke-dasharray="2016.450000"/><path id="euae1rnu4efc111" d="M1072.400000,629.300000C1072.400000,629.300000,1107.400000,618.800000,1114.300000,616.600000C1116.700000,615.900000,1119.100000,615.600000,1121.600000,615.600000C1124.600000,615.700000,1127,618.200000,1126.900000,621.200000C1126.900000,621.400000,1126.900000,621.500000,1126.900000,621.700000C1126.800000,625,1125.400000,626.600000,1118.400000,630.800000C1113.200000,633.900000,1110.700000,634.800000,1087.400000,646.700000C1064.100000,658.600000,1053.900000,666.700000,1039.100000,667.400000C1020.500000,668.300000,1015.800000,662.900000,985.400000,649.900000C977.300000,646.400000,964.400000,646.800000,954.400000,652.700000L956,656.900000C961.100000,669.600000,973.100000,682.200000,981.800000,692.600000C1015.400000,732.600000,1059.300000,762.300000,1104.900000,787.200000C1151.900000,812.800000,1202,836.500000,1255.700000,842.900000L1260.300000,809.900000C1227.700000,799.500000,1213.500000,784.900000,1213.500000,784.900000" fill="none" stroke="rgb(255,255,255)" stroke-width="2" stroke-linecap="round" stroke-linejoin="round" stroke-miterlimit="10" stroke-dashoffset="703.890000" stroke-dasharray="703.890000"/><path id="euae1rnu4efc112" d="M1643,545.400000C1648.200000,554.300000,1657.600000,545.400000,1660.500000,542.300000C1665.900000,536.800000,1669,529.500000,1669.200000,521.800000C1669.200000,515.400000,1665.900000,508.900000,1659,508.200000C1651.300000,507.500000,1646.100000,514,1641,518.700000C1640.100000,519.500000,1632.800000,527.200000,1631.500000,526.500000L1621.600000,521L1623.700000,504.300000C1619.800000,498.200000,1612.900000,485.300000,1612.900000,485.300000L1626.300000,459.100000C1618.300000,457.600000,1610.100000,458.500000,1602.600000,461.700000C1588,468.300000,1583.200000,479.700000,1583.600000,494.500000C1583.700000,498.600000,1585.100000,502.800000,1585,506.800000C1585,506.800000,1578.800000,522.200000,1572.800000,528.500000C1566.800000,534.800000,1570.600000,541.300000,1574.600000,541.400000C1575.900000,541.600000,1577.100000,542.500000,1577.600000,543.700000C1579.900000,548.600000,1577.100000,554.200000,1576.700000,559.200000C1574.300000,584.100000,1587,590.900000,1607.800000,591.400000" fill="none" stroke="rgb(255,255,255)" stroke-width="2" stroke-linecap="round" stroke-linejoin="round" stroke-miterlimit="10" stroke-dashoffset="367.430000" stroke-dasharray="367.430000"/><path id="euae1rnu4efc113" d="M1750,563.800000C1746.200000,585.100000,1714.900000,609,1695.500000,590.200000C1681.300000,576.500000,1694.900000,551.500000,1702.300000,537.800000C1713.100000,518,1723.300000,495,1716.100000,472.200000C1710.200000,453.700000,1694.700000,439.500000,1677.300000,431.600000C1654.400000,421.300000,1621.900000,423.100000,1603.200000,441.300000C1597.500000,446.800000,1593.900000,454.400000,1587.500000,459.200000C1586.400000,460,1577,465,1574.900000,466C1577.400000,471.300000,1583.700000,473.600000,1589,471.200000C1590,470.700000,1590.900000,470.100000,1591.700000,469.400000" fill="none" stroke="rgb(255,255,255)" stroke-width="2" stroke-linecap="round" stroke-linejoin="round" stroke-miterlimit="10" stroke-dashoffset="392.820000" stroke-dasharray="392.820000"/><path id="euae1rnu4efc114" d="M1618.300000,638.800000C1624.100000,633,1629,624.500000,1628.600000,616C1627.900000,601.800000,1621.600000,591.300000,1608,591.600000" fill="none" stroke="rgb(255,255,255)" stroke-width="2" stroke-linecap="round" stroke-linejoin="round" stroke-miterlimit="10" stroke-dashoffset="61.710000" stroke-dasharray="61.710000"/><path id="euae1rnu4efc115" d="M1129.300000,398.800000L1080.700000,439.700000C1069.900000,448.900000,1068.100000,449.200000,1056.900000,440L1006,398.700000L1007.200000,398.700000L1129.500000,398.700000L1130.300000,398.700000L1130.300000,470.100000L1005.100000,470.100000L1005.100000,398.700000L1005.200000,398.300000L1053.900000,356.700000C1064.700000,347.500000,1066.700000,347.200000,1077.700000,356.400000L1121.700000,391.800000" fill="none" stroke="rgb(255,255,255)" stroke-width="2" stroke-linecap="round" stroke-linejoin="round" stroke-miterlimit="10" stroke-dashoffset="698.330000" stroke-dasharray="698.330000"/><path id="euae1rnu4efc116" d="" fill="none" stroke="rgb(255,255,255)" stroke-width="2" stroke-linecap="round" stroke-linejoin="round" stroke-miterlimit="10"/><path id="euae1rnu4efc117" d="M1035.100000,300.500000L1037.200000,330L1059.400000,310.300000L1088.200000,317.300000L1076.400000,290.200000L1092.100000,265L1062.600000,267.900000L1043.600000,245.300000L1037.100000,274.200000L1009.600000,285.400000L1035.100000,300.500000L1034.100000,300.500000C1001.900000,310.600000,983.900000,344.800000,993.900000,377.100000C996.500000,385.400000,1000.800000,393,1006.600000,399.500000" fill="none" stroke="rgb(255,255,255)" stroke-width="2" stroke-linecap="round" stroke-linejoin="round" stroke-miterlimit="10" stroke-dashoffset="-419.270000" stroke-dasharray="419.270000"/><path id="euae1rnu4efc118" d="M1230.900000,309.700000C1228.700000,307.400000,1226.100000,305.600000,1223.200000,304.200000C1217.200000,301.900000,1212.900000,306.600000,1211,311.900000C1208.900000,318.400000,1209.800000,325.400000,1213.400000,331.200000C1216.700000,336.700000,1222.500000,342.800000,1229.400000,343.500000" fill="none" stroke="rgb(255,255,255)" stroke-width="2" stroke-linecap="round" stroke-linejoin="round" stroke-miterlimit="10" stroke-dashoffset="66.760000" stroke-dasharray="66.760000"/><path id="euae1rnu4efc119" d="M1285.300000,295.800000L1295.300000,295L1295.200000,303.200000L1294.900000,318.400000L1287.700000,318.400000L1284.400000,296L1219.600000,303.900000" fill="none" stroke="rgb(255,255,255)" stroke-width="2" stroke-linecap="round" stroke-linejoin="round" stroke-miterlimit="10" stroke-dashoffset="128.560000" stroke-dasharray="128.560000"/><path id="euae1rnu4efc120" d="" fill="none" stroke="rgb(255,255,255)" stroke-width="2" stroke-linecap="round" stroke-linejoin="round" stroke-miterlimit="10"/><path id="euae1rnu4efc121" d="" fill="none" stroke="rgb(255,255,255)" stroke-width="2" stroke-linecap="round" stroke-linejoin="round" stroke-miterlimit="10"/><path id="euae1rnu4efc122" d="M1217.800000,411.400000C1174.700000,395.300000,1176.100000,389.100000,1176.100000,389.100000C1191.400000,356.100000,1175.500000,330.900000,1175.500000,330.900000C1156.600000,298.200000,1158.600000,258.100000,1191.400000,239.600000C1211.300000,228.400000,1236.700000,231.200000,1256.800000,240.100000C1269.200000,245.500000,1279.900000,254.200000,1287.800000,265.300000C1291.700000,270.700000,1294.300000,276.900000,1295.500000,283.500000C1296.700000,291.400000,1293.600000,299.500000,1295.700000,307.300000C1300.100000,311.700000,1304,316.400000,1307.500000,321.600000C1316,333.500000,1304.200000,338.600000,1304.200000,338.600000C1304.200000,338.600000,1309,384.200000,1275.500000,378.800000C1257,375.800000,1251.800000,394.100000,1257.300000,408.700000C1263.900000,426.300000,1283.500000,434,1300.900000,433.100000C1314.800000,432.700000,1328.400000,429.300000,1340.800000,423.200000C1351.500000,417.700000,1366.100000,405.500000,1360.700000,391.800000C1356.800000,381.900000,1345.700000,382,1339.900000,390.200000C1332.300000,401,1335.200000,419.500000,1347.600000,425.700000C1358.600000,431.300000,1372.400000,424.500000,1380.800000,417.100000C1402.900000,397.700000,1411.100000,364,1407.900000,335.700000C1406.400000,322.500000,1401.900000,310,1397.300000,297.500000L1397.200000,297.600000C1398.700000,303.100000,1397.500000,352.700000,1361.900000,331.300000C1338.700000,317.300000,1370.200000,295.100000,1370.200000,295.100000L1358,298.500000C1344.300000,302.400000,1338.200000,292.800000,1338.200000,292.800000L1322.100000,274L1321.600000,273.300000C1321,272.400000,1320.500000,271.400000,1320.200000,270.400000C1318.800000,265.300000,1321.700000,260,1326.800000,258.600000C1328.900000,258.200000,1331,258.200000,1333,258.600000C1342.800000,260.200000,1361.400000,263.900000,1378.500000,274L1378.700000,274.100000C1384,277.200000,1388.700000,280.700000,1393.200000,284.900000C1400.700000,258.600000,1421.200000,239.400000,1430.900000,231.100000C1432.400000,229.700000,1434.200000,228.600000,1436.200000,227.800000C1441.300000,226.400000,1446.600000,229.300000,1448,234.400000C1448.300000,235.400000,1448.400000,236.500000,1448.300000,237.600000L1448.300000,238.400000L1444.500000,262.800000C1444.500000,262.800000,1444.300000,274.100000,1430.600000,277.900000L1418.400000,281.300000C1418.400000,281.300000,1456.900000,283.900000,1444.400000,307.900000C1433.900000,328.100000,1421,324.700000,1411.300000,316.500000" fill="none" stroke="rgb(255,255,255)" stroke-width="2" stroke-linecap="round" stroke-linejoin="round" stroke-miterlimit="10" stroke-dashoffset="1374.210000" stroke-dasharray="1374.210000"/><g id="euae1rnu4efc123"><g id="euae1rnu4efc124_to" style="offset-path:path('M1130.800000,595.400000L1130.300000,597.200000C1188.078347,562.378474,1183.315971,517.633623,1183.596680,495.007570C1173.095506,594.698226,1198.077151,595.747632,1221.500000,555.050000Q1221.411933,554.631618,1215,562.750000C1245.918936,467.132586,1249.454484,455.899333,1241.721260,443.756177C1232.193618,445.807524,1228.900878,443.101865,1224.020297,491.779356C1220.764272,516.307076,1224.710960,536.886920,1221.500000,575.301963C1224.537460,495.191505,1275.835431,488.507256,1253.750000,555.050000C1268.586941,604.012079,1271.987619,525.737461,1295.300000,496.067669C1313.573127,476.568392,1324.541207,485.342482,1318.100000,496.067669C1304.853400,591.546633,1266.705603,534.221489,1285,550.400000C1286.885328,546.482116,1331.864377,569.882941,1336.735596,502.323541C1344.333554,474.599176,1365.285929,456.134376,1359.500000,518.120454C1373.236861,456.404613,1394.041458,446.770138,1396,488.300000C1391.416896,548.923627,1424.430717,471.026990,1436,441.560751C1470.072086,312.594366,1410.358139,389.206107,1424,451.539571Q1423.836130,475.618931,1424,510.600000C1427.524154,396.043773,1479.651317,449.524024,1446.750000,468.256847C1447.102537,469.335195,1449.666784,468.298082,1434.200000,478.136331C1455.756538,526.178502,1507.581858,434.830913,1490.750000,458.134780Q1498.450516,440.449822,1500.250000,417.373541Q1282.651005,662.447347,1285,631.677912C1301.557436,581.964947,1317.131670,585.222761,1311.876924,638.800000C1322.348539,669.235879,1343.996171,623.153712,1344.250000,605.693924Q1350.972551,587.273154,1351,579.774083C1347.802575,689.675334,1350.521534,688.464587,1335.156907,710.372256C1297.515175,713.805409,1345.412215,649.361912,1345.663258,644C1378.444697,598.805331,1360.836686,585.679385,1381.800000,567.800000C1343.603425,627.801863,1404.974097,652.747672,1407.763814,581.017669C1415.773686,617.464039,1394.856042,606.709589,1389.823566,583.810910C1384.090973,551.055104,1417.150002,553.129112,1405,605.693924C1427.706644,600.176438,1426.225794,570.053010,1428.500000,567.800000Q1430.399248,552.259799,1431.500000,543.343793C1414.423218,647.658160,1457.309533,594.352552,1459.157604,567.800000Q1463.235497,556.028274,1466.450000,533.900000C1457.932353,648.854422,1514.273344,547.553291,1505.178125,550.400000');offset-rotate:0deg"><path id="euae1rnu4efc124" d="M1507.200000,526.600000L1502.600000,540.600000L1505.100000,553.600000L1515.900000,544.900000L1519.500000,534.500000L1567.100000,388L1553.900000,383.700000L1507.200000,526.600000Z" transform="translate(-1502.600000,-553.600000)" opacity="0" fill="none" stroke="rgb(255,255,255)" stroke-width="4" stroke-linecap="round" stroke-linejoin="round" stroke-miterlimit="10"/></g></g><path id="euae1rnu4efc125" d="M1549.800000,397.200000L1557.100000,399.400000" opacity="0" fill="none" stroke="rgb(255,255,255)" stroke-width="2" stroke-linecap="round" stroke-linejoin="round" stroke-miterlimit="10"/><path id="euae1rnu4efc126" d="M244.500000,435.500000C244.500000,435.500000,244.700000,556.600000,347.300000,615.600000C449.900000,674.600000,535,635.600000,653.400000,686.400000C771.800000,737.200000,790.400000,999.800000,957.900000,1025.400000C1125.400000,1051,1204.300000,1006.500000,1204.300000,1006.500000" fill="none" stroke="rgb(255,255,255)" stroke-width="3" stroke-miterlimit="10" stroke-dashoffset="1254.280000" stroke-dasharray="1254.280000"/><path id="euae1rnu4efc127" d="M1103.200000,619.900000C1106.600000,616.800000,1108.800000,610.700000,1102.400000,607.800000C1096,604.900000,1088.400000,613.500000,1088.400000,613.500000L1082.600000,625.400000C1090.800000,610.200000,1088.200000,605.500000,1083.100000,605.700000C1077.600000,606,1067.900000,624.700000,1067.900000,624.700000" fill="none" stroke="rgb(255,255,255)" stroke-width="2" stroke-linecap="round" stroke-linejoin="round" stroke-miterlimit="10" stroke-dashoffset="-92.740000" stroke-dasharray="92.740000"/><path id="euae1rnu4efc128" d="" fill="none" stroke="rgb(255,255,255)" stroke-width="2" stroke-linecap="round" stroke-linejoin="round" stroke-miterlimit="10"/><path id="euae1rnu4efc129" d="M1048.517024,595.300000C1048.517024,595.300000,999.917024,545.300000,997.017024,530.300000C994.117024,515.300000,1003.317024,491.800000,1031.917024,498.200000C1049.417024,502.100000,1069.917024,539.500000,1049.417024,539.500000C1030.417024,539.500000,1043.717024,503.100000,1067.217024,496.900000C1089.917024,490.900000,1112.417024,518.600000,1096.217024,539.500000C1073.317024,569.100000,1049.017024,595.400000,1049.017024,595.400000" fill="none" stroke="rgb(255,255,255)" stroke-width="2" stroke-linecap="round" stroke-linejoin="round" stroke-miterlimit="10" stroke-dashoffset="399.100000" stroke-dasharray="399.100000"/><path id="euae1rnu4efc130" d="" fill="none" stroke="rgb(255,255,255)" stroke-width="2" stroke-linecap="round" stroke-linejoin="round" stroke-miterlimit="10"/><rect id="euae1rnu4efc131" width="30.600000" height="18.200000" rx="0" ry="0" transform="matrix(1 0 0 1 1200.70000000000005 1416.20000000000005)" opacity="0.77" fill="rgb(99,134,188)" stroke="none" stroke-width="1"/><g id="euae1rnu4efc132"><path id="euae1rnu4efc133" d="M1280.500000,527.400000C1278.800000,533.100000,1278.600000,539.200000,1280.100000,545C1283.600000,554.700000,1293.100000,553.500000,1299,547.400000C1306.300000,539.700000,1310.200000,529,1312.600000,518.900000C1313.300000,514.400000,1314,511.600000,1314.800000,507.100000C1315.900000,500.200000,1316.900000,493.300000,1318.100000,486.400000C1312.600000,486.800000,1307.400000,488.500000,1302.700000,491.300000C1290.100000,499.800000,1285.200000,513.700000,1280.500000,527.400000C1278.100000,534.400000,1270.300000,567.800000,1258.400000,561.500000C1244.600000,554.200000,1271,510.200000,1249.900000,510.100000C1233.200000,510.100000,1226.300000,540.800000,1223.600000,552.500000C1221.800000,560,1219.500000,577,1219.500000,577C1220.500000,552.500000,1222,528.100000,1223.700000,503.600000C1224.500000,491.600000,1225.500000,479.500000,1227.300000,467.600000C1228.300000,461.600000,1229.300000,448.700000,1235.200000,445C1244.500000,439.200000,1244.700000,455.300000,1244.300000,460.100000C1242.200000,480.100000,1234.200000,499.100000,1227.400000,517.900000C1222.800000,530.600000,1219.400000,543.700000,1215.400000,556.600000C1212.200000,566.900000,1197.900000,591.600000,1185.900000,575.600000C1180.800000,568.900000,1180.500000,560.200000,1180.400000,552.200000C1180.300000,541.600000,1181.100000,531.800000,1181.900000,521.300000C1182.400000,514.800000,1182.800000,510.100000,1183.400000,498.300000C1181.900000,539.700000,1177.500000,563,1138.700000,591.500000C1136.200000,593.300000,1133.500000,594.900000,1130.800000,596.200000" fill="none" stroke="rgb(255,255,255)" stroke-width="4" stroke-linecap="round" stroke-linejoin="round" stroke-miterlimit="10" stroke-dashoffset="-844.650000" stroke-dasharray="844.650000"/><path id="euae1rnu4efc134" d="M1499.400000,411.300000C1498.700000,432,1494.700000,453.300000,1482.200000,470.300000C1472.500000,483.500000,1453.600000,498.700000,1438.400000,484.300000C1437.700000,483.600000,1431.500000,477,1432.200000,476.600000C1435.700000,474.300000,1439.100000,471.800000,1442.300000,469C1448.200000,464,1456.400000,456.700000,1456.600000,448.300000C1456.700000,444,1453.800000,439.200000,1449,439.900000C1444.200000,440.600000,1440,445.200000,1437.400000,448.800000C1425.600000,464.900000,1423.900000,486.100000,1423.200000,505.500000L1424,484.400000L1425.800000,436.900000C1426.400000,420.900000,1425.800000,404.700000,1429.100000,388.900000C1430.200000,383.600000,1432.700000,372.100000,1440.500000,373.900000C1445.800000,375.100000,1448.100000,380.400000,1448.900000,385.300000C1450.700000,397.200000,1446,409.700000,1441.600000,420.500000C1435.800000,434.400000,1428.400000,447.800000,1423.400000,461.800000C1420.100000,471,1417.100000,480.300000,1413.800000,489.500000C1412,494.600000,1404.300000,517.200000,1396.400000,507C1393.500000,503.200000,1394.300000,497.800000,1394.900000,493.400000C1396.100000,484.500000,1401.100000,471.900000,1393.600000,464.300000C1389.700000,460.300000,1383.600000,461.400000,1379.600000,464.700000C1375.700000,468,1373.200000,472.800000,1371.100000,477.400000C1368.100000,484.800000,1365.700000,492.400000,1363.900000,500.100000C1361.500000,508.900000,1359.800000,517.800000,1358.800000,526.800000L1361.500000,495.500000C1362,489.700000,1361.200000,474.500000,1352.500000,474.700000C1348.200000,475,1344.400000,477.400000,1342.300000,481.100000C1337.400000,488.900000,1336.600000,499.400000,1335.200000,508.400000C1333.800000,517.800000,1332,527.400000,1327.100000,535.700000C1324.700000,539.700000,1321.100000,541.600000,1317.100000,538.700000C1311,534.200000,1311.400000,525.800000,1312.500000,518.800000" transform="matrix(1 0 0 1 0.02881083000011 1.48841769499995)" fill="none" stroke="rgb(255,255,255)" stroke-width="4" stroke-linecap="round" stroke-linejoin="round" stroke-miterlimit="10" stroke-dashoffset="-830.770000" stroke-dasharray="830.770000"/><path id="euae1rnu4efc135" d="M1286,631.900000C1288.400000,622.100000,1292.100000,612.700000,1297.200000,604C1300.200000,599.100000,1307.600000,591.200000,1310.700000,600.400000C1314.300000,610.800000,1311.500000,622.100000,1311.500000,632.800000C1311.500000,637.200000,1311.500000,643.100000,1314.900000,646.500000C1318.300000,649.900000,1324.200000,648.500000,1327.800000,645.600000C1337.700000,637.600000,1340.300000,622.200000,1343.300000,610.500000C1345.600000,601.600000,1350,583.900000,1350,583.900000C1350,583.900000,1347.400000,643.700000,1347,661.200000C1346.800000,672.400000,1347.900000,684.500000,1344.400000,695.300000C1342.100000,702.400000,1334,714.600000,1325.100000,708.900000C1315.400000,702.700000,1322,688.200000,1326,680.600000C1332.400000,668.400000,1340.600000,657.200000,1347.100000,645C1354.800000,630.500000,1363.900000,615.300000,1368.500000,599.500000C1368.500000,599.500000,1371.900000,572.500000,1381.800000,567.800000" fill="none" stroke="rgb(255,255,255)" stroke-width="4" stroke-linecap="round" stroke-linejoin="round" stroke-miterlimit="10" stroke-dashoffset="473.980000" stroke-dasharray="473.980000"/><path id="euae1rnu4efc136" d="M1505.400000,553.600000C1500.600000,564.700000,1495.100000,576.100000,1485.800000,584.200000C1469.900000,598.100000,1464.900000,574.400000,1465.300000,562.400000C1465.700000,552.900000,1466.400000,543.400000,1467.500000,533.900000C1465.700000,547.100000,1462.700000,560.200000,1458.400000,572.800000C1456,580.200000,1453.600000,587.800000,1449.400000,594.400000C1446.400000,599,1436.500000,609.700000,1431.200000,601.800000C1426.600000,594.900000,1428.200000,584.200000,1428.800000,576.300000C1429.500000,566.300000,1430.900000,556.500000,1431.600000,546.500000C1429.100000,558.300000,1426,605.600000,1407.200000,604.300000C1399.300000,603.800000,1393.400000,596.700000,1391.400000,589.600000C1391.300000,589.100000,1385.600000,569.400000,1394.600000,563C1401.700000,558,1405.300000,568,1406.700000,573.400000C1411,590.600000,1405.700000,611.800000,1391.400000,623C1381.100000,631.100000,1373.300000,620.800000,1370.600000,610.900000C1367.900000,601.100000,1368.600000,590.800000,1372.600000,581.500000" fill="none" stroke="rgb(255,255,255)" stroke-width="4" stroke-linecap="round" stroke-linejoin="round" stroke-miterlimit="10" stroke-dashoffset="-500.770000" stroke-dasharray="500.770000"/></g><path id="euae1rnu4efc137" d="M1162,542.200000L1200.800000,528.400000" opacity="0" fill="none" stroke="rgb(255,255,255)" stroke-width="2" stroke-linecap="round" stroke-linejoin="round" stroke-miterlimit="10"/></svg>