<?xml version="1.0" standalone="no"?>
<!DOCTYPE svg PUBLIC "-//W3C//DTD SVG 1.1//EN" "http://www.w3.org/Graphics/SVG/1.1/DTD/svg11.dtd" >
<svg>
<metadata>
Created by FontForge 20090622 at Sat Sep 19 05:02:41 2020
 By deploy user
&#194;&#169; 2015 Klim Type Foundry. All Rights Reserved.
</metadata>
<defs>
<font id="PayPalSansBig-Regular" horiz-adv-x="261" >
  <font-face 
    font-family="PayPal Sans Big"
    font-weight="400"
    font-stretch="normal"
    units-per-em="1024"
    panose-1="2 11 5 3 4 5 4 4 2 4"
    ascent="819"
    descent="-205"
    x-height="513"
    cap-height="700"
    bbox="-87 -239 1251 990"
    underline-thickness="83"
    underline-position="-90"
    unicode-range="U+0020-U+FB02"
  />
<missing-glyph horiz-adv-x="256" 
 />
    <glyph glyph-name="fi" unicode="fi" horiz-adv-x="611" 
d="M198 0h-103v433h-73v80h73v19q0 126 71 198t189 72q59 0 97 -17v-84q-39 15 -91 15q-79 0 -121 -46t-42 -133v-24h230l104 11v-524h-104v433h-230v-433z" />
    <glyph glyph-name="fl" unicode="fl" horiz-adv-x="606" 
d="M428 705q-29 10 -64 10q-76 0 -121 -45.5t-45 -129.5v-27h150l-16 -80h-134v-433h-103v433h-73v80h73v27q0 116 77.5 189t197.5 73q82 0 162 -29v-773h-104v705z" />
    <glyph glyph-name="f_b" unicode="fb" horiz-adv-x="944" 
d="M909 272q0 -126 -78.5 -204.5t-199.5 -78.5q-115 0 -203 44v672q-29 10 -64 10q-76 0 -121 -45.5t-45 -129.5v-27h150l-16 -80h-134v-433h-103v433h-73v80h73v27q0 116 77.5 189t197.5 73q82 0 162 -29v-309q66 60 155 60q100 0 161 -68t61 -184zM532 391v-298
q42 -18 98 -18q80 0 127 53t47 140q0 78 -38.5 123t-104.5 45q-36 0 -71.5 -13t-57.5 -32z" />
    <glyph glyph-name="f_f_b" unicode="ffb" horiz-adv-x="1277" 
d="M1243 272q0 -126 -78.5 -204.5t-199.5 -78.5q-115 0 -203 44v672q-29 10 -64 10q-76 0 -121 -45.5t-45 -129.5v-27h150l-16 -80h-134v-433h-103v433h-231v-433h-103v433h-73v80h73v24q0 115 60 181t162 66q40 0 74 -11v-82q-23 7 -59 7q-65 0 -99.5 -40.5t-34.5 -118.5
v-26h231v27q0 116 77.5 189t197.5 73q82 0 162 -29v-309q66 60 155 60q100 0 161 -68t61 -184zM866 391v-298q42 -18 98 -18q80 0 127 53t47 140q0 78 -38.5 123t-104.5 45q-36 0 -71.5 -13t-57.5 -32z" />
    <glyph glyph-name="f_f_h" unicode="ffh" horiz-adv-x="1284" 
d="M198 0h-103v433h-73v80h73v24q0 115 60 181t162 66q40 0 74 -11v-82q-23 7 -59 7q-65 0 -99.5 -40.5t-34.5 -118.5v-26h231v27q0 116 77.5 189t197.5 73q82 0 162 -29v-310q77 61 174 61q83 0 127.5 -47t44.5 -127v-350h-104v324q0 54 -24 82t-80 28q-72 0 -138 -43v-391
h-104v705q-29 10 -64 10q-76 0 -121 -45.5t-45 -129.5v-27h150l-16 -80h-134v-433h-103v433h-231v-433z" />
    <glyph glyph-name="f_f_idieresis" unicode="ff&#xef;" horiz-adv-x="944" 
d="M848 704q0 25 17.5 42.5t43.5 17.5q27 0 44.5 -17.5t17.5 -42.5q0 -26 -17.5 -43.5t-44.5 -17.5q-26 0 -43.5 17.5t-17.5 43.5zM198 0h-103v433h-73v80h73v24q0 115 60 181t162 66q40 0 74 -11v-82q-23 7 -59 7q-65 0 -99.5 -40.5t-34.5 -118.5v-26h231v41
q0 115 63.5 181.5t170.5 66.5q41 0 80 -12v-83q-32 9 -70 9q-68 0 -104.5 -41t-36.5 -119v-43h230l104 11v-524h-104v433h-230v-433h-103v433h-231v-433z" />
    <glyph glyph-name="f_f_j" unicode="ffj" horiz-adv-x="944" 
d="M866 16q-1 -85 -21 -140t-57 -104h-108q40 53 60.5 111t21.5 142v408h-230v-433h-103v433h-231v-433h-103v433h-73v80h73v24q0 115 60 181t162 66q40 0 74 -11v-82q-23 7 -59 7q-65 0 -99.5 -40.5t-34.5 -118.5v-26h231v19q0 126 71 198t189 72q59 0 97 -17v-84
q-39 15 -91 15q-79 0 -121 -46t-42 -133v-24h230l104 11v-508z" />
    <glyph glyph-name="f_f_k" unicode="ffk" horiz-adv-x="1253" 
d="M198 0h-103v433h-73v80h73v24q0 115 60 181t162 66q40 0 74 -11v-82q-23 7 -59 7q-65 0 -99.5 -40.5t-34.5 -118.5v-26h231v27q0 116 77.5 189t197.5 73q82 0 162 -29v-490l230 230h124l-240 -235l271 -278h-131l-254 259v-259h-104v705q-29 10 -64 10q-76 0 -121 -45.5
t-45 -129.5v-27h150l-16 -80h-134v-433h-103v433h-231v-433z" />
    <glyph glyph-name="f_h" unicode="fh" horiz-adv-x="950" 
d="M198 433v-433h-103v433h-73v80h73v27q0 116 77.5 189t197.5 73q82 0 162 -29v-310q77 61 174 61q83 0 127.5 -47t44.5 -127v-350h-104v324q0 54 -24 82t-80 28q-72 0 -138 -43v-391h-104v705q-29 10 -64 10q-76 0 -121 -45.5t-45 -129.5v-27h150l-16 -80h-134z" />
    <glyph glyph-name="f_idieresis" unicode="f&#xef;" horiz-adv-x="611" 
d="M514 704q0 25 17.5 42.5t43.5 17.5q27 0 44.5 -17.5t17.5 -42.5q0 -26 -17.5 -43.5t-44.5 -17.5q-26 0 -43.5 17.5t-17.5 43.5zM198 0h-103v433h-73v80h73v41q0 115 63.5 181.5t170.5 66.5q41 0 80 -12v-83q-31 9 -70 9q-68 0 -104.5 -41t-36.5 -119v-43h230l104 11v-524
h-104v433h-230v-433z" />
    <glyph glyph-name="f_j" unicode="fj" horiz-adv-x="611" 
d="M532 16q-1 -85 -21 -140t-57 -104h-108q40 53 60.5 111t21.5 142v408h-230v-433h-103v433h-73v80h73v19q0 126 71 198t189 72q59 0 97 -17v-84q-39 15 -91 15q-79 0 -121 -46t-42 -133v-24h230l104 11v-508z" />
    <glyph glyph-name="f_k" unicode="fk" horiz-adv-x="920" 
d="M198 433v-433h-103v433h-73v80h73v27q0 116 77.5 189t197.5 73q82 0 162 -29v-490l230 230h124l-240 -235l271 -278h-131l-254 259v-259h-104v705q-29 10 -64 10q-76 0 -121 -45.5t-45 -129.5v-27h150l-16 -80h-134z" />
    <glyph glyph-name="f_f" unicode="ff" horiz-adv-x="683" 
d="M198 0h-103v433h-73v80h73v24q0 115 60 181t162 66q40 0 74 -11v-82q-23 7 -59 7q-65 0 -99.5 -40.5t-34.5 -118.5v-26h231v41q0 115 63.5 181.5t170.5 66.5q41 0 80 -12v-83q-32 9 -70 9q-68 0 -104.5 -41t-36.5 -119v-43h163l-15 -80h-148v-433h-103v433h-231v-433z
" />
    <glyph glyph-name="f_f_i" unicode="ffi" horiz-adv-x="944" 
d="M198 0h-103v433h-73v80h73v24q0 115 60 181t162 66q40 0 74 -11v-82q-23 7 -59 7q-65 0 -99.5 -40.5t-34.5 -118.5v-26h231v19q0 126 71 198t189 72q59 0 97 -17v-84q-39 15 -91 15q-79 0 -121 -46t-42 -133v-24h230l104 11v-524h-104v433h-230v-433h-103v433h-231v-433z
" />
    <glyph glyph-name="f_f_l" unicode="ffl" horiz-adv-x="944" 
d="M198 0h-103v433h-73v80h73v24q0 115 60 181t162 66q40 0 74 -11v-82q-23 7 -59 7q-65 0 -99.5 -40.5t-34.5 -118.5v-26h231v27q0 116 77.5 189t197.5 73q82 0 162 -29v-773h-104v705q-29 10 -64 10q-76 0 -121 -45.5t-45 -129.5v-27h150l-16 -80h-134v-433h-103v433h-231
v-433z" />
    <glyph glyph-name=".notdef" horiz-adv-x="256" 
 />
    <glyph glyph-name=".null" horiz-adv-x="0" 
 />
    <glyph glyph-name="nonmarkingreturn" horiz-adv-x="341" 
 />
    <glyph glyph-name="space" unicode=" " horiz-adv-x="256" 
 />
    <glyph glyph-name="exclam" unicode="!" horiz-adv-x="258" 
d="M160 239h-63l-34 461h131zM56 67q0 29 21 50.5t51 21.5t51.5 -21.5t21.5 -50.5q0 -31 -21 -52.5t-52 -21.5q-30 0 -51 21.5t-21 52.5z" />
    <glyph glyph-name="quotedbl" unicode="&#x22;" horiz-adv-x="419" 
d="M64 418v283h117l-52 -283h-65zM249 418v283h117l-52 -283h-65z" />
    <glyph glyph-name="numbersign" unicode="#" horiz-adv-x="738" 
d="M425 286l25 138h-135l-25 -138h135zM384 55l28 156h-135l-28 -156h-82l28 156h-143l12 75h144l25 138h-153l11 75h155l27 151h82l-27 -151h135l27 151h82l-27 -151h141l-11 -75h-144l-24 -138h153l-12 -75h-155l-28 -156h-81z" />
    <glyph glyph-name="dollar" unicode="$" horiz-adv-x="529" 
d="M308 -77h-90v139q-99 4 -179 44v98q94 -57 211 -57q58 0 95 20t37 56q0 29 -33 48.5t-80.5 33t-95 30.5t-80.5 51.5t-33 84.5q0 57 43 100.5t115 58.5v143h90v-137q70 -3 144 -34v-95q-79 44 -168 44q-54 0 -85 -20t-31 -54q0 -30 33 -50t80 -33t94.5 -29.5t80.5 -49.5
t33 -83q0 -65 -50.5 -109t-130.5 -57v-143z" />
    <glyph glyph-name="percent" unicode="%" horiz-adv-x="791" 
d="M197 712q69 0 111 -48.5t42 -124.5t-42 -124.5t-111 -48.5t-111 48.5t-42 124.5t42 124.5t111 48.5zM662 712l-448 -723h-83l447 723h84zM117 539q0 -46 21 -76t59 -30t59.5 30.5t21.5 75.5t-21.5 75.5t-59.5 30.5t-59 -30t-21 -76zM595 -11q-69 0 -111 48.5t-42 124.5
t42 124.5t111 48.5t111 -48.5t42 -124.5t-42 -124.5t-111 -48.5zM595 268q-38 0 -59 -30t-21 -76t21 -75.5t59 -29.5t58.5 29.5t20.5 75.5t-21 76t-58 30z" />
    <glyph glyph-name="ampersand" unicode="&#x26;" horiz-adv-x="690" 
d="M276 74q87 0 152 57l-207 212q-41 -15 -67 -52t-26 -83q0 -57 41.5 -95.5t106.5 -38.5zM556 0l-69 71q-95 -82 -212 -82q-107 0 -176.5 60.5t-69.5 157.5q0 66 38 117.5t99 77.5q-50 61 -50 126q0 81 58 132t149 51q93 0 156 -47v-98q-75 59 -151 59q-49 0 -79 -27
t-30 -73q0 -22 11.5 -44.5t23 -36t37.5 -40.5l196 -201q49 83 52 187h96q-2 -136 -85 -251l136 -139h-130z" />
    <glyph glyph-name="quotesingle" unicode="'" horiz-adv-x="234" 
d="M64 418v283h117l-52 -283h-65z" />
    <glyph glyph-name="parenleft" unicode="(" horiz-adv-x="417" 
d="M196 334q0 -131 62 -253.5t149 -202.5h-114q-36 34 -68.5 75.5t-67 99.5t-55 131.5t-20.5 149.5t20.5 150t55 132t67 99.5t68.5 75.5h114q-88 -80 -149.5 -202.5t-61.5 -254.5z" />
    <glyph glyph-name="parenright" unicode=")" horiz-adv-x="417" 
d="M10 -122q87 80 149 202.5t62 253.5q0 132 -61.5 254.5t-149.5 202.5h114q36 -34 68.5 -75.5t67 -99.5t55 -132t20.5 -150t-20.5 -149.5t-55 -131.5t-67 -99.5t-68.5 -75.5h-114z" />
    <glyph glyph-name="asterisk" unicode="*" horiz-adv-x="421" 
d="M280 447l-20 29l-49 97l-50 -97l-20 -29l-70 50l22 29l75 74l-106 16l-35 11l27 82l35 -11l97 -52l-18 109v36h86v-36l-19 -109l96 52l36 11l26 -82l-34 -11l-108 -16l77 -74l22 -29z" />
    <glyph glyph-name="plus" unicode="+" horiz-adv-x="601" 
d="M555 295h-215v-214h-79v214h-215v80h215v215h79v-215h215v-80z" />
    <glyph glyph-name="comma" unicode="," horiz-adv-x="250" 
d="M76 124h108q0 -70 -29.5 -145t-60.5 -112h-71q22 44 37.5 117.5t15.5 139.5z" />
    <glyph glyph-name="hyphen" unicode="-" horiz-adv-x="407" 
d="M70 236v88h267v-88h-267z" />
    <glyph glyph-name="period" unicode="." horiz-adv-x="250" 
d="M53 67q0 29 21 50.5t51 21.5t51 -21.5t21 -50.5q0 -31 -21 -52.5t-51 -21.5t-51 21.5t-21 52.5z" />
    <glyph glyph-name="slash" unicode="/" horiz-adv-x="427" 
d="M9 -122l304 913h104l-305 -913h-103z" />
    <glyph glyph-name="zero" unicode="0" horiz-adv-x="639" 
d="M320 711q124 0 202 -100.5t78 -260.5t-78 -260.5t-202 -100.5t-202.5 100.5t-78.5 260.5t78.5 260.5t202.5 100.5zM320 83q82 0 128 75t46 192t-46 192t-128 75t-128.5 -75.5t-46.5 -191.5t46.5 -191.5t128.5 -75.5z" />
    <glyph glyph-name="one" unicode="1" horiz-adv-x="413" 
d="M312 0h-107v586l-178 -63v89l235 99h50v-711z" />
    <glyph glyph-name="two" unicode="2" horiz-adv-x="546" 
d="M374 495q0 56 -33.5 87.5t-93.5 31.5q-106 0 -203 -84v103q97 78 220 78q104 0 163.5 -56t59.5 -144q0 -97 -88.5 -206.5t-225.5 -212.5h341v-92h-485v75q78 64 132 113.5t106.5 106.5t79.5 107t27 93z" />
    <glyph glyph-name="three" unicode="3" horiz-adv-x="548" 
d="M30 38v97q78 -54 182 -54q82 0 134 39t52 104q0 131 -227 132v34l181 216h-295v94h415v-84l-174 -200q88 -11 148.5 -59.5t60.5 -130.5q0 -105 -85 -171t-203 -66q-109 0 -189 49z" />
    <glyph glyph-name="four" unicode="4" horiz-adv-x="619" 
d="M442 0h-96v183h-319v70q34 102 109 234t149 213h123q-82 -86 -153 -204t-116 -230h207v174h96v-174h156v-83h-156v-183z" />
    <glyph glyph-name="five" unicode="5" horiz-adv-x="534" 
d="M386 225q0 79 -72 117.5t-218 52.5l26 305h347v-94h-269l-9 -136q59 -7 109.5 -22.5t95.5 -43t71 -71.5t26 -101q0 -109 -84 -176t-202 -67q-109 0 -190 50v97q76 -54 182 -54q83 0 135 38.5t52 104.5z" />
    <glyph glyph-name="six" unicode="6" horiz-adv-x="587" 
d="M548 220q0 -103 -69.5 -167t-170.5 -64q-116 0 -192.5 91t-76.5 233q0 177 104 287.5t268 110.5q71 0 117 -20v-87q-53 17 -117 17q-115 0 -189 -76.5t-79 -214.5q31 45 82 71.5t103 26.5q92 0 156 -56.5t64 -151.5zM308 75q61 0 99.5 36t38.5 101q0 61 -39 97.5
t-102 36.5q-45 0 -87 -24t-72 -63q12 -88 56.5 -136t105.5 -48z" />
    <glyph glyph-name="seven" unicode="7" horiz-adv-x="537" 
d="M225 0h-119q207 271 306 606h-383v94h494v-73q-27 -125 -117.5 -322.5t-180.5 -304.5z" />
    <glyph glyph-name="eight" unicode="8" horiz-adv-x="587" 
d="M292 -11q-108 0 -182.5 56t-74.5 139q0 62 43 107t110 72q-114 62 -114 158q0 83 64 136.5t158 53.5q96 0 160 -49t64 -126q0 -106 -129 -165l48.5 -24.5t41 -26t38.5 -34.5t22.5 -42t10.5 -57q0 -84 -74.5 -141t-185.5 -57zM271 427l61 -29q93 54 93 128q0 48 -35 78
t-93 30q-52 0 -86 -29t-34 -71q0 -38 23 -61t71 -46zM292 72q66 0 108.5 31.5t42.5 82.5q0 34 -28.5 58.5t-88.5 52.5l-79 37q-109 -50 -109 -139q0 -52 44 -87.5t110 -35.5z" />
    <glyph glyph-name="nine" unicode="9" horiz-adv-x="587" 
d="M279 625q-61 0 -99.5 -36t-38.5 -101q0 -61 39 -97.5t102 -36.5q45 0 87 24t72 63q-12 88 -56.5 136t-105.5 48zM39 480q0 103 69.5 167t170.5 64q116 0 192.5 -91t76.5 -233q0 -177 -104 -287.5t-268 -110.5q-71 0 -117 20v87q53 -17 117 -17q115 0 189 76.5t79 214.5
q-31 -45 -82 -71.5t-103 -26.5q-92 0 -156 56.5t-64 151.5z" />
    <glyph glyph-name="colon" unicode=":" horiz-adv-x="250" 
d="M53 417q0 29 21 50.5t51 21.5t51 -21.5t21 -50.5q0 -31 -21 -52.5t-51 -21.5t-51 21.5t-21 52.5zM53 68q0 29 21 50.5t51 21.5t51 -21.5t21 -50.5q0 -31 -21 -52.5t-51 -21.5t-51 21.5t-21 52.5z" />
    <glyph glyph-name="semicolon" unicode=";" horiz-adv-x="250" 
d="M53 417q0 29 21 50.5t51 21.5t51 -21.5t21 -50.5q0 -31 -21 -52.5t-51 -21.5t-51 21.5t-21 52.5zM71 142h108q0 -70 -29.5 -145t-60.5 -112h-71q22 44 37.5 117.5t15.5 139.5z" />
    <glyph glyph-name="less" unicode="&#x3c;" horiz-adv-x="601" 
d="M59 293v99l483 182v-95l-388 -136l388 -136v-96z" />
    <glyph glyph-name="equal" unicode="=" horiz-adv-x="601" 
d="M46 402v79h509v-79h-509zM46 186v80h509v-80h-509z" />
    <glyph glyph-name="greater" unicode="&#x3e;" horiz-adv-x="601" 
d="M559 392v-99l-483 -182v96l388 136l-388 136v95z" />
    <glyph glyph-name="question" unicode="?" horiz-adv-x="486" 
d="M345 505q0 50 -30.5 79t-90.5 29q-98 0 -197 -84v104q97 78 215 78q103 0 159.5 -55t56.5 -140q0 -44 -23.5 -84t-52.5 -65.5t-56 -60.5t-32 -69h-107q5 39 30.5 77.5t53.5 64.5t51 60t23 66zM167 67q0 29 21 50.5t51 21.5t51 -21t21 -51q0 -31 -20.5 -52.5t-51.5 -21.5
q-30 0 -51 21.5t-21 52.5z" />
    <glyph glyph-name="at" unicode="@" horiz-adv-x="1007" 
d="M724 23q-78 0 -126 58q-61 -57 -135 -57q-55 0 -93.5 32.5t-38.5 86.5q0 71 66 111.5t195 44.5v24q0 87 -90 87q-71 0 -143 -44v79q64 44 152 44q85 0 128.5 -43.5t43.5 -115.5v-217q16 -20 50 -20q56 0 94.5 58.5t38.5 156.5q0 145 -97.5 237t-237.5 92
q-166 0 -277.5 -114.5t-111.5 -291.5q0 -169 115 -275.5t279 -106.5q188 0 313 101v-84q-127 -92 -314 -92q-128 0 -236 55t-174.5 160.5t-66.5 241.5q0 204 136 342.5t336 138.5q174 0 297 -113t123 -287q0 -131 -68.5 -210t-157.5 -79zM494 94q46 0 98 35v111
q-166 -6 -166 -90q0 -26 19.5 -41t48.5 -15z" />
    <glyph glyph-name="A" unicode="A" horiz-adv-x="714" 
d="M356 570l-111 -270h220zM587 0l-86 213h-292l-87 -213h-105l293 700h96l290 -700h-109z" />
    <glyph glyph-name="B" unicode="B" horiz-adv-x="641" 
d="M447 367q68 -13 109.5 -58t41.5 -112q0 -92 -64 -144.5t-173 -52.5h-270v700h233q109 0 170 -48.5t61 -137.5q0 -53 -31.5 -92.5t-76.5 -54.5zM198 612v-212h111q141 0 141 108q0 104 -141 104h-111zM491 203q0 53 -37 82t-104 29h-152v-226h152q67 0 104 30.5t37 84.5z
" />
    <glyph glyph-name="C" unicode="C" horiz-adv-x="624" 
d="M148 350q0 -124 79.5 -193.5t196.5 -69.5q82 0 151 31v-99q-74 -30 -154 -30q-162 0 -273 98.5t-111 262.5t111 262.5t273 98.5q79 0 154 -29v-100q-71 32 -150 32q-118 0 -197.5 -70t-79.5 -194z" />
    <glyph glyph-name="D" unicode="D" horiz-adv-x="740" 
d="M91 0v701h237q161 0 267.5 -95t106.5 -255t-106.5 -255.5t-267.5 -95.5h-237zM198 91h128q117 0 192 70t75 190t-75 189.5t-192 69.5h-128v-519z" />
    <glyph glyph-name="E" unicode="E" horiz-adv-x="615" 
d="M91 0v700h446v-90h-339v-209h308v-89h-308v-222h351v-90h-458z" />
    <glyph glyph-name="F" unicode="F" horiz-adv-x="587" 
d="M198 0h-107v700h439v-90h-332v-216h301v-90h-301v-304z" />
    <glyph glyph-name="G" unicode="G" horiz-adv-x="679" 
d="M431 614q-121 0 -202.5 -74t-81.5 -194q0 -128 78.5 -195.5t196.5 -67.5q53 0 92 9v217h104v-295q-93 -25 -197 -25q-107 0 -193 41t-138.5 123t-52.5 193q0 160 114.5 262.5t279.5 102.5q102 0 183 -33v-101q-79 37 -183 37z" />
    <glyph glyph-name="H" unicode="H" horiz-adv-x="782" 
d="M583 0v312h-385v-312h-107v701h107v-300h385v300h108v-701h-108z" />
    <glyph glyph-name="I" unicode="I" horiz-adv-x="289" 
d="M91 0v700h107v-700h-107z" />
    <glyph glyph-name="J" unicode="J" horiz-adv-x="289" 
d="M198 59q0 -102 -24 -168t-71 -119h-119q53 60 80 127.5t27 162.5v638h107v-641z" />
    <glyph glyph-name="K" unicode="K" horiz-adv-x="698" 
d="M554 0l-356 344v-344h-107v700h107v-326l319 326h134l-337 -333l381 -367h-141z" />
    <glyph glyph-name="L" unicode="L" horiz-adv-x="579" 
d="M91 700h107v-610h339v-90h-446v700z" />
    <glyph glyph-name="M" unicode="M" horiz-adv-x="894" 
d="M487 92h-82l-174 448l-75 -540h-101l100 700h107l186 -483l184 483h107l100 -700h-103l-75 540z" />
    <glyph glyph-name="N" unicode="N" horiz-adv-x="760" 
d="M576 0l-382 545v-545h-103v700h108l367 -534v534h103v-700h-93z" />
    <glyph glyph-name="O" unicode="O" horiz-adv-x="766" 
d="M37 350q0 158 101 259.5t245 101.5t245 -101.5t101 -259.5t-101 -259.5t-245 -101.5t-245 101.5t-101 259.5zM619 350q0 118 -66 191t-170 73t-170 -73t-66 -191t66 -191t170 -73t170 73t66 191z" />
    <glyph glyph-name="P" unicode="P" horiz-adv-x="631" 
d="M344 270h-146v-270h-107v700h253q112 0 182 -58.5t70 -156.5t-70 -156.5t-182 -58.5zM485 485q0 59 -40.5 92t-106.5 33h-140v-250h140q66 0 106.5 33t40.5 92z" />
    <glyph glyph-name="Q" unicode="Q" horiz-adv-x="766" 
d="M597 -212q-93 0 -165.5 51.5t-99.5 153.5q-127 18 -211 116t-84 241q0 158 101 259.5t245 101.5t245 -101.5t101 -259.5q0 -141 -81.5 -238t-204.5 -118q37 -116 171 -116q32 0 65 11v-86q-33 -15 -82 -15zM619 350q0 118 -66 191t-170 73t-170 -73t-66 -191t66 -191
t170 -73t170 73t66 191z" />
    <glyph glyph-name="R" unicode="R" horiz-adv-x="676" 
d="M198 610v-246h166q43 12 71.5 44t28.5 85q0 56 -39.5 86.5t-111.5 30.5h-115zM674 0h-133q-102 104 -208 278h-135v-278h-107v700h225q124 0 191.5 -53.5t67.5 -152.5q0 -68 -39.5 -118.5t-99.5 -73.5q41 -69 109 -155t129 -147z" />
    <glyph glyph-name="S" unicode="S" horiz-adv-x="568" 
d="M31 47v105q104 -70 225 -70q71 0 114 28.5t43 79.5q0 33 -26 58.5t-65 39.5t-84.5 33.5t-84.5 40t-65 59t-26 90.5q0 86 69.5 143t172.5 57q102 0 184 -43v-102q-86 53 -180 53q-62 0 -100.5 -28t-38.5 -75q0 -38 36.5 -65t88.5 -45.5t104 -41t88.5 -65.5t36.5 -104
q0 -90 -76 -148t-190 -58q-62 0 -123.5 15.5t-102.5 42.5z" />
    <glyph glyph-name="T" unicode="T" horiz-adv-x="680" 
d="M27 610v90h626v-90h-259v-610h-107v610h-260z" />
    <glyph glyph-name="U" unicode="U" horiz-adv-x="731" 
d="M365 -11q-134 0 -215.5 80t-81.5 227v404h108v-395q0 -108 50 -163t139 -55t139.5 55t50.5 163v395h107v-404q0 -147 -81.5 -227t-215.5 -80z" />
    <glyph glyph-name="V" unicode="V" horiz-adv-x="711" 
d="M403 0h-95l-291 700h115l226 -561l226 561h109z" />
    <glyph glyph-name="W" unicode="W" horiz-adv-x="957" 
d="M440 700h85l154 -539l160 539h100l-212 -700h-87l-161 547l-161 -547h-88l-213 700h109l159 -539z" />
    <glyph glyph-name="X" unicode="X" horiz-adv-x="720" 
d="M573 0l-216 286l-217 -286h-123l281 360l-262 340h131l196 -260l199 260h123l-263 -335l281 -365h-130z" />
    <glyph glyph-name="Y" unicode="Y" horiz-adv-x="702" 
d="M406 304v-304h-108v304l-281 396h126l213 -304l210 304h119z" />
    <glyph glyph-name="Z" unicode="Z" horiz-adv-x="667" 
d="M622 90v-90h-575v69l421 541h-409v90h547v-73l-419 -537h435z" />
    <glyph glyph-name="bracketleft" unicode="[" horiz-adv-x="361" 
d="M172 711v-753h161v-80h-260v913h260v-80h-161z" />
    <glyph glyph-name="backslash" unicode="\" horiz-adv-x="427" 
d="M129 791l304 -913h-103l-305 913h104z" />
    <glyph glyph-name="bracketright" unicode="]" horiz-adv-x="361" 
d="M189 -42v753h-161v80h260v-913h-260v80h161z" />
    <glyph glyph-name="asciicircum" unicode="^" horiz-adv-x="506" 
d="M202 701h102l164 -289h-88l-127 192l-127 -192h-87z" />
    <glyph glyph-name="underscore" unicode="_" horiz-adv-x="407" 
d="M70 -133v88h267v-88h-267z" />
    <glyph glyph-name="grave" unicode="`" horiz-adv-x="530" 
d="M359 604h-66l-129 187h128z" />
    <glyph glyph-name="a" unicode="a" horiz-adv-x="520" 
d="M219 66q61 0 127 45v129q-206 -7 -206 -107q0 -31 21.5 -49t57.5 -18zM459 0h-103l-10 54q-72 -65 -157 -65q-64 0 -106 37.5t-42 99.5q0 81 76 128.5t229 51.5v30q0 99 -107 99q-83 0 -169 -50v88q35 23 84.5 37t94.5 14q101 0 150.5 -50t49.5 -133v-239q0 -56 10 -102z
" />
    <glyph glyph-name="b" unicode="b" horiz-adv-x="594" 
d="M79 33v754l103 16v-339q66 60 155 60q101 0 162 -68t61 -185q0 -125 -78.5 -203.5t-199.5 -78.5q-116 0 -203 44zM182 391v-298q44 -18 99 -18q79 0 126 52.5t47 139.5q0 79 -38 124t-103 45q-77 0 -131 -45z" />
    <glyph glyph-name="c" unicode="c" horiz-adv-x="464" 
d="M37 255q0 119 77 194t192 75q60 0 108 -22v-91q-46 23 -104 23q-73 0 -122.5 -49t-49.5 -130q0 -79 49.5 -127.5t122.5 -48.5q56 0 107 24v-92q-50 -22 -111 -22q-115 0 -192 74.5t-77 191.5z" />
    <glyph glyph-name="d" unicode="d" horiz-adv-x="595" 
d="M413 127v285q-36 29 -102 29q-77 0 -123 -53t-46 -141q0 -79 39 -124t104 -45q73 0 128 49zM413 -6v58q-67 -63 -151 -63q-100 0 -162.5 68.5t-62.5 185.5q0 125 76 203t190 78q66 0 110 -27v290l103 16v-793z" />
    <glyph glyph-name="e" unicode="e" horiz-adv-x="532" 
d="M474 23q-72 -34 -160 -34q-122 0 -199.5 76t-77.5 193q0 114 68.5 190t174.5 76q107 0 161 -68.5t54 -175.5q0 -24 -1 -37h-360q7 -78 60 -122.5t131 -44.5q82 0 149 34v-87zM278 442q-54 0 -92.5 -35.5t-48.5 -98.5h258v5q0 56 -29.5 92.5t-87.5 36.5z" />
    <glyph glyph-name="f" unicode="f" horiz-adv-x="349" 
d="M198 433v-433h-103v433h-73v80h73v41q0 115 63.5 181.5t170.5 66.5q41 0 80 -12v-83q-31 9 -70 9q-68 0 -104.5 -41t-36.5 -119v-43h163l-15 -80h-148z" />
    <glyph glyph-name="g" unicode="g" horiz-adv-x="536" 
d="M359 348q0 50 -32 77.5t-79 27.5t-79 -27.5t-32 -77.5q0 -48 32.5 -76t78.5 -28q47 0 79 28t32 76zM520 -56q0 -86 -83 -134.5t-200 -48.5q-102 0 -171.5 40.5t-69.5 107.5q0 49 38.5 82.5t91.5 47.5q-24 27 -24 59q0 52 64 87q-58 19 -93.5 62t-35.5 101q0 78 61 127
t150 49q38 0 73 -11h210l-12 -71h-96q31 -42 31 -94q0 -78 -58 -126.5t-148 -48.5q-12 0 -18 1q-43 -22 -43 -46q0 -28 47 -34l113 -15q83 -12 128 -43t45 -92zM248 -164q69 0 120 24t51 68q0 30 -23 42t-65 18l-144 23q-42 -12 -67.5 -35t-25.5 -54q0 -42 43 -64t111 -22z
" />
    <glyph glyph-name="h" unicode="h" horiz-adv-x="602" 
d="M79 787l103 15v-339q79 61 174 61q84 0 128.5 -46.5t44.5 -127.5v-350h-104v324q0 54 -24 82t-80 28q-71 0 -139 -43v-391h-103v787z" />
    <glyph glyph-name="i" unicode="i" 
d="M65 703q0 27 19 46t47 19t47 -19t19 -46t-19 -46t-47 -19t-47 19t-19 46zM79 0v503l103 17v-520h-103z" />
    <glyph glyph-name="j" unicode="j" 
d="M65 703q0 27 19 46t47 19t47 -19t19 -46t-19 -46t-47 -19t-47 19t-19 46zM182 16q-1 -86 -20.5 -140.5t-56.5 -103.5h-109q40 52 60.5 110.5t22.5 142.5v478l103 17v-504z" />
    <glyph glyph-name="k" unicode="k" horiz-adv-x="570" 
d="M438 0l-256 259v-259h-103v787l103 15v-519l231 230h123l-240 -235l271 -278h-129z" />
    <glyph glyph-name="l" unicode="l" 
d="M79 0v787l103 15v-802h-103z" />
    <glyph glyph-name="m" unicode="m" horiz-adv-x="917" 
d="M182 0h-103v503l103 17v-56q28 24 73 42t93 18q98 0 141 -72q84 72 189 72q79 0 122.5 -47t43.5 -127v-350h-103v324q0 54 -22.5 82t-75.5 28q-69 0 -133 -46q3 -18 3 -38v-350h-103v324q0 54 -22.5 82t-75.5 28q-67 0 -130 -43v-391z" />
    <glyph glyph-name="n" unicode="n" horiz-adv-x="602" 
d="M79 503l103 17v-57q79 61 174 61q84 0 128.5 -46.5t44.5 -127.5v-350h-104v324q0 54 -24 82t-80 28q-71 0 -139 -43v-391h-103v503z" />
    <glyph glyph-name="o" unicode="o" horiz-adv-x="571" 
d="M36 256q0 117 72.5 192.5t176.5 75.5t177 -75t73 -193q0 -117 -73 -192t-177 -75t-176.5 75t-72.5 192zM433 256q0 79 -40.5 129t-107.5 50t-107 -50t-40 -129q0 -78 40 -128t107 -50t107.5 50t40.5 128z" />
    <glyph glyph-name="p" unicode="p" horiz-adv-x="595" 
d="M182 391v-292q38 -28 103 -28q77 0 123 54t46 143q0 78 -38 122.5t-103 44.5q-78 0 -131 -44zM182 -228h-103v731l103 17v-56q66 60 155 60q101 0 162 -67.5t61 -184.5q0 -125 -76.5 -204t-188.5 -79q-69 0 -113 25v-242z" />
    <glyph glyph-name="q" unicode="q" horiz-adv-x="595" 
d="M516 519v-747h-103v280q-67 -63 -151 -63q-100 0 -162.5 68.5t-62.5 184.5q0 126 76 204t190 78q76 0 122 -32zM413 126v287q-35 28 -102 28q-78 0 -123.5 -53.5t-45.5 -141.5q0 -78 39.5 -123.5t103.5 -45.5q71 0 128 49z" />
    <glyph glyph-name="r" unicode="r" horiz-adv-x="403" 
d="M182 0h-103v503l103 17v-90q89 107 203 89v-104q-118 26 -203 -66v-349z" />
    <glyph glyph-name="s" unicode="s" horiz-adv-x="460" 
d="M40 28v93q74 -50 168 -50q44 0 72 18.5t28 49.5q0 26 -26 44.5t-62.5 31.5t-73 29.5t-62.5 48.5t-26 79q0 66 52 109t133 43q71 0 137 -30v-91q-66 39 -130 39q-42 0 -66.5 -18t-24.5 -48q0 -26 26 -44.5t62.5 -31.5t73.5 -29t63 -47.5t26 -77.5q0 -72 -58 -114.5
t-143 -42.5q-101 0 -169 39z" />
    <glyph glyph-name="t" unicode="t" horiz-adv-x="425" 
d="M19 513h75v111l104 16v-127h178l-14 -80h-164v-274q0 -40 22 -60t59 -20q63 0 119 23v-85q-57 -27 -133 -27q-74 0 -122.5 38.5t-48.5 118.5v286h-75v80z" />
    <glyph glyph-name="u" unicode="u" horiz-adv-x="593" 
d="M513 513v-503l-104 -16v56q-72 -61 -167 -61q-81 0 -125 47t-44 127v350h103v-324q0 -54 23 -82.5t77 -28.5q63 0 133 43v392h104z" />
    <glyph glyph-name="v" unicode="v" horiz-adv-x="534" 
d="M310 -3h-86l-216 516h111l154 -388l151 388h102z" />
    <glyph glyph-name="w" unicode="w" horiz-adv-x="757" 
d="M347 513h71l119 -381l116 381h96l-175 -516h-79l-117 373l-116 -373h-79l-175 516h105l118 -380z" />
    <glyph glyph-name="x" unicode="x" horiz-adv-x="535" 
d="M403 0l-139 194l-140 -194h-110l197 264l-183 249h118l124 -175l127 175h109l-183 -245l198 -268h-118z" />
    <glyph glyph-name="y" unicode="y" horiz-adv-x="534" 
d="M219 38l-211 475h111l154 -368l152 368h101l-224 -508q-60 -136 -117 -190t-146 -54q-32 0 -51 9v83q21 -7 46 -7q61 0 99 39.5t86 152.5z" />
    <glyph glyph-name="z" unicode="z" horiz-adv-x="501" 
d="M479 80l-16 -80h-425v60l282 373h-273v80h410v-59l-285 -374h307z" />
    <glyph glyph-name="braceleft" unicode="{" horiz-adv-x="391" 
d="M18 292v85h55q33 0 50 16.5t17 57.5l-26 194q0 67 47 106.5t112 39.5q52 0 90 -19v-73q-23 12 -59 12q-38 0 -65.5 -21.5t-27.5 -59.5l24 -192q0 -45 -30 -71t-69 -33q39 -6 69 -32t30 -71l-24 -193q0 -38 27.5 -59.5t65.5 -21.5q35 0 59 13v-73q-38 -19 -90 -19
q-65 0 -112 39.5t-47 105.5l26 194q0 42 -17 58.5t-50 16.5h-55z" />
    <glyph glyph-name="bar" unicode="|" horiz-adv-x="321" 
d="M210 -122h-98v913h98v-913z" />
    <glyph glyph-name="braceright" unicode="}" horiz-adv-x="391" 
d="M373 377v-85h-55q-33 0 -50 -16.5t-17 -58.5l26 -194q0 -66 -47 -105.5t-112 -39.5q-52 0 -90 19v73q24 -13 59 -13q38 0 65.5 21.5t27.5 59.5l-24 193q0 45 30 71t69 32q-39 7 -69 33t-30 71l24 192q0 38 -27.5 59.5t-65.5 21.5q-37 0 -59 -12v73q38 19 90 19
q65 0 112 -39.5t47 -106.5l-26 -194q0 -41 17 -57.5t50 -16.5h55z" />
    <glyph glyph-name="asciitilde" unicode="~" horiz-adv-x="585" 
d="M372 207q-29 0 -57.5 24t-53.5 48t-45 24q-54 0 -74 -99h-72q8 85 47.5 140t95.5 55q23 0 46.5 -15t39 -32.5t35 -32.5t35.5 -15q52 0 74 98h72q-8 -85 -47.5 -140t-95.5 -55z" />
    <glyph glyph-name="exclamdown" unicode="&#xa1;" horiz-adv-x="258" 
d="M202 633q0 -29 -21 -50.5t-51 -21.5t-51.5 21.5t-21.5 50.5q0 31 21 52.5t52 21.5q30 0 51 -21.5t21 -52.5zM98 461h63l34 -461h-131z" />
    <glyph glyph-name="cent" unicode="&#xa2;" horiz-adv-x="488" 
d="M450 103q-56 -23 -120 -25v-155h-90v165q-93 23 -151.5 92t-58.5 165q0 97 58.5 166.5t151.5 93.5v168h90v-158q60 -2 116 -23v-91q-51 24 -121 24q-81 0 -136.5 -47.5t-55.5 -132.5q0 -83 55.5 -130.5t136.5 -47.5q65 0 125 26v-90z" />
    <glyph glyph-name="sterling" unicode="&#xa3;" horiz-adv-x="624" 
d="M460 382h-383l27 70h105q49 127 112.5 193t158.5 66q57 0 101 -21v-89q-48 21 -98 21q-56 0 -96.5 -41t-75.5 -129h172zM551 79v-79h-500v60l75 181h-99l28 70h391l-24 -70h-194l-67 -162h390z" />
    <glyph glyph-name="yen" unicode="&#xa5;" horiz-adv-x="678" 
d="M575 371h-472v70h128l-201 259h122l190 -253l186 253h119l-201 -259h129v-70zM575 229h-184v-229h-104v229h-184v71h472v-71z" />
    <glyph glyph-name="section" unicode="&#xa7;" horiz-adv-x="541" 
d="M200 548q0 -26 17 -47t52 -46l154 -112q40 -30 62 -59.5t22 -70.5q0 -64 -57 -98l-31 32q12 18 12 36q0 39 -68 91l-184 140q-39 30 -56 61t-17 73q0 68 53 116t133 48q70 0 133 -34v-91q-60 43 -129 43q-41 0 -68.5 -23t-27.5 -59zM341 -9q0 27 -16.5 46.5t-52.5 46.5
l-153 113q-85 60 -85 130q0 64 57 98l32 -33q-13 -18 -13 -35q0 -40 68 -91l184 -141q39 -29 56 -60t17 -73q0 -67 -54.5 -116.5t-134.5 -49.5q-71 0 -136 36v90q64 -44 132 -44q43 0 71 23.5t28 59.5z" />
    <glyph glyph-name="dieresis" unicode="&#xa8;" horiz-adv-x="530" 
d="M107 704q0 25 18 42.5t45 17.5q26 0 43.5 -17.5t17.5 -42.5q0 -26 -17.5 -43.5t-43.5 -17.5q-27 0 -45 17.5t-18 43.5zM298 704q0 25 17.5 42.5t44.5 17.5q26 0 44 -17.5t18 -42.5q0 -26 -18 -43.5t-44 -17.5q-27 0 -44.5 17.5t-17.5 43.5z" />
    <glyph glyph-name="copyright" unicode="&#xa9;" horiz-adv-x="796" 
d="M398 712q152 0 256 -102.5t104 -258.5t-104 -259t-256 -103t-256.5 103t-104.5 259t104.5 258.5t256.5 102.5zM398 45q128 0 216 87.5t88 218.5q0 132 -88 219t-216 87t-216.5 -87.5t-88.5 -218.5t88.5 -218.5t216.5 -87.5zM226 352q0 90 55 147.5t138 57.5q50 0 87 -23
v-78q-35 24 -81 24q-48 0 -81 -35t-33 -93t32.5 -90.5t81.5 -32.5q46 0 81 24v-76q-35 -24 -87 -24q-84 0 -138.5 55t-54.5 144z" />
    <glyph glyph-name="ordfeminine" unicode="&#xaa;" horiz-adv-x="375" 
d="M167 418q37 0 74 28v72q-66 -3 -95 -16t-29 -44q0 -18 13.5 -29t36.5 -11zM326 368h-79l-6 35q-45 -43 -100 -43q-43 0 -71.5 25.5t-28.5 66.5q0 112 200 116v14q0 31 -14.5 46.5t-49.5 15.5q-57 0 -117 -33v66q56 35 125 35q67 0 100.5 -33t33.5 -89v-155q0 -30 7 -67z
M58 249v60h260v-60h-260z" />
    <glyph glyph-name="guillemotleft" unicode="&#xab;" horiz-adv-x="551" 
d="M167 253l120 -208h-77l-167 208l167 210h77zM388 253l120 -208h-77l-167 208l167 210h77z" />
    <glyph glyph-name="registered" unicode="&#xae;" horiz-adv-x="796" 
d="M398 712q152 0 256 -102.5t104 -258.5t-104 -259t-256 -103t-256.5 103t-104.5 259t104.5 258.5t256.5 102.5zM398 45q128 0 216 87.5t88 218.5q0 132 -88 219t-216 87t-216.5 -87.5t-88.5 -218.5t88.5 -218.5t216.5 -87.5zM343 486v-116h69q48 16 48 59q0 57 -73 57h-44
zM572 165h-90l-89 144h-50v-144h-78v387h130q69 0 107 -31.5t38 -87.5q0 -37 -21.5 -64.5t-53.5 -41.5z" />
    <glyph glyph-name="macron" unicode="&#xaf;" horiz-adv-x="530" 
d="M414 648h-299v78h299v-78z" />
    <glyph glyph-name="degree" unicode="&#xb0;" horiz-adv-x="390" 
d="M194 712q67 0 113 -46t46 -111q0 -66 -46 -112.5t-113 -46.5q-64 0 -110.5 46.5t-46.5 112.5q0 65 46.5 111t110.5 46zM194 464q38 0 64.5 26.5t26.5 64.5q0 37 -26.5 63.5t-64.5 26.5q-37 0 -63 -26.5t-26 -63.5t26 -64t63 -27z" />
    <glyph glyph-name="twosuperior" unicode="&#xb2;" horiz-adv-x="299" 
d="M185 585q0 51 -56 51q-51 0 -106 -42v74q58 39 124 39q57 0 89.5 -29.5t32.5 -76.5q0 -91 -147 -196h162v-68h-267v55q81 64 124.5 110.5t43.5 82.5z" />
    <glyph glyph-name="threesuperior" unicode="&#xb3;" horiz-adv-x="298" 
d="M18 356v68q42 -27 95 -27q38 0 61.5 16t23.5 44q0 56 -111 57v23l84 96h-139v68h227v-58l-82 -91q43 -8 71.5 -31.5t28.5 -65.5q0 -55 -46 -89t-110 -34q-60 0 -103 24z" />
    <glyph glyph-name="acute" unicode="&#xb4;" horiz-adv-x="530" 
d="M235 604h-65l68 187h128z" />
    <glyph glyph-name="paragraph" unicode="&#xb6;" horiz-adv-x="567" 
d="M243 701h31v-412h-31q-90 0 -153 56.5t-63 146.5t63.5 149.5t152.5 59.5zM445 86q0 -102 -22 -165t-68 -116h-111q54 58 79 122t25 160v614h196v-80h-99v-535z" />
    <glyph glyph-name="periodcentered" unicode="&#xb7;" horiz-adv-x="284" 
d="M70 279q0 29 21 50.5t51 21.5t51 -21.5t21 -50.5q0 -31 -21 -52.5t-51 -21.5t-51 21.5t-21 52.5z" />
    <glyph glyph-name="cedilla" unicode="&#xb8;" horiz-adv-x="530" 
d="M371 -140q0 -45 -39 -72t-91 -27q-65 0 -102 25v61q44 -26 98 -26q29 0 47 10.5t18 29.5q0 44 -95 44l37 103h47l-21 -60q46 -6 73.5 -28.5t27.5 -59.5z" />
    <glyph glyph-name="onesuperior" unicode="&#xb9;" horiz-adv-x="235" 
d="M178 337h-78v279l-90 -29v66l136 54h32v-370z" />
    <glyph glyph-name="ordmasculine" unicode="&#xba;" horiz-adv-x="401" 
d="M201 712q69 0 117 -49t48 -126t-48 -126t-117 -49t-117 49t-48 126t48 126t117 49zM114 537q0 -45 23.5 -75t63.5 -30q39 0 63 30t24 75q0 46 -24 75.5t-63 29.5q-40 0 -63.5 -29.5t-23.5 -75.5zM331 309v-60h-260v60h260z" />
    <glyph glyph-name="guillemotright" unicode="&#xbb;" horiz-adv-x="551" 
d="M264 45l120 208l-120 210h77l167 -210l-167 -208h-77zM43 45l120 208l-120 210h77l167 -210l-167 -208h-77z" />
    <glyph glyph-name="questiondown" unicode="&#xbf;" horiz-adv-x="486" 
d="M319 634q0 -29 -21 -50.5t-51 -21.5t-51 21t-21 51q0 31 20.5 52.5t51.5 21.5q30 0 51 -21.5t21 -52.5zM141 196q0 -50 30.5 -79t90.5 -29q98 0 197 84v-104q-97 -78 -215 -78q-103 0 -159.5 55t-56.5 140q0 44 23.5 84t52.5 65.5t56 60.5t32 69h107q-5 -39 -30.5 -77.5
t-53.5 -64.5t-51 -60t-23 -66z" />
    <glyph glyph-name="Agrave" unicode="&#xc0;" horiz-adv-x="714" 
d="M409 771h-87l-190 156h155zM356 570l-111 -270h220zM587 0l-86 213h-292l-87 -213h-105l293 700h96l290 -700h-109z" />
    <glyph glyph-name="Aacute" unicode="&#xc1;" horiz-adv-x="714" 
d="M395 771h-87l122 156h155zM356 570l-111 -270h220zM587 0l-86 213h-292l-87 -213h-105l293 700h96l290 -700h-109z" />
    <glyph glyph-name="Acircumflex" unicode="&#xc2;" horiz-adv-x="714" 
d="M308 927h98l131 -156h-76l-105 86l-104 -86h-76zM356 570l-111 -270h220zM587 0l-86 213h-292l-87 -213h-105l293 700h96l290 -700h-109z" />
    <glyph glyph-name="Atilde" unicode="&#xc3;" horiz-adv-x="714" 
d="M428 768q-24 0 -51.5 23l-52.5 45.5t-43 22.5q-22 0 -32 -22.5t-15 -65.5h-64q2 74 32.5 123t82.5 49q30 0 78.5 -45t68.5 -45q22 0 32 22t15 66h64q-2 -74 -32.5 -123.5t-82.5 -49.5zM356 570l-111 -270h220zM587 0l-86 213h-292l-87 -213h-105l293 700h96l290 -700
h-109z" />
    <glyph glyph-name="Adieresis" unicode="&#xc4;" horiz-adv-x="714" 
d="M199 849q0 25 18 43t45 18q26 0 43.5 -18t17.5 -43q0 -26 -17.5 -43.5t-43.5 -17.5q-27 0 -45 17.5t-18 43.5zM390 849q0 25 17.5 43t44.5 18q26 0 44 -18t18 -43q0 -26 -18 -43.5t-44 -17.5q-27 0 -44.5 17.5t-17.5 43.5zM356 570l-111 -270h220zM587 0l-86 213h-292
l-87 -213h-105l293 700h96l290 -700h-109z" />
    <glyph glyph-name="Aring" unicode="&#xc5;" horiz-adv-x="714" 
d="M356 710q28 0 46.5 19t18.5 47q0 26 -19 45t-46 19q-25 0 -43.5 -19t-18.5 -45q0 -28 18 -47t44 -19zM356 570l-111 -270h220zM209 213l-87 -213h-105l279 668q-28 16 -45 45t-17 63q0 50 36.5 86t85.5 36q51 0 87.5 -35.5t36.5 -86.5q0 -70 -61 -107l277 -669h-109
l-86 213h-292z" />
    <glyph glyph-name="AE" unicode="&#xc6;" horiz-adv-x="1067" 
d="M548 310v321l-213 -321h213zM548 0v223h-271l-148 -223h-112l466 700h505v-89h-333v-210h302v-89h-302v-222h346v-90h-453z" />
    <glyph glyph-name="Ccedilla" unicode="&#xc7;" horiz-adv-x="624" 
d="M340 -239q-64 0 -102 25v61q44 -26 98 -26q29 0 47 10.5t18 29.5q0 44 -95 44l33 91q-133 24 -217.5 118t-84.5 236q0 164 111 262.5t273 98.5q79 0 154 -29v-100q-71 32 -150 32q-118 0 -197.5 -70t-79.5 -194t79.5 -193.5t196.5 -69.5q82 0 151 31v-99
q-74 -30 -154 -30q-25 0 -37 1l-15 -42q46 -6 73.5 -28.5t27.5 -59.5q0 -45 -39 -72t-91 -27z" />
    <glyph glyph-name="Egrave" unicode="&#xc8;" horiz-adv-x="615" 
d="M390 771h-87l-190 156h155zM91 0v700h446v-90h-339v-209h308v-89h-308v-222h351v-90h-458z" />
    <glyph glyph-name="Eacute" unicode="&#xc9;" horiz-adv-x="615" 
d="M342 771h-87l122 156h155zM91 0v700h446v-90h-339v-209h308v-89h-308v-222h351v-90h-458z" />
    <glyph glyph-name="Ecircumflex" unicode="&#xca;" horiz-adv-x="615" 
d="M272 927h98l131 -156h-76l-105 86l-104 -86h-76zM91 0v700h446v-90h-339v-209h308v-89h-308v-222h351v-90h-458z" />
    <glyph glyph-name="Edieresis" unicode="&#xcb;" horiz-adv-x="615" 
d="M163 849q0 25 18 43t45 18q26 0 43.5 -18t17.5 -43q0 -26 -17.5 -43.5t-43.5 -17.5q-27 0 -45 17.5t-18 43.5zM354 849q0 25 17.5 43t44.5 18q26 0 44 -18t18 -43q0 -26 -18 -43.5t-44 -17.5q-27 0 -44.5 17.5t-17.5 43.5zM91 0v700h446v-90h-339v-209h308v-89h-308v-222
h351v-90h-458z" />
    <glyph glyph-name="Igrave" unicode="&#xcc;" horiz-adv-x="289" 
d="M190 771h-87l-190 156h155zM91 0v700h107v-700h-107z" />
    <glyph glyph-name="Iacute" unicode="&#xcd;" horiz-adv-x="289" 
d="M189 771h-87l122 156h155zM91 0v700h107v-700h-107z" />
    <glyph glyph-name="Icircumflex" unicode="&#xce;" horiz-adv-x="289" 
d="M96 927h98l131 -156h-76l-105 86l-104 -86h-76zM91 0v700h107v-700h-107z" />
    <glyph glyph-name="Idieresis" unicode="&#xcf;" horiz-adv-x="289" 
d="M-13 849q0 25 18 43t45 18q26 0 43.5 -18t17.5 -43q0 -26 -17.5 -43.5t-43.5 -17.5q-27 0 -45 17.5t-18 43.5zM178 849q0 25 17.5 43t44.5 18q26 0 44 -18t18 -43q0 -26 -18 -43.5t-44 -17.5q-27 0 -44.5 17.5t-17.5 43.5zM91 0v700h107v-700h-107z" />
    <glyph glyph-name="Eth" unicode="&#xd0;" horiz-adv-x="749" 
d="M337 0h-237v310h-79v90h79v301h237q161 0 267.5 -95t106.5 -255t-106.5 -255.5t-267.5 -95.5zM207 91h128q117 0 192 70t75 190t-75 189.5t-192 69.5h-128v-210h147v-90h-147v-219z" />
    <glyph glyph-name="Ntilde" unicode="&#xd1;" horiz-adv-x="760" 
d="M452 768q-24 0 -51.5 23l-52.5 45.5t-43 22.5q-22 0 -32 -22.5t-15 -65.5h-64q2 74 32.5 123t82.5 49q30 0 78.5 -45t68.5 -45q22 0 32 22t15 66h64q-2 -74 -32.5 -123.5t-82.5 -49.5zM576 0l-382 545v-545h-103v700h108l367 -534v534h103v-700h-93z" />
    <glyph glyph-name="Ograve" unicode="&#xd2;" horiz-adv-x="766" 
d="M435 771h-87l-190 156h155zM37 350q0 158 101 259.5t245 101.5t245 -101.5t101 -259.5t-101 -259.5t-245 -101.5t-245 101.5t-101 259.5zM619 350q0 118 -66 191t-170 73t-170 -73t-66 -191t66 -191t170 -73t170 73t66 191z" />
    <glyph glyph-name="Oacute" unicode="&#xd3;" horiz-adv-x="766" 
d="M422 771h-87l122 156h155zM37 350q0 158 101 259.5t245 101.5t245 -101.5t101 -259.5t-101 -259.5t-245 -101.5t-245 101.5t-101 259.5zM619 350q0 118 -66 191t-170 73t-170 -73t-66 -191t66 -191t170 -73t170 73t66 191z" />
    <glyph glyph-name="Ocircumflex" unicode="&#xd4;" horiz-adv-x="766" 
d="M335 927h98l131 -156h-76l-105 86l-104 -86h-76zM37 350q0 158 101 259.5t245 101.5t245 -101.5t101 -259.5t-101 -259.5t-245 -101.5t-245 101.5t-101 259.5zM619 350q0 118 -66 191t-170 73t-170 -73t-66 -191t66 -191t170 -73t170 73t66 191z" />
    <glyph glyph-name="Otilde" unicode="&#xd5;" horiz-adv-x="766" 
d="M455 768q-24 0 -51.5 23l-52.5 45.5t-43 22.5q-22 0 -32 -22.5t-15 -65.5h-64q2 74 32.5 123t82.5 49q30 0 78.5 -45t68.5 -45q22 0 32 22t15 66h64q-2 -74 -32.5 -123.5t-82.5 -49.5zM37 350q0 158 101 259.5t245 101.5t245 -101.5t101 -259.5t-101 -259.5t-245 -101.5
t-245 101.5t-101 259.5zM619 350q0 118 -66 191t-170 73t-170 -73t-66 -191t66 -191t170 -73t170 73t66 191z" />
    <glyph glyph-name="Odieresis" unicode="&#xd6;" horiz-adv-x="766" 
d="M226 849q0 25 18 43t45 18q26 0 43.5 -18t17.5 -43q0 -26 -17.5 -43.5t-43.5 -17.5q-27 0 -45 17.5t-18 43.5zM417 849q0 25 17.5 43t44.5 18q26 0 44 -18t18 -43q0 -26 -18 -43.5t-44 -17.5q-27 0 -44.5 17.5t-17.5 43.5zM37 350q0 158 101 259.5t245 101.5t245 -101.5
t101 -259.5t-101 -259.5t-245 -101.5t-245 101.5t-101 259.5zM619 350q0 118 -66 191t-170 73t-170 -73t-66 -191t66 -191t170 -73t170 73t66 191z" />
    <glyph glyph-name="multiply" unicode="&#xd7;" horiz-adv-x="601" 
d="M478 95l-177 178l-178 -178l-56 56l178 178l-178 177l56 56l178 -177l177 177l56 -56l-177 -177l177 -178z" />
    <glyph glyph-name="Oslash" unicode="&#xd8;" horiz-adv-x="766" 
d="M144 350q0 -110 59 -182l305 415q-56 34 -125 34q-105 0 -172 -74t-67 -193zM383 84q105 0 172 74t67 192q0 109 -58 183l-306 -415q56 -34 125 -34zM383 -11q-100 0 -183 51l-56 -76h-91l90 122q-106 103 -106 264q0 158 101 259.5t245 101.5q100 0 182 -51l57 78h93
l-91 -124q105 -103 105 -264q0 -158 -101 -259.5t-245 -101.5z" />
    <glyph glyph-name="Ugrave" unicode="&#xd9;" horiz-adv-x="731" 
d="M418 771h-87l-190 156h155zM365 -11q-134 0 -215.5 80t-81.5 227v404h108v-395q0 -108 50 -163t139 -55t139.5 55t50.5 163v395h107v-404q0 -147 -81.5 -227t-215.5 -80z" />
    <glyph glyph-name="Uacute" unicode="&#xda;" horiz-adv-x="731" 
d="M404 771h-87l122 156h155zM365 -11q-134 0 -215.5 80t-81.5 227v404h108v-395q0 -108 50 -163t139 -55t139.5 55t50.5 163v395h107v-404q0 -147 -81.5 -227t-215.5 -80z" />
    <glyph glyph-name="Ucircumflex" unicode="&#xdb;" horiz-adv-x="731" 
d="M317 927h98l131 -156h-76l-105 86l-104 -86h-76zM365 -11q-134 0 -215.5 80t-81.5 227v404h108v-395q0 -108 50 -163t139 -55t139.5 55t50.5 163v395h107v-404q0 -147 -81.5 -227t-215.5 -80z" />
    <glyph glyph-name="Udieresis" unicode="&#xdc;" horiz-adv-x="731" 
d="M208 849q0 25 18 43t45 18q26 0 43.5 -18t17.5 -43q0 -26 -17.5 -43.5t-43.5 -17.5q-27 0 -45 17.5t-18 43.5zM399 849q0 25 17.5 43t44.5 18q26 0 44 -18t18 -43q0 -26 -18 -43.5t-44 -17.5q-27 0 -44.5 17.5t-17.5 43.5zM365 -11q-134 0 -215.5 80t-81.5 227v404h108
v-395q0 -108 50 -163t139 -55t139.5 55t50.5 163v395h107v-404q0 -147 -81.5 -227t-215.5 -80z" />
    <glyph glyph-name="Yacute" unicode="&#xdd;" horiz-adv-x="702" 
d="M390 771h-87l122 156h155zM406 304v-304h-108v304l-281 396h126l213 -304l210 304h119z" />
    <glyph glyph-name="Thorn" unicode="&#xde;" horiz-adv-x="631" 
d="M198 0h-107v700h107v-126h146q112 0 182 -58.5t70 -156.5t-70 -156.5t-182 -58.5h-146v-144zM485 359q0 59 -40.5 92.5t-106.5 33.5h-140v-252h140q66 0 106.5 33.5t40.5 92.5z" />
    <glyph glyph-name="germandbls" unicode="&#xdf;" horiz-adv-x="653" 
d="M564 607q-87 -59 -123.5 -96.5t-36.5 -75.5q0 -26 22 -49.5t53 -45t62.5 -46t53.5 -61t22 -80.5q0 -73 -59.5 -118.5t-141.5 -45.5q-81 0 -147 33v92q68 -43 146 -43q47 0 76.5 20t29.5 53q0 28 -22 54t-53 48l-62 46t-53 57.5t-22 73.5q0 37 22 74t47 61t74 65
q-2 40 -33.5 68t-82.5 28q-66 0 -107 -45t-41 -129v-545h-103v546q0 122 71.5 189.5t181.5 67.5q107 0 165 -57t61 -139z" />
    <glyph glyph-name="agrave" unicode="&#xe0;" horiz-adv-x="520" 
d="M312 604h-66l-129 187h128zM219 66q61 0 127 45v129q-206 -7 -206 -107q0 -31 21.5 -49t57.5 -18zM459 0h-103l-10 54q-72 -65 -157 -65q-64 0 -106 37.5t-42 99.5q0 81 76 128.5t229 51.5v30q0 99 -107 99q-83 0 -169 -50v88q35 23 84.5 37t94.5 14q101 0 150.5 -50
t49.5 -133v-239q0 -56 10 -102z" />
    <glyph glyph-name="aacute" unicode="&#xe1;" horiz-adv-x="520" 
d="M275 604h-65l68 187h128zM219 66q61 0 127 45v129q-206 -7 -206 -107q0 -31 21.5 -49t57.5 -18zM459 0h-103l-10 54q-72 -65 -157 -65q-64 0 -106 37.5t-42 99.5q0 81 76 128.5t229 51.5v30q0 99 -107 99q-83 0 -169 -50v88q35 23 84.5 37t94.5 14q101 0 150.5 -50
t49.5 -133v-239q0 -56 10 -102z" />
    <glyph glyph-name="acircumflex" unicode="&#xe2;" horiz-adv-x="520" 
d="M213 791h98l106 -187h-69l-87 112l-86 -112h-68zM219 66q61 0 127 45v129q-206 -7 -206 -107q0 -31 21.5 -49t57.5 -18zM459 0h-103l-10 54q-72 -65 -157 -65q-64 0 -106 37.5t-42 99.5q0 81 76 128.5t229 51.5v30q0 99 -107 99q-83 0 -169 -50v88q35 23 84.5 37t94.5 14
q101 0 150.5 -50t49.5 -133v-239q0 -56 10 -102z" />
    <glyph glyph-name="atilde" unicode="&#xe3;" horiz-adv-x="520" 
d="M325 617q-30 0 -73.5 45.5t-63.5 45.5q-22 0 -31.5 -22t-14.5 -66h-63q2 73 32.5 122.5t81.5 49.5q24 0 49 -22.5t47 -45t40 -22.5q22 0 31.5 22t14.5 66h63q-2 -74 -32 -123.5t-81 -49.5zM219 66q61 0 127 45v129q-206 -7 -206 -107q0 -31 21.5 -49t57.5 -18zM459 0
h-103l-10 54q-72 -65 -157 -65q-64 0 -106 37.5t-42 99.5q0 81 76 128.5t229 51.5v30q0 99 -107 99q-83 0 -169 -50v88q35 23 84.5 37t94.5 14q101 0 150.5 -50t49.5 -133v-239q0 -56 10 -102z" />
    <glyph glyph-name="adieresis" unicode="&#xe4;" horiz-adv-x="520" 
d="M104 704q0 25 18 42.5t45 17.5q26 0 43.5 -17.5t17.5 -42.5q0 -26 -17.5 -43.5t-43.5 -17.5q-27 0 -45 17.5t-18 43.5zM295 704q0 25 17.5 42.5t44.5 17.5q26 0 44 -17.5t18 -42.5q0 -26 -18 -43.5t-44 -17.5q-27 0 -44.5 17.5t-17.5 43.5zM219 66q61 0 127 45v129
q-206 -7 -206 -107q0 -31 21.5 -49t57.5 -18zM459 0h-103l-10 54q-72 -65 -157 -65q-64 0 -106 37.5t-42 99.5q0 81 76 128.5t229 51.5v30q0 99 -107 99q-83 0 -169 -50v88q35 23 84.5 37t94.5 14q101 0 150.5 -50t49.5 -133v-239q0 -56 10 -102z" />
    <glyph glyph-name="aring" unicode="&#xe5;" horiz-adv-x="520" 
d="M372 700q0 -46 -33 -78.5t-79 -32.5q-44 0 -77 33t-33 78t33 77.5t77 32.5q46 0 79 -32t33 -78zM203 700q0 -23 17 -41t40 -18q25 0 42 17.5t17 41.5t-17 41.5t-42 17.5q-23 0 -40 -17.5t-17 -41.5zM219 66q61 0 127 45v129q-206 -7 -206 -107q0 -31 21.5 -49t57.5 -18z
M459 0h-103l-10 54q-72 -65 -157 -65q-64 0 -106 37.5t-42 99.5q0 81 76 128.5t229 51.5v30q0 99 -107 99q-83 0 -169 -50v88q35 23 84.5 37t94.5 14q101 0 150.5 -50t49.5 -133v-239q0 -56 10 -102z" />
    <glyph glyph-name="ae" unicode="&#xe6;" horiz-adv-x="838" 
d="M620 -11q-72 0 -130 29t-94 80q-77 -109 -205 -109q-65 0 -107.5 38.5t-42.5 101.5q0 80 79 128.5t227 53.5v26q0 98 -108 98q-83 0 -169 -50v88q35 23 84.5 37t94.5 14q126 0 167 -85q68 85 171 85q115 0 169 -80.5t44 -200.5h-357q7 -77 59 -122t129 -45q83 0 149 34
v-87q-72 -34 -160 -34zM584 442q-53 0 -90.5 -34.5t-47.5 -96.5h253q1 57 -28 94t-87 37zM216 68q89 0 149 88q-15 40 -18 87h-3q-204 -8 -204 -106q0 -31 20.5 -50t55.5 -19z" />
    <glyph glyph-name="ccedilla" unicode="&#xe7;" horiz-adv-x="464" 
d="M240 -239q-64 0 -102 25v61q44 -26 98 -26q29 0 47 10.5t18 29.5q0 44 -95 44l33 91q-90 21 -146 91t-56 168q0 119 77 194t192 75q60 0 108 -22v-91q-46 23 -104 23q-73 0 -122.5 -49t-49.5 -130q0 -79 49.5 -127.5t122.5 -48.5q56 0 107 24v-92q-50 -22 -111 -22
q-15 0 -22 1l-15 -42q46 -6 73.5 -28.5t27.5 -59.5q0 -45 -39 -72t-91 -27z" />
    <glyph glyph-name="egrave" unicode="&#xe8;" horiz-adv-x="532" 
d="M335 604h-66l-129 187h128zM474 23q-72 -34 -160 -34q-122 0 -199.5 76t-77.5 193q0 114 68.5 190t174.5 76q107 0 161 -68.5t54 -175.5q0 -24 -1 -37h-360q7 -78 60 -122.5t131 -44.5q82 0 149 34v-87zM278 442q-54 0 -92.5 -35.5t-48.5 -98.5h258v5q0 56 -29.5 92.5
t-87.5 36.5z" />
    <glyph glyph-name="eacute" unicode="&#xe9;" horiz-adv-x="532" 
d="M298 604h-65l68 187h128zM474 23q-72 -34 -160 -34q-122 0 -199.5 76t-77.5 193q0 114 68.5 190t174.5 76q107 0 161 -68.5t54 -175.5q0 -24 -1 -37h-360q7 -78 60 -122.5t131 -44.5q82 0 149 34v-87zM278 442q-54 0 -92.5 -35.5t-48.5 -98.5h258v5q0 56 -29.5 92.5
t-87.5 36.5z" />
    <glyph glyph-name="ecircumflex" unicode="&#xea;" horiz-adv-x="532" 
d="M236 791h98l106 -187h-69l-87 112l-86 -112h-68zM474 23q-72 -34 -160 -34q-122 0 -199.5 76t-77.5 193q0 114 68.5 190t174.5 76q107 0 161 -68.5t54 -175.5q0 -24 -1 -37h-360q7 -78 60 -122.5t131 -44.5q82 0 149 34v-87zM278 442q-54 0 -92.5 -35.5t-48.5 -98.5h258
v5q0 56 -29.5 92.5t-87.5 36.5z" />
    <glyph glyph-name="edieresis" unicode="&#xeb;" horiz-adv-x="532" 
d="M127 704q0 25 18 42.5t45 17.5q26 0 43.5 -17.5t17.5 -42.5q0 -26 -17.5 -43.5t-43.5 -17.5q-27 0 -45 17.5t-18 43.5zM318 704q0 25 17.5 42.5t44.5 17.5q26 0 44 -17.5t18 -42.5q0 -26 -18 -43.5t-44 -17.5q-27 0 -44.5 17.5t-17.5 43.5zM474 23q-72 -34 -160 -34
q-122 0 -199.5 76t-77.5 193q0 114 68.5 190t174.5 76q107 0 161 -68.5t54 -175.5q0 -24 -1 -37h-360q7 -78 60 -122.5t131 -44.5q82 0 149 34v-87zM278 442q-54 0 -92.5 -35.5t-48.5 -98.5h258v5q0 56 -29.5 92.5t-87.5 36.5z" />
    <glyph glyph-name="igrave" unicode="&#xec;" 
d="M170 604h-66l-129 187h128zM79 0v503l103 17v-520h-103z" />
    <glyph glyph-name="iacute" unicode="&#xed;" 
d="M156 604h-65l68 187h128zM79 0v503l103 17v-520h-103z" />
    <glyph glyph-name="icircumflex" unicode="&#xee;" 
d="M82 791h98l106 -187h-69l-87 112l-86 -112h-68zM79 0v503l103 17v-520h-103z" />
    <glyph glyph-name="idieresis" unicode="&#xef;" 
d="M-27 704q0 25 18 42.5t45 17.5q26 0 43.5 -17.5t17.5 -42.5q0 -26 -17.5 -43.5t-43.5 -17.5q-27 0 -45 17.5t-18 43.5zM164 704q0 25 17.5 42.5t44.5 17.5q26 0 44 -17.5t18 -42.5q0 -26 -18 -43.5t-44 -17.5q-27 0 -44.5 17.5t-17.5 43.5zM79 0v503l103 17v-520h-103z
" />
    <glyph glyph-name="eth" unicode="&#xf0;" horiz-adv-x="571" 
d="M284 -11q-105 0 -176.5 74t-71.5 192t73.5 189.5t179.5 71.5q59 0 109 -28q-31 74 -91 130l-171 -62v73l108 39q-76 48 -172 81l88 52q105 -39 181 -98l121 44v-72l-63 -23q136 -141 136 -356q0 -135 -73.5 -221t-177.5 -86zM285 78q67 0 107.5 59.5t40.5 159.5
q0 55 -9 105q-46 34 -118 34t-120 -48.5t-48 -133.5q0 -80 40.5 -128t106.5 -48z" />
    <glyph glyph-name="ntilde" unicode="&#xf1;" horiz-adv-x="602" 
d="M374 617q-30 0 -73.5 45.5t-63.5 45.5q-22 0 -31.5 -22t-14.5 -66h-63q2 73 32.5 122.5t81.5 49.5q24 0 49 -22.5t47 -45t40 -22.5q22 0 31.5 22t14.5 66h63q-2 -74 -32 -123.5t-81 -49.5zM79 503l103 17v-57q79 61 174 61q84 0 128.5 -46.5t44.5 -127.5v-350h-104v324
q0 54 -24 82t-80 28q-71 0 -139 -43v-391h-103v503z" />
    <glyph glyph-name="ograve" unicode="&#xf2;" horiz-adv-x="571" 
d="M325 604h-66l-129 187h128zM36 256q0 117 72.5 192.5t176.5 75.5t177 -75t73 -193q0 -117 -73 -192t-177 -75t-176.5 75t-72.5 192zM433 256q0 79 -40.5 129t-107.5 50t-107 -50t-40 -129q0 -78 40 -128t107 -50t107.5 50t40.5 128z" />
    <glyph glyph-name="oacute" unicode="&#xf3;" horiz-adv-x="571" 
d="M310 604h-65l68 187h128zM36 256q0 117 72.5 192.5t176.5 75.5t177 -75t73 -193q0 -117 -73 -192t-177 -75t-176.5 75t-72.5 192zM433 256q0 79 -40.5 129t-107.5 50t-107 -50t-40 -129q0 -78 40 -128t107 -50t107.5 50t40.5 128z" />
    <glyph glyph-name="ocircumflex" unicode="&#xf4;" horiz-adv-x="571" 
d="M237 791h98l106 -187h-69l-87 112l-86 -112h-68zM36 256q0 117 72.5 192.5t176.5 75.5t177 -75t73 -193q0 -117 -73 -192t-177 -75t-176.5 75t-72.5 192zM433 256q0 79 -40.5 129t-107.5 50t-107 -50t-40 -129q0 -78 40 -128t107 -50t107.5 50t40.5 128z" />
    <glyph glyph-name="otilde" unicode="&#xf5;" horiz-adv-x="571" 
d="M355 617q-30 0 -73.5 45.5t-63.5 45.5q-22 0 -31.5 -22t-14.5 -66h-63q2 73 32.5 122.5t81.5 49.5q24 0 49 -22.5t47 -45t40 -22.5q22 0 31.5 22t14.5 66h63q-2 -74 -32 -123.5t-81 -49.5zM36 256q0 117 72.5 192.5t176.5 75.5t177 -75t73 -193q0 -117 -73 -192t-177 -75
t-176.5 75t-72.5 192zM433 256q0 79 -40.5 129t-107.5 50t-107 -50t-40 -129q0 -78 40 -128t107 -50t107.5 50t40.5 128z" />
    <glyph glyph-name="odieresis" unicode="&#xf6;" horiz-adv-x="571" 
d="M128 704q0 25 18 42.5t45 17.5q26 0 43.5 -17.5t17.5 -42.5q0 -26 -17.5 -43.5t-43.5 -17.5q-27 0 -45 17.5t-18 43.5zM319 704q0 25 17.5 42.5t44.5 17.5q26 0 44 -17.5t18 -42.5q0 -26 -18 -43.5t-44 -17.5q-27 0 -44.5 17.5t-17.5 43.5zM36 256q0 117 72.5 192.5
t176.5 75.5t177 -75t73 -193q0 -117 -73 -192t-177 -75t-176.5 75t-72.5 192zM433 256q0 79 -40.5 129t-107.5 50t-107 -50t-40 -129q0 -78 40 -128t107 -50t107.5 50t40.5 128z" />
    <glyph glyph-name="divide" unicode="&#xf7;" horiz-adv-x="601" 
d="M231 533q0 28 19.5 48t47.5 20t47.5 -20t19.5 -48t-19.5 -47t-47.5 -19t-47.5 19t-19.5 47zM46 295v80h509v-80h-509zM231 136q0 28 19.5 48t47.5 20t47.5 -20t19.5 -48q0 -27 -19.5 -46.5t-47.5 -19.5t-47.5 19.5t-19.5 46.5z" />
    <glyph glyph-name="oslash" unicode="&#xf8;" horiz-adv-x="571" 
d="M133 256q0 -71 32 -118l193 283q-33 19 -73 19q-68 0 -110 -52t-42 -132zM285 73q69 0 111 51.5t42 131.5q0 71 -33 120l-193 -283q32 -20 73 -20zM285 -11q-67 0 -122 32l-39 -57h-77l65 96q-76 78 -76 196q0 117 72.5 192.5t176.5 75.5q65 0 121 -31l39 57h78l-66 -96
q78 -76 78 -198q0 -117 -73 -192t-177 -75z" />
    <glyph glyph-name="ugrave" unicode="&#xf9;" horiz-adv-x="593" 
d="M332 604h-66l-129 187h128zM513 513v-503l-104 -16v56q-72 -61 -167 -61q-81 0 -125 47t-44 127v350h103v-324q0 -54 23 -82.5t77 -28.5q63 0 133 43v392h104z" />
    <glyph glyph-name="uacute" unicode="&#xfa;" horiz-adv-x="593" 
d="M318 604h-65l68 187h128zM513 513v-503l-104 -16v56q-72 -61 -167 -61q-81 0 -125 47t-44 127v350h103v-324q0 -54 23 -82.5t77 -28.5q63 0 133 43v392h104z" />
    <glyph glyph-name="ucircumflex" unicode="&#xfb;" horiz-adv-x="593" 
d="M244 791h98l106 -187h-69l-87 112l-86 -112h-68zM513 513v-503l-104 -16v56q-72 -61 -167 -61q-81 0 -125 47t-44 127v350h103v-324q0 -54 23 -82.5t77 -28.5q63 0 133 43v392h104z" />
    <glyph glyph-name="udieresis" unicode="&#xfc;" horiz-adv-x="593" 
d="M135 704q0 25 18 42.5t45 17.5q26 0 43.5 -17.5t17.5 -42.5q0 -26 -17.5 -43.5t-43.5 -17.5q-27 0 -45 17.5t-18 43.5zM326 704q0 25 17.5 42.5t44.5 17.5q26 0 44 -17.5t18 -42.5q0 -26 -18 -43.5t-44 -17.5q-27 0 -44.5 17.5t-17.5 43.5zM513 513v-503l-104 -16v56
q-72 -61 -167 -61q-81 0 -125 47t-44 127v350h103v-324q0 -54 23 -82.5t77 -28.5q63 0 133 43v392h104z" />
    <glyph glyph-name="yacute" unicode="&#xfd;" horiz-adv-x="534" 
d="M290 604h-65l68 187h128zM219 38l-211 475h111l154 -368l152 368h101l-224 -508q-60 -136 -117 -190t-146 -54q-32 0 -51 9v83q21 -7 46 -7q61 0 99 39.5t86 152.5z" />
    <glyph glyph-name="thorn" unicode="&#xfe;" horiz-adv-x="595" 
d="M182 391v-292q38 -28 103 -28q77 0 123 54t46 143q0 78 -38 123t-103 45q-77 0 -131 -45zM182 14v-242h-103v1015l103 15v-338q68 61 155 61q101 0 162 -68t61 -185q0 -125 -76.5 -204t-188.5 -79q-69 0 -113 25z" />
    <glyph glyph-name="ydieresis" unicode="&#xff;" horiz-adv-x="534" 
d="M108 704q0 25 18 42.5t45 17.5q26 0 43.5 -17.5t17.5 -42.5q0 -26 -17.5 -43.5t-43.5 -17.5q-27 0 -45 17.5t-18 43.5zM299 704q0 25 17.5 42.5t44.5 17.5q26 0 44 -17.5t18 -42.5q0 -26 -18 -43.5t-44 -17.5q-27 0 -44.5 17.5t-17.5 43.5zM219 38l-211 475h111l154 -368
l152 368h101l-224 -508q-60 -136 -117 -190t-146 -54q-32 0 -51 9v83q21 -7 46 -7q61 0 99 39.5t86 152.5z" />
    <glyph glyph-name="Amacron" unicode="&#x100;" horiz-adv-x="714" 
d="M522 794h-330v79h330v-79zM356 570l-111 -270h220zM587 0l-86 213h-292l-87 -213h-105l293 700h96l290 -700h-109z" />
    <glyph glyph-name="amacron" unicode="&#x101;" horiz-adv-x="520" 
d="M411 648h-299v78h299v-78zM219 66q61 0 127 45v129q-206 -7 -206 -107q0 -31 21.5 -49t57.5 -18zM459 0h-103l-10 54q-72 -65 -157 -65q-64 0 -106 37.5t-42 99.5q0 81 76 128.5t229 51.5v30q0 99 -107 99q-83 0 -169 -50v88q35 23 84.5 37t94.5 14q101 0 150.5 -50
t49.5 -133v-239q0 -56 10 -102z" />
    <glyph glyph-name="Abreve" unicode="&#x102;" horiz-adv-x="714" 
d="M356 767q-72 0 -119 42t-47 118h69q2 -41 29.5 -62.5t67.5 -21.5q42 0 69.5 21.5t28.5 62.5h69q0 -76 -47 -118t-120 -42zM356 570l-111 -270h220zM587 0l-86 213h-292l-87 -213h-105l293 700h96l290 -700h-109z" />
    <glyph glyph-name="abreve" unicode="&#x103;" horiz-adv-x="520" 
d="M261 604q-68 0 -109 51.5t-41 135.5h68q2 -52 23.5 -81.5t58.5 -29.5q38 0 59.5 29.5t23.5 81.5h69q0 -84 -41 -135.5t-111 -51.5zM219 66q61 0 127 45v129q-206 -7 -206 -107q0 -31 21.5 -49t57.5 -18zM459 0h-103l-10 54q-72 -65 -157 -65q-64 0 -106 37.5t-42 99.5
q0 81 76 128.5t229 51.5v30q0 99 -107 99q-83 0 -169 -50v88q35 23 84.5 37t94.5 14q101 0 150.5 -50t49.5 -133v-239q0 -56 10 -102z" />
    <glyph glyph-name="Aogonek" unicode="&#x104;" horiz-adv-x="714" 
d="M356 570l-111 -270h220zM658 -231q-22 -8 -46 -8q-41 0 -71 24t-30 70q0 74 77 145h-1l-86 213h-292l-87 -213h-105l293 700h96l290 -700h-41q-71 -69 -71 -124q0 -22 13 -34.5t31 -12.5q17 0 30 6v-66z" />
    <glyph glyph-name="aogonek" unicode="&#x105;" horiz-adv-x="520" 
d="M219 66q61 0 127 45v129q-206 -7 -206 -107q0 -31 21.5 -49t57.5 -18zM425 -231q-22 -8 -46 -8q-41 0 -71 24t-30 70q0 76 78 146l-10 53q-72 -65 -157 -65q-64 0 -106 37.5t-42 99.5q0 81 76 128.5t229 51.5v30q0 99 -107 99q-83 0 -169 -50v88q35 23 84.5 37t94.5 14
q101 0 150.5 -50t49.5 -133v-239q0 -56 10 -102h-37q-71 -69 -71 -124q0 -22 13 -34.5t31 -12.5q17 0 30 6v-66z" />
    <glyph glyph-name="Cacute" unicode="&#x106;" horiz-adv-x="624" 
d="M442 771h-87l122 156h155zM148 350q0 -124 79.5 -193.5t196.5 -69.5q82 0 151 31v-99q-74 -30 -154 -30q-162 0 -273 98.5t-111 262.5t111 262.5t273 98.5q79 0 154 -29v-100q-71 32 -150 32q-118 0 -197.5 -70t-79.5 -194z" />
    <glyph glyph-name="cacute" unicode="&#x107;" horiz-adv-x="464" 
d="M313 604h-65l68 187h128zM37 255q0 119 77 194t192 75q60 0 108 -22v-91q-46 23 -104 23q-73 0 -122.5 -49t-49.5 -130q0 -79 49.5 -127.5t122.5 -48.5q56 0 107 24v-92q-50 -22 -111 -22q-115 0 -192 74.5t-77 191.5z" />
    <glyph glyph-name="Ccircumflex" unicode="&#x108;" horiz-adv-x="624" 
d="M355 927h98l131 -156h-76l-105 86l-104 -86h-76zM148 350q0 -124 79.5 -193.5t196.5 -69.5q82 0 151 31v-99q-74 -30 -154 -30q-162 0 -273 98.5t-111 262.5t111 262.5t273 98.5q79 0 154 -29v-100q-71 32 -150 32q-118 0 -197.5 -70t-79.5 -194z" />
    <glyph glyph-name="ccircumflex" unicode="&#x109;" horiz-adv-x="464" 
d="M240 791h98l106 -187h-69l-87 112l-86 -112h-68zM37 255q0 119 77 194t192 75q60 0 108 -22v-91q-46 23 -104 23q-73 0 -122.5 -49t-49.5 -130q0 -79 49.5 -127.5t122.5 -48.5q56 0 107 24v-92q-50 -22 -111 -22q-115 0 -192 74.5t-77 191.5z" />
    <glyph glyph-name="Cdotaccent" unicode="&#x10a;" horiz-adv-x="624" 
d="M338 853q0 27 18.5 45.5t46.5 18.5q29 0 47.5 -18.5t18.5 -45.5t-18.5 -46t-47.5 -19q-28 0 -46.5 19t-18.5 46zM148 350q0 -124 79.5 -193.5t196.5 -69.5q82 0 151 31v-99q-74 -30 -154 -30q-162 0 -273 98.5t-111 262.5t111 262.5t273 98.5q79 0 154 -29v-100
q-71 32 -150 32q-118 0 -197.5 -70t-79.5 -194z" />
    <glyph glyph-name="cdotaccent" unicode="&#x10b;" horiz-adv-x="464" 
d="M222 703q0 27 18.5 46t46.5 19q29 0 47.5 -19t18.5 -46t-18.5 -46t-47.5 -19q-28 0 -46.5 19t-18.5 46zM37 255q0 119 77 194t192 75q60 0 108 -22v-91q-46 23 -104 23q-73 0 -122.5 -49t-49.5 -130q0 -79 49.5 -127.5t122.5 -48.5q56 0 107 24v-92q-50 -22 -111 -22
q-115 0 -192 74.5t-77 191.5z" />
    <glyph glyph-name="Ccaron" unicode="&#x10c;" horiz-adv-x="624" 
d="M453 775h-98l-132 157h76l104 -86l105 86h76zM148 350q0 -124 79.5 -193.5t196.5 -69.5q82 0 151 31v-99q-74 -30 -154 -30q-162 0 -273 98.5t-111 262.5t111 262.5t273 98.5q79 0 154 -29v-100q-71 32 -150 32q-118 0 -197.5 -70t-79.5 -194z" />
    <glyph glyph-name="ccaron" unicode="&#x10d;" horiz-adv-x="464" 
d="M338 604h-98l-106 187h68l86 -113l87 113h69zM37 255q0 119 77 194t192 75q60 0 108 -22v-91q-46 23 -104 23q-73 0 -122.5 -49t-49.5 -130q0 -79 49.5 -127.5t122.5 -48.5q56 0 107 24v-92q-50 -22 -111 -22q-115 0 -192 74.5t-77 191.5z" />
    <glyph glyph-name="Dcaron" unicode="&#x10e;" horiz-adv-x="740" 
d="M392 775h-98l-132 157h76l104 -86l105 86h76zM91 0v701h237q161 0 267.5 -95t106.5 -255t-106.5 -255.5t-267.5 -95.5h-237zM198 91h128q117 0 192 70t75 190t-75 189.5t-192 69.5h-128v-519z" />
    <glyph glyph-name="dcaron" unicode="&#x10f;" horiz-adv-x="710" 
d="M588 543l27 248h112l-76 -248h-63zM413 127v285q-36 29 -102 29q-77 0 -123 -53t-46 -141q0 -79 39 -124t104 -45q73 0 128 49zM413 -6v58q-67 -63 -151 -63q-100 0 -162.5 68.5t-62.5 185.5q0 125 76 203t190 78q66 0 110 -27v290l103 16v-793z" />
    <glyph glyph-name="Dcroat" unicode="&#x110;" horiz-adv-x="749" 
d="M337 0h-237v310h-79v90h79v301h237q161 0 267.5 -95t106.5 -255t-106.5 -255.5t-267.5 -95.5zM207 91h128q117 0 192 70t75 190t-75 189.5t-192 69.5h-128v-210h147v-90h-147v-219z" />
    <glyph glyph-name="dcroat" unicode="&#x111;" horiz-adv-x="599" 
d="M413 127v285q-36 29 -102 29q-77 0 -123 -53t-46 -141q0 -79 39 -124t104 -45q73 0 128 49zM413 52q-67 -63 -151 -63q-100 0 -162.5 68.5t-62.5 185.5q0 125 76 203t190 78q66 0 110 -27v117h-156v70h156v103l103 16v-119h79v-70h-79v-604l-103 -16v58z" />
    <glyph glyph-name="Emacron" unicode="&#x112;" horiz-adv-x="615" 
d="M486 794h-330v79h330v-79zM91 0v700h446v-90h-339v-209h308v-89h-308v-222h351v-90h-458z" />
    <glyph glyph-name="emacron" unicode="&#x113;" horiz-adv-x="532" 
d="M434 648h-299v78h299v-78zM474 23q-72 -34 -160 -34q-122 0 -199.5 76t-77.5 193q0 114 68.5 190t174.5 76q107 0 161 -68.5t54 -175.5q0 -24 -1 -37h-360q7 -78 60 -122.5t131 -44.5q82 0 149 34v-87zM278 442q-54 0 -92.5 -35.5t-48.5 -98.5h258v5q0 56 -29.5 92.5
t-87.5 36.5z" />
    <glyph glyph-name="Ebreve" unicode="&#x114;" horiz-adv-x="615" 
d="M320 767q-72 0 -119 42t-47 118h69q2 -41 29.5 -62.5t67.5 -21.5q42 0 69.5 21.5t28.5 62.5h69q0 -76 -47 -118t-120 -42zM91 0v700h446v-90h-339v-209h308v-89h-308v-222h351v-90h-458z" />
    <glyph glyph-name="ebreve" unicode="&#x115;" horiz-adv-x="532" 
d="M284 604q-68 0 -109 51.5t-41 135.5h68q2 -52 23.5 -81.5t58.5 -29.5q38 0 59.5 29.5t23.5 81.5h69q0 -84 -41 -135.5t-111 -51.5zM474 23q-72 -34 -160 -34q-122 0 -199.5 76t-77.5 193q0 114 68.5 190t174.5 76q107 0 161 -68.5t54 -175.5q0 -24 -1 -37h-360
q7 -78 60 -122.5t131 -44.5q82 0 149 34v-87zM278 442q-54 0 -92.5 -35.5t-48.5 -98.5h258v5q0 56 -29.5 92.5t-87.5 36.5z" />
    <glyph glyph-name="Edotaccent" unicode="&#x116;" horiz-adv-x="615" 
d="M255 853q0 27 18.5 45.5t46.5 18.5q29 0 47.5 -18.5t18.5 -45.5t-18.5 -46t-47.5 -19q-28 0 -46.5 19t-18.5 46zM91 0v700h446v-90h-339v-209h308v-89h-308v-222h351v-90h-458z" />
    <glyph glyph-name="edotaccent" unicode="&#x117;" horiz-adv-x="532" 
d="M219 703q0 27 18.5 46t46.5 19q29 0 47.5 -19t18.5 -46t-18.5 -46t-47.5 -19q-28 0 -46.5 19t-18.5 46zM474 23q-72 -34 -160 -34q-122 0 -199.5 76t-77.5 193q0 114 68.5 190t174.5 76q107 0 161 -68.5t54 -175.5q0 -24 -1 -37h-360q7 -78 60 -122.5t131 -44.5
q82 0 149 34v-87zM278 442q-54 0 -92.5 -35.5t-48.5 -98.5h258v5q0 56 -29.5 92.5t-87.5 36.5z" />
    <glyph glyph-name="Eogonek" unicode="&#x118;" horiz-adv-x="615" 
d="M492 -231q-22 -8 -46 -8q-41 0 -71 24t-30 70q0 74 77 145h-331v700h446v-90h-339v-209h308v-89h-308v-222h351v-90h-60q-71 -69 -71 -124q0 -22 13 -34.5t31 -12.5q17 0 30 6v-66z" />
    <glyph glyph-name="eogonek" unicode="&#x119;" horiz-adv-x="532" 
d="M434 -231q-21 -8 -46 -8q-41 0 -71 24t-30 70q0 70 67 137q-20 -3 -40 -3q-122 0 -199.5 76t-77.5 193q0 114 68.5 190t174.5 76q107 0 161 -68.5t54 -175.5q0 -24 -1 -37h-360q7 -78 60 -122.5t131 -44.5q82 0 149 34v-87q-57 -33 -85 -72.5t-28 -74.5q0 -22 12 -34.5
t30 -12.5t31 6v-66zM278 442q-54 0 -92.5 -35.5t-48.5 -98.5h258v5q0 56 -29.5 92.5t-87.5 36.5z" />
    <glyph glyph-name="Ecaron" unicode="&#x11a;" horiz-adv-x="615" 
d="M370 775h-98l-132 157h76l104 -86l105 86h76zM91 0v700h446v-90h-339v-209h308v-89h-308v-222h351v-90h-458z" />
    <glyph glyph-name="ecaron" unicode="&#x11b;" horiz-adv-x="532" 
d="M334 604h-98l-106 187h68l86 -113l87 113h69zM474 23q-72 -34 -160 -34q-122 0 -199.5 76t-77.5 193q0 114 68.5 190t174.5 76q107 0 161 -68.5t54 -175.5q0 -24 -1 -37h-360q7 -78 60 -122.5t131 -44.5q82 0 149 34v-87zM278 442q-54 0 -92.5 -35.5t-48.5 -98.5h258v5
q0 56 -29.5 92.5t-87.5 36.5z" />
    <glyph glyph-name="Gcircumflex" unicode="&#x11c;" horiz-adv-x="679" 
d="M369 927h98l131 -156h-76l-105 86l-104 -86h-76zM431 614q-121 0 -202.5 -74t-81.5 -194q0 -128 78.5 -195.5t196.5 -67.5q53 0 92 9v217h104v-295q-93 -25 -197 -25q-107 0 -193 41t-138.5 123t-52.5 193q0 160 114.5 262.5t279.5 102.5q102 0 183 -33v-101
q-79 37 -183 37z" />
    <glyph glyph-name="gcircumflex" unicode="&#x11d;" horiz-adv-x="536" 
d="M215 791h98l106 -187h-69l-87 112l-86 -112h-68zM359 348q0 50 -32 77.5t-79 27.5t-79 -27.5t-32 -77.5q0 -48 32.5 -76t78.5 -28q47 0 79 28t32 76zM520 -56q0 -86 -83 -134.5t-200 -48.5q-102 0 -171.5 40.5t-69.5 107.5q0 49 38.5 82.5t91.5 47.5q-24 27 -24 59
q0 52 64 87q-58 19 -93.5 62t-35.5 101q0 78 61 127t150 49q38 0 73 -11h210l-12 -71h-96q31 -42 31 -94q0 -78 -58 -126.5t-148 -48.5q-12 0 -18 1q-43 -22 -43 -46q0 -28 47 -34l113 -15q83 -12 128 -43t45 -92zM248 -164q69 0 120 24t51 68q0 30 -23 42t-65 18l-144 23
q-42 -12 -67.5 -35t-25.5 -54q0 -42 43 -64t111 -22z" />
    <glyph glyph-name="Gbreve" unicode="&#x11e;" horiz-adv-x="679" 
d="M416 767q-72 0 -119 42t-47 118h69q2 -41 29.5 -62.5t67.5 -21.5q42 0 69.5 21.5t28.5 62.5h69q0 -76 -47 -118t-120 -42zM431 614q-121 0 -202.5 -74t-81.5 -194q0 -128 78.5 -195.5t196.5 -67.5q53 0 92 9v217h104v-295q-93 -25 -197 -25q-107 0 -193 41t-138.5 123
t-52.5 193q0 160 114.5 262.5t279.5 102.5q102 0 183 -33v-101q-79 37 -183 37z" />
    <glyph glyph-name="gbreve" unicode="&#x11f;" horiz-adv-x="536" 
d="M263 604q-68 0 -109 51.5t-41 135.5h68q2 -52 23.5 -81.5t58.5 -29.5q38 0 59.5 29.5t23.5 81.5h69q0 -84 -41 -135.5t-111 -51.5zM359 348q0 50 -32 77.5t-79 27.5t-79 -27.5t-32 -77.5q0 -48 32.5 -76t78.5 -28q47 0 79 28t32 76zM520 -56q0 -86 -83 -134.5t-200 -48.5
q-102 0 -171.5 40.5t-69.5 107.5q0 49 38.5 82.5t91.5 47.5q-24 27 -24 59q0 52 64 87q-58 19 -93.5 62t-35.5 101q0 78 61 127t150 49q38 0 73 -11h210l-12 -71h-96q31 -42 31 -94q0 -78 -58 -126.5t-148 -48.5q-12 0 -18 1q-43 -22 -43 -46q0 -28 47 -34l113 -15
q83 -12 128 -43t45 -92zM248 -164q69 0 120 24t51 68q0 30 -23 42t-65 18l-144 23q-42 -12 -67.5 -35t-25.5 -54q0 -42 43 -64t111 -22z" />
    <glyph glyph-name="Gdotaccent" unicode="&#x120;" horiz-adv-x="679" 
d="M351 853q0 27 18.5 45.5t46.5 18.5q29 0 47.5 -18.5t18.5 -45.5t-18.5 -46t-47.5 -19q-28 0 -46.5 19t-18.5 46zM431 614q-121 0 -202.5 -74t-81.5 -194q0 -128 78.5 -195.5t196.5 -67.5q53 0 92 9v217h104v-295q-93 -25 -197 -25q-107 0 -193 41t-138.5 123t-52.5 193
q0 160 114.5 262.5t279.5 102.5q102 0 183 -33v-101q-79 37 -183 37z" />
    <glyph glyph-name="gdotaccent" unicode="&#x121;" horiz-adv-x="536" 
d="M198 703q0 27 18.5 46t46.5 19q29 0 47.5 -19t18.5 -46t-18.5 -46t-47.5 -19q-28 0 -46.5 19t-18.5 46zM359 348q0 50 -32 77.5t-79 27.5t-79 -27.5t-32 -77.5q0 -48 32.5 -76t78.5 -28q47 0 79 28t32 76zM520 -56q0 -86 -83 -134.5t-200 -48.5q-102 0 -171.5 40.5
t-69.5 107.5q0 49 38.5 82.5t91.5 47.5q-24 27 -24 59q0 52 64 87q-58 19 -93.5 62t-35.5 101q0 78 61 127t150 49q38 0 73 -11h210l-12 -71h-96q31 -42 31 -94q0 -78 -58 -126.5t-148 -48.5q-12 0 -18 1q-43 -22 -43 -46q0 -28 47 -34l113 -15q83 -12 128 -43t45 -92z
M248 -164q69 0 120 24t51 68q0 30 -23 42t-65 18l-144 23q-42 -12 -67.5 -35t-25.5 -54q0 -42 43 -64t111 -22z" />
    <glyph glyph-name="uni0122" unicode="&#x122;" horiz-adv-x="679" 
d="M431 614q-121 0 -202.5 -74t-81.5 -194q0 -128 78.5 -195.5t196.5 -67.5q53 0 92 9v217h104v-295q-93 -25 -197 -25q-107 0 -193 41t-138.5 123t-52.5 193q0 160 114.5 262.5t279.5 102.5q102 0 183 -33v-101q-79 37 -183 37zM369 -48h102q0 -55 -32.5 -108.5
t-71.5 -77.5h-68q28 31 49 81.5t21 104.5z" />
    <glyph glyph-name="uni0123" unicode="&#x123;" horiz-adv-x="536" 
d="M313 605h-101q0 55 32 108.5t71 77.5h68q-28 -31 -49 -81.5t-21 -104.5zM359 348q0 50 -32 77.5t-79 27.5t-79 -27.5t-32 -77.5q0 -48 32.5 -76t78.5 -28q47 0 79 28t32 76zM520 -56q0 -86 -83 -134.5t-200 -48.5q-102 0 -171.5 40.5t-69.5 107.5q0 49 38.5 82.5
t91.5 47.5q-24 27 -24 59q0 52 64 87q-58 19 -93.5 62t-35.5 101q0 78 61 127t150 49q38 0 73 -11h210l-12 -71h-96q31 -42 31 -94q0 -78 -58 -126.5t-148 -48.5q-12 0 -18 1q-43 -22 -43 -46q0 -28 47 -34l113 -15q83 -12 128 -43t45 -92zM248 -164q69 0 120 24t51 68
q0 30 -23 42t-65 18l-144 23q-42 -12 -67.5 -35t-25.5 -54q0 -42 43 -64t111 -22z" />
    <glyph glyph-name="Hcircumflex" unicode="&#x124;" horiz-adv-x="782" 
d="M342 927h98l131 -156h-76l-105 86l-104 -86h-76zM583 0v312h-385v-312h-107v701h107v-300h385v300h108v-701h-108z" />
    <glyph glyph-name="hcircumflex" unicode="&#x125;" horiz-adv-x="602" 
d="M272 989h98l131 -156h-76l-105 86l-104 -86h-76zM79 787l103 15v-339q79 61 174 61q84 0 128.5 -46.5t44.5 -127.5v-350h-104v324q0 54 -24 82t-80 28q-71 0 -139 -43v-391h-103v787z" />
    <glyph glyph-name="Hbar" unicode="&#x126;" horiz-adv-x="800" 
d="M207 334h385v128h-385v-128zM207 247v-247h-107v462h-79v86h79v152h107v-152h385v152h108v-152h79v-86h-79v-462h-108v247h-385z" />
    <glyph glyph-name="hbar" unicode="&#x127;" horiz-adv-x="605" 
d="M185 391v-391h-103v614h-78v70h78v103l103 15v-118h157v-70h-157v-151q79 61 174 61q84 0 128.5 -46.5t44.5 -127.5v-350h-104v324q0 54 -24 82t-80 28q-71 0 -139 -43z" />
    <glyph glyph-name="Itilde" unicode="&#x128;" horiz-adv-x="289" 
d="M216 768q-24 0 -51.5 23l-52.5 45.5t-43 22.5q-22 0 -32 -22.5t-15 -65.5h-64q2 74 32.5 123t82.5 49q30 0 78.5 -45t68.5 -45q22 0 32 22t15 66h64q-2 -74 -32.5 -123.5t-82.5 -49.5zM91 0v700h107v-700h-107z" />
    <glyph glyph-name="itilde" unicode="&#x129;" 
d="M197 617q-30 0 -73.5 45.5t-63.5 45.5q-22 0 -31.5 -22t-14.5 -66h-63q2 73 32.5 122.5t81.5 49.5q24 0 49 -22.5t47 -45t40 -22.5q22 0 31.5 22t14.5 66h63q-2 -74 -32 -123.5t-81 -49.5zM79 0v503l103 17v-520h-103z" />
    <glyph glyph-name="Imacron" unicode="&#x12a;" horiz-adv-x="289" 
d="M310 794h-330v79h330v-79zM91 0v700h107v-700h-107z" />
    <glyph glyph-name="imacron" unicode="&#x12b;" 
d="M280 648h-299v78h299v-78zM79 0v503l103 17v-520h-103z" />
    <glyph glyph-name="Ibreve" unicode="&#x12c;" horiz-adv-x="289" 
d="M144 767q-72 0 -119 42t-47 118h69q2 -41 29.5 -62.5t67.5 -21.5q42 0 69.5 21.5t28.5 62.5h69q0 -76 -47 -118t-120 -42zM91 0v700h107v-700h-107z" />
    <glyph glyph-name="ibreve" unicode="&#x12d;" 
d="M130 604q-68 0 -109 51.5t-41 135.5h68q2 -52 23.5 -81.5t58.5 -29.5q38 0 59.5 29.5t23.5 81.5h69q0 -84 -41 -135.5t-111 -51.5zM79 0v503l103 17v-520h-103z" />
    <glyph glyph-name="Iogonek" unicode="&#x12e;" horiz-adv-x="289" 
d="M191 -231q-22 -8 -46 -8q-41 0 -71 24t-30 70q0 74 77 145h-30v700h107v-700q-81 -56 -81 -124q0 -22 13 -34.5t31 -12.5q17 0 30 6v-66z" />
    <glyph glyph-name="iogonek" unicode="&#x12f;" 
d="M65 703q0 27 19 46t47 19t47 -19t19 -46t-19 -46t-47 -19t-47 19t-19 46zM79 0v503l103 17v-520q-81 -56 -81 -124q0 -22 13 -34.5t31 -12.5q17 0 30 6v-66q-22 -8 -46 -8q-41 0 -71 24t-30 70q0 74 77 145h-26z" />
    <glyph glyph-name="Idotaccent" unicode="&#x130;" horiz-adv-x="289" 
d="M79 853q0 27 18.5 45.5t46.5 18.5q29 0 47.5 -18.5t18.5 -45.5t-18.5 -46t-47.5 -19q-28 0 -46.5 19t-18.5 46zM91 0v700h107v-700h-107z" />
    <glyph glyph-name="dotlessi" unicode="&#x131;" 
d="M79 0v503l103 17v-520h-103z" />
    <glyph glyph-name="Jcircumflex" unicode="&#x134;" horiz-adv-x="289" 
d="M97 927h98l131 -156h-76l-105 86l-104 -86h-76zM198 59q0 -102 -24 -168t-71 -119h-119q53 60 80 127.5t27 162.5v638h107v-641z" />
    <glyph glyph-name="jcircumflex" unicode="&#x135;" 
d="M82 791h98l106 -187h-69l-87 112l-86 -112h-68zM182 16q-1 -86 -20.5 -140.5t-56.5 -103.5h-109q40 52 60.5 110.5t22.5 142.5v478l103 17v-504z" />
    <glyph glyph-name="uni0136" unicode="&#x136;" horiz-adv-x="698" 
d="M554 0l-356 344v-344h-107v700h107v-326l319 326h134l-337 -333l381 -367h-141zM292 -48h102q0 -55 -32.5 -108.5t-71.5 -77.5h-68q28 31 49 81.5t21 104.5z" />
    <glyph glyph-name="uni0137" unicode="&#x137;" horiz-adv-x="570" 
d="M438 0l-256 259v-259h-103v787l103 15v-519l231 230h123l-240 -235l271 -278h-129zM244 -48h102q0 -55 -32.5 -108.5t-71.5 -77.5h-68q28 31 49 81.5t21 104.5z" />
    <glyph glyph-name="kgreenlandic" unicode="&#x138;" horiz-adv-x="570" 
d="M438 0l-256 259v-259h-103v507l103 15v-239l232 230h122l-242 -236l273 -277h-129z" />
    <glyph glyph-name="Lacute" unicode="&#x139;" horiz-adv-x="579" 
d="M195 771h-87l122 156h155zM91 700h107v-610h339v-90h-446v700z" />
    <glyph glyph-name="lacute" unicode="&#x13a;" 
d="M172 833h-87l122 156h155zM79 0v787l103 15v-802h-103z" />
    <glyph glyph-name="uni013B" unicode="&#x13b;" horiz-adv-x="579" 
d="M91 700h107v-610h339v-90h-446v700zM264 -48h102q0 -55 -32.5 -108.5t-71.5 -77.5h-68q28 31 49 81.5t21 104.5z" />
    <glyph glyph-name="uni013C" unicode="&#x13c;" 
d="M79 0v787l103 15v-802h-103zM81 -48h102q0 -55 -32.5 -108.5t-71.5 -77.5h-68q28 31 49 81.5t21 104.5z" />
    <glyph glyph-name="Lcaron" unicode="&#x13d;" horiz-adv-x="579" 
d="M349 454l27 248h112l-76 -248h-63zM91 700h107v-610h339v-90h-446v700z" />
    <glyph glyph-name="lcaron" unicode="&#x13e;" horiz-adv-x="375" 
d="M79 0v787l103 15v-802h-103zM255 543l27 248h112l-76 -248h-63z" />
    <glyph glyph-name="Ldot" unicode="&#x13f;" horiz-adv-x="579" 
d="M91 700h107v-610h339v-90h-446v700zM365 400q0 27 18.5 46t46.5 19q29 0 47.5 -19t18.5 -46t-18.5 -46t-47.5 -19q-28 0 -46.5 19t-18.5 46z" />
    <glyph glyph-name="ldot" unicode="&#x140;" horiz-adv-x="399" 
d="M79 0v787l103 15v-802h-103zM271 387q0 27 18.5 46t46.5 19q29 0 47.5 -19t18.5 -46t-18.5 -46t-47.5 -19q-28 0 -46.5 19t-18.5 46z" />
    <glyph glyph-name="Lslash" unicode="&#x141;" horiz-adv-x="588" 
d="M546 0h-446v274l-79 -42v93l79 43v332h107v-283l174 94v-93l-174 -94v-234h339v-90z" />
    <glyph glyph-name="lslash" unicode="&#x142;" horiz-adv-x="302" 
d="M200 0h-103v320l-91 -57v89l91 57v378l103 15v-337l96 59v-88l-96 -60v-376z" />
    <glyph glyph-name="Nacute" unicode="&#x143;" horiz-adv-x="760" 
d="M419 771h-87l122 156h155zM576 0l-382 545v-545h-103v700h108l367 -534v534h103v-700h-93z" />
    <glyph glyph-name="nacute" unicode="&#x144;" horiz-adv-x="602" 
d="M336 604h-65l68 187h128zM79 503l103 17v-57q79 61 174 61q84 0 128.5 -46.5t44.5 -127.5v-350h-104v324q0 54 -24 82t-80 28q-71 0 -139 -43v-391h-103v503z" />
    <glyph glyph-name="uni0145" unicode="&#x145;" horiz-adv-x="760" 
d="M576 0l-382 545v-545h-103v700h108l367 -534v534h103v-700h-93zM330 -48h102q0 -55 -32.5 -108.5t-71.5 -77.5h-68q28 31 49 81.5t21 104.5z" />
    <glyph glyph-name="uni0146" unicode="&#x146;" horiz-adv-x="602" 
d="M79 503l103 17v-57q79 61 174 61q84 0 128.5 -46.5t44.5 -127.5v-350h-104v324q0 54 -24 82t-80 28q-71 0 -139 -43v-391h-103v503zM262 -48h102q0 -55 -32.5 -108.5t-71.5 -77.5h-68q28 31 49 81.5t21 104.5z" />
    <glyph glyph-name="Ncaron" unicode="&#x147;" horiz-adv-x="760" 
d="M429 775h-98l-132 157h76l104 -86l105 86h76zM576 0l-382 545v-545h-103v700h108l367 -534v534h103v-700h-93z" />
    <glyph glyph-name="ncaron" unicode="&#x148;" horiz-adv-x="602" 
d="M360 604h-98l-106 187h68l86 -113l87 113h69zM79 503l103 17v-57q79 61 174 61q84 0 128.5 -46.5t44.5 -127.5v-350h-104v324q0 54 -24 82t-80 28q-71 0 -139 -43v-391h-103v503z" />
    <glyph glyph-name="Eng" unicode="&#x14a;" horiz-adv-x="760" 
d="M591 -228h-108q77 99 83 242l-372 530v-544h-103v700h108l367 -533v533h103v-684q-1 -85 -21 -140t-57 -104z" />
    <glyph glyph-name="eng" unicode="&#x14b;" horiz-adv-x="602" 
d="M342 -228q40 53 61 111t22 142v299q0 54 -24 82t-80 28q-71 0 -139 -43v-391h-103v503l103 17v-57q79 61 174 61q84 0 128.5 -46.5t44.5 -127.5v-334q-2 -86 -21.5 -140.5t-56.5 -103.5h-109z" />
    <glyph glyph-name="Omacron" unicode="&#x14c;" horiz-adv-x="766" 
d="M549 794h-330v79h330v-79zM37 350q0 158 101 259.5t245 101.5t245 -101.5t101 -259.5t-101 -259.5t-245 -101.5t-245 101.5t-101 259.5zM619 350q0 118 -66 191t-170 73t-170 -73t-66 -191t66 -191t170 -73t170 73t66 191z" />
    <glyph glyph-name="omacron" unicode="&#x14d;" horiz-adv-x="571" 
d="M435 648h-299v78h299v-78zM36 256q0 117 72.5 192.5t176.5 75.5t177 -75t73 -193q0 -117 -73 -192t-177 -75t-176.5 75t-72.5 192zM433 256q0 79 -40.5 129t-107.5 50t-107 -50t-40 -129q0 -78 40 -128t107 -50t107.5 50t40.5 128z" />
    <glyph glyph-name="Obreve" unicode="&#x14e;" horiz-adv-x="766" 
d="M383 767q-72 0 -119 42t-47 118h69q2 -41 29.5 -62.5t67.5 -21.5q42 0 69.5 21.5t28.5 62.5h69q0 -76 -47 -118t-120 -42zM37 350q0 158 101 259.5t245 101.5t245 -101.5t101 -259.5t-101 -259.5t-245 -101.5t-245 101.5t-101 259.5zM619 350q0 118 -66 191t-170 73
t-170 -73t-66 -191t66 -191t170 -73t170 73t66 191z" />
    <glyph glyph-name="obreve" unicode="&#x14f;" horiz-adv-x="571" 
d="M285 604q-68 0 -109 51.5t-41 135.5h68q2 -52 23.5 -81.5t58.5 -29.5q38 0 59.5 29.5t23.5 81.5h69q0 -84 -41 -135.5t-111 -51.5zM36 256q0 117 72.5 192.5t176.5 75.5t177 -75t73 -193q0 -117 -73 -192t-177 -75t-176.5 75t-72.5 192zM433 256q0 79 -40.5 129
t-107.5 50t-107 -50t-40 -129q0 -78 40 -128t107 -50t107.5 50t40.5 128z" />
    <glyph glyph-name="Ohungarumlaut" unicode="&#x150;" horiz-adv-x="766" 
d="M431 771l107 156h121l-156 -156h-72zM245 771l106 156h122l-157 -156h-71zM37 350q0 158 101 259.5t245 101.5t245 -101.5t101 -259.5t-101 -259.5t-245 -101.5t-245 101.5t-101 259.5zM619 350q0 118 -66 191t-170 73t-170 -73t-66 -191t66 -191t170 -73t170 73t66 191z
" />
    <glyph glyph-name="ohungarumlaut" unicode="&#x151;" horiz-adv-x="571" 
d="M338 604l67 187h114l-118 -187h-63zM157 604l67 187h114l-118 -187h-63zM36 256q0 117 72.5 192.5t176.5 75.5t177 -75t73 -193q0 -117 -73 -192t-177 -75t-176.5 75t-72.5 192zM433 256q0 79 -40.5 129t-107.5 50t-107 -50t-40 -129q0 -78 40 -128t107 -50t107.5 50
t40.5 128z" />
    <glyph glyph-name="OE" unicode="&#x152;" horiz-adv-x="1059" 
d="M412 0q-161 0 -268 95t-107 255t107 255t268 95h569v-89h-333v-210h302v-89h-302v-222h345v-90h-581zM542 611h-128q-116 0 -191.5 -71t-75.5 -190q0 -120 75 -190t192 -70h128v521z" />
    <glyph glyph-name="oe" unicode="&#x153;" horiz-adv-x="924" 
d="M867 23q-72 -34 -159 -34q-71 0 -129 30.5t-95 83.5q-33 -53 -86 -83.5t-113 -30.5q-104 0 -176.5 75.5t-72.5 192.5t72.5 192t176.5 75q59 0 111 -29t85 -80q33 50 82 79.5t109 29.5q117 0 170.5 -80.5t44.5 -200.5h-357q7 -77 59 -122t130 -45q82 0 148 34v-87z
M671 442q-53 0 -90.5 -34.5t-47.5 -96.5h254q0 57 -29 94t-87 37zM434 257q0 79 -40.5 128.5t-108.5 49.5q-67 0 -107 -49.5t-40 -128.5t40 -129t107 -50t108 50t41 129z" />
    <glyph glyph-name="Racute" unicode="&#x154;" horiz-adv-x="676" 
d="M356 771h-87l122 156h155zM198 610v-246h166q43 12 71.5 44t28.5 85q0 56 -39.5 86.5t-111.5 30.5h-115zM674 0h-133q-102 104 -208 278h-135v-278h-107v700h225q124 0 191.5 -53.5t67.5 -152.5q0 -68 -39.5 -118.5t-99.5 -73.5q41 -69 109 -155t129 -147z" />
    <glyph glyph-name="racute" unicode="&#x155;" horiz-adv-x="403" 
d="M270 604h-65l68 187h128zM182 0h-103v503l103 17v-90q89 107 203 89v-104q-118 26 -203 -66v-349z" />
    <glyph glyph-name="uni0156" unicode="&#x156;" horiz-adv-x="676" 
d="M198 610v-246h166q43 12 71.5 44t28.5 85q0 56 -39.5 86.5t-111.5 30.5h-115zM674 0h-133q-102 104 -208 278h-135v-278h-107v700h225q124 0 191.5 -53.5t67.5 -152.5q0 -68 -39.5 -118.5t-99.5 -73.5q41 -69 109 -155t129 -147zM277 -48h102q0 -55 -32.5 -108.5
t-71.5 -77.5h-68q28 31 49 81.5t21 104.5z" />
    <glyph glyph-name="uni0157" unicode="&#x157;" horiz-adv-x="403" 
d="M182 0h-103v503l103 17v-90q89 107 203 89v-104q-118 26 -203 -66v-349zM80 -48h102q0 -55 -32.5 -108.5t-71.5 -77.5h-68q28 31 49 81.5t21 104.5z" />
    <glyph glyph-name="Rcaron" unicode="&#x158;" horiz-adv-x="676" 
d="M366 775h-98l-132 157h76l104 -86l105 86h76zM198 610v-246h166q43 12 71.5 44t28.5 85q0 56 -39.5 86.5t-111.5 30.5h-115zM674 0h-133q-102 104 -208 278h-135v-278h-107v700h225q124 0 191.5 -53.5t67.5 -152.5q0 -68 -39.5 -118.5t-99.5 -73.5q41 -69 109 -155
t129 -147z" />
    <glyph glyph-name="rcaron" unicode="&#x159;" horiz-adv-x="403" 
d="M294 604h-98l-106 187h68l86 -113l87 113h69zM182 0h-103v503l103 17v-90q89 107 203 89v-104q-118 26 -203 -66v-349z" />
    <glyph glyph-name="Sacute" unicode="&#x15a;" horiz-adv-x="568" 
d="M352 771h-87l122 156h155zM31 47v105q104 -70 225 -70q71 0 114 28.5t43 79.5q0 33 -26 58.5t-65 39.5t-84.5 33.5t-84.5 40t-65 59t-26 90.5q0 86 69.5 143t172.5 57q102 0 184 -43v-102q-86 53 -180 53q-62 0 -100.5 -28t-38.5 -75q0 -38 36.5 -65t88.5 -45.5t104 -41
t88.5 -65.5t36.5 -104q0 -90 -76 -148t-190 -58q-62 0 -123.5 15.5t-102.5 42.5z" />
    <glyph glyph-name="sacute" unicode="&#x15b;" horiz-adv-x="460" 
d="M268 604h-65l68 187h128zM40 28v93q74 -50 168 -50q44 0 72 18.5t28 49.5q0 26 -26 44.5t-62.5 31.5t-73 29.5t-62.5 48.5t-26 79q0 66 52 109t133 43q71 0 137 -30v-91q-66 39 -130 39q-42 0 -66.5 -18t-24.5 -48q0 -26 26 -44.5t62.5 -31.5t73.5 -29t63 -47.5t26 -77.5
q0 -72 -58 -114.5t-143 -42.5q-101 0 -169 39z" />
    <glyph glyph-name="Scircumflex" unicode="&#x15c;" horiz-adv-x="568" 
d="M259 927h98l131 -156h-76l-105 86l-104 -86h-76zM31 47v105q104 -70 225 -70q71 0 114 28.5t43 79.5q0 33 -26 58.5t-65 39.5t-84.5 33.5t-84.5 40t-65 59t-26 90.5q0 86 69.5 143t172.5 57q102 0 184 -43v-102q-86 53 -180 53q-62 0 -100.5 -28t-38.5 -75
q0 -38 36.5 -65t88.5 -45.5t104 -41t88.5 -65.5t36.5 -104q0 -90 -76 -148t-190 -58q-62 0 -123.5 15.5t-102.5 42.5z" />
    <glyph glyph-name="scircumflex" unicode="&#x15d;" horiz-adv-x="460" 
d="M194 791h98l106 -187h-69l-87 112l-86 -112h-68zM40 28v93q74 -50 168 -50q44 0 72 18.5t28 49.5q0 26 -26 44.5t-62.5 31.5t-73 29.5t-62.5 48.5t-26 79q0 66 52 109t133 43q71 0 137 -30v-91q-66 39 -130 39q-42 0 -66.5 -18t-24.5 -48q0 -26 26 -44.5t62.5 -31.5
t73.5 -29t63 -47.5t26 -77.5q0 -72 -58 -114.5t-143 -42.5q-101 0 -169 39z" />
    <glyph glyph-name="uni015E" unicode="&#x15e;" horiz-adv-x="568" 
d="M230 -239q-64 0 -102 25v61q44 -26 98 -26q29 0 47 10.5t18 29.5q0 44 -95 44l31 85q-123 8 -196 57v105q104 -70 225 -70q71 0 114 28.5t43 79.5q0 33 -26 58.5t-65 39.5t-84.5 33.5t-84.5 40t-65 59t-26 90.5q0 86 69.5 143t172.5 57q102 0 184 -43v-102
q-86 53 -180 53q-62 0 -100.5 -28t-38.5 -75q0 -38 36.5 -65t88.5 -45.5t104 -41t88.5 -65.5t36.5 -104q0 -87 -71 -144t-179 -62l-14 -41q46 -6 73.5 -28.5t27.5 -59.5q0 -45 -39 -72t-91 -27z" />
    <glyph glyph-name="uni015F" unicode="&#x15f;" horiz-adv-x="460" 
d="M186 -239q-64 0 -102 25v61q44 -26 98 -26q29 0 47 10.5t18 29.5q0 44 -95 44l30 85q-83 4 -142 38v93q74 -50 168 -50q44 0 72 18.5t28 49.5q0 26 -26 44.5t-62.5 31.5t-73 29.5t-62.5 48.5t-26 79q0 66 52 109t133 43q71 0 137 -30v-91q-66 39 -130 39q-42 0 -66.5 -18
t-24.5 -48q0 -26 26 -44.5t62.5 -31.5t73.5 -29t63 -47.5t26 -77.5q0 -67 -51 -109t-129 -47l-15 -42q46 -6 73.5 -28.5t27.5 -59.5q0 -45 -39 -72t-91 -27z" />
    <glyph glyph-name="Scaron" unicode="&#x160;" horiz-adv-x="568" 
d="M357 775h-98l-132 157h76l104 -86l105 86h76zM31 47v105q104 -70 225 -70q71 0 114 28.5t43 79.5q0 33 -26 58.5t-65 39.5t-84.5 33.5t-84.5 40t-65 59t-26 90.5q0 86 69.5 143t172.5 57q102 0 184 -43v-102q-86 53 -180 53q-62 0 -100.5 -28t-38.5 -75q0 -38 36.5 -65
t88.5 -45.5t104 -41t88.5 -65.5t36.5 -104q0 -90 -76 -148t-190 -58q-62 0 -123.5 15.5t-102.5 42.5z" />
    <glyph glyph-name="scaron" unicode="&#x161;" horiz-adv-x="460" 
d="M292 604h-98l-106 187h68l86 -113l87 113h69zM40 28v93q74 -50 168 -50q44 0 72 18.5t28 49.5q0 26 -26 44.5t-62.5 31.5t-73 29.5t-62.5 48.5t-26 79q0 66 52 109t133 43q71 0 137 -30v-91q-66 39 -130 39q-42 0 -66.5 -18t-24.5 -48q0 -26 26 -44.5t62.5 -31.5
t73.5 -29t63 -47.5t26 -77.5q0 -72 -58 -114.5t-143 -42.5q-101 0 -169 39z" />
    <glyph glyph-name="Tcommaaccent" unicode="&#x162;" horiz-adv-x="680" 
d="M319 -239q-65 0 -102 25v61q44 -26 98 -26q29 0 47 10.5t18 29.5q0 44 -95 44l34 95h-32v610h-260v90h626v-90h-259v-610h-28l-18 -52q46 -6 73.5 -28.5t27.5 -59.5q0 -45 -39 -72t-91 -27z" />
    <glyph glyph-name="tcommaaccent" unicode="&#x163;" horiz-adv-x="425" 
d="M219 -239q-65 0 -102 25v61q44 -26 98 -26q29 0 47 10.5t18 29.5q0 44 -95 44l32 90q-55 10 -89 48t-34 104v286h-75v80h75v111l104 16v-127h178l-14 -80h-164v-274q0 -40 22 -60t59 -20q63 0 119 23v-85q-57 -27 -133 -27h-2l-15 -42q46 -6 73.5 -28.5t27.5 -59.5
q0 -45 -39 -72t-91 -27z" />
    <glyph glyph-name="Tcaron" unicode="&#x164;" horiz-adv-x="680" 
d="M389 775h-98l-132 157h76l104 -86l105 86h76zM27 610v90h626v-90h-259v-610h-107v610h-260z" />
    <glyph glyph-name="tcaron" unicode="&#x165;" horiz-adv-x="425" 
d="M251 571l27 248h112l-76 -248h-63zM19 513h75v111l104 16v-127h178l-14 -80h-164v-274q0 -40 22 -60t59 -20q63 0 119 23v-85q-57 -27 -133 -27q-74 0 -122.5 38.5t-48.5 118.5v286h-75v80z" />
    <glyph glyph-name="Tbar" unicode="&#x166;" horiz-adv-x="680" 
d="M524 310h-130v-310h-107v310h-130v90h130v210h-260v90h626v-90h-259v-210h130v-90z" />
    <glyph glyph-name="tbar" unicode="&#x167;" horiz-adv-x="431" 
d="M401 17q-55 -27 -133 -27q-73 0 -122 39t-49 118v107h-73v74h73v109h-74v76h74v111l104 16v-127h178l-14 -76h-164v-109h173l-13 -74h-160v-95q0 -40 22.5 -60t59.5 -20q64 0 118 23v-85z" />
    <glyph glyph-name="Utilde" unicode="&#x168;" horiz-adv-x="731" 
d="M437 768q-24 0 -51.5 23l-52.5 45.5t-43 22.5q-22 0 -32 -22.5t-15 -65.5h-64q2 74 32.5 123t82.5 49q30 0 78.5 -45t68.5 -45q22 0 32 22t15 66h64q-2 -74 -32.5 -123.5t-82.5 -49.5zM365 -11q-134 0 -215.5 80t-81.5 227v404h108v-395q0 -108 50 -163t139 -55t139.5 55
t50.5 163v395h107v-404q0 -147 -81.5 -227t-215.5 -80z" />
    <glyph glyph-name="utilde" unicode="&#x169;" horiz-adv-x="593" 
d="M362 617q-30 0 -73.5 45.5t-63.5 45.5q-22 0 -31.5 -22t-14.5 -66h-63q2 73 32.5 122.5t81.5 49.5q24 0 49 -22.5t47 -45t40 -22.5q22 0 31.5 22t14.5 66h63q-2 -74 -32 -123.5t-81 -49.5zM513 513v-503l-104 -16v56q-72 -61 -167 -61q-81 0 -125 47t-44 127v350h103
v-324q0 -54 23 -82.5t77 -28.5q63 0 133 43v392h104z" />
    <glyph glyph-name="Umacron" unicode="&#x16a;" horiz-adv-x="731" 
d="M531 794h-330v79h330v-79zM365 -11q-134 0 -215.5 80t-81.5 227v404h108v-395q0 -108 50 -163t139 -55t139.5 55t50.5 163v395h107v-404q0 -147 -81.5 -227t-215.5 -80z" />
    <glyph glyph-name="umacron" unicode="&#x16b;" horiz-adv-x="593" 
d="M442 648h-299v78h299v-78zM513 513v-503l-104 -16v56q-72 -61 -167 -61q-81 0 -125 47t-44 127v350h103v-324q0 -54 23 -82.5t77 -28.5q63 0 133 43v392h104z" />
    <glyph glyph-name="Ubreve" unicode="&#x16c;" horiz-adv-x="731" 
d="M365 767q-72 0 -119 42t-47 118h69q2 -41 29.5 -62.5t67.5 -21.5q42 0 69.5 21.5t28.5 62.5h69q0 -76 -47 -118t-120 -42zM365 -11q-134 0 -215.5 80t-81.5 227v404h108v-395q0 -108 50 -163t139 -55t139.5 55t50.5 163v395h107v-404q0 -147 -81.5 -227t-215.5 -80z" />
    <glyph glyph-name="ubreve" unicode="&#x16d;" horiz-adv-x="593" 
d="M292 604q-68 0 -109 51.5t-41 135.5h68q2 -52 23.5 -81.5t58.5 -29.5q38 0 59.5 29.5t23.5 81.5h69q0 -84 -41 -135.5t-111 -51.5zM513 513v-503l-104 -16v56q-72 -61 -167 -61q-81 0 -125 47t-44 127v350h103v-324q0 -54 23 -82.5t77 -28.5q63 0 133 43v392h104z" />
    <glyph glyph-name="Uring" unicode="&#x16e;" horiz-adv-x="731" 
d="M365 743q-49 0 -85.5 37t-36.5 88q0 50 36.5 86t85.5 36q51 0 87.5 -35.5t36.5 -86.5q0 -52 -36.5 -88.5t-87.5 -36.5zM365 802q28 0 46.5 19t18.5 47q0 26 -19 45t-46 19q-25 0 -43.5 -19t-18.5 -45q0 -28 18 -47t44 -19zM365 -11q-134 0 -215.5 80t-81.5 227v404h108
v-395q0 -108 50 -163t139 -55t139.5 55t50.5 163v395h107v-404q0 -147 -81.5 -227t-215.5 -80z" />
    <glyph glyph-name="uring" unicode="&#x16f;" horiz-adv-x="593" 
d="M404 700q0 -46 -33 -78.5t-79 -32.5q-44 0 -77 33t-33 78t33 77.5t77 32.5q46 0 79 -32t33 -78zM235 700q0 -23 17 -41t40 -18q25 0 42 17.5t17 41.5t-17 41.5t-42 17.5q-23 0 -40 -17.5t-17 -41.5zM513 513v-503l-104 -16v56q-72 -61 -167 -61q-81 0 -125 47t-44 127
v350h103v-324q0 -54 23 -82.5t77 -28.5q63 0 133 43v392h104z" />
    <glyph glyph-name="Uhungarumlaut" unicode="&#x170;" horiz-adv-x="731" 
d="M414 771l107 156h121l-156 -156h-72zM228 771l106 156h122l-157 -156h-71zM365 -11q-134 0 -215.5 80t-81.5 227v404h108v-395q0 -108 50 -163t139 -55t139.5 55t50.5 163v395h107v-404q0 -147 -81.5 -227t-215.5 -80z" />
    <glyph glyph-name="uhungarumlaut" unicode="&#x171;" horiz-adv-x="593" 
d="M345 604l67 187h114l-118 -187h-63zM164 604l67 187h114l-118 -187h-63zM513 513v-503l-104 -16v56q-72 -61 -167 -61q-81 0 -125 47t-44 127v350h103v-324q0 -54 23 -82.5t77 -28.5q63 0 133 43v392h104z" />
    <glyph glyph-name="Uogonek" unicode="&#x172;" horiz-adv-x="731" 
d="M464 -239q-41 0 -71 24t-30 70q0 72 71 140q-33 -6 -69 -6q-134 0 -215.5 80t-81.5 227v404h108v-395q0 -108 50 -163t139 -55t139.5 55t50.5 163v395h107v-404q0 -165 -111 -254q-114 -92 -114 -165q0 -22 12.5 -35t29.5 -13q18 0 31 6v-66q-21 -8 -46 -8z" />
    <glyph glyph-name="uogonek" unicode="&#x173;" horiz-adv-x="593" 
d="M439 -239q-41 0 -71 24t-30 70q0 72 71 140v55q-72 -61 -167 -61q-81 0 -125 47t-44 127v350h103v-324q0 -54 23 -82.5t77 -28.5q63 0 133 43v392h104v-503q-53 -23 -77.5 -62.5t-24.5 -71.5q0 -22 13 -34.5t31 -12.5q17 0 30 6v-66q-22 -8 -46 -8z" />
    <glyph glyph-name="Wcircumflex" unicode="&#x174;" horiz-adv-x="957" 
d="M429 927h98l131 -156h-76l-105 86l-104 -86h-76zM440 700h85l154 -539l160 539h100l-212 -700h-87l-161 547l-161 -547h-88l-213 700h109l159 -539z" />
    <glyph glyph-name="wcircumflex" unicode="&#x175;" horiz-adv-x="757" 
d="M330 791h98l106 -187h-69l-87 112l-86 -112h-68zM347 513h71l119 -381l116 381h96l-175 -516h-79l-117 373l-116 -373h-79l-175 516h105l118 -380z" />
    <glyph glyph-name="Ycircumflex" unicode="&#x176;" horiz-adv-x="702" 
d="M303 927h98l131 -156h-76l-105 86l-104 -86h-76zM406 304v-304h-108v304l-281 396h126l213 -304l210 304h119z" />
    <glyph glyph-name="ycircumflex" unicode="&#x177;" horiz-adv-x="534" 
d="M217 791h98l106 -187h-69l-87 112l-86 -112h-68zM219 38l-211 475h111l154 -368l152 368h101l-224 -508q-60 -136 -117 -190t-146 -54q-32 0 -51 9v83q21 -7 46 -7q61 0 99 39.5t86 152.5z" />
    <glyph glyph-name="Ydieresis" unicode="&#x178;" horiz-adv-x="702" 
d="M193 849q0 25 18 43t45 18q26 0 43.5 -18t17.5 -43q0 -26 -17.5 -43.5t-43.5 -17.5q-27 0 -45 17.5t-18 43.5zM384 849q0 25 17.5 43t44.5 18q26 0 44 -18t18 -43q0 -26 -18 -43.5t-44 -17.5q-27 0 -44.5 17.5t-17.5 43.5zM406 304v-304h-108v304l-281 396h126l213 -304
l210 304h119z" />
    <glyph glyph-name="Zacute" unicode="&#x179;" horiz-adv-x="667" 
d="M387 771h-87l122 156h155zM622 90v-90h-575v69l421 541h-409v90h547v-73l-419 -537h435z" />
    <glyph glyph-name="zacute" unicode="&#x17a;" horiz-adv-x="501" 
d="M283 604h-65l68 187h128zM479 80l-16 -80h-425v60l282 373h-273v80h410v-59l-285 -374h307z" />
    <glyph glyph-name="Zdotaccent" unicode="&#x17b;" horiz-adv-x="667" 
d="M282 853q0 27 18.5 45.5t46.5 18.5q29 0 47.5 -18.5t18.5 -45.5t-18.5 -46t-47.5 -19q-28 0 -46.5 19t-18.5 46zM622 90v-90h-575v69l421 541h-409v90h547v-73l-419 -537h435z" />
    <glyph glyph-name="zdotaccent" unicode="&#x17c;" horiz-adv-x="501" 
d="M193 703q0 27 18.5 46t46.5 19q29 0 47.5 -19t18.5 -46t-18.5 -46t-47.5 -19q-28 0 -46.5 19t-18.5 46zM479 80l-16 -80h-425v60l282 373h-273v80h410v-59l-285 -374h307z" />
    <glyph glyph-name="Zcaron" unicode="&#x17d;" horiz-adv-x="667" 
d="M397 775h-98l-132 157h76l104 -86l105 86h76zM622 90v-90h-575v69l421 541h-409v90h547v-73l-419 -537h435z" />
    <glyph glyph-name="zcaron" unicode="&#x17e;" horiz-adv-x="501" 
d="M308 604h-98l-106 187h68l86 -113l87 113h69zM479 80l-16 -80h-425v60l282 373h-273v80h410v-59l-285 -374h307z" />
    <glyph glyph-name="uni0192" unicode="&#x192;" horiz-adv-x="582" 
d="M474 319h-381l23 75h119l17 84q48 233 231 233q42 0 71 -11v-84q-28 8 -60 8q-115 0 -143 -148l-17 -82h161zM212 254h100l-26 -134q-24 -112 -83.5 -172.5t-150.5 -60.5q-37 0 -73 12v84q28 -8 62 -8q117 0 145 147z" />
    <glyph glyph-name="AEacute" unicode="&#x1fc;" horiz-adv-x="1067" 
d="M771 771h-87l122 156h155zM548 310v321l-213 -321h213zM548 0v223h-271l-148 -223h-112l466 700h505v-89h-333v-210h302v-89h-302v-222h346v-90h-453z" />
    <glyph glyph-name="aeacute" unicode="&#x1fd;" horiz-adv-x="838" 
d="M447 604h-65l68 187h128zM620 -11q-72 0 -130 29t-94 80q-77 -109 -205 -109q-65 0 -107.5 38.5t-42.5 101.5q0 80 79 128.5t227 53.5v26q0 98 -108 98q-83 0 -169 -50v88q35 23 84.5 37t94.5 14q126 0 167 -85q68 85 171 85q115 0 169 -80.5t44 -200.5h-357
q7 -77 59 -122t129 -45q83 0 149 34v-87q-72 -34 -160 -34zM584 442q-53 0 -90.5 -34.5t-47.5 -96.5h253q1 57 -28 94t-87 37zM216 68q89 0 149 88q-15 40 -18 87h-3q-204 -8 -204 -106q0 -31 20.5 -50t55.5 -19z" />
    <glyph glyph-name="Oslashacute" unicode="&#x1fe;" horiz-adv-x="766" 
d="M422 771h-87l122 156h155zM144 350q0 -110 59 -182l305 415q-56 34 -125 34q-105 0 -172 -74t-67 -193zM383 84q105 0 172 74t67 192q0 109 -58 183l-306 -415q56 -34 125 -34zM383 -11q-100 0 -183 51l-56 -76h-91l90 122q-106 103 -106 264q0 158 101 259.5t245 101.5
q100 0 182 -51l57 78h93l-91 -124q105 -103 105 -264q0 -158 -101 -259.5t-245 -101.5z" />
    <glyph glyph-name="oslashacute" unicode="&#x1ff;" horiz-adv-x="571" 
d="M310 604h-65l68 187h128zM133 256q0 -71 32 -118l193 283q-33 19 -73 19q-68 0 -110 -52t-42 -132zM285 73q69 0 111 51.5t42 131.5q0 71 -33 120l-193 -283q32 -20 73 -20zM285 -11q-67 0 -122 32l-39 -57h-77l65 96q-76 78 -76 196q0 117 72.5 192.5t176.5 75.5
q65 0 121 -31l39 57h78l-66 -96q78 -76 78 -198q0 -117 -73 -192t-177 -75z" />
    <glyph glyph-name="uni0218" unicode="&#x218;" horiz-adv-x="568" 
d="M31 47v105q104 -70 225 -70q71 0 114 28.5t43 79.5q0 33 -26 58.5t-65 39.5t-84.5 33.5t-84.5 40t-65 59t-26 90.5q0 86 69.5 143t172.5 57q102 0 184 -43v-102q-86 53 -180 53q-62 0 -100.5 -28t-38.5 -75q0 -38 36.5 -65t88.5 -45.5t104 -41t88.5 -65.5t36.5 -104
q0 -90 -76 -148t-190 -58q-62 0 -123.5 15.5t-102.5 42.5zM215 -48h102q0 -55 -32.5 -108.5t-71.5 -77.5h-68q28 31 49 81.5t21 104.5z" />
    <glyph glyph-name="uni0219" unicode="&#x219;" horiz-adv-x="460" 
d="M40 28v93q74 -50 168 -50q44 0 72 18.5t28 49.5q0 26 -26 44.5t-62.5 31.5t-73 29.5t-62.5 48.5t-26 79q0 66 52 109t133 43q71 0 137 -30v-91q-66 39 -130 39q-42 0 -66.5 -18t-24.5 -48q0 -26 26 -44.5t62.5 -31.5t73.5 -29t63 -47.5t26 -77.5q0 -72 -58 -114.5
t-143 -42.5q-101 0 -169 39zM163 -48h102q0 -55 -32.5 -108.5t-71.5 -77.5h-68q28 31 49 81.5t21 104.5z" />
    <glyph glyph-name="uni021A" unicode="&#x21a;" horiz-adv-x="680" 
d="M27 610v90h626v-90h-259v-610h-107v610h-260zM291 -48h102q0 -55 -32.5 -108.5t-71.5 -77.5h-68q28 31 49 81.5t21 104.5z" />
    <glyph glyph-name="uni021B" unicode="&#x21b;" horiz-adv-x="425" 
d="M19 513h75v111l104 16v-127h178l-14 -80h-164v-274q0 -40 22 -60t59 -20q63 0 119 23v-85q-57 -27 -133 -27q-74 0 -122.5 38.5t-48.5 118.5v286h-75v80zM200 -48h102q0 -55 -32.5 -108.5t-71.5 -77.5h-68q28 31 49 81.5t21 104.5z" />
    <glyph glyph-name="uni0237" unicode="&#x237;" 
d="M182 16q-1 -86 -20.5 -140.5t-56.5 -103.5h-109q40 52 60.5 110.5t22.5 142.5v478l103 17v-504z" />
    <glyph glyph-name="circumflex" unicode="&#x2c6;" horiz-adv-x="530" 
d="M217 791h98l106 -187h-69l-87 112l-86 -112h-68z" />
    <glyph glyph-name="caron" unicode="&#x2c7;" horiz-adv-x="530" 
d="M315 604h-98l-106 187h68l86 -113l87 113h69z" />
    <glyph glyph-name="breve" unicode="&#x2d8;" horiz-adv-x="530" 
d="M264 604q-68 0 -109 51.5t-41 135.5h68q2 -52 23.5 -81.5t58.5 -29.5q38 0 59.5 29.5t23.5 81.5h69q0 -84 -41 -135.5t-111 -51.5z" />
    <glyph glyph-name="dotaccent" unicode="&#x2d9;" horiz-adv-x="530" 
d="M199 703q0 27 18.5 46t46.5 19q29 0 47.5 -19t18.5 -46t-18.5 -46t-47.5 -19q-28 0 -46.5 19t-18.5 46z" />
    <glyph glyph-name="ring" unicode="&#x2da;" horiz-adv-x="530" 
d="M363 700q0 -46 -33 -78.5t-79 -32.5q-44 0 -77 33t-33 78t33 77.5t77 32.5q46 0 79 -32t33 -78zM194 700q0 -23 17 -41t40 -18q25 0 42 17.5t17 41.5t-17 41.5t-42 17.5q-23 0 -40 -17.5t-17 -41.5z" />
    <glyph glyph-name="ogonek" unicode="&#x2db;" horiz-adv-x="530" 
d="M348 37l29 -30q-78 -75 -78 -131q0 -22 13 -34.5t31 -12.5q17 0 30 6v-66q-22 -8 -46 -8q-41 0 -71 24t-30 70q0 51 30 93.5t92 88.5z" />
    <glyph glyph-name="tilde" unicode="&#x2dc;" horiz-adv-x="530" 
d="M334 617q-30 0 -73.5 45.5t-63.5 45.5q-22 0 -31.5 -22t-14.5 -66h-63q2 73 32.5 122.5t81.5 49.5q24 0 49 -22.5t47 -45t40 -22.5q22 0 31.5 22t14.5 66h63q-2 -74 -32 -123.5t-81 -49.5z" />
    <glyph glyph-name="hungarumlaut" unicode="&#x2dd;" horiz-adv-x="530" 
d="M265 604l67 187h114l-118 -187h-63zM84 604l67 187h114l-118 -187h-63z" />
    <glyph glyph-name="Wgrave" unicode="&#x1e80;" horiz-adv-x="957" 
d="M530 771h-87l-190 156h155zM440 700h85l154 -539l160 539h100l-212 -700h-87l-161 547l-161 -547h-88l-213 700h109l159 -539z" />
    <glyph glyph-name="wgrave" unicode="&#x1e81;" horiz-adv-x="757" 
d="M418 604h-66l-129 187h128zM347 513h71l119 -381l116 381h96l-175 -516h-79l-117 373l-116 -373h-79l-175 516h105l118 -380z" />
    <glyph glyph-name="Wacute" unicode="&#x1e82;" horiz-adv-x="957" 
d="M517 771h-87l122 156h155zM440 700h85l154 -539l160 539h100l-212 -700h-87l-161 547l-161 -547h-88l-213 700h109l159 -539z" />
    <glyph glyph-name="wacute" unicode="&#x1e83;" horiz-adv-x="757" 
d="M403 604h-65l68 187h128zM347 513h71l119 -381l116 381h96l-175 -516h-79l-117 373l-116 -373h-79l-175 516h105l118 -380z" />
    <glyph glyph-name="Wdieresis" unicode="&#x1e84;" horiz-adv-x="957" 
d="M320 849q0 25 18 43t45 18q26 0 43.5 -18t17.5 -43q0 -26 -17.5 -43.5t-43.5 -17.5q-27 0 -45 17.5t-18 43.5zM511 849q0 25 17.5 43t44.5 18q26 0 44 -18t18 -43q0 -26 -18 -43.5t-44 -17.5q-27 0 -44.5 17.5t-17.5 43.5zM440 700h85l154 -539l160 539h100l-212 -700
h-87l-161 547l-161 -547h-88l-213 700h109l159 -539z" />
    <glyph glyph-name="wdieresis" unicode="&#x1e85;" horiz-adv-x="757" 
d="M221 704q0 25 18 42.5t45 17.5q26 0 43.5 -17.5t17.5 -42.5q0 -26 -17.5 -43.5t-43.5 -17.5q-27 0 -45 17.5t-18 43.5zM412 704q0 25 17.5 42.5t44.5 17.5q26 0 44 -17.5t18 -42.5q0 -26 -18 -43.5t-44 -17.5q-27 0 -44.5 17.5t-17.5 43.5zM347 513h71l119 -381l116 381
h96l-175 -516h-79l-117 373l-116 -373h-79l-175 516h105l118 -380z" />
    <glyph glyph-name="Ygrave" unicode="&#x1ef2;" horiz-adv-x="702" 
d="M403 771h-87l-190 156h155zM406 304v-304h-108v304l-281 396h126l213 -304l210 304h119z" />
    <glyph glyph-name="ygrave" unicode="&#x1ef3;" horiz-adv-x="534" 
d="M305 604h-66l-129 187h128zM219 38l-211 475h111l154 -368l152 368h101l-224 -508q-60 -136 -117 -190t-146 -54q-32 0 -51 9v83q21 -7 46 -7q61 0 99 39.5t86 152.5z" />
    <glyph glyph-name="endash" unicode="&#x2013;" horiz-adv-x="643" 
d="M70 240v84h503v-84h-503z" />
    <glyph glyph-name="emdash" unicode="&#x2014;" horiz-adv-x="1099" 
d="M70 240v84h959v-84h-959z" />
    <glyph glyph-name="quoteleft" unicode="&#x2018;" horiz-adv-x="255" 
d="M169 458h-107q0 69 29 140.5t60 109.5h71q-23 -45 -38 -114.5t-15 -135.5z" />
    <glyph glyph-name="quoteright" unicode="&#x2019;" horiz-adv-x="255" 
d="M86 708h106q0 -70 -29 -142t-60 -108h-70q22 45 37.5 114.5t15.5 135.5z" />
    <glyph glyph-name="quotesinglbase" unicode="&#x201a;" horiz-adv-x="255" 
d="M86 112h106q0 -70 -29 -142t-60 -109h-70q22 46 37.5 116t15.5 135z" />
    <glyph glyph-name="quotedblleft" unicode="&#x201c;" horiz-adv-x="442" 
d="M169 458h-107q0 69 29 140.5t60 109.5h71q-23 -45 -38 -114.5t-15 -135.5zM356 458h-107q0 69 29 140.5t60 109.5h71q-23 -45 -38 -114.5t-15 -135.5z" />
    <glyph glyph-name="quotedblright" unicode="&#x201d;" horiz-adv-x="442" 
d="M273 708h106q0 -70 -29 -142t-60 -108h-70q22 45 37.5 114.5t15.5 135.5zM86 708h106q0 -70 -29 -142t-60 -108h-70q22 45 37.5 114.5t15.5 135.5z" />
    <glyph glyph-name="quotedblbase" unicode="&#x201e;" horiz-adv-x="441" 
d="M273 112h106q0 -70 -29 -142t-60 -109h-70q22 46 37.5 116t15.5 135zM86 112h106q0 -70 -29 -142t-60 -109h-70q22 46 37.5 116t15.5 135z" />
    <glyph glyph-name="dagger" unicode="&#x2020;" horiz-adv-x="348" 
d="M214 555v-132h-82v131l18 75l-80 -18h-39v81h38l82 -18l-19 75v42h82v-43l-19 -74l84 18h37v-81h-38l-82 18z" />
    <glyph glyph-name="daggerdbl" unicode="&#x2021;" horiz-adv-x="348" 
d="M214 458v-35h-82v35l17 61l-80 -18h-38v75h39l74 -16v94l-74 -16h-39v74h38l80 -17l-17 61v35h82v-36l-17 -60l82 17h37v-74h-38l-76 16v-94l76 16h38v-75h-37l-82 18z" />
    <glyph glyph-name="bullet" unicode="&#x2022;" horiz-adv-x="476" 
d="M238 107q-69 0 -118.5 49.5t-49.5 118.5q0 70 49 119.5t119 49.5q69 0 118.5 -49.5t49.5 -119.5q0 -68 -49.5 -118t-118.5 -50z" />
    <glyph glyph-name="ellipsis" unicode="&#x2026;" horiz-adv-x="776" 
d="M580 67q0 29 21 50.5t51 21.5t51 -21.5t21 -50.5q0 -31 -21 -52.5t-51 -21.5t-51 21.5t-21 52.5zM316 67q0 29 21 50.5t51 21.5t51 -21.5t21 -50.5q0 -31 -21 -52.5t-51 -21.5t-51 21.5t-21 52.5zM53 67q0 29 21 50.5t51 21.5t51 -21.5t21 -50.5q0 -31 -21 -52.5
t-51 -21.5t-51 21.5t-21 52.5z" />
    <glyph glyph-name="guilsinglleft" unicode="&#x2039;" horiz-adv-x="330" 
d="M167 253l120 -208h-77l-167 208l167 210h77z" />
    <glyph glyph-name="guilsinglright" unicode="&#x203a;" horiz-adv-x="330" 
d="M43 45l120 208l-120 210h77l167 -210l-167 -208h-77z" />
    <glyph glyph-name="Euro" unicode="&#x20ac;" horiz-adv-x="598" 
d="M430 385h-395v71h65q25 119 111.5 187t207.5 68q73 0 136 -27v-93q-61 31 -131 31q-81 0 -138.5 -43t-78.5 -123h248zM555 17q-63 -28 -136 -28q-122 0 -208 67.5t-111 187.5h-65v70h377l-25 -70h-181q21 -80 79 -122.5t139 -42.5q73 0 131 31v-93z" />
    <glyph glyph-name="trademark" unicode="&#x2122;" horiz-adv-x="749" 
d="M202 368h-74v271h-99v62h272v-62h-99v-271zM545 446h-52l-56 161h-4l-19 -239h-70l30 333h90l54 -169h4l54 169h87l31 -333h-71l-18 239h-5z" />
    <glyph glyph-name="minus" unicode="&#x2212;" horiz-adv-x="601" 
d="M46 295v80h509v-80h-509z" />
    <glyph glyph-name="uni00200326" horiz-adv-x="438" 
d="M179 -48h102q0 -55 -32.5 -108.5t-71.5 -77.5h-68q28 31 49 81.5t21 104.5z" />
    <glyph glyph-name="uni00200326.alt" horiz-adv-x="438" 
d="M238 605h-101q0 55 32 108.5t71 77.5h68q-28 -31 -49 -81.5t-21 -104.5z" />
    <glyph glyph-name="i.dot" 
d="M65 703q0 27 18.5 46t46.5 19q29 0 47.5 -19t18.5 -46t-18.5 -46t-47.5 -19q-28 0 -46.5 19t-18.5 46zM79 0v503l103 17v-520h-103z" />
    <glyph glyph-name="f_f.short" horiz-adv-x="683" 
d="M198 0h-103v433h-73v80h73v24q0 115 60 181t162 66q40 0 74 -11v-82q-23 7 -59 7q-65 0 -99.5 -40.5t-34.5 -118.5v-26h231v44q0 112 58.5 178.5t155.5 66.5q31 0 51 -7v-83q-16 4 -36 4q-62 0 -94 -41t-32 -118v-44h163l-15 -80h-148v-433h-103v433h-231v-433z" />
    <glyph glyph-name="f.short" horiz-adv-x="349" 
d="M198 433v-433h-103v433h-73v80h73v44q0 112 58.5 178.5t155.5 66.5q31 0 51 -7v-83q-16 4 -36 4q-62 0 -94 -41t-32 -118v-44h163l-15 -80h-148z" />
    <glyph glyph-name="five.op" horiz-adv-x="524" 
d="M377 102q0 80 -73.5 120t-220.5 53l27 305h347v-90h-270l-9 -142q59 -7 109.5 -22.5t95.5 -43t71 -71.5t26 -101q0 -109 -84 -176t-202 -67q-110 0 -189 50v93q77 -54 181 -54q84 0 137.5 39.5t53.5 106.5z" />
    <glyph glyph-name="six.op" horiz-adv-x="587" 
d="M548 220q0 -103 -69.5 -167t-170.5 -64q-116 0 -192.5 91t-76.5 233q0 177 104 287.5t268 110.5q73 0 122 -22v-84q-49 19 -122 19q-116 0 -191.5 -79.5t-79.5 -219.5q30 47 82 75t106 28q92 0 156 -56.5t64 -151.5zM309 74q61 0 100 36.5t39 101.5q0 61 -39.5 98.5
t-102.5 37.5q-47 0 -90 -25t-72 -65q12 -88 57.5 -136t107.5 -48z" />
    <glyph glyph-name="eight.op" horiz-adv-x="577" 
d="M287 -11q-106 0 -179 56t-73 139q0 61 42.5 106.5t107.5 72.5q-112 60 -112 158q0 83 63 136.5t156 53.5q94 0 157 -49t63 -126q0 -53 -34.5 -95.5t-93.5 -69.5q33 -16 48 -24t41 -25.5t38 -34t22 -43t10 -57.5q0 -84 -73.5 -141t-182.5 -57zM264 427l62 -29
q90 55 90 128q0 49 -33 79.5t-91 30.5q-53 0 -86 -29.5t-33 -72.5q0 -38 22 -61t69 -46zM287 72q65 0 107.5 31t42.5 83q0 34 -27.5 58.5t-86.5 52.5l-79 37q-107 -48 -107 -139q0 -52 42.5 -87.5t107.5 -35.5z" />
    <glyph glyph-name="zero.op" horiz-adv-x="603" 
d="M302 -11q-110 0 -186.5 85t-76.5 216t76.5 216t186.5 85t186 -85t76 -216t-76 -216t-186 -85zM302 76q70 0 114.5 60t44.5 154t-44.5 154t-114.5 60q-71 0 -115.5 -60t-44.5 -154t45 -154t115 -60z" />
    <glyph glyph-name="nine.op" horiz-adv-x="587" 
d="M278 506q-61 0 -100 -36.5t-39 -101.5q0 -61 39.5 -98.5t102.5 -37.5q47 0 90 25t72 65q-12 88 -57.5 136t-107.5 48zM39 360q0 103 69.5 167t170.5 64q116 0 192.5 -91t76.5 -233q0 -177 -104 -287.5t-268 -110.5q-73 0 -122 22v84q49 -19 122 -19q116 0 191.5 79.5
t79.5 219.5q-30 -47 -82 -75t-106 -28q-92 0 -156 56.5t-64 151.5z" />
    <glyph glyph-name="two.op" horiz-adv-x="547" 
d="M367 398q0 47 -32 73t-88 26q-53 0 -107 -25.5t-95 -65.5v98q41 37 99.5 62t120.5 25q99 0 155.5 -50t56.5 -129q0 -85 -73 -160t-220 -164h327v-88h-475v74q185 121 258 188.5t73 135.5z" />
    <glyph glyph-name="seven.op" horiz-adv-x="528" 
d="M207 -122h-117q212 278 305 607h-376v95h484v-73q-28 -128 -117 -326t-179 -303z" />
    <glyph glyph-name="one.op" horiz-adv-x="415" 
d="M311 0h-104v463l-172 -61v85l228 98h48v-585z" />
    <glyph glyph-name="three.op" horiz-adv-x="541" 
d="M24 -84v93q76 -54 181 -54q82 0 135.5 40t53.5 105q0 132 -230 135v34l188 221h-301v90h415v-80l-176 -205q88 -11 149 -60t61 -131q0 -105 -84.5 -171t-202.5 -66q-109 0 -189 49z" />
    <glyph glyph-name="four.op" horiz-adv-x="604" 
d="M430 -122h-96v191h-307v66q34 102 108.5 233t149.5 212h120q-82 -87 -153.5 -204t-116.5 -227h199v171h96v-171h152v-80h-152v-191z" />
    </font>
</defs>
</svg>
